%TF.GenerationSoftware,KiCad,Pcbnew,7.0.6*%
%TF.CreationDate,2023-10-15T13:38:33+02:00*%
%TF.ProjectId,fx3lahw,6678336c-6168-4772-9e6b-696361645f70,rev?*%
%TF.SameCoordinates,Original*%
%TF.FileFunction,Paste,Top*%
%TF.FilePolarity,Positive*%
%FSLAX46Y46*%
G04 Gerber Fmt 4.6, Leading zero omitted, Abs format (unit mm)*
G04 Created by KiCad (PCBNEW 7.0.6) date 2023-10-15 13:38:33*
%MOMM*%
%LPD*%
G01*
G04 APERTURE LIST*
G04 Aperture macros list*
%AMRoundRect*
0 Rectangle with rounded corners*
0 $1 Rounding radius*
0 $2 $3 $4 $5 $6 $7 $8 $9 X,Y pos of 4 corners*
0 Add a 4 corners polygon primitive as box body*
4,1,4,$2,$3,$4,$5,$6,$7,$8,$9,$2,$3,0*
0 Add four circle primitives for the rounded corners*
1,1,$1+$1,$2,$3*
1,1,$1+$1,$4,$5*
1,1,$1+$1,$6,$7*
1,1,$1+$1,$8,$9*
0 Add four rect primitives between the rounded corners*
20,1,$1+$1,$2,$3,$4,$5,0*
20,1,$1+$1,$4,$5,$6,$7,0*
20,1,$1+$1,$6,$7,$8,$9,0*
20,1,$1+$1,$8,$9,$2,$3,0*%
G04 Aperture macros list end*
%ADD10RoundRect,0.140000X0.219203X0.021213X0.021213X0.219203X-0.219203X-0.021213X-0.021213X-0.219203X0*%
%ADD11RoundRect,0.135000X-0.135000X-0.185000X0.135000X-0.185000X0.135000X0.185000X-0.135000X0.185000X0*%
%ADD12RoundRect,0.140000X-0.140000X-0.170000X0.140000X-0.170000X0.140000X0.170000X-0.140000X0.170000X0*%
%ADD13RoundRect,0.140000X0.021213X-0.219203X0.219203X-0.021213X-0.021213X0.219203X-0.219203X0.021213X0*%
%ADD14R,1.500000X2.000000*%
%ADD15R,3.800000X2.000000*%
%ADD16RoundRect,0.150000X0.512500X0.150000X-0.512500X0.150000X-0.512500X-0.150000X0.512500X-0.150000X0*%
%ADD17R,0.300000X0.550000*%
%ADD18R,0.400000X0.550000*%
%ADD19RoundRect,0.150000X-0.512500X-0.150000X0.512500X-0.150000X0.512500X0.150000X-0.512500X0.150000X0*%
%ADD20C,0.320200*%
%ADD21RoundRect,0.135000X0.185000X-0.135000X0.185000X0.135000X-0.185000X0.135000X-0.185000X-0.135000X0*%
%ADD22RoundRect,0.140000X0.170000X-0.140000X0.170000X0.140000X-0.170000X0.140000X-0.170000X-0.140000X0*%
%ADD23RoundRect,0.135000X0.135000X0.185000X-0.135000X0.185000X-0.135000X-0.185000X0.135000X-0.185000X0*%
%ADD24RoundRect,0.100000X-0.100000X0.637500X-0.100000X-0.637500X0.100000X-0.637500X0.100000X0.637500X0*%
%ADD25R,0.500000X0.800000*%
%ADD26R,0.400000X0.800000*%
%ADD27RoundRect,0.200000X0.053033X-0.335876X0.335876X-0.053033X-0.053033X0.335876X-0.335876X0.053033X0*%
%ADD28RoundRect,0.225000X-0.017678X0.335876X-0.335876X0.017678X0.017678X-0.335876X0.335876X-0.017678X0*%
%ADD29R,2.000000X0.850000*%
%ADD30RoundRect,0.140000X-0.021213X0.219203X-0.219203X0.021213X0.021213X-0.219203X0.219203X-0.021213X0*%
%ADD31RoundRect,0.135000X-0.035355X0.226274X-0.226274X0.035355X0.035355X-0.226274X0.226274X-0.035355X0*%
%ADD32RoundRect,0.225000X0.225000X0.250000X-0.225000X0.250000X-0.225000X-0.250000X0.225000X-0.250000X0*%
%ADD33RoundRect,0.200000X0.200000X0.275000X-0.200000X0.275000X-0.200000X-0.275000X0.200000X-0.275000X0*%
%ADD34RoundRect,0.200000X-0.275000X0.200000X-0.275000X-0.200000X0.275000X-0.200000X0.275000X0.200000X0*%
%ADD35RoundRect,0.225000X-0.225000X-0.250000X0.225000X-0.250000X0.225000X0.250000X-0.225000X0.250000X0*%
%ADD36RoundRect,0.200000X0.335876X0.053033X0.053033X0.335876X-0.335876X-0.053033X-0.053033X-0.335876X0*%
%ADD37R,0.850000X2.000000*%
%ADD38RoundRect,0.225000X0.250000X-0.225000X0.250000X0.225000X-0.250000X0.225000X-0.250000X-0.225000X0*%
%ADD39RoundRect,0.135000X0.226274X0.035355X0.035355X0.226274X-0.226274X-0.035355X-0.035355X-0.226274X0*%
%ADD40RoundRect,0.225000X0.017678X-0.335876X0.335876X-0.017678X-0.017678X0.335876X-0.335876X0.017678X0*%
%ADD41RoundRect,0.225000X0.335876X0.017678X0.017678X0.335876X-0.335876X-0.017678X-0.017678X-0.335876X0*%
%ADD42RoundRect,0.250000X0.450000X-0.262500X0.450000X0.262500X-0.450000X0.262500X-0.450000X-0.262500X0*%
%ADD43R,0.740000X2.400000*%
%ADD44RoundRect,0.225000X-0.250000X0.225000X-0.250000X-0.225000X0.250000X-0.225000X0.250000X0.225000X0*%
%ADD45R,1.200000X1.400000*%
%ADD46RoundRect,0.135000X-0.185000X0.135000X-0.185000X-0.135000X0.185000X-0.135000X0.185000X0.135000X0*%
%ADD47RoundRect,0.150000X-0.468458X0.256326X0.256326X-0.468458X0.468458X-0.256326X-0.256326X0.468458X0*%
%ADD48RoundRect,0.140000X-0.219203X-0.021213X-0.021213X-0.219203X0.219203X0.021213X0.021213X0.219203X0*%
%ADD49RoundRect,0.150000X-0.150000X0.512500X-0.150000X-0.512500X0.150000X-0.512500X0.150000X0.512500X0*%
%ADD50RoundRect,0.200000X-0.335876X-0.053033X-0.053033X-0.335876X0.335876X0.053033X0.053033X0.335876X0*%
G04 APERTURE END LIST*
D10*
%TO.C,C13*%
X76989411Y-166989411D03*
X76310589Y-166310589D03*
%TD*%
D11*
%TO.C,R6*%
X103052500Y-169634000D03*
X104072500Y-169634000D03*
%TD*%
D12*
%TO.C,C1*%
X93720000Y-157300000D03*
X94680000Y-157300000D03*
%TD*%
D13*
%TO.C,C14*%
X79360589Y-164639411D03*
X80039411Y-163960589D03*
%TD*%
D14*
%TO.C,U8*%
X66509000Y-156016000D03*
X68809000Y-156016000D03*
D15*
X68809000Y-149716000D03*
D14*
X71109000Y-156016000D03*
%TD*%
D16*
%TO.C,U10*%
X103603500Y-168376000D03*
X103603500Y-167426000D03*
X103603500Y-166476000D03*
X101328500Y-166476000D03*
X101328500Y-167426000D03*
X101328500Y-168376000D03*
%TD*%
D17*
%TO.C,U3*%
X83235000Y-159099000D03*
X82735000Y-159099000D03*
D18*
X82235000Y-159099000D03*
D17*
X81735000Y-159099000D03*
X81235000Y-159099000D03*
X81235000Y-159869000D03*
X81735000Y-159869000D03*
D18*
X82235000Y-159869000D03*
D17*
X82735000Y-159869000D03*
X83235000Y-159869000D03*
%TD*%
D19*
%TO.C,U13*%
X74697500Y-177634000D03*
X74697500Y-178584000D03*
X74697500Y-179534000D03*
X76972500Y-179534000D03*
X76972500Y-178584000D03*
X76972500Y-177634000D03*
%TD*%
D20*
%TO.C,U1*%
X82266000Y-165300517D03*
X82831685Y-165866202D03*
X83397371Y-166431888D03*
X83963056Y-166997573D03*
X84528742Y-167563258D03*
X85094427Y-168128944D03*
X85660113Y-168694629D03*
X86225798Y-169260315D03*
X86791483Y-169826000D03*
X87357169Y-170391686D03*
X87922854Y-170957371D03*
X81700315Y-165866202D03*
X82266000Y-166431888D03*
X82831685Y-166997573D03*
X83397371Y-167563258D03*
X83963056Y-168128944D03*
X84528742Y-168694629D03*
X85094427Y-169260315D03*
X85660113Y-169826000D03*
X86225798Y-170391686D03*
X86791483Y-170957371D03*
X87357169Y-171523056D03*
X81134629Y-166431888D03*
X81700315Y-166997573D03*
X82266000Y-167563258D03*
X82831685Y-168128944D03*
X83397371Y-168694629D03*
X83963056Y-169260315D03*
X84528742Y-169826000D03*
X85094427Y-170391686D03*
X85660113Y-170957371D03*
X86225798Y-171523056D03*
X86791483Y-172088742D03*
X80568944Y-166997573D03*
X81134629Y-167563258D03*
X81700315Y-168128944D03*
X82266000Y-168694629D03*
X82831685Y-169260315D03*
X83397371Y-169826000D03*
X83963056Y-170391686D03*
X84528742Y-170957371D03*
X85094427Y-171523056D03*
X85660113Y-172088742D03*
X86225798Y-172654427D03*
X80003258Y-167563258D03*
X80568944Y-168128944D03*
X81134629Y-168694629D03*
X81700315Y-169260315D03*
X82266000Y-169826000D03*
X82831685Y-170391686D03*
X83397371Y-170957371D03*
X83963056Y-171523056D03*
X84528742Y-172088742D03*
X85094427Y-172654427D03*
X85660113Y-173220113D03*
X79437573Y-168128944D03*
X80003258Y-168694629D03*
X80568944Y-169260315D03*
X81134629Y-169826000D03*
X81700315Y-170391686D03*
X82266000Y-170957371D03*
X82831685Y-171523056D03*
X83397371Y-172088742D03*
X83963056Y-172654427D03*
X84528742Y-173220113D03*
X85094427Y-173785798D03*
X78871887Y-168694629D03*
X79437573Y-169260315D03*
X80003258Y-169826000D03*
X80568944Y-170391686D03*
X81134629Y-170957371D03*
X81700315Y-171523056D03*
X82266000Y-172088742D03*
X82831685Y-172654427D03*
X83397371Y-173220113D03*
X83963056Y-173785798D03*
X84528742Y-174351484D03*
X78306202Y-169260315D03*
X78871887Y-169826000D03*
X79437573Y-170391686D03*
X80003258Y-170957371D03*
X80568944Y-171523056D03*
X81134629Y-172088742D03*
X81700315Y-172654427D03*
X82266000Y-173220113D03*
X82831685Y-173785798D03*
X83397371Y-174351484D03*
X83963056Y-174917169D03*
X77740517Y-169826000D03*
X78306202Y-170391686D03*
X78871887Y-170957371D03*
X79437573Y-171523056D03*
X80003258Y-172088742D03*
X80568944Y-172654427D03*
X81134629Y-173220113D03*
X81700315Y-173785798D03*
X82266000Y-174351484D03*
X82831685Y-174917169D03*
X83397371Y-175482854D03*
X77174831Y-170391686D03*
X77740517Y-170957371D03*
X78306202Y-171523056D03*
X78871887Y-172088742D03*
X79437573Y-172654427D03*
X80003258Y-173220113D03*
X80568944Y-173785798D03*
X81134629Y-174351484D03*
X81700315Y-174917169D03*
X82266000Y-175482854D03*
X82831685Y-176048540D03*
X76609146Y-170957371D03*
X77174831Y-171523056D03*
X77740517Y-172088742D03*
X78306202Y-172654427D03*
X78871887Y-173220113D03*
X79437573Y-173785798D03*
X80003258Y-174351484D03*
X80568944Y-174917169D03*
X81134629Y-175482854D03*
X81700315Y-176048540D03*
X82266000Y-176614225D03*
%TD*%
D21*
%TO.C,R15*%
X78200000Y-184710000D03*
X78200000Y-183690000D03*
%TD*%
D22*
%TO.C,C43*%
X73120000Y-184680000D03*
X73120000Y-183720000D03*
%TD*%
%TO.C,C47*%
X88310001Y-184650001D03*
X88310001Y-183690001D03*
%TD*%
%TO.C,C37*%
X60368000Y-184680000D03*
X60368000Y-183720000D03*
%TD*%
D23*
%TO.C,R8*%
X105976000Y-168634000D03*
X104956000Y-168634000D03*
%TD*%
D21*
%TO.C,R25*%
X102068000Y-184710000D03*
X102068000Y-183690000D03*
%TD*%
D22*
%TO.C,C52*%
X101052000Y-184680000D03*
X101052000Y-183720000D03*
%TD*%
%TO.C,C39*%
X66464000Y-184680000D03*
X66464000Y-183720000D03*
%TD*%
%TO.C,C46*%
X92374001Y-184650001D03*
X92374001Y-183690001D03*
%TD*%
D24*
%TO.C,U7*%
X98891001Y-174355500D03*
X98241001Y-174355500D03*
X97591001Y-174355500D03*
X96941001Y-174355500D03*
X96291001Y-174355500D03*
X95641001Y-174355500D03*
X94991001Y-174355500D03*
X94341001Y-174355500D03*
X93691001Y-174355500D03*
X93041001Y-174355500D03*
X92391001Y-174355500D03*
X91741001Y-174355500D03*
X91741001Y-180080500D03*
X92391001Y-180080500D03*
X93041001Y-180080500D03*
X93691001Y-180080500D03*
X94341001Y-180080500D03*
X94991001Y-180080500D03*
X95641001Y-180080500D03*
X96291001Y-180080500D03*
X96941001Y-180080500D03*
X97591001Y-180080500D03*
X98241001Y-180080500D03*
X98891001Y-180080500D03*
%TD*%
D25*
%TO.C,RN1*%
X64004000Y-186097001D03*
D26*
X63204000Y-186097001D03*
X62404000Y-186097001D03*
D25*
X61604000Y-186097001D03*
X61604000Y-187897001D03*
D26*
X62404000Y-187897001D03*
X63204000Y-187897001D03*
D25*
X64004000Y-187897001D03*
%TD*%
D27*
%TO.C,R4*%
X90281049Y-169164857D03*
X91447775Y-167998131D03*
%TD*%
D22*
%TO.C,C45*%
X86278001Y-184650001D03*
X86278001Y-183690001D03*
%TD*%
D24*
%TO.C,U11*%
X104014975Y-157086507D03*
X103364975Y-157086507D03*
X102714975Y-157086507D03*
X102064975Y-157086507D03*
X102064975Y-162811507D03*
X102714975Y-162811507D03*
X103364975Y-162811507D03*
X104014975Y-162811507D03*
%TD*%
D28*
%TO.C,C6*%
X100500504Y-155187134D03*
X99404488Y-156283150D03*
%TD*%
D29*
%TO.C,L2*%
X101272500Y-174559000D03*
X101272500Y-172909000D03*
%TD*%
D19*
%TO.C,U15*%
X100462500Y-176850000D03*
X100462500Y-177800000D03*
X100462500Y-178750000D03*
X102737500Y-178750000D03*
X102737500Y-177800000D03*
X102737500Y-176850000D03*
%TD*%
D16*
%TO.C,U4*%
X94255389Y-155857368D03*
X94255389Y-154907368D03*
X94255389Y-153957368D03*
X91980389Y-153957368D03*
X91980389Y-154907368D03*
X91980389Y-155857368D03*
%TD*%
D30*
%TO.C,C11*%
X87605411Y-165786589D03*
X86926589Y-166465411D03*
%TD*%
D31*
%TO.C,R2*%
X90260624Y-161639376D03*
X89539376Y-162360624D03*
%TD*%
D21*
%TO.C,R16*%
X74136000Y-184710000D03*
X74136000Y-183690000D03*
%TD*%
D32*
%TO.C,C12*%
X68060000Y-158200000D03*
X66510000Y-158200000D03*
%TD*%
D21*
%TO.C,R19*%
X93390001Y-184680001D03*
X93390001Y-183660001D03*
%TD*%
D30*
%TO.C,C23*%
X81339411Y-162660589D03*
X80660589Y-163339411D03*
%TD*%
D33*
%TO.C,R10*%
X104104975Y-164565007D03*
X102454975Y-164565007D03*
%TD*%
D34*
%TO.C,R9*%
X100479975Y-161240007D03*
X100479975Y-162890007D03*
%TD*%
D35*
%TO.C,C36*%
X100297500Y-169934000D03*
X101847500Y-169934000D03*
%TD*%
D21*
%TO.C,R23*%
X104100000Y-184710000D03*
X104100000Y-183690000D03*
%TD*%
D35*
%TO.C,C35*%
X100297500Y-171434000D03*
X101847500Y-171434000D03*
%TD*%
D21*
%TO.C,R21*%
X91358001Y-184682001D03*
X91358001Y-183662001D03*
%TD*%
D36*
%TO.C,R3*%
X77683363Y-165983363D03*
X76516637Y-164816637D03*
%TD*%
D22*
%TO.C,C38*%
X62400000Y-184680000D03*
X62400000Y-183720000D03*
%TD*%
D19*
%TO.C,U9*%
X103535000Y-170984000D03*
X103535000Y-171934000D03*
X103535000Y-172884000D03*
X105810000Y-172884000D03*
X105810000Y-170984000D03*
%TD*%
D21*
%TO.C,R5*%
X61384000Y-184710000D03*
X61384000Y-183690000D03*
%TD*%
%TO.C,R13*%
X65448000Y-184710000D03*
X65448000Y-183690000D03*
%TD*%
D11*
%TO.C,R7*%
X104962500Y-169634000D03*
X105982500Y-169634000D03*
%TD*%
D32*
%TO.C,C34*%
X105441000Y-174434000D03*
X103891000Y-174434000D03*
%TD*%
D37*
%TO.C,L1*%
X62844000Y-163968001D03*
X61194000Y-163968001D03*
%TD*%
D21*
%TO.C,R20*%
X89326001Y-184680001D03*
X89326001Y-183660001D03*
%TD*%
D38*
%TO.C,C7*%
X59479000Y-161949001D03*
X59479000Y-160399001D03*
%TD*%
D30*
%TO.C,C26*%
X84839411Y-177660589D03*
X84160589Y-178339411D03*
%TD*%
D39*
%TO.C,R1*%
X78710624Y-165310624D03*
X77989376Y-164589376D03*
%TD*%
D21*
%TO.C,R24*%
X100036000Y-184708000D03*
X100036000Y-183688000D03*
%TD*%
D40*
%TO.C,C20*%
X89351992Y-165748008D03*
X90448008Y-164651992D03*
%TD*%
D41*
%TO.C,C22*%
X79798008Y-162548008D03*
X78701992Y-161451992D03*
%TD*%
D34*
%TO.C,R26*%
X98772500Y-169909000D03*
X98772500Y-171559000D03*
%TD*%
D21*
%TO.C,R18*%
X87294001Y-184680001D03*
X87294001Y-183660001D03*
%TD*%
D13*
%TO.C,C29*%
X91769508Y-169373453D03*
X92448330Y-168694631D03*
%TD*%
D42*
%TO.C,FB1*%
X93259500Y-152256129D03*
X93259500Y-150431129D03*
%TD*%
D13*
%TO.C,C18*%
X85460589Y-177039411D03*
X86139411Y-176360589D03*
%TD*%
D16*
%TO.C,U14*%
X90180501Y-178734000D03*
X90180501Y-177784000D03*
X90180501Y-176834000D03*
X87905501Y-176834000D03*
X87905501Y-177784000D03*
X87905501Y-178734000D03*
%TD*%
D25*
%TO.C,RN3*%
X89912001Y-186097001D03*
D26*
X89112001Y-186097001D03*
X88312001Y-186097001D03*
D25*
X87512001Y-186097001D03*
X87512001Y-187897001D03*
D26*
X88312001Y-187897001D03*
X89112001Y-187897001D03*
D25*
X89912001Y-187897001D03*
%TD*%
D21*
%TO.C,R17*%
X76168000Y-184710000D03*
X76168000Y-183690000D03*
%TD*%
D25*
%TO.C,RN4*%
X102866000Y-186097000D03*
D26*
X102066000Y-186097000D03*
X101266000Y-186097000D03*
D25*
X100466000Y-186097000D03*
X100466000Y-187897000D03*
D26*
X101266000Y-187897000D03*
X102066000Y-187897000D03*
D25*
X102866000Y-187897000D03*
%TD*%
D24*
%TO.C,U12*%
X72983000Y-174355500D03*
X72333000Y-174355500D03*
X71683000Y-174355500D03*
X71033000Y-174355500D03*
X70383000Y-174355500D03*
X69733000Y-174355500D03*
X69083000Y-174355500D03*
X68433000Y-174355500D03*
X67783000Y-174355500D03*
X67133000Y-174355500D03*
X66483000Y-174355500D03*
X65833000Y-174355500D03*
X65833000Y-180080500D03*
X66483000Y-180080500D03*
X67133000Y-180080500D03*
X67783000Y-180080500D03*
X68433000Y-180080500D03*
X69083000Y-180080500D03*
X69733000Y-180080500D03*
X70383000Y-180080500D03*
X71033000Y-180080500D03*
X71683000Y-180080500D03*
X72333000Y-180080500D03*
X72983000Y-180080500D03*
%TD*%
D43*
%TO.C,J7*%
X71440000Y-162350000D03*
X71440000Y-166250000D03*
X70170000Y-162350000D03*
X70170000Y-166250000D03*
X68900000Y-162350000D03*
X68900000Y-166250000D03*
X67630000Y-162350000D03*
X67630000Y-166250000D03*
X66360000Y-162350000D03*
X66360000Y-166250000D03*
%TD*%
D30*
%TO.C,C10*%
X86886991Y-165068169D03*
X86208169Y-165746991D03*
%TD*%
D22*
%TO.C,C48*%
X90342001Y-184650001D03*
X90342001Y-183690001D03*
%TD*%
%TO.C,C51*%
X99020000Y-184680000D03*
X99020000Y-183720000D03*
%TD*%
D13*
%TO.C,C15*%
X92469508Y-170073453D03*
X93148330Y-169394631D03*
%TD*%
D38*
%TO.C,C5*%
X91459500Y-152176629D03*
X91459500Y-150626629D03*
%TD*%
D44*
%TO.C,C4*%
X95028500Y-150626629D03*
X95028500Y-152176629D03*
%TD*%
D21*
%TO.C,R22*%
X98004000Y-184710000D03*
X98004000Y-183690000D03*
%TD*%
D25*
%TO.C,RN2*%
X76957999Y-186097000D03*
D26*
X76157999Y-186097000D03*
X75357999Y-186097000D03*
D25*
X74557999Y-186097000D03*
X74557999Y-187897000D03*
D26*
X75357999Y-187897000D03*
X76157999Y-187897000D03*
D25*
X76957999Y-187897000D03*
%TD*%
D45*
%TO.C,Y1*%
X95050000Y-161000000D03*
X95050000Y-158800000D03*
X93350000Y-158800000D03*
X93350000Y-161000000D03*
%TD*%
D22*
%TO.C,C2*%
X96400000Y-160128528D03*
X96400000Y-159168528D03*
%TD*%
%TO.C,C41*%
X71088000Y-184652000D03*
X71088000Y-183692000D03*
%TD*%
D46*
%TO.C,R27*%
X73100000Y-161880001D03*
X73100000Y-162900001D03*
%TD*%
D47*
%TO.C,U2*%
X97840014Y-152279158D03*
X97168263Y-152950909D03*
X96496512Y-153622660D03*
X98105180Y-155231328D03*
X99448682Y-153887826D03*
%TD*%
D27*
%TO.C,FB2*%
X90416637Y-166883363D03*
X91583363Y-165716637D03*
%TD*%
D48*
%TO.C,C17*%
X80060589Y-177960589D03*
X80739411Y-178639411D03*
%TD*%
D32*
%TO.C,C9*%
X71375000Y-158200000D03*
X69825000Y-158200000D03*
%TD*%
D13*
%TO.C,C3*%
X90210589Y-163039411D03*
X90889411Y-162360589D03*
%TD*%
D36*
%TO.C,FB3*%
X92583363Y-164683363D03*
X91416637Y-163516637D03*
%TD*%
D13*
%TO.C,C19*%
X88526589Y-167996782D03*
X89205411Y-167317960D03*
%TD*%
D34*
%TO.C,FB5*%
X89600000Y-158500000D03*
X89600000Y-160150000D03*
%TD*%
D38*
%TO.C,C24*%
X91100000Y-160100000D03*
X91100000Y-158550000D03*
%TD*%
D10*
%TO.C,C28*%
X76289411Y-167689411D03*
X75610589Y-167010589D03*
%TD*%
D22*
%TO.C,C42*%
X77184000Y-184680000D03*
X77184000Y-183720000D03*
%TD*%
D16*
%TO.C,U6*%
X64272500Y-178734000D03*
X64272500Y-177784000D03*
X64272500Y-176834000D03*
X61997500Y-176834000D03*
X61997500Y-177784000D03*
X61997500Y-178734000D03*
%TD*%
D49*
%TO.C,U5*%
X62950000Y-159462500D03*
X62000000Y-159462500D03*
X61050000Y-159462500D03*
X61050000Y-161737500D03*
X62950000Y-161737500D03*
%TD*%
D21*
%TO.C,R11*%
X63416000Y-184710000D03*
X63416000Y-183690000D03*
%TD*%
D13*
%TO.C,C21*%
X87626589Y-167165411D03*
X88305411Y-166486589D03*
%TD*%
D21*
%TO.C,R14*%
X72104000Y-184710000D03*
X72104000Y-183690000D03*
%TD*%
D32*
%TO.C,C8*%
X62794000Y-157618001D03*
X61244000Y-157618001D03*
%TD*%
D22*
%TO.C,C49*%
X96988000Y-184680000D03*
X96988000Y-183720000D03*
%TD*%
%TO.C,C44*%
X75152000Y-184680000D03*
X75152000Y-183720000D03*
%TD*%
%TO.C,C40*%
X64432000Y-184680000D03*
X64432000Y-183720000D03*
%TD*%
D13*
%TO.C,C25*%
X85526589Y-165065411D03*
X86205411Y-164386589D03*
%TD*%
D22*
%TO.C,C50*%
X103084000Y-184680000D03*
X103084000Y-183720000D03*
%TD*%
D21*
%TO.C,R12*%
X67480000Y-184710000D03*
X67480000Y-183690000D03*
%TD*%
D50*
%TO.C,FB4*%
X77616637Y-162466637D03*
X78783363Y-163633363D03*
%TD*%
M02*
