M48
; DRILL file {KiCad 7.0.6} date Sun Oct 15 13:38:37 2023
; FORMAT={-:-/ absolute / metric / decimal}
; #@! TF.CreationDate,2023-10-15T13:38:37+02:00
; #@! TF.GenerationSoftware,Kicad,Pcbnew,7.0.6
; #@! TF.FileFunction,MixedPlating,1,6
FMAT,2
METRIC
; #@! TA.AperFunction,Plated,PTH,ViaDrill
T1C0.300
; #@! TA.AperFunction,Plated,PTH,ViaDrill
T2C0.400
; #@! TA.AperFunction,Plated,PTH,ComponentDrill
T3C0.700
; #@! TA.AperFunction,Plated,PTH,ComponentDrill
T4C0.900
; #@! TA.AperFunction,Plated,PTH,ComponentDrill
T5C1.000
; #@! TA.AperFunction,Plated,PTH,ComponentDrill
T6C2.300
; #@! TA.AperFunction,Plated,PTH,ComponentDrill
T7C3.200
%
G90
G05
T1
X65.7Y-173.2
X66.314Y-160.549
X66.4Y-173.2
X66.427Y-168.016
X67.671Y-166.206
X67.8Y-175.4
X68.916Y-160.322
X68.916Y-166.998
X70.16Y-161.454
X70.16Y-163.151
X70.17Y-166.998
X71.1Y-175.5
X71.405Y-168.355
X72.1Y-175.5
X72.4Y-173.3
X73.0Y-173.3
X73.102Y-161.906
X75.6Y-167.05
X76.3Y-166.3
X76.4Y-164.8
X76.609Y-170.957
X77.175Y-171.523
X77.741Y-172.089
X78.0Y-164.55
X78.15Y-160.9
X78.306Y-169.26
X78.306Y-171.523
X78.872Y-168.695
X78.872Y-173.22
X78.872Y-172.089
X79.438Y-168.129
X79.438Y-173.786
X79.9Y-165.2
X80.003Y-170.957
X80.003Y-174.351
X80.069Y-177.945
X80.569Y-168.129
X80.6Y-164.5
X80.65Y-163.35
X80.739Y-178.626
X81.135Y-168.695
X81.135Y-175.483
X81.7Y-165.866
X81.7Y-173.786
X82.25Y-158.5
X82.25Y-160.45
X82.266Y-170.957
X82.266Y-165.301
X82.266Y-167.563
X82.266Y-174.351
X82.266Y-176.614
X82.832Y-174.917
X83.397Y-170.957
X83.397Y-168.695
X83.397Y-173.22
X83.397Y-175.483
X83.963Y-171.523
X83.963Y-176.727
X83.963Y-169.26
X83.963Y-172.654
X83.963Y-173.786
X83.963Y-174.917
X84.189Y-178.311
X84.425Y-174.219
X84.529Y-169.826
X84.529Y-170.957
X84.529Y-172.089
X84.529Y-173.22
X84.755Y-176.275
X85.094Y-169.26
X85.094Y-173.786
X85.516Y-165.076
X85.66Y-169.826
X85.66Y-173.22
X86.113Y-176.388
X86.221Y-164.388
X86.226Y-171.523
X86.226Y-169.26
X86.226Y-170.392
X86.791Y-169.826
X86.791Y-170.957
X86.791Y-172.089
X87.357Y-170.392
X87.357Y-171.523
X88.317Y-166.473
X89.205Y-167.318
X91.766Y-173.226
X91.77Y-169.373
X91.996Y-154.892
X92.014Y-167.431
X92.366Y-173.226
X92.448Y-170.052
X92.859Y-168.234
X93.559Y-168.934
X94.255Y-154.911
X94.991Y-175.026
X95.666Y-175.526
X96.951Y-173.926
X97.599Y-174.5
X98.266Y-173.226
X98.766Y-171.526
X98.966Y-173.226
X100.066Y-170.126
X100.066Y-171.626
X100.466Y-164.807
X100.466Y-169.726
X100.466Y-171.226
X100.484Y-161.219
X101.366Y-168.326
X101.516Y-156.957
X101.666Y-170.126
X101.666Y-171.626
X101.847Y-170.661
X102.066Y-169.726
X102.066Y-171.226
X102.518Y-171.926
X102.916Y-159.807
X103.196Y-171.926
X103.666Y-166.526
X103.666Y-167.426
X103.875Y-171.926
X103.891Y-174.434
X103.992Y-161.785
X104.105Y-164.613
X104.166Y-173.726
X104.416Y-172.176
X104.566Y-173.326
X104.666Y-172.726
X105.81Y-172.826
X106.025Y-169.6
T2
X58.62Y-172.428
X59.525Y-160.436
X59.525Y-161.906
X59.525Y-162.925
X60.204Y-170.052
X60.535Y-177.784
X61.223Y-157.607
X61.675Y-167.224
X61.901Y-170.083
X62.014Y-159.531
X62.794Y-157.618
X64.835Y-180.184
X65.635Y-177.784
X66.087Y-155.231
X66.54Y-158.173
X67.106Y-155.231
X68.124Y-158.173
X68.803Y-151.045
X68.803Y-152.29
X68.803Y-153.761
X69.821Y-158.173
X71.109Y-156.016
X71.589Y-178.744
X72.659Y-178.772
X74.686Y-164.735
X75.766Y-178.571
X78.235Y-178.584
X86.443Y-177.784
X88.262Y-160.209
X88.966Y-161.657
X89.62Y-157.381
X90.412Y-164.622
X90.864Y-161.114
X90.935Y-180.084
X91.091Y-157.381
X91.43Y-150.608
X91.43Y-161.793
X91.459Y-152.177
X91.543Y-177.784
X91.656Y-165.753
X92.561Y-164.622
X93.353Y-158.739
X93.353Y-161.001
X93.693Y-157.268
X94.711Y-157.268
X95.05Y-152.192
X95.05Y-158.852
X95.05Y-161.001
X95.181Y-167.624
X95.503Y-170.731
X95.783Y-167.023
X96.408Y-159.191
X96.408Y-160.096
X97.209Y-152.99
X97.497Y-178.744
X98.567Y-178.772
X99.369Y-156.27
X100.501Y-155.187
X101.4Y-177.8
X104.0Y-177.8
X105.912Y-166.658
T3
X77.985Y-156.384
X79.735Y-156.384
X82.235Y-156.384
X84.735Y-156.384
X86.485Y-156.384
T4
X80.985Y-152.384
X80.985Y-154.384
X83.485Y-152.384
X83.485Y-154.384
T5
X59.396Y-190.707
X59.396Y-193.247
X61.936Y-190.707
X61.936Y-193.247
X64.476Y-190.707
X64.476Y-193.247
X67.016Y-190.707
X67.016Y-193.247
X72.096Y-190.707
X72.096Y-193.247
X74.636Y-190.707
X74.636Y-193.247
X77.176Y-190.707
X77.176Y-193.247
X79.716Y-190.707
X79.716Y-193.247
X84.796Y-190.707
X84.796Y-193.247
X87.336Y-190.707
X87.336Y-193.247
X89.876Y-190.707
X89.876Y-193.247
X92.416Y-190.707
X92.416Y-193.247
X97.496Y-190.707
X97.496Y-193.247
X100.036Y-190.707
X100.036Y-193.247
X102.576Y-190.707
X102.576Y-193.247
X105.116Y-190.707
X105.116Y-193.247
T6
X76.215Y-149.674
X88.255Y-149.674
T7
X61.266Y-151.457
X103.266Y-151.457
T0
M30
