%TF.GenerationSoftware,KiCad,Pcbnew,7.0.6*%
%TF.CreationDate,2023-10-15T13:38:33+02:00*%
%TF.ProjectId,fx3lahw,6678336c-6168-4772-9e6b-696361645f70,rev?*%
%TF.SameCoordinates,Original*%
%TF.FileFunction,Copper,L2,Inr*%
%TF.FilePolarity,Positive*%
%FSLAX46Y46*%
G04 Gerber Fmt 4.6, Leading zero omitted, Abs format (unit mm)*
G04 Created by KiCad (PCBNEW 7.0.6) date 2023-10-15 13:38:33*
%MOMM*%
%LPD*%
G01*
G04 APERTURE LIST*
%TA.AperFunction,ComponentPad*%
%ADD10C,1.700000*%
%TD*%
%TA.AperFunction,ComponentPad*%
%ADD11C,1.500000*%
%TD*%
%TA.AperFunction,ComponentPad*%
%ADD12C,3.400000*%
%TD*%
%TA.AperFunction,ComponentPad*%
%ADD13R,1.700000X1.700000*%
%TD*%
%TA.AperFunction,ComponentPad*%
%ADD14O,1.700000X1.700000*%
%TD*%
%TA.AperFunction,ComponentPad*%
%ADD15C,6.400000*%
%TD*%
%TA.AperFunction,ViaPad*%
%ADD16C,0.450000*%
%TD*%
%TA.AperFunction,ViaPad*%
%ADD17C,0.700000*%
%TD*%
%TA.AperFunction,ViaPad*%
%ADD18C,0.800000*%
%TD*%
G04 APERTURE END LIST*
D10*
%TO.N,/VBUS_IN*%
%TO.C,J1*%
X80985000Y-154384000D03*
%TO.N,/SS_D-*%
X83485000Y-154384000D03*
%TO.N,/SS_D+*%
X83485000Y-152384000D03*
%TO.N,GND*%
X80985000Y-152384000D03*
D11*
%TO.N,/SSTX-*%
X86485000Y-156384000D03*
%TO.N,/SSTX+*%
X84735000Y-156384000D03*
%TO.N,GND*%
X82235000Y-156384000D03*
%TO.N,/SSRX-*%
X79735000Y-156384000D03*
%TO.N,/SSRX+*%
X77985000Y-156384000D03*
D12*
%TO.N,unconnected-(J1-SHIELD-Pad10)*%
X88255000Y-149674000D03*
X76215000Y-149674000D03*
%TD*%
D13*
%TO.N,Net-(J3-Pin_1)*%
%TO.C,J3*%
X79716000Y-190707371D03*
D14*
%TO.N,GND*%
X79716000Y-193247371D03*
%TO.N,Net-(J3-Pin_3)*%
X77176000Y-190707371D03*
%TO.N,GND*%
X77176000Y-193247371D03*
%TO.N,Net-(J3-Pin_5)*%
X74636000Y-190707371D03*
%TO.N,GND*%
X74636000Y-193247371D03*
%TO.N,Net-(J3-Pin_7)*%
X72096000Y-190707371D03*
%TO.N,GND*%
X72096000Y-193247371D03*
%TD*%
D13*
%TO.N,Net-(J5-Pin_1)*%
%TO.C,J5*%
X105116000Y-190707371D03*
D14*
%TO.N,GND*%
X105116000Y-193247371D03*
%TO.N,Net-(J5-Pin_3)*%
X102576000Y-190707371D03*
%TO.N,GND*%
X102576000Y-193247371D03*
%TO.N,Net-(J5-Pin_5)*%
X100036000Y-190707371D03*
%TO.N,GND*%
X100036000Y-193247371D03*
%TO.N,Net-(J5-Pin_7)*%
X97496000Y-190707371D03*
%TO.N,GND*%
X97496000Y-193247371D03*
%TD*%
D15*
%TO.N,GND*%
%TO.C,H1*%
X61266000Y-151457371D03*
%TD*%
D13*
%TO.N,Net-(J4-Pin_1)*%
%TO.C,J4*%
X92416000Y-190707371D03*
D14*
%TO.N,GND*%
X92416000Y-193247371D03*
%TO.N,Net-(J4-Pin_3)*%
X89876000Y-190707371D03*
%TO.N,GND*%
X89876000Y-193247371D03*
%TO.N,Net-(J4-Pin_5)*%
X87336000Y-190707371D03*
%TO.N,GND*%
X87336000Y-193247371D03*
%TO.N,Net-(J4-Pin_7)*%
X84796000Y-190707371D03*
%TO.N,GND*%
X84796000Y-193247371D03*
%TD*%
D13*
%TO.N,Net-(J2-Pin_1)*%
%TO.C,J2*%
X67016000Y-190707371D03*
D14*
%TO.N,GND*%
X67016000Y-193247371D03*
%TO.N,Net-(J2-Pin_3)*%
X64476000Y-190707371D03*
%TO.N,GND*%
X64476000Y-193247371D03*
%TO.N,Net-(J2-Pin_5)*%
X61936000Y-190707371D03*
%TO.N,GND*%
X61936000Y-193247371D03*
%TO.N,Net-(J2-Pin_7)*%
X59396000Y-190707371D03*
%TO.N,GND*%
X59396000Y-193247371D03*
%TD*%
D15*
%TO.N,GND*%
%TO.C,H2*%
X103266000Y-151457371D03*
%TD*%
D16*
%TO.N,/SS_D+*%
X86791480Y-169826001D03*
%TO.N,/SS_D-*%
X87357165Y-170391686D03*
D17*
%TO.N,/VBUS_IN*%
X91459500Y-152176629D03*
D16*
X91995782Y-154891917D03*
D17*
%TO.N,Net-(U1A-XTALOUT)*%
X96408125Y-160096219D03*
X95050481Y-161001315D03*
D16*
X84528742Y-169826001D03*
D17*
%TO.N,GND*%
X61222518Y-157607205D03*
D16*
X80600000Y-164500000D03*
X78306205Y-171523056D03*
X102066000Y-169726000D03*
X102517523Y-171926000D03*
X78000000Y-164550000D03*
D17*
X66539957Y-158172890D03*
D16*
X78871888Y-168694630D03*
X101516000Y-156957371D03*
X101666000Y-170126000D03*
D17*
X59525463Y-160435630D03*
D16*
X85094428Y-169260316D03*
D17*
X95050481Y-152192066D03*
D16*
X89205411Y-167317960D03*
D18*
X91543001Y-177784000D03*
D16*
X82266001Y-165300518D03*
D17*
X99369315Y-156269807D03*
D16*
X80568944Y-168128945D03*
X104566000Y-173326000D03*
X75600000Y-167050000D03*
D17*
X62014477Y-159530534D03*
D16*
X72400000Y-173300000D03*
D17*
X91430097Y-161793274D03*
D16*
X106024770Y-169599727D03*
X85660113Y-169826001D03*
X82250000Y-160450000D03*
X65700000Y-173200000D03*
X104666000Y-172726000D03*
X102066000Y-171226000D03*
X84528742Y-170957372D03*
X84189329Y-178311276D03*
X70160341Y-163150918D03*
X94255388Y-154911230D03*
X80739120Y-178625914D03*
D17*
X97209316Y-152989810D03*
D18*
X71589306Y-178743946D03*
D16*
X104416000Y-172176000D03*
D17*
X91090686Y-157380931D03*
D16*
X66400000Y-173200000D03*
X101366000Y-168326000D03*
X98766000Y-171526000D03*
X88316946Y-166473380D03*
D18*
X64835000Y-180184000D03*
D17*
X91430097Y-150608148D03*
D16*
X103891000Y-174434000D03*
D17*
X67105642Y-155231328D03*
D16*
X86221346Y-164388472D03*
X78150000Y-160900004D03*
X79437573Y-173785799D03*
X70160341Y-161453863D03*
X66313683Y-160548767D03*
D18*
X97497307Y-178743946D03*
X75765999Y-178571280D03*
D16*
X86112658Y-176387947D03*
X92014412Y-167431494D03*
X98266000Y-173226000D03*
X103196345Y-171926000D03*
D18*
X65635000Y-177784000D03*
D16*
X101666000Y-171626000D03*
D17*
X93353426Y-161001315D03*
D16*
X92858919Y-168234042D03*
X92366000Y-173226000D03*
D17*
X66087409Y-155231328D03*
D16*
X68915834Y-160322493D03*
X76609146Y-170957372D03*
D17*
X69820930Y-158172890D03*
D16*
X101847459Y-170660707D03*
X77740520Y-172088741D03*
D17*
X90411864Y-164621699D03*
D18*
X101400000Y-177800000D03*
D16*
X86225799Y-169260316D03*
X78871890Y-172088741D03*
X103875167Y-171926000D03*
X93558919Y-168934042D03*
X103666000Y-167426000D03*
D17*
X95050481Y-158851712D03*
D16*
X82250000Y-158500000D03*
D17*
X94711070Y-157267794D03*
D16*
X76400000Y-164800000D03*
X104166000Y-173726000D03*
X80650000Y-163350000D03*
X84424858Y-174219486D03*
X76300000Y-166300000D03*
X91766000Y-173226000D03*
D18*
X90935000Y-180084000D03*
D16*
X82266001Y-176614226D03*
X86225799Y-170391687D03*
D17*
X96408125Y-159191123D03*
D16*
X77174832Y-171523057D03*
D17*
%TO.N,Net-(U1A-XTALIN)*%
X93692837Y-157267794D03*
D16*
X83963057Y-169260316D03*
D17*
X93353426Y-158738575D03*
%TO.N,Net-(U1A-RESET_N)*%
X88966000Y-161657371D03*
D16*
X83397371Y-168694630D03*
%TO.N,+1V2*%
X78871888Y-173220114D03*
D17*
X92561467Y-164621699D03*
D16*
X83397371Y-175482854D03*
X82266001Y-167563259D03*
D17*
X60204285Y-170052275D03*
D16*
X91769508Y-169373453D03*
X85094428Y-173785799D03*
X78306203Y-169260316D03*
X83963055Y-176727358D03*
D17*
X61675066Y-167223850D03*
X61901340Y-170082953D03*
X89619905Y-157380931D03*
X74685821Y-164734836D03*
X59525463Y-162924644D03*
D16*
X86791484Y-170957372D03*
X80003259Y-174351485D03*
X84528742Y-172088742D03*
D17*
X59525463Y-161906411D03*
D16*
%TO.N,Net-(U1C-U3TXVDDQ)*%
X85516000Y-165076000D03*
D17*
X88262261Y-160209356D03*
D16*
%TO.N,/VCC_frontend*%
X100066000Y-170126000D03*
D18*
X86443001Y-177784000D03*
D16*
X100466000Y-169726000D03*
X100466000Y-171226000D03*
D18*
X60535000Y-177784000D03*
X98567124Y-178771614D03*
D16*
X100066000Y-171626000D03*
D18*
X72659123Y-178771614D03*
X104000000Y-177800000D03*
X78235000Y-178584000D03*
D16*
%TO.N,+3V3*%
X84755014Y-176274810D03*
X104104745Y-164612980D03*
X103666000Y-166526000D03*
X81134630Y-175482855D03*
X80069277Y-177945089D03*
X73000000Y-173300000D03*
X100484361Y-161218870D03*
D17*
X90864412Y-161114452D03*
X95503029Y-170731097D03*
X68802697Y-151045259D03*
D16*
X83963057Y-174917170D03*
X80003259Y-170957372D03*
X86791484Y-172088743D03*
X79437573Y-168128945D03*
D17*
X68123875Y-158172890D03*
D16*
X79900000Y-165200000D03*
X73101903Y-161906411D03*
X103991608Y-161784555D03*
D17*
X68802697Y-153760547D03*
D16*
X98966000Y-173226000D03*
X92448330Y-170052275D03*
X81134630Y-168694630D03*
X81700315Y-165866203D03*
D17*
X68802697Y-152289766D03*
X91656371Y-165753069D03*
X58620367Y-172428152D03*
D16*
%TO.N,/I2C_SCL*%
X102916000Y-159807371D03*
%TO.N,/I2C_SDA*%
X100466000Y-164807371D03*
D17*
%TO.N,/SS_D+*%
X95782518Y-167022847D03*
%TO.N,/SS_D-*%
X95181476Y-167623889D03*
%TO.N,VBUS*%
X62794000Y-157618001D03*
X71109000Y-156016000D03*
X100500504Y-155187134D03*
X105911633Y-166658165D03*
D16*
X85660113Y-173220114D03*
X105810000Y-172826000D03*
%TO.N,Net-(J7-SWDIO{slash}TMS)*%
X71404848Y-168355220D03*
X83963055Y-171523056D03*
%TO.N,Net-(J7-SWDCLK{slash}TCK)*%
X70170000Y-166997576D03*
X82266000Y-170957371D03*
%TO.N,Net-(J7-SWO{slash}TDO)*%
X68915834Y-166997576D03*
X86225795Y-171523056D03*
%TO.N,/In_CH1*%
X96951001Y-173926000D03*
X83963057Y-172654428D03*
%TO.N,/In_CH0*%
X97598748Y-174499686D03*
X84528742Y-173220114D03*
%TO.N,/In_CH4*%
X94991001Y-175026394D03*
X83397371Y-173220114D03*
%TO.N,/In_CH3*%
X83963057Y-173785799D03*
X95666000Y-175526000D03*
%TO.N,/In_CH14*%
X81700315Y-173785799D03*
X67800000Y-175400000D03*
%TO.N,/In_CH9*%
X82266001Y-174351485D03*
X71100000Y-175500000D03*
%TO.N,/In_CH8*%
X72100000Y-175500000D03*
X82831686Y-174917170D03*
%TO.N,Net-(J7-NC{slash}TDI)*%
X83397370Y-170957371D03*
X67671327Y-166205617D03*
%TO.N,Net-(J7-~{RESET})*%
X66426820Y-168015809D03*
X87357165Y-171523056D03*
%TD*%
%TA.AperFunction,Conductor*%
%TO.N,GND*%
G36*
X61476507Y-193037527D02*
G01*
X61436000Y-193175482D01*
X61436000Y-193319260D01*
X61476507Y-193457215D01*
X61502314Y-193497371D01*
X59829686Y-193497371D01*
X59855493Y-193457215D01*
X59896000Y-193319260D01*
X59896000Y-193175482D01*
X59855493Y-193037527D01*
X59829686Y-192997371D01*
X61502314Y-192997371D01*
X61476507Y-193037527D01*
G37*
%TD.AperFunction*%
%TA.AperFunction,Conductor*%
G36*
X64016507Y-193037527D02*
G01*
X63976000Y-193175482D01*
X63976000Y-193319260D01*
X64016507Y-193457215D01*
X64042314Y-193497371D01*
X62369686Y-193497371D01*
X62395493Y-193457215D01*
X62436000Y-193319260D01*
X62436000Y-193175482D01*
X62395493Y-193037527D01*
X62369686Y-192997371D01*
X64042314Y-192997371D01*
X64016507Y-193037527D01*
G37*
%TD.AperFunction*%
%TA.AperFunction,Conductor*%
G36*
X66556507Y-193037527D02*
G01*
X66516000Y-193175482D01*
X66516000Y-193319260D01*
X66556507Y-193457215D01*
X66582314Y-193497371D01*
X64909686Y-193497371D01*
X64935493Y-193457215D01*
X64976000Y-193319260D01*
X64976000Y-193175482D01*
X64935493Y-193037527D01*
X64909686Y-192997371D01*
X66582314Y-192997371D01*
X66556507Y-193037527D01*
G37*
%TD.AperFunction*%
%TA.AperFunction,Conductor*%
G36*
X74176507Y-193037527D02*
G01*
X74136000Y-193175482D01*
X74136000Y-193319260D01*
X74176507Y-193457215D01*
X74202314Y-193497371D01*
X72529686Y-193497371D01*
X72555493Y-193457215D01*
X72596000Y-193319260D01*
X72596000Y-193175482D01*
X72555493Y-193037527D01*
X72529686Y-192997371D01*
X74202314Y-192997371D01*
X74176507Y-193037527D01*
G37*
%TD.AperFunction*%
%TA.AperFunction,Conductor*%
G36*
X76716507Y-193037527D02*
G01*
X76676000Y-193175482D01*
X76676000Y-193319260D01*
X76716507Y-193457215D01*
X76742314Y-193497371D01*
X75069686Y-193497371D01*
X75095493Y-193457215D01*
X75136000Y-193319260D01*
X75136000Y-193175482D01*
X75095493Y-193037527D01*
X75069686Y-192997371D01*
X76742314Y-192997371D01*
X76716507Y-193037527D01*
G37*
%TD.AperFunction*%
%TA.AperFunction,Conductor*%
G36*
X79256507Y-193037527D02*
G01*
X79216000Y-193175482D01*
X79216000Y-193319260D01*
X79256507Y-193457215D01*
X79282314Y-193497371D01*
X77609686Y-193497371D01*
X77635493Y-193457215D01*
X77676000Y-193319260D01*
X77676000Y-193175482D01*
X77635493Y-193037527D01*
X77609686Y-192997371D01*
X79282314Y-192997371D01*
X79256507Y-193037527D01*
G37*
%TD.AperFunction*%
%TA.AperFunction,Conductor*%
G36*
X86876507Y-193037527D02*
G01*
X86836000Y-193175482D01*
X86836000Y-193319260D01*
X86876507Y-193457215D01*
X86902314Y-193497371D01*
X85229686Y-193497371D01*
X85255493Y-193457215D01*
X85296000Y-193319260D01*
X85296000Y-193175482D01*
X85255493Y-193037527D01*
X85229686Y-192997371D01*
X86902314Y-192997371D01*
X86876507Y-193037527D01*
G37*
%TD.AperFunction*%
%TA.AperFunction,Conductor*%
G36*
X89416507Y-193037527D02*
G01*
X89376000Y-193175482D01*
X89376000Y-193319260D01*
X89416507Y-193457215D01*
X89442314Y-193497371D01*
X87769686Y-193497371D01*
X87795493Y-193457215D01*
X87836000Y-193319260D01*
X87836000Y-193175482D01*
X87795493Y-193037527D01*
X87769686Y-192997371D01*
X89442314Y-192997371D01*
X89416507Y-193037527D01*
G37*
%TD.AperFunction*%
%TA.AperFunction,Conductor*%
G36*
X91956507Y-193037527D02*
G01*
X91916000Y-193175482D01*
X91916000Y-193319260D01*
X91956507Y-193457215D01*
X91982314Y-193497371D01*
X90309686Y-193497371D01*
X90335493Y-193457215D01*
X90376000Y-193319260D01*
X90376000Y-193175482D01*
X90335493Y-193037527D01*
X90309686Y-192997371D01*
X91982314Y-192997371D01*
X91956507Y-193037527D01*
G37*
%TD.AperFunction*%
%TA.AperFunction,Conductor*%
G36*
X99576507Y-193037527D02*
G01*
X99536000Y-193175482D01*
X99536000Y-193319260D01*
X99576507Y-193457215D01*
X99602314Y-193497371D01*
X97929686Y-193497371D01*
X97955493Y-193457215D01*
X97996000Y-193319260D01*
X97996000Y-193175482D01*
X97955493Y-193037527D01*
X97929686Y-192997371D01*
X99602314Y-192997371D01*
X99576507Y-193037527D01*
G37*
%TD.AperFunction*%
%TA.AperFunction,Conductor*%
G36*
X102116507Y-193037527D02*
G01*
X102076000Y-193175482D01*
X102076000Y-193319260D01*
X102116507Y-193457215D01*
X102142314Y-193497371D01*
X100469686Y-193497371D01*
X100495493Y-193457215D01*
X100536000Y-193319260D01*
X100536000Y-193175482D01*
X100495493Y-193037527D01*
X100469686Y-192997371D01*
X102142314Y-192997371D01*
X102116507Y-193037527D01*
G37*
%TD.AperFunction*%
%TA.AperFunction,Conductor*%
G36*
X104656507Y-193037527D02*
G01*
X104616000Y-193175482D01*
X104616000Y-193319260D01*
X104656507Y-193457215D01*
X104682314Y-193497371D01*
X103009686Y-193497371D01*
X103035493Y-193457215D01*
X103076000Y-193319260D01*
X103076000Y-193175482D01*
X103035493Y-193037527D01*
X103009686Y-192997371D01*
X104682314Y-192997371D01*
X104656507Y-193037527D01*
G37*
%TD.AperFunction*%
%TA.AperFunction,Conductor*%
G36*
X82099926Y-153145373D02*
G01*
X82158598Y-153061579D01*
X82258428Y-152847494D01*
X82258429Y-152847493D01*
X82317714Y-152626240D01*
X82346748Y-152584776D01*
X82395643Y-152571675D01*
X82441519Y-152593067D01*
X82460006Y-152623911D01*
X82509768Y-152787954D01*
X82607315Y-152970450D01*
X82738590Y-153130410D01*
X82898550Y-153261685D01*
X83005288Y-153318738D01*
X83039076Y-153356429D01*
X83040732Y-153407021D01*
X83009481Y-153446841D01*
X83005288Y-153449262D01*
X82898549Y-153506315D01*
X82738590Y-153637589D01*
X82738589Y-153637590D01*
X82607315Y-153797549D01*
X82509769Y-153980043D01*
X82449700Y-154178064D01*
X82429417Y-154384000D01*
X82445115Y-154543388D01*
X82449700Y-154589934D01*
X82500921Y-154758790D01*
X82509769Y-154787956D01*
X82607315Y-154970450D01*
X82691826Y-155073428D01*
X82708619Y-155121181D01*
X82690788Y-155168555D01*
X82646677Y-155193385D01*
X82615470Y-155191851D01*
X82452893Y-155148288D01*
X82452886Y-155148287D01*
X82235004Y-155129225D01*
X82234996Y-155129225D01*
X82017115Y-155148287D01*
X81854529Y-155191852D01*
X81804102Y-155187440D01*
X81768309Y-155151647D01*
X81763897Y-155101220D01*
X81778171Y-155073430D01*
X81862685Y-154970450D01*
X81960232Y-154787954D01*
X82020300Y-154589934D01*
X82040583Y-154384000D01*
X82020300Y-154178066D01*
X81960232Y-153980046D01*
X81862685Y-153797550D01*
X81731410Y-153637590D01*
X81731409Y-153637589D01*
X81731405Y-153637585D01*
X81722523Y-153630296D01*
X81696736Y-153586738D01*
X81704981Y-153536795D01*
X81727022Y-153512476D01*
X81746373Y-153498926D01*
X81073231Y-152825784D01*
X81119138Y-152818865D01*
X81241357Y-152760007D01*
X81340798Y-152667740D01*
X81408625Y-152550260D01*
X81426499Y-152471946D01*
X82099926Y-153145373D01*
G37*
%TD.AperFunction*%
%TA.AperFunction,Conductor*%
G36*
X75685479Y-147725184D02*
G01*
X75710789Y-147769021D01*
X75701999Y-147818871D01*
X75663773Y-147851205D01*
X75423489Y-147940826D01*
X75423485Y-147940827D01*
X75184891Y-148071109D01*
X74967255Y-148234031D01*
X74775031Y-148426255D01*
X74612109Y-148643891D01*
X74481827Y-148882485D01*
X74481826Y-148882489D01*
X74386829Y-149137184D01*
X74386824Y-149137202D01*
X74329038Y-149402842D01*
X74309645Y-149673993D01*
X74309645Y-149674006D01*
X74329038Y-149945157D01*
X74386824Y-150210797D01*
X74386829Y-150210815D01*
X74481826Y-150465510D01*
X74481827Y-150465514D01*
X74612109Y-150704108D01*
X74659665Y-150767635D01*
X74775029Y-150921742D01*
X74967258Y-151113971D01*
X75067442Y-151188968D01*
X75184891Y-151276890D01*
X75423485Y-151407172D01*
X75423489Y-151407173D01*
X75678184Y-151502170D01*
X75678190Y-151502171D01*
X75678199Y-151502175D01*
X75943840Y-151559961D01*
X76004097Y-151564270D01*
X76214993Y-151579355D01*
X76215000Y-151579355D01*
X76215007Y-151579355D01*
X76404812Y-151565779D01*
X76486160Y-151559961D01*
X76751801Y-151502175D01*
X76751812Y-151502170D01*
X76751815Y-151502170D01*
X77006510Y-151407173D01*
X77006514Y-151407172D01*
X77245108Y-151276890D01*
X77245109Y-151276889D01*
X77245113Y-151276887D01*
X77462742Y-151113971D01*
X77654971Y-150921742D01*
X77817887Y-150704113D01*
X77817890Y-150704108D01*
X77948172Y-150465514D01*
X77948173Y-150465510D01*
X78043170Y-150210815D01*
X78043170Y-150210812D01*
X78043175Y-150210801D01*
X78100961Y-149945160D01*
X78119220Y-149689869D01*
X78120355Y-149674006D01*
X78120355Y-149673993D01*
X78100961Y-149402842D01*
X78100961Y-149402840D01*
X78043175Y-149137199D01*
X78043171Y-149137190D01*
X78043170Y-149137184D01*
X77948173Y-148882489D01*
X77948172Y-148882485D01*
X77817890Y-148643891D01*
X77754316Y-148558967D01*
X77654971Y-148426258D01*
X77462742Y-148234029D01*
X77245113Y-148071113D01*
X77245114Y-148071113D01*
X77245108Y-148071109D01*
X77006514Y-147940827D01*
X77006510Y-147940826D01*
X76766227Y-147851205D01*
X76727710Y-147818361D01*
X76719315Y-147768443D01*
X76744972Y-147724808D01*
X76792087Y-147707871D01*
X87677913Y-147707871D01*
X87725479Y-147725184D01*
X87750789Y-147769021D01*
X87741999Y-147818871D01*
X87703773Y-147851205D01*
X87463489Y-147940826D01*
X87463485Y-147940827D01*
X87224891Y-148071109D01*
X87007255Y-148234031D01*
X86815031Y-148426255D01*
X86652109Y-148643891D01*
X86521827Y-148882485D01*
X86521826Y-148882489D01*
X86426829Y-149137184D01*
X86426824Y-149137202D01*
X86369038Y-149402842D01*
X86349645Y-149673993D01*
X86349645Y-149674006D01*
X86369038Y-149945157D01*
X86426824Y-150210797D01*
X86426829Y-150210815D01*
X86521826Y-150465510D01*
X86521827Y-150465514D01*
X86652109Y-150704108D01*
X86699665Y-150767635D01*
X86815029Y-150921742D01*
X87007258Y-151113971D01*
X87107442Y-151188968D01*
X87224891Y-151276890D01*
X87463485Y-151407172D01*
X87463489Y-151407173D01*
X87718184Y-151502170D01*
X87718190Y-151502171D01*
X87718199Y-151502175D01*
X87983840Y-151559961D01*
X88044097Y-151564270D01*
X88254993Y-151579355D01*
X88255000Y-151579355D01*
X88255007Y-151579355D01*
X88444811Y-151565779D01*
X88526160Y-151559961D01*
X88791801Y-151502175D01*
X88791812Y-151502170D01*
X88791815Y-151502170D01*
X89046510Y-151407173D01*
X89046514Y-151407172D01*
X89285108Y-151276890D01*
X89285109Y-151276889D01*
X89285113Y-151276887D01*
X89502742Y-151113971D01*
X89694971Y-150921742D01*
X89857887Y-150704113D01*
X89857890Y-150704108D01*
X89988172Y-150465514D01*
X89988173Y-150465510D01*
X90083170Y-150210815D01*
X90083170Y-150210812D01*
X90083175Y-150210801D01*
X90140961Y-149945160D01*
X90159220Y-149689869D01*
X90160355Y-149674006D01*
X90160355Y-149673993D01*
X90140961Y-149402842D01*
X90140961Y-149402840D01*
X90083175Y-149137199D01*
X90083171Y-149137190D01*
X90083170Y-149137184D01*
X89988173Y-148882489D01*
X89988172Y-148882485D01*
X89857890Y-148643891D01*
X89794316Y-148558967D01*
X89694971Y-148426258D01*
X89502742Y-148234029D01*
X89285113Y-148071113D01*
X89285114Y-148071113D01*
X89285108Y-148071109D01*
X89046514Y-147940827D01*
X89046510Y-147940826D01*
X88806227Y-147851205D01*
X88767710Y-147818361D01*
X88759315Y-147768443D01*
X88784972Y-147724808D01*
X88832087Y-147707871D01*
X103265089Y-147707871D01*
X103266905Y-147707916D01*
X103394412Y-147714179D01*
X103415029Y-147715192D01*
X103639431Y-147726969D01*
X103642863Y-147727312D01*
X103818357Y-147753344D01*
X104015431Y-147784557D01*
X104018605Y-147785204D01*
X104196694Y-147829813D01*
X104383645Y-147879906D01*
X104386486Y-147880794D01*
X104561808Y-147943525D01*
X104740275Y-148012032D01*
X104742775Y-148013100D01*
X104912395Y-148093324D01*
X104995767Y-148135804D01*
X105081659Y-148179569D01*
X105083884Y-148180800D01*
X105245520Y-148277681D01*
X105404347Y-148380824D01*
X105406204Y-148382113D01*
X105558027Y-148494711D01*
X105642588Y-148563187D01*
X105704999Y-148613727D01*
X105706562Y-148615066D01*
X105846152Y-148741581D01*
X105847446Y-148742814D01*
X105980568Y-148875934D01*
X105981802Y-148877231D01*
X105986568Y-148882489D01*
X106108306Y-149016805D01*
X106109646Y-149018368D01*
X106228674Y-149165354D01*
X106341254Y-149317150D01*
X106342566Y-149319040D01*
X106445695Y-149477842D01*
X106542596Y-149639510D01*
X106543824Y-149641728D01*
X106560264Y-149673993D01*
X106630060Y-149810975D01*
X106710269Y-149980562D01*
X106711365Y-149983122D01*
X106779866Y-150161570D01*
X106842590Y-150336867D01*
X106843493Y-150339757D01*
X106893586Y-150526707D01*
X106938183Y-150704743D01*
X106938837Y-150707947D01*
X106970047Y-150904991D01*
X106996075Y-151080451D01*
X106996425Y-151083946D01*
X107008469Y-151313703D01*
X107015455Y-151455887D01*
X107015500Y-151457704D01*
X107015500Y-197132871D01*
X106998187Y-197180437D01*
X106954350Y-197205747D01*
X106941500Y-197206871D01*
X57590500Y-197206871D01*
X57542934Y-197189558D01*
X57517624Y-197145721D01*
X57516500Y-197132871D01*
X57516500Y-193497371D01*
X58065363Y-193497371D01*
X58122566Y-193710854D01*
X58122571Y-193710865D01*
X58222401Y-193924950D01*
X58357888Y-194118446D01*
X58524925Y-194285482D01*
X58524923Y-194285482D01*
X58718420Y-194420969D01*
X58932505Y-194520799D01*
X58932508Y-194520801D01*
X59145999Y-194578005D01*
X59145999Y-193682872D01*
X59253685Y-193732051D01*
X59360237Y-193747371D01*
X59431763Y-193747371D01*
X59538315Y-193732051D01*
X59646000Y-193682872D01*
X59646000Y-194578005D01*
X59859491Y-194520801D01*
X59859494Y-194520799D01*
X60073579Y-194420969D01*
X60267075Y-194285482D01*
X60434111Y-194118446D01*
X60569598Y-193924950D01*
X60598933Y-193862044D01*
X60634726Y-193826251D01*
X60685153Y-193821840D01*
X60726617Y-193850873D01*
X60733067Y-193862044D01*
X60762401Y-193924950D01*
X60897888Y-194118446D01*
X61064925Y-194285482D01*
X61064923Y-194285482D01*
X61258420Y-194420969D01*
X61472505Y-194520799D01*
X61472508Y-194520801D01*
X61686000Y-194578005D01*
X61686000Y-193682872D01*
X61793685Y-193732051D01*
X61900237Y-193747371D01*
X61971763Y-193747371D01*
X62078315Y-193732051D01*
X62185999Y-193682872D01*
X62185999Y-194578005D01*
X62399491Y-194520801D01*
X62399494Y-194520799D01*
X62613579Y-194420969D01*
X62807075Y-194285482D01*
X62974111Y-194118446D01*
X63109598Y-193924950D01*
X63138933Y-193862044D01*
X63174726Y-193826251D01*
X63225153Y-193821840D01*
X63266617Y-193850873D01*
X63273067Y-193862044D01*
X63302401Y-193924950D01*
X63437888Y-194118446D01*
X63604925Y-194285482D01*
X63604923Y-194285482D01*
X63798420Y-194420969D01*
X64012505Y-194520799D01*
X64012508Y-194520801D01*
X64225999Y-194578005D01*
X64225999Y-193682872D01*
X64333685Y-193732051D01*
X64440237Y-193747371D01*
X64511763Y-193747371D01*
X64618315Y-193732051D01*
X64726000Y-193682872D01*
X64726000Y-194578005D01*
X64939491Y-194520801D01*
X64939494Y-194520799D01*
X65153579Y-194420969D01*
X65347075Y-194285482D01*
X65514111Y-194118446D01*
X65649600Y-193924949D01*
X65678932Y-193862044D01*
X65714724Y-193826251D01*
X65765150Y-193821838D01*
X65806616Y-193850871D01*
X65813066Y-193862043D01*
X65842400Y-193924950D01*
X65977888Y-194118446D01*
X66144925Y-194285482D01*
X66144923Y-194285482D01*
X66338420Y-194420969D01*
X66552505Y-194520799D01*
X66552508Y-194520801D01*
X66766000Y-194578005D01*
X66765999Y-193682872D01*
X66873685Y-193732051D01*
X66980237Y-193747371D01*
X67051763Y-193747371D01*
X67158315Y-193732051D01*
X67266000Y-193682872D01*
X67266000Y-194578005D01*
X67479491Y-194520801D01*
X67479494Y-194520799D01*
X67693579Y-194420969D01*
X67887075Y-194285482D01*
X68054111Y-194118446D01*
X68189598Y-193924950D01*
X68289428Y-193710865D01*
X68289433Y-193710854D01*
X68346636Y-193497371D01*
X70765363Y-193497371D01*
X70822566Y-193710854D01*
X70822571Y-193710865D01*
X70922401Y-193924950D01*
X71057888Y-194118446D01*
X71224925Y-194285482D01*
X71224923Y-194285482D01*
X71418420Y-194420969D01*
X71632505Y-194520799D01*
X71632508Y-194520801D01*
X71846000Y-194578005D01*
X71846000Y-193682872D01*
X71953685Y-193732051D01*
X72060237Y-193747371D01*
X72131763Y-193747371D01*
X72238315Y-193732051D01*
X72346000Y-193682872D01*
X72346000Y-194578005D01*
X72559491Y-194520801D01*
X72559494Y-194520799D01*
X72773579Y-194420969D01*
X72967075Y-194285482D01*
X73134111Y-194118446D01*
X73269598Y-193924950D01*
X73298933Y-193862044D01*
X73334726Y-193826251D01*
X73385153Y-193821840D01*
X73426617Y-193850873D01*
X73433067Y-193862044D01*
X73462401Y-193924950D01*
X73597888Y-194118446D01*
X73764925Y-194285482D01*
X73764923Y-194285482D01*
X73958420Y-194420969D01*
X74172505Y-194520799D01*
X74172508Y-194520801D01*
X74386000Y-194578005D01*
X74386000Y-193682872D01*
X74493685Y-193732051D01*
X74600237Y-193747371D01*
X74671763Y-193747371D01*
X74778315Y-193732051D01*
X74886000Y-193682872D01*
X74886000Y-194578005D01*
X75099491Y-194520801D01*
X75099494Y-194520799D01*
X75313579Y-194420969D01*
X75507075Y-194285482D01*
X75674111Y-194118446D01*
X75809598Y-193924950D01*
X75838933Y-193862044D01*
X75874726Y-193826251D01*
X75925153Y-193821840D01*
X75966617Y-193850873D01*
X75973067Y-193862044D01*
X76002401Y-193924950D01*
X76137888Y-194118446D01*
X76304925Y-194285482D01*
X76304923Y-194285482D01*
X76498420Y-194420969D01*
X76712505Y-194520799D01*
X76712508Y-194520801D01*
X76926000Y-194578005D01*
X76926000Y-193682872D01*
X77033685Y-193732051D01*
X77140237Y-193747371D01*
X77211763Y-193747371D01*
X77318315Y-193732051D01*
X77426000Y-193682872D01*
X77426000Y-194578005D01*
X77639491Y-194520801D01*
X77639494Y-194520799D01*
X77853579Y-194420969D01*
X78047075Y-194285482D01*
X78214111Y-194118446D01*
X78349598Y-193924950D01*
X78378933Y-193862044D01*
X78414726Y-193826251D01*
X78465153Y-193821840D01*
X78506617Y-193850873D01*
X78513067Y-193862044D01*
X78542401Y-193924950D01*
X78677888Y-194118446D01*
X78844925Y-194285482D01*
X78844923Y-194285482D01*
X79038420Y-194420969D01*
X79252505Y-194520799D01*
X79252508Y-194520801D01*
X79466000Y-194578005D01*
X79466000Y-193682872D01*
X79573685Y-193732051D01*
X79680237Y-193747371D01*
X79751763Y-193747371D01*
X79858315Y-193732051D01*
X79966000Y-193682872D01*
X79966000Y-194578005D01*
X80179491Y-194520801D01*
X80179494Y-194520799D01*
X80393579Y-194420969D01*
X80587075Y-194285482D01*
X80754111Y-194118446D01*
X80889598Y-193924950D01*
X80989428Y-193710865D01*
X80989433Y-193710854D01*
X81046636Y-193497371D01*
X83465363Y-193497371D01*
X83522566Y-193710854D01*
X83522571Y-193710865D01*
X83622401Y-193924950D01*
X83757888Y-194118446D01*
X83924925Y-194285482D01*
X83924923Y-194285482D01*
X84118420Y-194420969D01*
X84332505Y-194520799D01*
X84332508Y-194520801D01*
X84546000Y-194578005D01*
X84546000Y-193682872D01*
X84653685Y-193732051D01*
X84760237Y-193747371D01*
X84831763Y-193747371D01*
X84938315Y-193732051D01*
X85046000Y-193682872D01*
X85046000Y-194578005D01*
X85259491Y-194520801D01*
X85259494Y-194520799D01*
X85473579Y-194420969D01*
X85667075Y-194285482D01*
X85834111Y-194118446D01*
X85969598Y-193924950D01*
X85998933Y-193862044D01*
X86034726Y-193826251D01*
X86085153Y-193821840D01*
X86126617Y-193850873D01*
X86133067Y-193862044D01*
X86162401Y-193924950D01*
X86297888Y-194118446D01*
X86464925Y-194285482D01*
X86464923Y-194285482D01*
X86658420Y-194420969D01*
X86872505Y-194520799D01*
X86872508Y-194520801D01*
X87086000Y-194578005D01*
X87086000Y-193682872D01*
X87193685Y-193732051D01*
X87300237Y-193747371D01*
X87371763Y-193747371D01*
X87478315Y-193732051D01*
X87586000Y-193682872D01*
X87586000Y-194578005D01*
X87799491Y-194520801D01*
X87799494Y-194520799D01*
X88013579Y-194420969D01*
X88207075Y-194285482D01*
X88374111Y-194118446D01*
X88509598Y-193924950D01*
X88538933Y-193862044D01*
X88574726Y-193826251D01*
X88625153Y-193821840D01*
X88666617Y-193850873D01*
X88673067Y-193862044D01*
X88702401Y-193924950D01*
X88837888Y-194118446D01*
X89004925Y-194285482D01*
X89004923Y-194285482D01*
X89198420Y-194420969D01*
X89412505Y-194520799D01*
X89412508Y-194520801D01*
X89626000Y-194578005D01*
X89626000Y-193682872D01*
X89733685Y-193732051D01*
X89840237Y-193747371D01*
X89911763Y-193747371D01*
X90018315Y-193732051D01*
X90126000Y-193682872D01*
X90126000Y-194578005D01*
X90339491Y-194520801D01*
X90339494Y-194520799D01*
X90553579Y-194420969D01*
X90747075Y-194285482D01*
X90914111Y-194118446D01*
X91049598Y-193924950D01*
X91078933Y-193862044D01*
X91114726Y-193826251D01*
X91165153Y-193821840D01*
X91206617Y-193850873D01*
X91213067Y-193862044D01*
X91242401Y-193924950D01*
X91377888Y-194118446D01*
X91544925Y-194285482D01*
X91544923Y-194285482D01*
X91738420Y-194420969D01*
X91952505Y-194520799D01*
X91952508Y-194520801D01*
X92166000Y-194578005D01*
X92166000Y-193682872D01*
X92273685Y-193732051D01*
X92380237Y-193747371D01*
X92451763Y-193747371D01*
X92558315Y-193732051D01*
X92666000Y-193682872D01*
X92666000Y-194578005D01*
X92879491Y-194520801D01*
X92879494Y-194520799D01*
X93093579Y-194420969D01*
X93287075Y-194285482D01*
X93454111Y-194118446D01*
X93589598Y-193924950D01*
X93689428Y-193710865D01*
X93689433Y-193710854D01*
X93746636Y-193497371D01*
X96165363Y-193497371D01*
X96222566Y-193710854D01*
X96222571Y-193710865D01*
X96322401Y-193924950D01*
X96457888Y-194118446D01*
X96624925Y-194285482D01*
X96624923Y-194285482D01*
X96818420Y-194420969D01*
X97032505Y-194520799D01*
X97032508Y-194520801D01*
X97246000Y-194578005D01*
X97246000Y-193682872D01*
X97353685Y-193732051D01*
X97460237Y-193747371D01*
X97531763Y-193747371D01*
X97638315Y-193732051D01*
X97746000Y-193682872D01*
X97746000Y-194578005D01*
X97959491Y-194520801D01*
X97959494Y-194520799D01*
X98173579Y-194420969D01*
X98367075Y-194285482D01*
X98534111Y-194118446D01*
X98669598Y-193924950D01*
X98698933Y-193862044D01*
X98734726Y-193826251D01*
X98785153Y-193821840D01*
X98826617Y-193850873D01*
X98833067Y-193862044D01*
X98862401Y-193924950D01*
X98997888Y-194118446D01*
X99164925Y-194285482D01*
X99164923Y-194285482D01*
X99358420Y-194420969D01*
X99572505Y-194520799D01*
X99572508Y-194520801D01*
X99786000Y-194578005D01*
X99786000Y-193682872D01*
X99893685Y-193732051D01*
X100000237Y-193747371D01*
X100071763Y-193747371D01*
X100178315Y-193732051D01*
X100286000Y-193682872D01*
X100286000Y-194578005D01*
X100499491Y-194520801D01*
X100499494Y-194520799D01*
X100713579Y-194420969D01*
X100907075Y-194285482D01*
X101074111Y-194118446D01*
X101209598Y-193924950D01*
X101238933Y-193862044D01*
X101274726Y-193826251D01*
X101325153Y-193821840D01*
X101366617Y-193850873D01*
X101373067Y-193862044D01*
X101402401Y-193924950D01*
X101537888Y-194118446D01*
X101704925Y-194285482D01*
X101704923Y-194285482D01*
X101898420Y-194420969D01*
X102112505Y-194520799D01*
X102112508Y-194520801D01*
X102326000Y-194578005D01*
X102326000Y-193682872D01*
X102433685Y-193732051D01*
X102540237Y-193747371D01*
X102611763Y-193747371D01*
X102718315Y-193732051D01*
X102826000Y-193682872D01*
X102826000Y-194578005D01*
X103039491Y-194520801D01*
X103039494Y-194520799D01*
X103253579Y-194420969D01*
X103447075Y-194285482D01*
X103614111Y-194118446D01*
X103749598Y-193924950D01*
X103778933Y-193862044D01*
X103814726Y-193826251D01*
X103865153Y-193821840D01*
X103906617Y-193850873D01*
X103913067Y-193862044D01*
X103942401Y-193924950D01*
X104077888Y-194118446D01*
X104244925Y-194285482D01*
X104244923Y-194285482D01*
X104438420Y-194420969D01*
X104652505Y-194520799D01*
X104652508Y-194520801D01*
X104866000Y-194578005D01*
X104866000Y-193682872D01*
X104973685Y-193732051D01*
X105080237Y-193747371D01*
X105151763Y-193747371D01*
X105258315Y-193732051D01*
X105366000Y-193682872D01*
X105366000Y-194578005D01*
X105579491Y-194520801D01*
X105579494Y-194520799D01*
X105793579Y-194420969D01*
X105987075Y-194285482D01*
X106154111Y-194118446D01*
X106289598Y-193924950D01*
X106389428Y-193710865D01*
X106389433Y-193710854D01*
X106446636Y-193497371D01*
X105549686Y-193497371D01*
X105575493Y-193457215D01*
X105616000Y-193319260D01*
X105616000Y-193175482D01*
X105575493Y-193037527D01*
X105549686Y-192997371D01*
X106446636Y-192997371D01*
X106446636Y-192997370D01*
X106389432Y-192783883D01*
X106289598Y-192569792D01*
X106154109Y-192376292D01*
X105987075Y-192209259D01*
X105987076Y-192209259D01*
X105793579Y-192073772D01*
X105579494Y-191973942D01*
X105579483Y-191973937D01*
X105351325Y-191912802D01*
X105351318Y-191912801D01*
X105268882Y-191905589D01*
X105223006Y-191884197D01*
X105201614Y-191838321D01*
X105214715Y-191789426D01*
X105256179Y-191760392D01*
X105275332Y-191757871D01*
X105985746Y-191757871D01*
X105985748Y-191757871D01*
X106044231Y-191746238D01*
X106110552Y-191701923D01*
X106154867Y-191635602D01*
X106166500Y-191577119D01*
X106166500Y-189837623D01*
X106154867Y-189779140D01*
X106110552Y-189712819D01*
X106088343Y-189697979D01*
X106044232Y-189668504D01*
X106044233Y-189668504D01*
X106014989Y-189662687D01*
X105985748Y-189656871D01*
X104246252Y-189656871D01*
X104217010Y-189662687D01*
X104187767Y-189668504D01*
X104121449Y-189712818D01*
X104121447Y-189712820D01*
X104077133Y-189779138D01*
X104065500Y-189837624D01*
X104065500Y-191577117D01*
X104077133Y-191635603D01*
X104106608Y-191679714D01*
X104121448Y-191701923D01*
X104165560Y-191731398D01*
X104187767Y-191746237D01*
X104187768Y-191746237D01*
X104187769Y-191746238D01*
X104246252Y-191757871D01*
X104246254Y-191757871D01*
X104956668Y-191757871D01*
X105004234Y-191775184D01*
X105029544Y-191819021D01*
X105020754Y-191868871D01*
X104981977Y-191901408D01*
X104963118Y-191905589D01*
X104880681Y-191912801D01*
X104880674Y-191912802D01*
X104652516Y-191973937D01*
X104652505Y-191973942D01*
X104438421Y-192073772D01*
X104244921Y-192209261D01*
X104077890Y-192376292D01*
X103942400Y-192569792D01*
X103913067Y-192632698D01*
X103877273Y-192668491D01*
X103826847Y-192672902D01*
X103785382Y-192643868D01*
X103778933Y-192632698D01*
X103749599Y-192569792D01*
X103614109Y-192376292D01*
X103447075Y-192209259D01*
X103447076Y-192209259D01*
X103253579Y-192073772D01*
X103039494Y-191973942D01*
X103039483Y-191973937D01*
X102811325Y-191912802D01*
X102811318Y-191912801D01*
X102673757Y-191900766D01*
X102627881Y-191879374D01*
X102606489Y-191833497D01*
X102619590Y-191784603D01*
X102661054Y-191755569D01*
X102672945Y-191753405D01*
X102781934Y-191742671D01*
X102979954Y-191682603D01*
X103162450Y-191585056D01*
X103322410Y-191453781D01*
X103453685Y-191293821D01*
X103551232Y-191111325D01*
X103611300Y-190913305D01*
X103631583Y-190707371D01*
X103611300Y-190501437D01*
X103551232Y-190303417D01*
X103453685Y-190120921D01*
X103322410Y-189960961D01*
X103162450Y-189829686D01*
X102979954Y-189732139D01*
X102868158Y-189698226D01*
X102781935Y-189672071D01*
X102576000Y-189651788D01*
X102370064Y-189672071D01*
X102172043Y-189732140D01*
X101989549Y-189829686D01*
X101829590Y-189960960D01*
X101829589Y-189960961D01*
X101698315Y-190120920D01*
X101600769Y-190303414D01*
X101540700Y-190501435D01*
X101540699Y-190501437D01*
X101540700Y-190501437D01*
X101520417Y-190707371D01*
X101540700Y-190913305D01*
X101600768Y-191111325D01*
X101698315Y-191293821D01*
X101829590Y-191453781D01*
X101989550Y-191585056D01*
X102172046Y-191682603D01*
X102370066Y-191742671D01*
X102479046Y-191753404D01*
X102524686Y-191775296D01*
X102545576Y-191821403D01*
X102531943Y-191870151D01*
X102490164Y-191898731D01*
X102478242Y-191900766D01*
X102340681Y-191912801D01*
X102340674Y-191912802D01*
X102112516Y-191973937D01*
X102112505Y-191973942D01*
X101898421Y-192073772D01*
X101704921Y-192209261D01*
X101537890Y-192376292D01*
X101402400Y-192569792D01*
X101373067Y-192632698D01*
X101337273Y-192668491D01*
X101286847Y-192672902D01*
X101245382Y-192643868D01*
X101238933Y-192632698D01*
X101209599Y-192569792D01*
X101074109Y-192376292D01*
X100907075Y-192209259D01*
X100907076Y-192209259D01*
X100713579Y-192073772D01*
X100499494Y-191973942D01*
X100499483Y-191973937D01*
X100271325Y-191912802D01*
X100271318Y-191912801D01*
X100133757Y-191900766D01*
X100087881Y-191879374D01*
X100066489Y-191833497D01*
X100079590Y-191784603D01*
X100121054Y-191755569D01*
X100132945Y-191753405D01*
X100241934Y-191742671D01*
X100439954Y-191682603D01*
X100622450Y-191585056D01*
X100782410Y-191453781D01*
X100913685Y-191293821D01*
X101011232Y-191111325D01*
X101071300Y-190913305D01*
X101091583Y-190707371D01*
X101071300Y-190501437D01*
X101011232Y-190303417D01*
X100913685Y-190120921D01*
X100782410Y-189960961D01*
X100622450Y-189829686D01*
X100439954Y-189732139D01*
X100328158Y-189698226D01*
X100241935Y-189672071D01*
X100138967Y-189661929D01*
X100036000Y-189651788D01*
X100035999Y-189651788D01*
X99830064Y-189672071D01*
X99632043Y-189732140D01*
X99449549Y-189829686D01*
X99289590Y-189960960D01*
X99289589Y-189960961D01*
X99158315Y-190120920D01*
X99060769Y-190303414D01*
X99000700Y-190501435D01*
X99000699Y-190501437D01*
X99000700Y-190501437D01*
X98980417Y-190707371D01*
X99000700Y-190913305D01*
X99060768Y-191111325D01*
X99158315Y-191293821D01*
X99289590Y-191453781D01*
X99449550Y-191585056D01*
X99632046Y-191682603D01*
X99830066Y-191742671D01*
X99939046Y-191753404D01*
X99984686Y-191775296D01*
X100005576Y-191821403D01*
X99991943Y-191870151D01*
X99950164Y-191898731D01*
X99938242Y-191900766D01*
X99800681Y-191912801D01*
X99800674Y-191912802D01*
X99572516Y-191973937D01*
X99572505Y-191973942D01*
X99358421Y-192073772D01*
X99164921Y-192209261D01*
X98997890Y-192376292D01*
X98862400Y-192569792D01*
X98833067Y-192632698D01*
X98797273Y-192668491D01*
X98746847Y-192672902D01*
X98705382Y-192643868D01*
X98698933Y-192632698D01*
X98669599Y-192569792D01*
X98534109Y-192376292D01*
X98367075Y-192209259D01*
X98367076Y-192209259D01*
X98173579Y-192073772D01*
X97959494Y-191973942D01*
X97959483Y-191973937D01*
X97731325Y-191912802D01*
X97731318Y-191912801D01*
X97593757Y-191900766D01*
X97547881Y-191879374D01*
X97526489Y-191833497D01*
X97539590Y-191784603D01*
X97581054Y-191755569D01*
X97592945Y-191753405D01*
X97701934Y-191742671D01*
X97899954Y-191682603D01*
X98082450Y-191585056D01*
X98242410Y-191453781D01*
X98373685Y-191293821D01*
X98471232Y-191111325D01*
X98531300Y-190913305D01*
X98551583Y-190707371D01*
X98531300Y-190501437D01*
X98471232Y-190303417D01*
X98373685Y-190120921D01*
X98242410Y-189960961D01*
X98082450Y-189829686D01*
X97899954Y-189732139D01*
X97788158Y-189698226D01*
X97701935Y-189672071D01*
X97496000Y-189651788D01*
X97290064Y-189672071D01*
X97092043Y-189732140D01*
X96909549Y-189829686D01*
X96749590Y-189960960D01*
X96749589Y-189960961D01*
X96618315Y-190120920D01*
X96520769Y-190303414D01*
X96460700Y-190501435D01*
X96460699Y-190501437D01*
X96460700Y-190501437D01*
X96440417Y-190707371D01*
X96460700Y-190913305D01*
X96520768Y-191111325D01*
X96618315Y-191293821D01*
X96749590Y-191453781D01*
X96909550Y-191585056D01*
X97092046Y-191682603D01*
X97290066Y-191742671D01*
X97399046Y-191753404D01*
X97444686Y-191775296D01*
X97465576Y-191821403D01*
X97451943Y-191870151D01*
X97410164Y-191898731D01*
X97398242Y-191900766D01*
X97260681Y-191912801D01*
X97260674Y-191912802D01*
X97032516Y-191973937D01*
X97032505Y-191973942D01*
X96818421Y-192073772D01*
X96624921Y-192209261D01*
X96457890Y-192376292D01*
X96322401Y-192569792D01*
X96222567Y-192783883D01*
X96165363Y-192997370D01*
X96165364Y-192997371D01*
X97062314Y-192997371D01*
X97036507Y-193037527D01*
X96996000Y-193175482D01*
X96996000Y-193319260D01*
X97036507Y-193457215D01*
X97062314Y-193497371D01*
X96165363Y-193497371D01*
X93746636Y-193497371D01*
X92849686Y-193497371D01*
X92875493Y-193457215D01*
X92916000Y-193319260D01*
X92916000Y-193175482D01*
X92875493Y-193037527D01*
X92849686Y-192997371D01*
X93746636Y-192997371D01*
X93746636Y-192997370D01*
X93689432Y-192783883D01*
X93589598Y-192569792D01*
X93454109Y-192376292D01*
X93287075Y-192209259D01*
X93287076Y-192209259D01*
X93093579Y-192073772D01*
X92879494Y-191973942D01*
X92879483Y-191973937D01*
X92651325Y-191912802D01*
X92651318Y-191912801D01*
X92568882Y-191905589D01*
X92523006Y-191884197D01*
X92501614Y-191838321D01*
X92514715Y-191789426D01*
X92556179Y-191760392D01*
X92575332Y-191757871D01*
X93285746Y-191757871D01*
X93285748Y-191757871D01*
X93344231Y-191746238D01*
X93410552Y-191701923D01*
X93454867Y-191635602D01*
X93466500Y-191577119D01*
X93466500Y-189837623D01*
X93454867Y-189779140D01*
X93410552Y-189712819D01*
X93388343Y-189697979D01*
X93344232Y-189668504D01*
X93344233Y-189668504D01*
X93314989Y-189662687D01*
X93285748Y-189656871D01*
X91546252Y-189656871D01*
X91517010Y-189662687D01*
X91487767Y-189668504D01*
X91421449Y-189712818D01*
X91421447Y-189712820D01*
X91377133Y-189779138D01*
X91365500Y-189837624D01*
X91365500Y-191577117D01*
X91377133Y-191635603D01*
X91406608Y-191679714D01*
X91421448Y-191701923D01*
X91465560Y-191731398D01*
X91487767Y-191746237D01*
X91487768Y-191746237D01*
X91487769Y-191746238D01*
X91546252Y-191757871D01*
X91546254Y-191757871D01*
X92256668Y-191757871D01*
X92304234Y-191775184D01*
X92329544Y-191819021D01*
X92320754Y-191868871D01*
X92281977Y-191901408D01*
X92263118Y-191905589D01*
X92180681Y-191912801D01*
X92180674Y-191912802D01*
X91952516Y-191973937D01*
X91952505Y-191973942D01*
X91738421Y-192073772D01*
X91544921Y-192209261D01*
X91377890Y-192376292D01*
X91242400Y-192569792D01*
X91213067Y-192632698D01*
X91177273Y-192668491D01*
X91126847Y-192672902D01*
X91085382Y-192643868D01*
X91078933Y-192632698D01*
X91049599Y-192569792D01*
X90914109Y-192376292D01*
X90747075Y-192209259D01*
X90747076Y-192209259D01*
X90553579Y-192073772D01*
X90339494Y-191973942D01*
X90339483Y-191973937D01*
X90111325Y-191912802D01*
X90111318Y-191912801D01*
X89973757Y-191900766D01*
X89927881Y-191879374D01*
X89906489Y-191833497D01*
X89919590Y-191784603D01*
X89961054Y-191755569D01*
X89972945Y-191753405D01*
X90081934Y-191742671D01*
X90279954Y-191682603D01*
X90462450Y-191585056D01*
X90622410Y-191453781D01*
X90753685Y-191293821D01*
X90851232Y-191111325D01*
X90911300Y-190913305D01*
X90931583Y-190707371D01*
X90911300Y-190501437D01*
X90851232Y-190303417D01*
X90753685Y-190120921D01*
X90622410Y-189960961D01*
X90462450Y-189829686D01*
X90279954Y-189732139D01*
X90168158Y-189698226D01*
X90081935Y-189672071D01*
X89978966Y-189661929D01*
X89876000Y-189651788D01*
X89875999Y-189651788D01*
X89670064Y-189672071D01*
X89472043Y-189732140D01*
X89289549Y-189829686D01*
X89129590Y-189960960D01*
X89129589Y-189960961D01*
X88998315Y-190120920D01*
X88900769Y-190303414D01*
X88840700Y-190501435D01*
X88840699Y-190501437D01*
X88840700Y-190501437D01*
X88820417Y-190707371D01*
X88840700Y-190913305D01*
X88900768Y-191111325D01*
X88998315Y-191293821D01*
X89129590Y-191453781D01*
X89289550Y-191585056D01*
X89472046Y-191682603D01*
X89670066Y-191742671D01*
X89779046Y-191753404D01*
X89824686Y-191775296D01*
X89845576Y-191821403D01*
X89831943Y-191870151D01*
X89790164Y-191898731D01*
X89778242Y-191900766D01*
X89640681Y-191912801D01*
X89640674Y-191912802D01*
X89412516Y-191973937D01*
X89412505Y-191973942D01*
X89198421Y-192073772D01*
X89004921Y-192209261D01*
X88837890Y-192376292D01*
X88702400Y-192569792D01*
X88673067Y-192632698D01*
X88637273Y-192668491D01*
X88586847Y-192672902D01*
X88545382Y-192643868D01*
X88538933Y-192632698D01*
X88509599Y-192569792D01*
X88374109Y-192376292D01*
X88207075Y-192209259D01*
X88207076Y-192209259D01*
X88013579Y-192073772D01*
X87799494Y-191973942D01*
X87799483Y-191973937D01*
X87571325Y-191912802D01*
X87571318Y-191912801D01*
X87433757Y-191900766D01*
X87387881Y-191879374D01*
X87366489Y-191833497D01*
X87379590Y-191784603D01*
X87421054Y-191755569D01*
X87432945Y-191753405D01*
X87541934Y-191742671D01*
X87739954Y-191682603D01*
X87922450Y-191585056D01*
X88082410Y-191453781D01*
X88213685Y-191293821D01*
X88311232Y-191111325D01*
X88371300Y-190913305D01*
X88391583Y-190707371D01*
X88371300Y-190501437D01*
X88311232Y-190303417D01*
X88213685Y-190120921D01*
X88082410Y-189960961D01*
X87922450Y-189829686D01*
X87739954Y-189732139D01*
X87628158Y-189698226D01*
X87541935Y-189672071D01*
X87336000Y-189651788D01*
X87130064Y-189672071D01*
X86932043Y-189732140D01*
X86749549Y-189829686D01*
X86589590Y-189960960D01*
X86589589Y-189960961D01*
X86458315Y-190120920D01*
X86360769Y-190303414D01*
X86300700Y-190501435D01*
X86300699Y-190501437D01*
X86300700Y-190501437D01*
X86280417Y-190707371D01*
X86300700Y-190913305D01*
X86360768Y-191111325D01*
X86458315Y-191293821D01*
X86589590Y-191453781D01*
X86749550Y-191585056D01*
X86932046Y-191682603D01*
X87130066Y-191742671D01*
X87239046Y-191753404D01*
X87284686Y-191775296D01*
X87305576Y-191821403D01*
X87291943Y-191870151D01*
X87250164Y-191898731D01*
X87238242Y-191900766D01*
X87100681Y-191912801D01*
X87100674Y-191912802D01*
X86872516Y-191973937D01*
X86872505Y-191973942D01*
X86658421Y-192073772D01*
X86464921Y-192209261D01*
X86297890Y-192376292D01*
X86162399Y-192569794D01*
X86133065Y-192632699D01*
X86097271Y-192668491D01*
X86046845Y-192672902D01*
X86005381Y-192643867D01*
X85998932Y-192632697D01*
X85969600Y-192569794D01*
X85834109Y-192376292D01*
X85667075Y-192209259D01*
X85667076Y-192209259D01*
X85473579Y-192073772D01*
X85259494Y-191973942D01*
X85259483Y-191973937D01*
X85031325Y-191912802D01*
X85031318Y-191912801D01*
X84893757Y-191900766D01*
X84847881Y-191879374D01*
X84826489Y-191833497D01*
X84839590Y-191784603D01*
X84881054Y-191755569D01*
X84892945Y-191753405D01*
X85001934Y-191742671D01*
X85199954Y-191682603D01*
X85382450Y-191585056D01*
X85542410Y-191453781D01*
X85673685Y-191293821D01*
X85771232Y-191111325D01*
X85831300Y-190913305D01*
X85851583Y-190707371D01*
X85831300Y-190501437D01*
X85771232Y-190303417D01*
X85673685Y-190120921D01*
X85542410Y-189960961D01*
X85382450Y-189829686D01*
X85199954Y-189732139D01*
X85088158Y-189698226D01*
X85001935Y-189672071D01*
X84796000Y-189651788D01*
X84590064Y-189672071D01*
X84392043Y-189732140D01*
X84209549Y-189829686D01*
X84049590Y-189960960D01*
X84049589Y-189960961D01*
X83918315Y-190120920D01*
X83820769Y-190303414D01*
X83760700Y-190501435D01*
X83760699Y-190501437D01*
X83760700Y-190501437D01*
X83740417Y-190707371D01*
X83760700Y-190913305D01*
X83820768Y-191111325D01*
X83918315Y-191293821D01*
X84049590Y-191453781D01*
X84209550Y-191585056D01*
X84392046Y-191682603D01*
X84590066Y-191742671D01*
X84699046Y-191753404D01*
X84744686Y-191775296D01*
X84765576Y-191821403D01*
X84751943Y-191870151D01*
X84710164Y-191898731D01*
X84698242Y-191900766D01*
X84560681Y-191912801D01*
X84560674Y-191912802D01*
X84332516Y-191973937D01*
X84332505Y-191973942D01*
X84118421Y-192073772D01*
X83924921Y-192209261D01*
X83757890Y-192376292D01*
X83622401Y-192569792D01*
X83522567Y-192783883D01*
X83465363Y-192997370D01*
X83465364Y-192997371D01*
X84362314Y-192997371D01*
X84336507Y-193037527D01*
X84296000Y-193175482D01*
X84296000Y-193319260D01*
X84336507Y-193457215D01*
X84362314Y-193497371D01*
X83465363Y-193497371D01*
X81046636Y-193497371D01*
X80149686Y-193497371D01*
X80175493Y-193457215D01*
X80216000Y-193319260D01*
X80216000Y-193175482D01*
X80175493Y-193037527D01*
X80149686Y-192997371D01*
X81046636Y-192997371D01*
X81046636Y-192997370D01*
X80989432Y-192783883D01*
X80889598Y-192569792D01*
X80754109Y-192376292D01*
X80587075Y-192209259D01*
X80587076Y-192209259D01*
X80393579Y-192073772D01*
X80179494Y-191973942D01*
X80179483Y-191973937D01*
X79951325Y-191912802D01*
X79951318Y-191912801D01*
X79868882Y-191905589D01*
X79823006Y-191884197D01*
X79801614Y-191838321D01*
X79814715Y-191789426D01*
X79856179Y-191760392D01*
X79875332Y-191757871D01*
X80585746Y-191757871D01*
X80585748Y-191757871D01*
X80644231Y-191746238D01*
X80710552Y-191701923D01*
X80754867Y-191635602D01*
X80766500Y-191577119D01*
X80766500Y-189837623D01*
X80754867Y-189779140D01*
X80710552Y-189712819D01*
X80688343Y-189697979D01*
X80644232Y-189668504D01*
X80644233Y-189668504D01*
X80614989Y-189662687D01*
X80585748Y-189656871D01*
X78846252Y-189656871D01*
X78817010Y-189662687D01*
X78787767Y-189668504D01*
X78721449Y-189712818D01*
X78721447Y-189712820D01*
X78677133Y-189779138D01*
X78665500Y-189837624D01*
X78665500Y-191577117D01*
X78677133Y-191635603D01*
X78706608Y-191679714D01*
X78721448Y-191701923D01*
X78765560Y-191731398D01*
X78787767Y-191746237D01*
X78787768Y-191746237D01*
X78787769Y-191746238D01*
X78846252Y-191757871D01*
X78846254Y-191757871D01*
X79556668Y-191757871D01*
X79604234Y-191775184D01*
X79629544Y-191819021D01*
X79620754Y-191868871D01*
X79581977Y-191901408D01*
X79563118Y-191905589D01*
X79480681Y-191912801D01*
X79480674Y-191912802D01*
X79252516Y-191973937D01*
X79252505Y-191973942D01*
X79038421Y-192073772D01*
X78844921Y-192209261D01*
X78677890Y-192376292D01*
X78542400Y-192569792D01*
X78513067Y-192632698D01*
X78477273Y-192668491D01*
X78426847Y-192672902D01*
X78385382Y-192643868D01*
X78378933Y-192632698D01*
X78349599Y-192569792D01*
X78214109Y-192376292D01*
X78047075Y-192209259D01*
X78047076Y-192209259D01*
X77853579Y-192073772D01*
X77639494Y-191973942D01*
X77639483Y-191973937D01*
X77411325Y-191912802D01*
X77411318Y-191912801D01*
X77273757Y-191900766D01*
X77227881Y-191879374D01*
X77206489Y-191833497D01*
X77219590Y-191784603D01*
X77261054Y-191755569D01*
X77272945Y-191753405D01*
X77381934Y-191742671D01*
X77579954Y-191682603D01*
X77762450Y-191585056D01*
X77922410Y-191453781D01*
X78053685Y-191293821D01*
X78151232Y-191111325D01*
X78211300Y-190913305D01*
X78231583Y-190707371D01*
X78211300Y-190501437D01*
X78151232Y-190303417D01*
X78053685Y-190120921D01*
X77922410Y-189960961D01*
X77762450Y-189829686D01*
X77579954Y-189732139D01*
X77468158Y-189698226D01*
X77381935Y-189672071D01*
X77176000Y-189651788D01*
X76970064Y-189672071D01*
X76772043Y-189732140D01*
X76589549Y-189829686D01*
X76429590Y-189960960D01*
X76429589Y-189960961D01*
X76298315Y-190120920D01*
X76200769Y-190303414D01*
X76140700Y-190501435D01*
X76140699Y-190501437D01*
X76140700Y-190501437D01*
X76120417Y-190707371D01*
X76140700Y-190913305D01*
X76200768Y-191111325D01*
X76298315Y-191293821D01*
X76429590Y-191453781D01*
X76589550Y-191585056D01*
X76772046Y-191682603D01*
X76970066Y-191742671D01*
X77079046Y-191753404D01*
X77124686Y-191775296D01*
X77145576Y-191821403D01*
X77131943Y-191870151D01*
X77090164Y-191898731D01*
X77078242Y-191900766D01*
X76940681Y-191912801D01*
X76940674Y-191912802D01*
X76712516Y-191973937D01*
X76712505Y-191973942D01*
X76498421Y-192073772D01*
X76304921Y-192209261D01*
X76137890Y-192376292D01*
X76002400Y-192569792D01*
X75973067Y-192632698D01*
X75937273Y-192668491D01*
X75886847Y-192672902D01*
X75845382Y-192643868D01*
X75838933Y-192632698D01*
X75809599Y-192569792D01*
X75674109Y-192376292D01*
X75507075Y-192209259D01*
X75507076Y-192209259D01*
X75313579Y-192073772D01*
X75099494Y-191973942D01*
X75099483Y-191973937D01*
X74871325Y-191912802D01*
X74871318Y-191912801D01*
X74733757Y-191900766D01*
X74687881Y-191879374D01*
X74666489Y-191833497D01*
X74679590Y-191784603D01*
X74721054Y-191755569D01*
X74732945Y-191753405D01*
X74841934Y-191742671D01*
X75039954Y-191682603D01*
X75222450Y-191585056D01*
X75382410Y-191453781D01*
X75513685Y-191293821D01*
X75611232Y-191111325D01*
X75671300Y-190913305D01*
X75691583Y-190707371D01*
X75671300Y-190501437D01*
X75611232Y-190303417D01*
X75513685Y-190120921D01*
X75382410Y-189960961D01*
X75222450Y-189829686D01*
X75039954Y-189732139D01*
X74928158Y-189698226D01*
X74841935Y-189672071D01*
X74636000Y-189651788D01*
X74430064Y-189672071D01*
X74232043Y-189732140D01*
X74049549Y-189829686D01*
X73889590Y-189960960D01*
X73889589Y-189960961D01*
X73758315Y-190120920D01*
X73660769Y-190303414D01*
X73600700Y-190501435D01*
X73600699Y-190501437D01*
X73600700Y-190501437D01*
X73580417Y-190707371D01*
X73600700Y-190913305D01*
X73660768Y-191111325D01*
X73758315Y-191293821D01*
X73889590Y-191453781D01*
X74049550Y-191585056D01*
X74232046Y-191682603D01*
X74430066Y-191742671D01*
X74539046Y-191753404D01*
X74584686Y-191775296D01*
X74605576Y-191821403D01*
X74591943Y-191870151D01*
X74550164Y-191898731D01*
X74538242Y-191900766D01*
X74400681Y-191912801D01*
X74400674Y-191912802D01*
X74172516Y-191973937D01*
X74172505Y-191973942D01*
X73958421Y-192073772D01*
X73764921Y-192209261D01*
X73597890Y-192376292D01*
X73462399Y-192569794D01*
X73433065Y-192632699D01*
X73397271Y-192668491D01*
X73346845Y-192672902D01*
X73305381Y-192643867D01*
X73298932Y-192632697D01*
X73269600Y-192569794D01*
X73134109Y-192376292D01*
X72967075Y-192209259D01*
X72967076Y-192209259D01*
X72773579Y-192073772D01*
X72559494Y-191973942D01*
X72559483Y-191973937D01*
X72331325Y-191912802D01*
X72331318Y-191912801D01*
X72193757Y-191900766D01*
X72147881Y-191879374D01*
X72126489Y-191833497D01*
X72139590Y-191784603D01*
X72181054Y-191755569D01*
X72192945Y-191753405D01*
X72301934Y-191742671D01*
X72499954Y-191682603D01*
X72682450Y-191585056D01*
X72842410Y-191453781D01*
X72973685Y-191293821D01*
X73071232Y-191111325D01*
X73131300Y-190913305D01*
X73151583Y-190707371D01*
X73131300Y-190501437D01*
X73071232Y-190303417D01*
X72973685Y-190120921D01*
X72842410Y-189960961D01*
X72682450Y-189829686D01*
X72499954Y-189732139D01*
X72388158Y-189698226D01*
X72301935Y-189672071D01*
X72096000Y-189651788D01*
X71890064Y-189672071D01*
X71692043Y-189732140D01*
X71509549Y-189829686D01*
X71349590Y-189960960D01*
X71349589Y-189960961D01*
X71218315Y-190120920D01*
X71120769Y-190303414D01*
X71060700Y-190501435D01*
X71060699Y-190501437D01*
X71060700Y-190501437D01*
X71040417Y-190707371D01*
X71060700Y-190913305D01*
X71120768Y-191111325D01*
X71218315Y-191293821D01*
X71349590Y-191453781D01*
X71509550Y-191585056D01*
X71692046Y-191682603D01*
X71890066Y-191742671D01*
X71999046Y-191753404D01*
X72044686Y-191775296D01*
X72065576Y-191821403D01*
X72051943Y-191870151D01*
X72010164Y-191898731D01*
X71998242Y-191900766D01*
X71860681Y-191912801D01*
X71860674Y-191912802D01*
X71632516Y-191973937D01*
X71632505Y-191973942D01*
X71418421Y-192073772D01*
X71224921Y-192209261D01*
X71057890Y-192376292D01*
X70922401Y-192569792D01*
X70822567Y-192783883D01*
X70765363Y-192997370D01*
X70765364Y-192997371D01*
X71662314Y-192997371D01*
X71636507Y-193037527D01*
X71596000Y-193175482D01*
X71596000Y-193319260D01*
X71636507Y-193457215D01*
X71662314Y-193497371D01*
X70765363Y-193497371D01*
X68346636Y-193497371D01*
X67449686Y-193497371D01*
X67475493Y-193457215D01*
X67516000Y-193319260D01*
X67516000Y-193175482D01*
X67475493Y-193037527D01*
X67449686Y-192997371D01*
X68346636Y-192997371D01*
X68346636Y-192997370D01*
X68289432Y-192783883D01*
X68189598Y-192569792D01*
X68054109Y-192376292D01*
X67887075Y-192209259D01*
X67887076Y-192209259D01*
X67693579Y-192073772D01*
X67479494Y-191973942D01*
X67479483Y-191973937D01*
X67251325Y-191912802D01*
X67251318Y-191912801D01*
X67168882Y-191905589D01*
X67123006Y-191884197D01*
X67101614Y-191838321D01*
X67114715Y-191789426D01*
X67156179Y-191760392D01*
X67175332Y-191757871D01*
X67885746Y-191757871D01*
X67885748Y-191757871D01*
X67944231Y-191746238D01*
X68010552Y-191701923D01*
X68054867Y-191635602D01*
X68066500Y-191577119D01*
X68066500Y-189837623D01*
X68054867Y-189779140D01*
X68010552Y-189712819D01*
X67988343Y-189697979D01*
X67944232Y-189668504D01*
X67944233Y-189668504D01*
X67914989Y-189662687D01*
X67885748Y-189656871D01*
X66146252Y-189656871D01*
X66117010Y-189662687D01*
X66087767Y-189668504D01*
X66021449Y-189712818D01*
X66021447Y-189712820D01*
X65977133Y-189779138D01*
X65965500Y-189837624D01*
X65965500Y-191577117D01*
X65977133Y-191635603D01*
X66006608Y-191679714D01*
X66021448Y-191701923D01*
X66065560Y-191731398D01*
X66087767Y-191746237D01*
X66087768Y-191746237D01*
X66087769Y-191746238D01*
X66146252Y-191757871D01*
X66146254Y-191757871D01*
X66856668Y-191757871D01*
X66904234Y-191775184D01*
X66929544Y-191819021D01*
X66920754Y-191868871D01*
X66881977Y-191901408D01*
X66863118Y-191905589D01*
X66780681Y-191912801D01*
X66780674Y-191912802D01*
X66552516Y-191973937D01*
X66552505Y-191973942D01*
X66338421Y-192073772D01*
X66144921Y-192209261D01*
X65977890Y-192376292D01*
X65842399Y-192569794D01*
X65813065Y-192632699D01*
X65777271Y-192668491D01*
X65726845Y-192672902D01*
X65685381Y-192643867D01*
X65678932Y-192632697D01*
X65649600Y-192569794D01*
X65514109Y-192376292D01*
X65347075Y-192209259D01*
X65347076Y-192209259D01*
X65153579Y-192073772D01*
X64939494Y-191973942D01*
X64939483Y-191973937D01*
X64711325Y-191912802D01*
X64711318Y-191912801D01*
X64573757Y-191900766D01*
X64527881Y-191879374D01*
X64506489Y-191833497D01*
X64519590Y-191784603D01*
X64561054Y-191755569D01*
X64572945Y-191753405D01*
X64681934Y-191742671D01*
X64879954Y-191682603D01*
X65062450Y-191585056D01*
X65222410Y-191453781D01*
X65353685Y-191293821D01*
X65451232Y-191111325D01*
X65511300Y-190913305D01*
X65531583Y-190707371D01*
X65511300Y-190501437D01*
X65451232Y-190303417D01*
X65353685Y-190120921D01*
X65222410Y-189960961D01*
X65062450Y-189829686D01*
X64879954Y-189732139D01*
X64768158Y-189698226D01*
X64681935Y-189672071D01*
X64476000Y-189651788D01*
X64270064Y-189672071D01*
X64072043Y-189732140D01*
X63889549Y-189829686D01*
X63729590Y-189960960D01*
X63729589Y-189960961D01*
X63598315Y-190120920D01*
X63500769Y-190303414D01*
X63440700Y-190501435D01*
X63440699Y-190501437D01*
X63440700Y-190501437D01*
X63420417Y-190707371D01*
X63440700Y-190913305D01*
X63500768Y-191111325D01*
X63598315Y-191293821D01*
X63729590Y-191453781D01*
X63889550Y-191585056D01*
X64072046Y-191682603D01*
X64270066Y-191742671D01*
X64379046Y-191753404D01*
X64424686Y-191775296D01*
X64445576Y-191821403D01*
X64431943Y-191870151D01*
X64390164Y-191898731D01*
X64378242Y-191900766D01*
X64240681Y-191912801D01*
X64240674Y-191912802D01*
X64012516Y-191973937D01*
X64012505Y-191973942D01*
X63798421Y-192073772D01*
X63604921Y-192209261D01*
X63437890Y-192376292D01*
X63302400Y-192569792D01*
X63273067Y-192632698D01*
X63237273Y-192668491D01*
X63186847Y-192672902D01*
X63145382Y-192643868D01*
X63138933Y-192632698D01*
X63109599Y-192569792D01*
X62974109Y-192376292D01*
X62807075Y-192209259D01*
X62807076Y-192209259D01*
X62613579Y-192073772D01*
X62399494Y-191973942D01*
X62399483Y-191973937D01*
X62171325Y-191912802D01*
X62171318Y-191912801D01*
X62033757Y-191900766D01*
X61987881Y-191879374D01*
X61966489Y-191833497D01*
X61979590Y-191784603D01*
X62021054Y-191755569D01*
X62032945Y-191753405D01*
X62141934Y-191742671D01*
X62339954Y-191682603D01*
X62522450Y-191585056D01*
X62682410Y-191453781D01*
X62813685Y-191293821D01*
X62911232Y-191111325D01*
X62971300Y-190913305D01*
X62991583Y-190707371D01*
X62971300Y-190501437D01*
X62911232Y-190303417D01*
X62813685Y-190120921D01*
X62682410Y-189960961D01*
X62522450Y-189829686D01*
X62339954Y-189732139D01*
X62228158Y-189698226D01*
X62141935Y-189672071D01*
X61936000Y-189651788D01*
X61730064Y-189672071D01*
X61532043Y-189732140D01*
X61349549Y-189829686D01*
X61189590Y-189960960D01*
X61189589Y-189960961D01*
X61058315Y-190120920D01*
X60960769Y-190303414D01*
X60900700Y-190501435D01*
X60900699Y-190501437D01*
X60900700Y-190501437D01*
X60880417Y-190707371D01*
X60900700Y-190913305D01*
X60960768Y-191111325D01*
X61058315Y-191293821D01*
X61189590Y-191453781D01*
X61349550Y-191585056D01*
X61532046Y-191682603D01*
X61730066Y-191742671D01*
X61839046Y-191753404D01*
X61884686Y-191775296D01*
X61905576Y-191821403D01*
X61891943Y-191870151D01*
X61850164Y-191898731D01*
X61838242Y-191900766D01*
X61700681Y-191912801D01*
X61700674Y-191912802D01*
X61472516Y-191973937D01*
X61472505Y-191973942D01*
X61258421Y-192073772D01*
X61064921Y-192209261D01*
X60897890Y-192376292D01*
X60762399Y-192569794D01*
X60733065Y-192632699D01*
X60697271Y-192668491D01*
X60646845Y-192672902D01*
X60605381Y-192643867D01*
X60598932Y-192632697D01*
X60569600Y-192569794D01*
X60434109Y-192376292D01*
X60267075Y-192209259D01*
X60267076Y-192209259D01*
X60073579Y-192073772D01*
X59859494Y-191973942D01*
X59859483Y-191973937D01*
X59631325Y-191912802D01*
X59631318Y-191912801D01*
X59493757Y-191900766D01*
X59447881Y-191879374D01*
X59426489Y-191833497D01*
X59439590Y-191784603D01*
X59481054Y-191755569D01*
X59492945Y-191753405D01*
X59601934Y-191742671D01*
X59799954Y-191682603D01*
X59982450Y-191585056D01*
X60142410Y-191453781D01*
X60273685Y-191293821D01*
X60371232Y-191111325D01*
X60431300Y-190913305D01*
X60451583Y-190707371D01*
X60431300Y-190501437D01*
X60371232Y-190303417D01*
X60273685Y-190120921D01*
X60142410Y-189960961D01*
X59982450Y-189829686D01*
X59799954Y-189732139D01*
X59688158Y-189698226D01*
X59601935Y-189672071D01*
X59498967Y-189661929D01*
X59396000Y-189651788D01*
X59395999Y-189651788D01*
X59190064Y-189672071D01*
X58992043Y-189732140D01*
X58809549Y-189829686D01*
X58649590Y-189960960D01*
X58649589Y-189960961D01*
X58518315Y-190120920D01*
X58420769Y-190303414D01*
X58360700Y-190501435D01*
X58360699Y-190501437D01*
X58360700Y-190501437D01*
X58340417Y-190707371D01*
X58360700Y-190913305D01*
X58420768Y-191111325D01*
X58518315Y-191293821D01*
X58649590Y-191453781D01*
X58809550Y-191585056D01*
X58992046Y-191682603D01*
X59190066Y-191742671D01*
X59299046Y-191753404D01*
X59344686Y-191775296D01*
X59365576Y-191821403D01*
X59351943Y-191870151D01*
X59310164Y-191898731D01*
X59298242Y-191900766D01*
X59160681Y-191912801D01*
X59160674Y-191912802D01*
X58932516Y-191973937D01*
X58932505Y-191973942D01*
X58718421Y-192073772D01*
X58524921Y-192209261D01*
X58357890Y-192376292D01*
X58222401Y-192569792D01*
X58122567Y-192783883D01*
X58065363Y-192997370D01*
X58065364Y-192997371D01*
X58962314Y-192997371D01*
X58936507Y-193037527D01*
X58896000Y-193175482D01*
X58896000Y-193319260D01*
X58936507Y-193457215D01*
X58962314Y-193497371D01*
X58065363Y-193497371D01*
X57516500Y-193497371D01*
X57516500Y-178771614D01*
X72053441Y-178771614D01*
X72074078Y-178928374D01*
X72074078Y-178928375D01*
X72134587Y-179074455D01*
X72230838Y-179199893D01*
X72230843Y-179199898D01*
X72314468Y-179264065D01*
X72356282Y-179296150D01*
X72502361Y-179356658D01*
X72659123Y-179377296D01*
X72815885Y-179356658D01*
X72961964Y-179296150D01*
X73087405Y-179199896D01*
X73183659Y-179074455D01*
X73244167Y-178928376D01*
X73264805Y-178771614D01*
X73244167Y-178614852D01*
X73231388Y-178584000D01*
X77629318Y-178584000D01*
X77649955Y-178740760D01*
X77649955Y-178740761D01*
X77710464Y-178886841D01*
X77806715Y-179012279D01*
X77806720Y-179012284D01*
X77887744Y-179074455D01*
X77932159Y-179108536D01*
X78078238Y-179169044D01*
X78235000Y-179189682D01*
X78391762Y-179169044D01*
X78537841Y-179108536D01*
X78663282Y-179012282D01*
X78759536Y-178886841D01*
X78807265Y-178771614D01*
X97961442Y-178771614D01*
X97982079Y-178928374D01*
X97982079Y-178928375D01*
X98042588Y-179074455D01*
X98138839Y-179199893D01*
X98138844Y-179199898D01*
X98222469Y-179264065D01*
X98264283Y-179296150D01*
X98410362Y-179356658D01*
X98567124Y-179377296D01*
X98723886Y-179356658D01*
X98869965Y-179296150D01*
X98995406Y-179199896D01*
X99091660Y-179074455D01*
X99152168Y-178928376D01*
X99172806Y-178771614D01*
X99152168Y-178614852D01*
X99091660Y-178468773D01*
X99020390Y-178375892D01*
X98995408Y-178343334D01*
X98995403Y-178343329D01*
X98869965Y-178247078D01*
X98723885Y-178186569D01*
X98587761Y-178168648D01*
X98567124Y-178165932D01*
X98567123Y-178165932D01*
X98410363Y-178186569D01*
X98410362Y-178186569D01*
X98264282Y-178247078D01*
X98138844Y-178343329D01*
X98138839Y-178343334D01*
X98042588Y-178468772D01*
X97982079Y-178614852D01*
X97982079Y-178614853D01*
X97961442Y-178771614D01*
X78807265Y-178771614D01*
X78820044Y-178740762D01*
X78840682Y-178584000D01*
X78820044Y-178427238D01*
X78759536Y-178281159D01*
X78718960Y-178228279D01*
X78663284Y-178155720D01*
X78663279Y-178155715D01*
X78537841Y-178059464D01*
X78391761Y-177998955D01*
X78235000Y-177978318D01*
X78078239Y-177998955D01*
X78078238Y-177998955D01*
X77932158Y-178059464D01*
X77806720Y-178155715D01*
X77806715Y-178155720D01*
X77710464Y-178281158D01*
X77649955Y-178427238D01*
X77649955Y-178427239D01*
X77629318Y-178584000D01*
X73231388Y-178584000D01*
X73183659Y-178468773D01*
X73112389Y-178375892D01*
X73087407Y-178343334D01*
X73087402Y-178343329D01*
X72961964Y-178247078D01*
X72815884Y-178186569D01*
X72679759Y-178168648D01*
X72659123Y-178165932D01*
X72659122Y-178165932D01*
X72502362Y-178186569D01*
X72502361Y-178186569D01*
X72356281Y-178247078D01*
X72230843Y-178343329D01*
X72230838Y-178343334D01*
X72134587Y-178468772D01*
X72074078Y-178614852D01*
X72074078Y-178614853D01*
X72053441Y-178771614D01*
X57516500Y-178771614D01*
X57516500Y-177784000D01*
X59929318Y-177784000D01*
X59949955Y-177940760D01*
X59949955Y-177940761D01*
X60010464Y-178086841D01*
X60106715Y-178212279D01*
X60106720Y-178212284D01*
X60127572Y-178228284D01*
X60232159Y-178308536D01*
X60378238Y-178369044D01*
X60535000Y-178389682D01*
X60691762Y-178369044D01*
X60837841Y-178308536D01*
X60963282Y-178212282D01*
X61059536Y-178086841D01*
X61118252Y-177945089D01*
X79638473Y-177945089D01*
X79640322Y-177956761D01*
X79659557Y-178078215D01*
X79720748Y-178198308D01*
X79720749Y-178198309D01*
X79816057Y-178293617D01*
X79936150Y-178354807D01*
X79936150Y-178354808D01*
X79954352Y-178357690D01*
X80069277Y-178375893D01*
X80202403Y-178354808D01*
X80322497Y-178293617D01*
X80417805Y-178198309D01*
X80478996Y-178078215D01*
X80500081Y-177945089D01*
X80478996Y-177811963D01*
X80478996Y-177811962D01*
X80464748Y-177783999D01*
X85837319Y-177783999D01*
X85857956Y-177940760D01*
X85857956Y-177940761D01*
X85918465Y-178086841D01*
X86014716Y-178212279D01*
X86014721Y-178212284D01*
X86035573Y-178228284D01*
X86140160Y-178308536D01*
X86286239Y-178369044D01*
X86443001Y-178389682D01*
X86599763Y-178369044D01*
X86745842Y-178308536D01*
X86871283Y-178212282D01*
X86967537Y-178086841D01*
X87028045Y-177940762D01*
X87046577Y-177800000D01*
X103394318Y-177800000D01*
X103414955Y-177956760D01*
X103414955Y-177956761D01*
X103475464Y-178102841D01*
X103571715Y-178228279D01*
X103571720Y-178228284D01*
X103640629Y-178281159D01*
X103697159Y-178324536D01*
X103843238Y-178385044D01*
X104000000Y-178405682D01*
X104156762Y-178385044D01*
X104302841Y-178324536D01*
X104428282Y-178228282D01*
X104524536Y-178102841D01*
X104585044Y-177956762D01*
X104605682Y-177800000D01*
X104585044Y-177643238D01*
X104524536Y-177497159D01*
X104428282Y-177371718D01*
X104428279Y-177371715D01*
X104302841Y-177275464D01*
X104156761Y-177214955D01*
X104000000Y-177194318D01*
X103843239Y-177214955D01*
X103843238Y-177214955D01*
X103697158Y-177275464D01*
X103571720Y-177371715D01*
X103571715Y-177371720D01*
X103475464Y-177497158D01*
X103414955Y-177643238D01*
X103414955Y-177643239D01*
X103394318Y-177800000D01*
X87046577Y-177800000D01*
X87048683Y-177784000D01*
X87028045Y-177627238D01*
X86967537Y-177481159D01*
X86883562Y-177371720D01*
X86871285Y-177355720D01*
X86871280Y-177355715D01*
X86745842Y-177259464D01*
X86599762Y-177198955D01*
X86443001Y-177178318D01*
X86286240Y-177198955D01*
X86286239Y-177198955D01*
X86140159Y-177259464D01*
X86014721Y-177355715D01*
X86014716Y-177355720D01*
X85918465Y-177481158D01*
X85857956Y-177627238D01*
X85857956Y-177627239D01*
X85837319Y-177783999D01*
X80464748Y-177783999D01*
X80417805Y-177691869D01*
X80322496Y-177596560D01*
X80202403Y-177535370D01*
X80202403Y-177535369D01*
X80069277Y-177514285D01*
X79936150Y-177535369D01*
X79936150Y-177535370D01*
X79816057Y-177596560D01*
X79720748Y-177691869D01*
X79659558Y-177811962D01*
X79659557Y-177811962D01*
X79639158Y-177940761D01*
X79638473Y-177945089D01*
X61118252Y-177945089D01*
X61120044Y-177940762D01*
X61140682Y-177784000D01*
X61120044Y-177627238D01*
X61059536Y-177481159D01*
X60975561Y-177371720D01*
X60963284Y-177355720D01*
X60963279Y-177355715D01*
X60837841Y-177259464D01*
X60691761Y-177198955D01*
X60535000Y-177178318D01*
X60378239Y-177198955D01*
X60378238Y-177198955D01*
X60232158Y-177259464D01*
X60106720Y-177355715D01*
X60106715Y-177355720D01*
X60010464Y-177481158D01*
X59949955Y-177627238D01*
X59949955Y-177627239D01*
X59929318Y-177784000D01*
X57516500Y-177784000D01*
X57516500Y-176727358D01*
X83532251Y-176727358D01*
X83553335Y-176860484D01*
X83614526Y-176980577D01*
X83614527Y-176980578D01*
X83709835Y-177075886D01*
X83829928Y-177137076D01*
X83829928Y-177137077D01*
X83851012Y-177140416D01*
X83963055Y-177158162D01*
X84096181Y-177137077D01*
X84216275Y-177075886D01*
X84311583Y-176980578D01*
X84372774Y-176860484D01*
X84393859Y-176727358D01*
X84389153Y-176697645D01*
X84398812Y-176647957D01*
X84438150Y-176616102D01*
X84488761Y-176616985D01*
X84496385Y-176621124D01*
X84496605Y-176620694D01*
X84501793Y-176623337D01*
X84501794Y-176623338D01*
X84621887Y-176684528D01*
X84621887Y-176684529D01*
X84642972Y-176687868D01*
X84755014Y-176705614D01*
X84888140Y-176684529D01*
X85008234Y-176623338D01*
X85103542Y-176528030D01*
X85164733Y-176407936D01*
X85185818Y-176274810D01*
X85164733Y-176141684D01*
X85164733Y-176141683D01*
X85103542Y-176021590D01*
X85008233Y-175926281D01*
X84888140Y-175865091D01*
X84888140Y-175865090D01*
X84755014Y-175844006D01*
X84621887Y-175865090D01*
X84621887Y-175865091D01*
X84501794Y-175926281D01*
X84406485Y-176021590D01*
X84345295Y-176141683D01*
X84345294Y-176141683D01*
X84324210Y-176274810D01*
X84324210Y-176274811D01*
X84328915Y-176304522D01*
X84319256Y-176354211D01*
X84279917Y-176386066D01*
X84229305Y-176385181D01*
X84221683Y-176381043D01*
X84221464Y-176381474D01*
X84167957Y-176354211D01*
X84096181Y-176317639D01*
X84096181Y-176317638D01*
X83963055Y-176296554D01*
X83829928Y-176317638D01*
X83829928Y-176317639D01*
X83709835Y-176378829D01*
X83614526Y-176474138D01*
X83553336Y-176594231D01*
X83553335Y-176594231D01*
X83532251Y-176727358D01*
X57516500Y-176727358D01*
X57516500Y-175399999D01*
X67369196Y-175399999D01*
X67390280Y-175533126D01*
X67451471Y-175653219D01*
X67451472Y-175653220D01*
X67546780Y-175748528D01*
X67666873Y-175809718D01*
X67666873Y-175809719D01*
X67685075Y-175812601D01*
X67800000Y-175830804D01*
X67933126Y-175809719D01*
X68053220Y-175748528D01*
X68148528Y-175653220D01*
X68209719Y-175533126D01*
X68214966Y-175500000D01*
X70669196Y-175500000D01*
X70690280Y-175633126D01*
X70742736Y-175736075D01*
X70751472Y-175753220D01*
X70846780Y-175848528D01*
X70966873Y-175909718D01*
X70966873Y-175909719D01*
X70985075Y-175912601D01*
X71100000Y-175930804D01*
X71233126Y-175909719D01*
X71353220Y-175848528D01*
X71448528Y-175753220D01*
X71509719Y-175633126D01*
X71526911Y-175524578D01*
X71540505Y-175500054D01*
X71659433Y-175500054D01*
X71672640Y-175522035D01*
X71673089Y-175524579D01*
X71690281Y-175633126D01*
X71742735Y-175736074D01*
X71751472Y-175753220D01*
X71846780Y-175848528D01*
X71966873Y-175909718D01*
X71966873Y-175909719D01*
X71987958Y-175913058D01*
X72100000Y-175930804D01*
X72233126Y-175909719D01*
X72353220Y-175848528D01*
X72448528Y-175753220D01*
X72509719Y-175633126D01*
X72530804Y-175500000D01*
X72528089Y-175482855D01*
X80703826Y-175482855D01*
X80724910Y-175615981D01*
X80786101Y-175736074D01*
X80786102Y-175736075D01*
X80881410Y-175831383D01*
X81001503Y-175892573D01*
X81001503Y-175892574D01*
X81022587Y-175895913D01*
X81134630Y-175913659D01*
X81267756Y-175892574D01*
X81387850Y-175831383D01*
X81483158Y-175736075D01*
X81544349Y-175615981D01*
X81565434Y-175482855D01*
X81544349Y-175349729D01*
X81544349Y-175349728D01*
X81483158Y-175229635D01*
X81387849Y-175134326D01*
X81267756Y-175073136D01*
X81267756Y-175073135D01*
X81134630Y-175052051D01*
X81001503Y-175073135D01*
X81001503Y-175073136D01*
X80881410Y-175134326D01*
X80786101Y-175229635D01*
X80724911Y-175349728D01*
X80724910Y-175349728D01*
X80703826Y-175482855D01*
X72528089Y-175482855D01*
X72510994Y-175374922D01*
X72509719Y-175366873D01*
X72448528Y-175246780D01*
X72353219Y-175151471D01*
X72233126Y-175090281D01*
X72233126Y-175090280D01*
X72100000Y-175069196D01*
X71966873Y-175090280D01*
X71966873Y-175090281D01*
X71846780Y-175151471D01*
X71751471Y-175246780D01*
X71690281Y-175366873D01*
X71690280Y-175366874D01*
X71673089Y-175475420D01*
X71659433Y-175500054D01*
X71540505Y-175500054D01*
X71540566Y-175499944D01*
X71527360Y-175477964D01*
X71526911Y-175475420D01*
X71509719Y-175366874D01*
X71509718Y-175366873D01*
X71500982Y-175349728D01*
X71448528Y-175246780D01*
X71353220Y-175151472D01*
X71353219Y-175151472D01*
X71353219Y-175151471D01*
X71233126Y-175090281D01*
X71233126Y-175090280D01*
X71100000Y-175069196D01*
X70966873Y-175090280D01*
X70966873Y-175090281D01*
X70846780Y-175151471D01*
X70751471Y-175246780D01*
X70690281Y-175366873D01*
X70690280Y-175366873D01*
X70669196Y-175500000D01*
X68214966Y-175500000D01*
X68230804Y-175400000D01*
X68211737Y-175279613D01*
X68209719Y-175266873D01*
X68148528Y-175146780D01*
X68053219Y-175051471D01*
X67933126Y-174990281D01*
X67933126Y-174990280D01*
X67800000Y-174969196D01*
X67666873Y-174990280D01*
X67666873Y-174990281D01*
X67546780Y-175051471D01*
X67451471Y-175146780D01*
X67390281Y-175266873D01*
X67390280Y-175266873D01*
X67369196Y-175399999D01*
X57516500Y-175399999D01*
X57516500Y-174351485D01*
X79572455Y-174351485D01*
X79574843Y-174366560D01*
X79593539Y-174484611D01*
X79654730Y-174604704D01*
X79654731Y-174604705D01*
X79750039Y-174700013D01*
X79870132Y-174761203D01*
X79870132Y-174761204D01*
X79891216Y-174764543D01*
X80003259Y-174782289D01*
X80136385Y-174761204D01*
X80256479Y-174700013D01*
X80351787Y-174604705D01*
X80412978Y-174484611D01*
X80434063Y-174351485D01*
X80412978Y-174218359D01*
X80412978Y-174218358D01*
X80351787Y-174098265D01*
X80256478Y-174002956D01*
X80136385Y-173941766D01*
X80136385Y-173941765D01*
X80003259Y-173920681D01*
X79870132Y-173941765D01*
X79870132Y-173941766D01*
X79750039Y-174002956D01*
X79654730Y-174098265D01*
X79593540Y-174218358D01*
X79593539Y-174218358D01*
X79574970Y-174335603D01*
X79572455Y-174351485D01*
X57516500Y-174351485D01*
X57516500Y-173785799D01*
X81269511Y-173785799D01*
X81290595Y-173918925D01*
X81351786Y-174039018D01*
X81351787Y-174039019D01*
X81447095Y-174134327D01*
X81567188Y-174195517D01*
X81567188Y-174195518D01*
X81588273Y-174198857D01*
X81700315Y-174216603D01*
X81759983Y-174207152D01*
X81809670Y-174216810D01*
X81841526Y-174256148D01*
X81844647Y-174291817D01*
X81837712Y-174335603D01*
X81835197Y-174351485D01*
X81837585Y-174366560D01*
X81856281Y-174484611D01*
X81917472Y-174604704D01*
X81917473Y-174604705D01*
X82012781Y-174700013D01*
X82132874Y-174761203D01*
X82132874Y-174761204D01*
X82153958Y-174764543D01*
X82266001Y-174782289D01*
X82325668Y-174772838D01*
X82375355Y-174782496D01*
X82407211Y-174821834D01*
X82410332Y-174857503D01*
X82400882Y-174917169D01*
X82421966Y-175050296D01*
X82477619Y-175159520D01*
X82483158Y-175170390D01*
X82578466Y-175265698D01*
X82698559Y-175326888D01*
X82698559Y-175326889D01*
X82719644Y-175330228D01*
X82831686Y-175347974D01*
X82891353Y-175338523D01*
X82941039Y-175348181D01*
X82972895Y-175387519D01*
X82976016Y-175423187D01*
X82966567Y-175482852D01*
X82966567Y-175482853D01*
X82987651Y-175615980D01*
X83048842Y-175736073D01*
X83048843Y-175736074D01*
X83144151Y-175831382D01*
X83264244Y-175892572D01*
X83264244Y-175892573D01*
X83282446Y-175895455D01*
X83397371Y-175913658D01*
X83530497Y-175892573D01*
X83650591Y-175831382D01*
X83745899Y-175736074D01*
X83807090Y-175615980D01*
X83828175Y-175482854D01*
X83818724Y-175423186D01*
X83828382Y-175373500D01*
X83867720Y-175341644D01*
X83903387Y-175338523D01*
X83963057Y-175347974D01*
X84096183Y-175326889D01*
X84216277Y-175265698D01*
X84311585Y-175170390D01*
X84372776Y-175050296D01*
X84376562Y-175026394D01*
X94560197Y-175026394D01*
X94581281Y-175159520D01*
X94642472Y-175279613D01*
X94642473Y-175279614D01*
X94737781Y-175374922D01*
X94857874Y-175436112D01*
X94857874Y-175436113D01*
X94876076Y-175438995D01*
X94991001Y-175457198D01*
X95124127Y-175436113D01*
X95131030Y-175432595D01*
X95181269Y-175426426D01*
X95223722Y-175453994D01*
X95238523Y-175502401D01*
X95237713Y-175510105D01*
X95235196Y-175525998D01*
X95235196Y-175525999D01*
X95256280Y-175659126D01*
X95304224Y-175753220D01*
X95317472Y-175779220D01*
X95412780Y-175874528D01*
X95532873Y-175935718D01*
X95532873Y-175935719D01*
X95553958Y-175939058D01*
X95666000Y-175956804D01*
X95799126Y-175935719D01*
X95919220Y-175874528D01*
X96014528Y-175779220D01*
X96075719Y-175659126D01*
X96096804Y-175526000D01*
X96076848Y-175400000D01*
X96075719Y-175392873D01*
X96014528Y-175272780D01*
X95919219Y-175177471D01*
X95799126Y-175116281D01*
X95799126Y-175116280D01*
X95666000Y-175095196D01*
X95532873Y-175116280D01*
X95532873Y-175116281D01*
X95525966Y-175119800D01*
X95475724Y-175125965D01*
X95433274Y-175098393D01*
X95418478Y-175049984D01*
X95419284Y-175042308D01*
X95421805Y-175026394D01*
X95400720Y-174893268D01*
X95400720Y-174893267D01*
X95339529Y-174773174D01*
X95244220Y-174677865D01*
X95124127Y-174616675D01*
X95124127Y-174616674D01*
X94991001Y-174595590D01*
X94857874Y-174616674D01*
X94857874Y-174616675D01*
X94737781Y-174677865D01*
X94642472Y-174773174D01*
X94581282Y-174893267D01*
X94581281Y-174893267D01*
X94560197Y-175026394D01*
X84376562Y-175026394D01*
X84393861Y-174917170D01*
X84372776Y-174784044D01*
X84372776Y-174784043D01*
X84311585Y-174663950D01*
X84216276Y-174568641D01*
X84096183Y-174507451D01*
X84096183Y-174507450D01*
X83963057Y-174486366D01*
X83829930Y-174507450D01*
X83829930Y-174507451D01*
X83709837Y-174568641D01*
X83614528Y-174663950D01*
X83553338Y-174784043D01*
X83553337Y-174784043D01*
X83532253Y-174917169D01*
X83541703Y-174976835D01*
X83532044Y-175026524D01*
X83492706Y-175058379D01*
X83457038Y-175061500D01*
X83397371Y-175052050D01*
X83337705Y-175061500D01*
X83288016Y-175051841D01*
X83256161Y-175012503D01*
X83253040Y-174976835D01*
X83254250Y-174969196D01*
X83262490Y-174917170D01*
X83241405Y-174784044D01*
X83241405Y-174784043D01*
X83180214Y-174663950D01*
X83084905Y-174568641D01*
X82964812Y-174507451D01*
X82964812Y-174507450D01*
X82831686Y-174486366D01*
X82772019Y-174495816D01*
X82722330Y-174486157D01*
X82690474Y-174446819D01*
X82687354Y-174411154D01*
X82696805Y-174351485D01*
X82675720Y-174218359D01*
X82675720Y-174218358D01*
X82614529Y-174098265D01*
X82519220Y-174002956D01*
X82399127Y-173941766D01*
X82399127Y-173941765D01*
X82266001Y-173920681D01*
X82206333Y-173930131D01*
X82156644Y-173920472D01*
X82124788Y-173881134D01*
X82121668Y-173845468D01*
X82131119Y-173785799D01*
X82110034Y-173652673D01*
X82110034Y-173652672D01*
X82048843Y-173532579D01*
X81953534Y-173437270D01*
X81833441Y-173376080D01*
X81833441Y-173376079D01*
X81700315Y-173354995D01*
X81567188Y-173376079D01*
X81567188Y-173376080D01*
X81447095Y-173437270D01*
X81351786Y-173532579D01*
X81290596Y-173652672D01*
X81290595Y-173652672D01*
X81269511Y-173785799D01*
X57516500Y-173785799D01*
X57516500Y-173300000D01*
X72569196Y-173300000D01*
X72590280Y-173433126D01*
X72651471Y-173553219D01*
X72651472Y-173553220D01*
X72746780Y-173648528D01*
X72866873Y-173709718D01*
X72866873Y-173709719D01*
X72887958Y-173713058D01*
X73000000Y-173730804D01*
X73133126Y-173709719D01*
X73253220Y-173648528D01*
X73348528Y-173553220D01*
X73409719Y-173433126D01*
X73430804Y-173300000D01*
X73418151Y-173220114D01*
X78441084Y-173220114D01*
X78462168Y-173353240D01*
X78523359Y-173473333D01*
X78523360Y-173473334D01*
X78618668Y-173568642D01*
X78738761Y-173629832D01*
X78738761Y-173629833D01*
X78756963Y-173632715D01*
X78871888Y-173650918D01*
X79005014Y-173629833D01*
X79125108Y-173568642D01*
X79220416Y-173473334D01*
X79281607Y-173353240D01*
X79302692Y-173220114D01*
X79281607Y-173086988D01*
X79281607Y-173086987D01*
X79220416Y-172966894D01*
X79125107Y-172871585D01*
X79005014Y-172810395D01*
X79005014Y-172810394D01*
X78871888Y-172789310D01*
X78738761Y-172810394D01*
X78738761Y-172810395D01*
X78618668Y-172871585D01*
X78523359Y-172966894D01*
X78462169Y-173086987D01*
X78462168Y-173086987D01*
X78441084Y-173220114D01*
X73418151Y-173220114D01*
X73409719Y-173166874D01*
X73409719Y-173166873D01*
X73348528Y-173046780D01*
X73253219Y-172951471D01*
X73133126Y-172890281D01*
X73133126Y-172890280D01*
X73000000Y-172869196D01*
X72866873Y-172890280D01*
X72866873Y-172890281D01*
X72746780Y-172951471D01*
X72651471Y-173046780D01*
X72590281Y-173166873D01*
X72590280Y-173166873D01*
X72569196Y-173300000D01*
X57516500Y-173300000D01*
X57516500Y-172428152D01*
X58065117Y-172428152D01*
X58084036Y-172571860D01*
X58093522Y-172594761D01*
X58139506Y-172705777D01*
X58227746Y-172820773D01*
X58342742Y-172909013D01*
X58476658Y-172964482D01*
X58620367Y-172983402D01*
X58764076Y-172964482D01*
X58897992Y-172909013D01*
X59012988Y-172820773D01*
X59101228Y-172705777D01*
X59156697Y-172571861D01*
X59175617Y-172428152D01*
X59156697Y-172284443D01*
X59101228Y-172150527D01*
X59012988Y-172035531D01*
X58897992Y-171947291D01*
X58891037Y-171944410D01*
X58764075Y-171891821D01*
X58639286Y-171875392D01*
X58620367Y-171872902D01*
X58620366Y-171872902D01*
X58476658Y-171891821D01*
X58342743Y-171947290D01*
X58227746Y-172035531D01*
X58139505Y-172150528D01*
X58084036Y-172284443D01*
X58065117Y-172428152D01*
X57516500Y-172428152D01*
X57516500Y-170957372D01*
X79572455Y-170957372D01*
X79593539Y-171090498D01*
X79654730Y-171210591D01*
X79654731Y-171210592D01*
X79750039Y-171305900D01*
X79870132Y-171367090D01*
X79870132Y-171367091D01*
X79888334Y-171369973D01*
X80003259Y-171388176D01*
X80136385Y-171367091D01*
X80256479Y-171305900D01*
X80351787Y-171210592D01*
X80412978Y-171090498D01*
X80434063Y-170957372D01*
X80434063Y-170957371D01*
X81835196Y-170957371D01*
X81856280Y-171090497D01*
X81917471Y-171210590D01*
X81917472Y-171210591D01*
X82012780Y-171305899D01*
X82132873Y-171367089D01*
X82132873Y-171367090D01*
X82153958Y-171370429D01*
X82266000Y-171388175D01*
X82399126Y-171367090D01*
X82519220Y-171305899D01*
X82614528Y-171210591D01*
X82675719Y-171090497D01*
X82696804Y-170957371D01*
X82966566Y-170957371D01*
X82987650Y-171090497D01*
X83048841Y-171210590D01*
X83048842Y-171210591D01*
X83144150Y-171305899D01*
X83264243Y-171367089D01*
X83264243Y-171367090D01*
X83285328Y-171370429D01*
X83397370Y-171388175D01*
X83457037Y-171378724D01*
X83506724Y-171388382D01*
X83538580Y-171427720D01*
X83541701Y-171463389D01*
X83532251Y-171523055D01*
X83553335Y-171656182D01*
X83605789Y-171759127D01*
X83614527Y-171776276D01*
X83709835Y-171871584D01*
X83829928Y-171932774D01*
X83829928Y-171932775D01*
X83851012Y-171936114D01*
X83963055Y-171953860D01*
X84022724Y-171944409D01*
X84072411Y-171954067D01*
X84104267Y-171993405D01*
X84107388Y-172029074D01*
X84097938Y-172088741D01*
X84097938Y-172088742D01*
X84107388Y-172148409D01*
X84097729Y-172198098D01*
X84058391Y-172229954D01*
X84022723Y-172233074D01*
X83963057Y-172223624D01*
X83829930Y-172244708D01*
X83829930Y-172244709D01*
X83709837Y-172305899D01*
X83614528Y-172401208D01*
X83553338Y-172521301D01*
X83553337Y-172521301D01*
X83532253Y-172654428D01*
X83541703Y-172714095D01*
X83532044Y-172763784D01*
X83492706Y-172795640D01*
X83457038Y-172798760D01*
X83397371Y-172789310D01*
X83264244Y-172810394D01*
X83264244Y-172810395D01*
X83144151Y-172871585D01*
X83048842Y-172966894D01*
X82987652Y-173086987D01*
X82987651Y-173086987D01*
X82966567Y-173220114D01*
X82987651Y-173353240D01*
X83048842Y-173473333D01*
X83048843Y-173473334D01*
X83144151Y-173568642D01*
X83264244Y-173629832D01*
X83264244Y-173629833D01*
X83285329Y-173633172D01*
X83397371Y-173650918D01*
X83457039Y-173641467D01*
X83506726Y-173651125D01*
X83538582Y-173690463D01*
X83541703Y-173726132D01*
X83532253Y-173785799D01*
X83533374Y-173792874D01*
X83553337Y-173918925D01*
X83614528Y-174039018D01*
X83614529Y-174039019D01*
X83709837Y-174134327D01*
X83829930Y-174195517D01*
X83829930Y-174195518D01*
X83848132Y-174198400D01*
X83963057Y-174216603D01*
X84096183Y-174195518D01*
X84216277Y-174134327D01*
X84311585Y-174039019D01*
X84372776Y-173918925D01*
X84393861Y-173785799D01*
X84384410Y-173726130D01*
X84394068Y-173676444D01*
X84433406Y-173644588D01*
X84469072Y-173641467D01*
X84528742Y-173650918D01*
X84588410Y-173641467D01*
X84638097Y-173651125D01*
X84669953Y-173690463D01*
X84673074Y-173726132D01*
X84663624Y-173785799D01*
X84664745Y-173792874D01*
X84684708Y-173918925D01*
X84745899Y-174039018D01*
X84745900Y-174039019D01*
X84841208Y-174134327D01*
X84961301Y-174195517D01*
X84961301Y-174195518D01*
X84982386Y-174198857D01*
X85094428Y-174216603D01*
X85227554Y-174195518D01*
X85347648Y-174134327D01*
X85442956Y-174039019D01*
X85500542Y-173926000D01*
X96520197Y-173926000D01*
X96541281Y-174059126D01*
X96602472Y-174179219D01*
X96602473Y-174179220D01*
X96697781Y-174274528D01*
X96817874Y-174335718D01*
X96817874Y-174335719D01*
X96827156Y-174337189D01*
X96951001Y-174356804D01*
X97084127Y-174335719D01*
X97084139Y-174335712D01*
X97085011Y-174335430D01*
X97085782Y-174335456D01*
X97089879Y-174334808D01*
X97090005Y-174335603D01*
X97135600Y-174337189D01*
X97173223Y-174371054D01*
X97180979Y-174417380D01*
X97167944Y-174499684D01*
X97167944Y-174499685D01*
X97189028Y-174632812D01*
X97250219Y-174752905D01*
X97250220Y-174752906D01*
X97345528Y-174848214D01*
X97465621Y-174909404D01*
X97465621Y-174909405D01*
X97486705Y-174912744D01*
X97598748Y-174930490D01*
X97731874Y-174909405D01*
X97851968Y-174848214D01*
X97947276Y-174752906D01*
X98008467Y-174632812D01*
X98029552Y-174499686D01*
X98008467Y-174366560D01*
X98008467Y-174366559D01*
X97947276Y-174246466D01*
X97851967Y-174151157D01*
X97731874Y-174089967D01*
X97731874Y-174089966D01*
X97598748Y-174068882D01*
X97465621Y-174089967D01*
X97464723Y-174090259D01*
X97463949Y-174090231D01*
X97459870Y-174090878D01*
X97459744Y-174090085D01*
X97414135Y-174088491D01*
X97376519Y-174054619D01*
X97368769Y-174008304D01*
X97369616Y-174002956D01*
X97381805Y-173926000D01*
X97360720Y-173792874D01*
X97360720Y-173792873D01*
X97299529Y-173672780D01*
X97204220Y-173577471D01*
X97084127Y-173516281D01*
X97084127Y-173516280D01*
X96951001Y-173495196D01*
X96817874Y-173516280D01*
X96817874Y-173516281D01*
X96697781Y-173577471D01*
X96602472Y-173672780D01*
X96541282Y-173792873D01*
X96541281Y-173792873D01*
X96520197Y-173926000D01*
X85500542Y-173926000D01*
X85504147Y-173918925D01*
X85525232Y-173785799D01*
X85515781Y-173726130D01*
X85525439Y-173676444D01*
X85564777Y-173644588D01*
X85600443Y-173641467D01*
X85660113Y-173650918D01*
X85793239Y-173629833D01*
X85913333Y-173568642D01*
X86008641Y-173473334D01*
X86069832Y-173353240D01*
X86089985Y-173226000D01*
X98535196Y-173226000D01*
X98556280Y-173359126D01*
X98617471Y-173479219D01*
X98617472Y-173479220D01*
X98712780Y-173574528D01*
X98832873Y-173635718D01*
X98832873Y-173635719D01*
X98851075Y-173638601D01*
X98966000Y-173656804D01*
X99099126Y-173635719D01*
X99219220Y-173574528D01*
X99314528Y-173479220D01*
X99375719Y-173359126D01*
X99396804Y-173226000D01*
X99375719Y-173092874D01*
X99375719Y-173092873D01*
X99314528Y-172972780D01*
X99219219Y-172877471D01*
X99118201Y-172826000D01*
X105379196Y-172826000D01*
X105400280Y-172959126D01*
X105461471Y-173079219D01*
X105461472Y-173079220D01*
X105556780Y-173174528D01*
X105676873Y-173235718D01*
X105676873Y-173235719D01*
X105695075Y-173238601D01*
X105810000Y-173256804D01*
X105943126Y-173235719D01*
X106063220Y-173174528D01*
X106158528Y-173079220D01*
X106219719Y-172959126D01*
X106240804Y-172826000D01*
X106219719Y-172692874D01*
X106219719Y-172692873D01*
X106158528Y-172572780D01*
X106063219Y-172477471D01*
X105943126Y-172416281D01*
X105943126Y-172416280D01*
X105810000Y-172395196D01*
X105676873Y-172416280D01*
X105676873Y-172416281D01*
X105556780Y-172477471D01*
X105461471Y-172572780D01*
X105400281Y-172692873D01*
X105400280Y-172692873D01*
X105379196Y-172826000D01*
X99118201Y-172826000D01*
X99099126Y-172816281D01*
X99099126Y-172816280D01*
X98966000Y-172795196D01*
X98832873Y-172816280D01*
X98832873Y-172816281D01*
X98712780Y-172877471D01*
X98617471Y-172972780D01*
X98556281Y-173092873D01*
X98556280Y-173092873D01*
X98535196Y-173226000D01*
X86089985Y-173226000D01*
X86090917Y-173220114D01*
X86069832Y-173086988D01*
X86069832Y-173086987D01*
X86008641Y-172966894D01*
X85913332Y-172871585D01*
X85793239Y-172810395D01*
X85793239Y-172810394D01*
X85660113Y-172789310D01*
X85526986Y-172810394D01*
X85526986Y-172810395D01*
X85406893Y-172871585D01*
X85311584Y-172966894D01*
X85250394Y-173086987D01*
X85250393Y-173086987D01*
X85229309Y-173220114D01*
X85238759Y-173279780D01*
X85229100Y-173329469D01*
X85189762Y-173361324D01*
X85154094Y-173364445D01*
X85094428Y-173354995D01*
X85034760Y-173364445D01*
X84985071Y-173354786D01*
X84953215Y-173315448D01*
X84950095Y-173279783D01*
X84959546Y-173220114D01*
X84938461Y-173086988D01*
X84938461Y-173086987D01*
X84877270Y-172966894D01*
X84781961Y-172871585D01*
X84661868Y-172810395D01*
X84661868Y-172810394D01*
X84528742Y-172789310D01*
X84469075Y-172798760D01*
X84419386Y-172789101D01*
X84387530Y-172749763D01*
X84384410Y-172714097D01*
X84393861Y-172654428D01*
X84384410Y-172594758D01*
X84394068Y-172545072D01*
X84433406Y-172513216D01*
X84469072Y-172510095D01*
X84528742Y-172519546D01*
X84661868Y-172498461D01*
X84781962Y-172437270D01*
X84877270Y-172341962D01*
X84938461Y-172221868D01*
X84959546Y-172088742D01*
X84938461Y-171955616D01*
X84938461Y-171955615D01*
X84877270Y-171835522D01*
X84781961Y-171740213D01*
X84661868Y-171679023D01*
X84661868Y-171679022D01*
X84528742Y-171657938D01*
X84528741Y-171657938D01*
X84469072Y-171667388D01*
X84419384Y-171657729D01*
X84387528Y-171618390D01*
X84384408Y-171582725D01*
X84393859Y-171523056D01*
X84393859Y-171523055D01*
X85794991Y-171523055D01*
X85816075Y-171656182D01*
X85868529Y-171759127D01*
X85877267Y-171776276D01*
X85972575Y-171871584D01*
X86092668Y-171932774D01*
X86092668Y-171932775D01*
X86113753Y-171936114D01*
X86225795Y-171953860D01*
X86285465Y-171944409D01*
X86335154Y-171954068D01*
X86367009Y-171993406D01*
X86370130Y-172029073D01*
X86360680Y-172088741D01*
X86360680Y-172088742D01*
X86381764Y-172221869D01*
X86442955Y-172341962D01*
X86442956Y-172341963D01*
X86538264Y-172437271D01*
X86658357Y-172498461D01*
X86658357Y-172498462D01*
X86676559Y-172501344D01*
X86791484Y-172519547D01*
X86924610Y-172498462D01*
X87044704Y-172437271D01*
X87140012Y-172341963D01*
X87201203Y-172221869D01*
X87222288Y-172088743D01*
X87212837Y-172029073D01*
X87222495Y-171979387D01*
X87261833Y-171947531D01*
X87297500Y-171944410D01*
X87357165Y-171953860D01*
X87490291Y-171932775D01*
X87610385Y-171871584D01*
X87705693Y-171776276D01*
X87766884Y-171656182D01*
X87771664Y-171626000D01*
X99635196Y-171626000D01*
X99656280Y-171759126D01*
X99717471Y-171879219D01*
X99717472Y-171879220D01*
X99812780Y-171974528D01*
X99932873Y-172035718D01*
X99932873Y-172035719D01*
X99951075Y-172038601D01*
X100066000Y-172056804D01*
X100199126Y-172035719D01*
X100319220Y-171974528D01*
X100414528Y-171879220D01*
X100475719Y-171759126D01*
X100484181Y-171705693D01*
X100508721Y-171661422D01*
X100545693Y-171644181D01*
X100599126Y-171635719D01*
X100719220Y-171574528D01*
X100814528Y-171479220D01*
X100875719Y-171359126D01*
X100896804Y-171226000D01*
X100875719Y-171092874D01*
X100875719Y-171092873D01*
X100814528Y-170972780D01*
X100719219Y-170877471D01*
X100599126Y-170816281D01*
X100599126Y-170816280D01*
X100466000Y-170795196D01*
X100332873Y-170816280D01*
X100332873Y-170816281D01*
X100212780Y-170877471D01*
X100117471Y-170972780D01*
X100056282Y-171092871D01*
X100056280Y-171092876D01*
X100047817Y-171146306D01*
X100023275Y-171190578D01*
X99986306Y-171207817D01*
X99932876Y-171216280D01*
X99932871Y-171216282D01*
X99812780Y-171277471D01*
X99717471Y-171372780D01*
X99656281Y-171492873D01*
X99656280Y-171492873D01*
X99635196Y-171626000D01*
X87771664Y-171626000D01*
X87787969Y-171523056D01*
X87766884Y-171389930D01*
X87766884Y-171389929D01*
X87705693Y-171269836D01*
X87610384Y-171174527D01*
X87490291Y-171113337D01*
X87490291Y-171113336D01*
X87357165Y-171092252D01*
X87297503Y-171101701D01*
X87247814Y-171092042D01*
X87215958Y-171052703D01*
X87212838Y-171017036D01*
X87214155Y-171008720D01*
X87222288Y-170957372D01*
X87212837Y-170897703D01*
X87222495Y-170848017D01*
X87261833Y-170816161D01*
X87297500Y-170813040D01*
X87357165Y-170822490D01*
X87490291Y-170801405D01*
X87610385Y-170740214D01*
X87619502Y-170731097D01*
X94947779Y-170731097D01*
X94966698Y-170874805D01*
X95022167Y-171008720D01*
X95022168Y-171008722D01*
X95110408Y-171123718D01*
X95225404Y-171211958D01*
X95359320Y-171267427D01*
X95503029Y-171286347D01*
X95646738Y-171267427D01*
X95780654Y-171211958D01*
X95895650Y-171123718D01*
X95983890Y-171008722D01*
X96039359Y-170874806D01*
X96058279Y-170731097D01*
X96039359Y-170587388D01*
X95983890Y-170453472D01*
X95895650Y-170338476D01*
X95780654Y-170250236D01*
X95780652Y-170250235D01*
X95646737Y-170194766D01*
X95521948Y-170178337D01*
X95503029Y-170175847D01*
X95503028Y-170175847D01*
X95359320Y-170194766D01*
X95225405Y-170250235D01*
X95110408Y-170338476D01*
X95022167Y-170453473D01*
X94966698Y-170587388D01*
X94947779Y-170731097D01*
X87619502Y-170731097D01*
X87705693Y-170644906D01*
X87766884Y-170524812D01*
X87787969Y-170391686D01*
X87766884Y-170258560D01*
X87766884Y-170258559D01*
X87705693Y-170138466D01*
X87610384Y-170043157D01*
X87490291Y-169981967D01*
X87490291Y-169981966D01*
X87357165Y-169960882D01*
X87297498Y-169970332D01*
X87247809Y-169960673D01*
X87215953Y-169921335D01*
X87212833Y-169885670D01*
X87222284Y-169826001D01*
X87201199Y-169692875D01*
X87201199Y-169692874D01*
X87140008Y-169572781D01*
X87044699Y-169477472D01*
X86924606Y-169416282D01*
X86924606Y-169416281D01*
X86791480Y-169395197D01*
X86658353Y-169416281D01*
X86658353Y-169416282D01*
X86538260Y-169477472D01*
X86442951Y-169572781D01*
X86381761Y-169692874D01*
X86381760Y-169692874D01*
X86360676Y-169826001D01*
X86381760Y-169959127D01*
X86442951Y-170079220D01*
X86442952Y-170079221D01*
X86538260Y-170174529D01*
X86658353Y-170235719D01*
X86658353Y-170235720D01*
X86679437Y-170239059D01*
X86791480Y-170256805D01*
X86851147Y-170247354D01*
X86900834Y-170257012D01*
X86932690Y-170296350D01*
X86935811Y-170332019D01*
X86926361Y-170391685D01*
X86935811Y-170451352D01*
X86926152Y-170501041D01*
X86886814Y-170532896D01*
X86851146Y-170536017D01*
X86791484Y-170526568D01*
X86658357Y-170547652D01*
X86658357Y-170547653D01*
X86538264Y-170608843D01*
X86442955Y-170704152D01*
X86381765Y-170824245D01*
X86381764Y-170824245D01*
X86370130Y-170897706D01*
X86360680Y-170957372D01*
X86368813Y-171008720D01*
X86370130Y-171017037D01*
X86360471Y-171066726D01*
X86321133Y-171098581D01*
X86285466Y-171101702D01*
X86225796Y-171092252D01*
X86225795Y-171092252D01*
X86092668Y-171113336D01*
X86092668Y-171113337D01*
X85972575Y-171174527D01*
X85877266Y-171269836D01*
X85816076Y-171389929D01*
X85816075Y-171389929D01*
X85794991Y-171523055D01*
X84393859Y-171523055D01*
X84372774Y-171389930D01*
X84372774Y-171389929D01*
X84311583Y-171269836D01*
X84216274Y-171174527D01*
X84096181Y-171113337D01*
X84096181Y-171113336D01*
X83963055Y-171092252D01*
X83903388Y-171101702D01*
X83853699Y-171092043D01*
X83821843Y-171052705D01*
X83818723Y-171017040D01*
X83828174Y-170957371D01*
X83807089Y-170824245D01*
X83807089Y-170824244D01*
X83745898Y-170704151D01*
X83650589Y-170608842D01*
X83530496Y-170547652D01*
X83530496Y-170547651D01*
X83397370Y-170526567D01*
X83264243Y-170547651D01*
X83264243Y-170547652D01*
X83144150Y-170608842D01*
X83048841Y-170704151D01*
X82987651Y-170824244D01*
X82987650Y-170824244D01*
X82966566Y-170957371D01*
X82696804Y-170957371D01*
X82675719Y-170824245D01*
X82675719Y-170824244D01*
X82614528Y-170704151D01*
X82519219Y-170608842D01*
X82399126Y-170547652D01*
X82399126Y-170547651D01*
X82266000Y-170526567D01*
X82132873Y-170547651D01*
X82132873Y-170547652D01*
X82012780Y-170608842D01*
X81917471Y-170704151D01*
X81856281Y-170824244D01*
X81856280Y-170824244D01*
X81835196Y-170957371D01*
X80434063Y-170957371D01*
X80412978Y-170824246D01*
X80412978Y-170824245D01*
X80351787Y-170704152D01*
X80256478Y-170608843D01*
X80136385Y-170547653D01*
X80136385Y-170547652D01*
X80003259Y-170526568D01*
X79870132Y-170547652D01*
X79870132Y-170547653D01*
X79750039Y-170608843D01*
X79654730Y-170704152D01*
X79593540Y-170824245D01*
X79593539Y-170824245D01*
X79572455Y-170957372D01*
X57516500Y-170957372D01*
X57516500Y-170052275D01*
X59649035Y-170052275D01*
X59667954Y-170195983D01*
X59694109Y-170259127D01*
X59723424Y-170329900D01*
X59811664Y-170444896D01*
X59926660Y-170533136D01*
X60060576Y-170588605D01*
X60204285Y-170607525D01*
X60347994Y-170588605D01*
X60481910Y-170533136D01*
X60596906Y-170444896D01*
X60685146Y-170329900D01*
X60740615Y-170195984D01*
X60755496Y-170082953D01*
X61346090Y-170082953D01*
X61365009Y-170226661D01*
X61411324Y-170338476D01*
X61420479Y-170360578D01*
X61508719Y-170475574D01*
X61623715Y-170563814D01*
X61757631Y-170619283D01*
X61901340Y-170638203D01*
X62045049Y-170619283D01*
X62178965Y-170563814D01*
X62293961Y-170475574D01*
X62382201Y-170360578D01*
X62437670Y-170226662D01*
X62456590Y-170082953D01*
X62437670Y-169939244D01*
X62382201Y-169805328D01*
X62293961Y-169690332D01*
X62178965Y-169602092D01*
X62178963Y-169602091D01*
X62045048Y-169546622D01*
X61901340Y-169527703D01*
X61757631Y-169546622D01*
X61623716Y-169602091D01*
X61508719Y-169690332D01*
X61420478Y-169805329D01*
X61365009Y-169939244D01*
X61346090Y-170082953D01*
X60755496Y-170082953D01*
X60759535Y-170052275D01*
X60740615Y-169908566D01*
X60685146Y-169774650D01*
X60596906Y-169659654D01*
X60481910Y-169571414D01*
X60481908Y-169571413D01*
X60347993Y-169515944D01*
X60223203Y-169499515D01*
X60204285Y-169497025D01*
X60204284Y-169497025D01*
X60060576Y-169515944D01*
X59926661Y-169571413D01*
X59811664Y-169659654D01*
X59723423Y-169774651D01*
X59667954Y-169908566D01*
X59649035Y-170052275D01*
X57516500Y-170052275D01*
X57516500Y-169260316D01*
X77875399Y-169260316D01*
X77896483Y-169393442D01*
X77949262Y-169497025D01*
X77957675Y-169513536D01*
X78052983Y-169608844D01*
X78173076Y-169670034D01*
X78173076Y-169670035D01*
X78194161Y-169673374D01*
X78306203Y-169691120D01*
X78439329Y-169670035D01*
X78559423Y-169608844D01*
X78654731Y-169513536D01*
X78715922Y-169393442D01*
X78737007Y-169260316D01*
X78715922Y-169127190D01*
X78715922Y-169127189D01*
X78654731Y-169007096D01*
X78559422Y-168911787D01*
X78439329Y-168850597D01*
X78439329Y-168850596D01*
X78306203Y-168829512D01*
X78173076Y-168850596D01*
X78173076Y-168850597D01*
X78052983Y-168911787D01*
X77957674Y-169007096D01*
X77896484Y-169127189D01*
X77896483Y-169127189D01*
X77875399Y-169260316D01*
X57516500Y-169260316D01*
X57516500Y-168015809D01*
X65996016Y-168015809D01*
X66017100Y-168148935D01*
X66078291Y-168269028D01*
X66078292Y-168269029D01*
X66173600Y-168364337D01*
X66293693Y-168425527D01*
X66293693Y-168425528D01*
X66314777Y-168428867D01*
X66426820Y-168446613D01*
X66559946Y-168425528D01*
X66680040Y-168364337D01*
X66689157Y-168355220D01*
X70974044Y-168355220D01*
X70995128Y-168488346D01*
X71056319Y-168608439D01*
X71056320Y-168608440D01*
X71151628Y-168703748D01*
X71271721Y-168764938D01*
X71271721Y-168764939D01*
X71292806Y-168768278D01*
X71404848Y-168786024D01*
X71537974Y-168764939D01*
X71658068Y-168703748D01*
X71667186Y-168694630D01*
X80703826Y-168694630D01*
X80724910Y-168827756D01*
X80786101Y-168947849D01*
X80786102Y-168947850D01*
X80881410Y-169043158D01*
X81001503Y-169104348D01*
X81001503Y-169104349D01*
X81022587Y-169107688D01*
X81134630Y-169125434D01*
X81267756Y-169104349D01*
X81387850Y-169043158D01*
X81483158Y-168947850D01*
X81544349Y-168827756D01*
X81565434Y-168694630D01*
X82966567Y-168694630D01*
X82987651Y-168827756D01*
X83048842Y-168947849D01*
X83048843Y-168947850D01*
X83144151Y-169043158D01*
X83264244Y-169104348D01*
X83264244Y-169104349D01*
X83285328Y-169107688D01*
X83397371Y-169125434D01*
X83457039Y-169115983D01*
X83506726Y-169125641D01*
X83538582Y-169164979D01*
X83541703Y-169200648D01*
X83532253Y-169260315D01*
X83553337Y-169393442D01*
X83606116Y-169497025D01*
X83614529Y-169513536D01*
X83709837Y-169608844D01*
X83829930Y-169670034D01*
X83829930Y-169670035D01*
X83851014Y-169673374D01*
X83963057Y-169691120D01*
X84022724Y-169681669D01*
X84072411Y-169691327D01*
X84104267Y-169730665D01*
X84107388Y-169766334D01*
X84097938Y-169826000D01*
X84119022Y-169959127D01*
X84180213Y-170079220D01*
X84180214Y-170079221D01*
X84275522Y-170174529D01*
X84395615Y-170235719D01*
X84395615Y-170235720D01*
X84413817Y-170238602D01*
X84528742Y-170256805D01*
X84661868Y-170235720D01*
X84781962Y-170174529D01*
X84877270Y-170079221D01*
X84938461Y-169959127D01*
X84959546Y-169826001D01*
X84938461Y-169692875D01*
X84938461Y-169692874D01*
X84877270Y-169572781D01*
X84781961Y-169477472D01*
X84661868Y-169416282D01*
X84661868Y-169416281D01*
X84528742Y-169395197D01*
X84469075Y-169404647D01*
X84419386Y-169394988D01*
X84401947Y-169373453D01*
X91338704Y-169373453D01*
X91359788Y-169506579D01*
X91418329Y-169621471D01*
X91420980Y-169626673D01*
X91516288Y-169721981D01*
X91636381Y-169783171D01*
X91636381Y-169783172D01*
X91654583Y-169786054D01*
X91769508Y-169804257D01*
X91902634Y-169783172D01*
X91976946Y-169745307D01*
X92027186Y-169739138D01*
X92069639Y-169766707D01*
X92084439Y-169815114D01*
X92076475Y-169844836D01*
X92044003Y-169908566D01*
X92038610Y-169919151D01*
X92017526Y-170052274D01*
X92038610Y-170185401D01*
X92076176Y-170259127D01*
X92099802Y-170305495D01*
X92195110Y-170400803D01*
X92315203Y-170461993D01*
X92315203Y-170461994D01*
X92333405Y-170464876D01*
X92448330Y-170483079D01*
X92581456Y-170461994D01*
X92701550Y-170400803D01*
X92796858Y-170305495D01*
X92858049Y-170185401D01*
X92867457Y-170125999D01*
X99635196Y-170125999D01*
X99656280Y-170259126D01*
X99707972Y-170360576D01*
X99717472Y-170379220D01*
X99812780Y-170474528D01*
X99932873Y-170535718D01*
X99932873Y-170535719D01*
X99953957Y-170539058D01*
X100066000Y-170556804D01*
X100199126Y-170535719D01*
X100319220Y-170474528D01*
X100414528Y-170379220D01*
X100475719Y-170259126D01*
X100484181Y-170205693D01*
X100508721Y-170161422D01*
X100545693Y-170144181D01*
X100599126Y-170135719D01*
X100719220Y-170074528D01*
X100814528Y-169979220D01*
X100875719Y-169859126D01*
X100896804Y-169726000D01*
X100875719Y-169592874D01*
X100875719Y-169592873D01*
X100814528Y-169472780D01*
X100719219Y-169377471D01*
X100599126Y-169316281D01*
X100599126Y-169316280D01*
X100466000Y-169295196D01*
X100332873Y-169316280D01*
X100332873Y-169316281D01*
X100212780Y-169377471D01*
X100117471Y-169472780D01*
X100056282Y-169592871D01*
X100056280Y-169592876D01*
X100047817Y-169646306D01*
X100023275Y-169690578D01*
X99986306Y-169707817D01*
X99932876Y-169716280D01*
X99932871Y-169716282D01*
X99812780Y-169777471D01*
X99717471Y-169872780D01*
X99656281Y-169992873D01*
X99656280Y-169992873D01*
X99635196Y-170125999D01*
X92867457Y-170125999D01*
X92879134Y-170052275D01*
X92858049Y-169919149D01*
X92858049Y-169919148D01*
X92796858Y-169799055D01*
X92701549Y-169703746D01*
X92581456Y-169642556D01*
X92581456Y-169642555D01*
X92448330Y-169621471D01*
X92315206Y-169642555D01*
X92315204Y-169642555D01*
X92315204Y-169642556D01*
X92261274Y-169670035D01*
X92240892Y-169680420D01*
X92190650Y-169686588D01*
X92148198Y-169659019D01*
X92133398Y-169610612D01*
X92141361Y-169580893D01*
X92179227Y-169506579D01*
X92200312Y-169373453D01*
X92179227Y-169240327D01*
X92179227Y-169240326D01*
X92118036Y-169120233D01*
X92022727Y-169024924D01*
X91902634Y-168963734D01*
X91902634Y-168963733D01*
X91769508Y-168942649D01*
X91636381Y-168963733D01*
X91636381Y-168963734D01*
X91516288Y-169024924D01*
X91420979Y-169120233D01*
X91359789Y-169240326D01*
X91359788Y-169240326D01*
X91338704Y-169373453D01*
X84401947Y-169373453D01*
X84387530Y-169355650D01*
X84384410Y-169319985D01*
X84393861Y-169260316D01*
X84372776Y-169127190D01*
X84372776Y-169127189D01*
X84311585Y-169007096D01*
X84216276Y-168911787D01*
X84096183Y-168850597D01*
X84096183Y-168850596D01*
X83963057Y-168829512D01*
X83903389Y-168838962D01*
X83853700Y-168829303D01*
X83821844Y-168789965D01*
X83818724Y-168754299D01*
X83828175Y-168694630D01*
X83807090Y-168561504D01*
X83807090Y-168561503D01*
X83745899Y-168441410D01*
X83650590Y-168346101D01*
X83530497Y-168284911D01*
X83530497Y-168284910D01*
X83397371Y-168263826D01*
X83264244Y-168284910D01*
X83264244Y-168284911D01*
X83144151Y-168346101D01*
X83048842Y-168441410D01*
X82987652Y-168561503D01*
X82987651Y-168561503D01*
X82966567Y-168694630D01*
X81565434Y-168694630D01*
X81544349Y-168561504D01*
X81544349Y-168561503D01*
X81483158Y-168441410D01*
X81387849Y-168346101D01*
X81267756Y-168284911D01*
X81267756Y-168284910D01*
X81134630Y-168263826D01*
X81001503Y-168284910D01*
X81001503Y-168284911D01*
X80881410Y-168346101D01*
X80786101Y-168441410D01*
X80724911Y-168561503D01*
X80724910Y-168561503D01*
X80703826Y-168694630D01*
X71667186Y-168694630D01*
X71753376Y-168608440D01*
X71814567Y-168488346D01*
X71835652Y-168355220D01*
X71814567Y-168222094D01*
X71814567Y-168222093D01*
X71767105Y-168128945D01*
X79006769Y-168128945D01*
X79027853Y-168262071D01*
X79079961Y-168364337D01*
X79089045Y-168382165D01*
X79184353Y-168477473D01*
X79304446Y-168538663D01*
X79304446Y-168538664D01*
X79322648Y-168541546D01*
X79437573Y-168559749D01*
X79570699Y-168538664D01*
X79690793Y-168477473D01*
X79786101Y-168382165D01*
X79847292Y-168262071D01*
X79868377Y-168128945D01*
X79847292Y-167995819D01*
X79847292Y-167995818D01*
X79786101Y-167875725D01*
X79690792Y-167780416D01*
X79570699Y-167719226D01*
X79570699Y-167719225D01*
X79437573Y-167698141D01*
X79304446Y-167719225D01*
X79304446Y-167719226D01*
X79184353Y-167780416D01*
X79089044Y-167875725D01*
X79027854Y-167995818D01*
X79027853Y-167995818D01*
X79006769Y-168128945D01*
X71767105Y-168128945D01*
X71753376Y-168102000D01*
X71658067Y-168006691D01*
X71537974Y-167945501D01*
X71537974Y-167945500D01*
X71404848Y-167924416D01*
X71271721Y-167945500D01*
X71271721Y-167945501D01*
X71151628Y-168006691D01*
X71056319Y-168102000D01*
X70995129Y-168222093D01*
X70995128Y-168222093D01*
X70974044Y-168355220D01*
X66689157Y-168355220D01*
X66775348Y-168269029D01*
X66836539Y-168148935D01*
X66857624Y-168015809D01*
X66836539Y-167882683D01*
X66836539Y-167882682D01*
X66775348Y-167762589D01*
X66680039Y-167667280D01*
X66559946Y-167606090D01*
X66559946Y-167606089D01*
X66426820Y-167585005D01*
X66293693Y-167606089D01*
X66293693Y-167606090D01*
X66173600Y-167667280D01*
X66078291Y-167762589D01*
X66017101Y-167882682D01*
X66017100Y-167882682D01*
X65996016Y-168015809D01*
X57516500Y-168015809D01*
X57516500Y-167223850D01*
X61119816Y-167223850D01*
X61138735Y-167367558D01*
X61185384Y-167480180D01*
X61194205Y-167501475D01*
X61282445Y-167616471D01*
X61397441Y-167704711D01*
X61531357Y-167760180D01*
X61675066Y-167779100D01*
X61818775Y-167760180D01*
X61952691Y-167704711D01*
X62067687Y-167616471D01*
X62108518Y-167563259D01*
X81835197Y-167563259D01*
X81856281Y-167696385D01*
X81899098Y-167780417D01*
X81917473Y-167816479D01*
X82012781Y-167911787D01*
X82132874Y-167972977D01*
X82132874Y-167972978D01*
X82151076Y-167975860D01*
X82266001Y-167994063D01*
X82399127Y-167972978D01*
X82519221Y-167911787D01*
X82614529Y-167816479D01*
X82675720Y-167696385D01*
X82687202Y-167623889D01*
X94626226Y-167623889D01*
X94645145Y-167767597D01*
X94692815Y-167882683D01*
X94700615Y-167901514D01*
X94788855Y-168016510D01*
X94903851Y-168104750D01*
X95037767Y-168160219D01*
X95181476Y-168179139D01*
X95325185Y-168160219D01*
X95459101Y-168104750D01*
X95574097Y-168016510D01*
X95662337Y-167901514D01*
X95717806Y-167767598D01*
X95734642Y-167639718D01*
X95758014Y-167594821D01*
X95798346Y-167576013D01*
X95926227Y-167559177D01*
X96060143Y-167503708D01*
X96175139Y-167415468D01*
X96263379Y-167300472D01*
X96318848Y-167166556D01*
X96337768Y-167022847D01*
X96318848Y-166879138D01*
X96263379Y-166745222D01*
X96175139Y-166630226D01*
X96060143Y-166541986D01*
X96060141Y-166541985D01*
X96021550Y-166526000D01*
X103235196Y-166526000D01*
X103256280Y-166659126D01*
X103317471Y-166779219D01*
X103317472Y-166779220D01*
X103412780Y-166874528D01*
X103532873Y-166935718D01*
X103532873Y-166935719D01*
X103551075Y-166938601D01*
X103666000Y-166956804D01*
X103799126Y-166935719D01*
X103919220Y-166874528D01*
X104014528Y-166779220D01*
X104075719Y-166659126D01*
X104075871Y-166658165D01*
X105356383Y-166658165D01*
X105375302Y-166801873D01*
X105430771Y-166935788D01*
X105430772Y-166935790D01*
X105519012Y-167050786D01*
X105634008Y-167139026D01*
X105767924Y-167194495D01*
X105911633Y-167213415D01*
X106055342Y-167194495D01*
X106189258Y-167139026D01*
X106304254Y-167050786D01*
X106392494Y-166935790D01*
X106447963Y-166801874D01*
X106466883Y-166658165D01*
X106447963Y-166514456D01*
X106392494Y-166380540D01*
X106304254Y-166265544D01*
X106189258Y-166177304D01*
X106189256Y-166177303D01*
X106055341Y-166121834D01*
X105930551Y-166105405D01*
X105911633Y-166102915D01*
X105911632Y-166102915D01*
X105767924Y-166121834D01*
X105634009Y-166177303D01*
X105519012Y-166265544D01*
X105430771Y-166380541D01*
X105375302Y-166514456D01*
X105356383Y-166658165D01*
X104075871Y-166658165D01*
X104096804Y-166526000D01*
X104075719Y-166392874D01*
X104075719Y-166392873D01*
X104014528Y-166272780D01*
X103919219Y-166177471D01*
X103799126Y-166116281D01*
X103799126Y-166116280D01*
X103666000Y-166095196D01*
X103532873Y-166116280D01*
X103532873Y-166116281D01*
X103412780Y-166177471D01*
X103317471Y-166272780D01*
X103256281Y-166392873D01*
X103256280Y-166392873D01*
X103235196Y-166526000D01*
X96021550Y-166526000D01*
X95926226Y-166486516D01*
X95782518Y-166467597D01*
X95638809Y-166486516D01*
X95504894Y-166541985D01*
X95389897Y-166630226D01*
X95301656Y-166745223D01*
X95246187Y-166879138D01*
X95229352Y-167007015D01*
X95205978Y-167051915D01*
X95165644Y-167070723D01*
X95037767Y-167087558D01*
X94903852Y-167143027D01*
X94788855Y-167231268D01*
X94700614Y-167346265D01*
X94645145Y-167480180D01*
X94626226Y-167623889D01*
X82687202Y-167623889D01*
X82696805Y-167563259D01*
X82675720Y-167430133D01*
X82675720Y-167430132D01*
X82614529Y-167310039D01*
X82519220Y-167214730D01*
X82399127Y-167153540D01*
X82399127Y-167153539D01*
X82266001Y-167132455D01*
X82132874Y-167153539D01*
X82132874Y-167153540D01*
X82012781Y-167214730D01*
X81917472Y-167310039D01*
X81856282Y-167430132D01*
X81856281Y-167430132D01*
X81835197Y-167563259D01*
X62108518Y-167563259D01*
X62155927Y-167501475D01*
X62211396Y-167367559D01*
X62230316Y-167223850D01*
X62211396Y-167080141D01*
X62177197Y-166997575D01*
X68485030Y-166997575D01*
X68506114Y-167130702D01*
X68567305Y-167250795D01*
X68567306Y-167250796D01*
X68662614Y-167346104D01*
X68782707Y-167407294D01*
X68782707Y-167407295D01*
X68800909Y-167410177D01*
X68915834Y-167428380D01*
X69048960Y-167407295D01*
X69169054Y-167346104D01*
X69264362Y-167250796D01*
X69325553Y-167130702D01*
X69346638Y-166997576D01*
X69739196Y-166997576D01*
X69760280Y-167130702D01*
X69821471Y-167250795D01*
X69821472Y-167250796D01*
X69916780Y-167346104D01*
X70036873Y-167407294D01*
X70036873Y-167407295D01*
X70057958Y-167410634D01*
X70170000Y-167428380D01*
X70303126Y-167407295D01*
X70423220Y-167346104D01*
X70518528Y-167250796D01*
X70579719Y-167130702D01*
X70600804Y-166997576D01*
X70579719Y-166864450D01*
X70579719Y-166864449D01*
X70518528Y-166744356D01*
X70423219Y-166649047D01*
X70303126Y-166587857D01*
X70303126Y-166587856D01*
X70170000Y-166566772D01*
X70036873Y-166587856D01*
X70036873Y-166587857D01*
X69916780Y-166649047D01*
X69821471Y-166744356D01*
X69760281Y-166864449D01*
X69760280Y-166864449D01*
X69739196Y-166997576D01*
X69346638Y-166997576D01*
X69325553Y-166864450D01*
X69325553Y-166864449D01*
X69264362Y-166744356D01*
X69169053Y-166649047D01*
X69048960Y-166587857D01*
X69048960Y-166587856D01*
X68915834Y-166566772D01*
X68782707Y-166587856D01*
X68782707Y-166587857D01*
X68662614Y-166649047D01*
X68567305Y-166744356D01*
X68506115Y-166864449D01*
X68506114Y-166864449D01*
X68485030Y-166997575D01*
X62177197Y-166997575D01*
X62155927Y-166946225D01*
X62067687Y-166831229D01*
X61952691Y-166742989D01*
X61952689Y-166742988D01*
X61818774Y-166687519D01*
X61693985Y-166671090D01*
X61675066Y-166668600D01*
X61675065Y-166668600D01*
X61531357Y-166687519D01*
X61397442Y-166742988D01*
X61282445Y-166831229D01*
X61194204Y-166946226D01*
X61138735Y-167080141D01*
X61119816Y-167223850D01*
X57516500Y-167223850D01*
X57516500Y-166205616D01*
X67240523Y-166205616D01*
X67261607Y-166338743D01*
X67322798Y-166458836D01*
X67322799Y-166458837D01*
X67418107Y-166554145D01*
X67538200Y-166615335D01*
X67538200Y-166615336D01*
X67556402Y-166618218D01*
X67671327Y-166636421D01*
X67804453Y-166615336D01*
X67924547Y-166554145D01*
X68019855Y-166458837D01*
X68081046Y-166338743D01*
X68102131Y-166205617D01*
X68081046Y-166072491D01*
X68081046Y-166072490D01*
X68019855Y-165952397D01*
X67933661Y-165866203D01*
X81269511Y-165866203D01*
X81290595Y-165999329D01*
X81350186Y-166116281D01*
X81351787Y-166119423D01*
X81447095Y-166214731D01*
X81567188Y-166275921D01*
X81567188Y-166275922D01*
X81585390Y-166278804D01*
X81700315Y-166297007D01*
X81833441Y-166275922D01*
X81953535Y-166214731D01*
X82048843Y-166119423D01*
X82110034Y-165999329D01*
X82131119Y-165866203D01*
X82113200Y-165753069D01*
X91101121Y-165753069D01*
X91120040Y-165896777D01*
X91162518Y-165999329D01*
X91175510Y-166030694D01*
X91263750Y-166145690D01*
X91378746Y-166233930D01*
X91512662Y-166289399D01*
X91656371Y-166308319D01*
X91800080Y-166289399D01*
X91933996Y-166233930D01*
X92048992Y-166145690D01*
X92137232Y-166030694D01*
X92192701Y-165896778D01*
X92211621Y-165753069D01*
X92192701Y-165609360D01*
X92137232Y-165475444D01*
X92048992Y-165360448D01*
X91933996Y-165272208D01*
X91933994Y-165272207D01*
X91800079Y-165216738D01*
X91672929Y-165199999D01*
X91656371Y-165197819D01*
X91656370Y-165197819D01*
X91512662Y-165216738D01*
X91378747Y-165272207D01*
X91263750Y-165360448D01*
X91175509Y-165475445D01*
X91120040Y-165609360D01*
X91101121Y-165753069D01*
X82113200Y-165753069D01*
X82110034Y-165733077D01*
X82110034Y-165733076D01*
X82048843Y-165612983D01*
X81953534Y-165517674D01*
X81833441Y-165456484D01*
X81833441Y-165456483D01*
X81700315Y-165435399D01*
X81567188Y-165456483D01*
X81567188Y-165456484D01*
X81447095Y-165517674D01*
X81351786Y-165612983D01*
X81290596Y-165733076D01*
X81290595Y-165733076D01*
X81269511Y-165866203D01*
X67933661Y-165866203D01*
X67924546Y-165857088D01*
X67804453Y-165795898D01*
X67804453Y-165795897D01*
X67671327Y-165774813D01*
X67538200Y-165795897D01*
X67538200Y-165795898D01*
X67418107Y-165857088D01*
X67322798Y-165952397D01*
X67261608Y-166072490D01*
X67261607Y-166072490D01*
X67240523Y-166205616D01*
X57516500Y-166205616D01*
X57516500Y-164734835D01*
X74130571Y-164734835D01*
X74149490Y-164878544D01*
X74177754Y-164946780D01*
X74204960Y-165012461D01*
X74293200Y-165127457D01*
X74408196Y-165215697D01*
X74542112Y-165271166D01*
X74685821Y-165290086D01*
X74829530Y-165271166D01*
X74963446Y-165215697D01*
X74983904Y-165199999D01*
X79469196Y-165199999D01*
X79490280Y-165333126D01*
X79551471Y-165453219D01*
X79551472Y-165453220D01*
X79646780Y-165548528D01*
X79766873Y-165609718D01*
X79766873Y-165609719D01*
X79785075Y-165612601D01*
X79900000Y-165630804D01*
X80033126Y-165609719D01*
X80153220Y-165548528D01*
X80248528Y-165453220D01*
X80309719Y-165333126D01*
X80330804Y-165200000D01*
X80311164Y-165075999D01*
X85085196Y-165075999D01*
X85106280Y-165209126D01*
X85147532Y-165290086D01*
X85167472Y-165329220D01*
X85262780Y-165424528D01*
X85382873Y-165485718D01*
X85382873Y-165485719D01*
X85401075Y-165488601D01*
X85516000Y-165506804D01*
X85649126Y-165485719D01*
X85769220Y-165424528D01*
X85864528Y-165329220D01*
X85925719Y-165209126D01*
X85946804Y-165076000D01*
X85925719Y-164942874D01*
X85925719Y-164942873D01*
X85864528Y-164822780D01*
X85769219Y-164727471D01*
X85649126Y-164666281D01*
X85649126Y-164666280D01*
X85516000Y-164645196D01*
X85382873Y-164666280D01*
X85382873Y-164666281D01*
X85262780Y-164727471D01*
X85167471Y-164822780D01*
X85106281Y-164942873D01*
X85106280Y-164942873D01*
X85085196Y-165075999D01*
X80311164Y-165075999D01*
X80309719Y-165066874D01*
X80309719Y-165066873D01*
X80248528Y-164946780D01*
X80153219Y-164851471D01*
X80033126Y-164790281D01*
X80033126Y-164790280D01*
X79900000Y-164769196D01*
X79766873Y-164790280D01*
X79766873Y-164790281D01*
X79646780Y-164851471D01*
X79551471Y-164946780D01*
X79490281Y-165066873D01*
X79490280Y-165066873D01*
X79469196Y-165199999D01*
X74983904Y-165199999D01*
X75078442Y-165127457D01*
X75166682Y-165012461D01*
X75222151Y-164878545D01*
X75241071Y-164734836D01*
X75226176Y-164621699D01*
X92006217Y-164621699D01*
X92025136Y-164765407D01*
X92060785Y-164851471D01*
X92080606Y-164899324D01*
X92168846Y-165014320D01*
X92283842Y-165102560D01*
X92417758Y-165158029D01*
X92561467Y-165176949D01*
X92705176Y-165158029D01*
X92839092Y-165102560D01*
X92954088Y-165014320D01*
X93042328Y-164899324D01*
X93080416Y-164807371D01*
X100035196Y-164807371D01*
X100056280Y-164940497D01*
X100108908Y-165043784D01*
X100117472Y-165060591D01*
X100212780Y-165155899D01*
X100332873Y-165217089D01*
X100332873Y-165217090D01*
X100351075Y-165219972D01*
X100466000Y-165238175D01*
X100599126Y-165217090D01*
X100719220Y-165155899D01*
X100814528Y-165060591D01*
X100875719Y-164940497D01*
X100896804Y-164807371D01*
X100875719Y-164674245D01*
X100875719Y-164674244D01*
X100844503Y-164612980D01*
X103673941Y-164612980D01*
X103695025Y-164746106D01*
X103756216Y-164866199D01*
X103756217Y-164866200D01*
X103851525Y-164961508D01*
X103971618Y-165022698D01*
X103971618Y-165022699D01*
X103989820Y-165025581D01*
X104104745Y-165043784D01*
X104237871Y-165022699D01*
X104357965Y-164961508D01*
X104453273Y-164866200D01*
X104514464Y-164746106D01*
X104535549Y-164612980D01*
X104514464Y-164479854D01*
X104514464Y-164479853D01*
X104453273Y-164359760D01*
X104357964Y-164264451D01*
X104237871Y-164203261D01*
X104237871Y-164203260D01*
X104104745Y-164182176D01*
X103971618Y-164203260D01*
X103971618Y-164203261D01*
X103851525Y-164264451D01*
X103756216Y-164359760D01*
X103695026Y-164479853D01*
X103695025Y-164479853D01*
X103673941Y-164612980D01*
X100844503Y-164612980D01*
X100814528Y-164554151D01*
X100719219Y-164458842D01*
X100599126Y-164397652D01*
X100599126Y-164397651D01*
X100466000Y-164376567D01*
X100332873Y-164397651D01*
X100332873Y-164397652D01*
X100212780Y-164458842D01*
X100117471Y-164554151D01*
X100056281Y-164674244D01*
X100056280Y-164674244D01*
X100035196Y-164807371D01*
X93080416Y-164807371D01*
X93097797Y-164765408D01*
X93116717Y-164621699D01*
X93097797Y-164477990D01*
X93042328Y-164344074D01*
X92954088Y-164229078D01*
X92839092Y-164140838D01*
X92839090Y-164140837D01*
X92705175Y-164085368D01*
X92561467Y-164066449D01*
X92417758Y-164085368D01*
X92283843Y-164140837D01*
X92168846Y-164229078D01*
X92080605Y-164344075D01*
X92025136Y-164477990D01*
X92006217Y-164621699D01*
X75226176Y-164621699D01*
X75222151Y-164591127D01*
X75166682Y-164457211D01*
X75078442Y-164342215D01*
X74963446Y-164253975D01*
X74963444Y-164253974D01*
X74829529Y-164198505D01*
X74704740Y-164182076D01*
X74685821Y-164179586D01*
X74685820Y-164179586D01*
X74542112Y-164198505D01*
X74408197Y-164253974D01*
X74293200Y-164342215D01*
X74204959Y-164457212D01*
X74149490Y-164591127D01*
X74130571Y-164734835D01*
X57516500Y-164734835D01*
X57516500Y-162924644D01*
X58970213Y-162924644D01*
X58989132Y-163068352D01*
X59044601Y-163202267D01*
X59044602Y-163202269D01*
X59132842Y-163317265D01*
X59247838Y-163405505D01*
X59381754Y-163460974D01*
X59525463Y-163479894D01*
X59669172Y-163460974D01*
X59803088Y-163405505D01*
X59918084Y-163317265D01*
X60006324Y-163202269D01*
X60061793Y-163068353D01*
X60080713Y-162924644D01*
X60061793Y-162780935D01*
X60006324Y-162647019D01*
X59918084Y-162532023D01*
X59842772Y-162474234D01*
X59815576Y-162431543D01*
X59822183Y-162381357D01*
X59842772Y-162356820D01*
X59918084Y-162299032D01*
X60006324Y-162184036D01*
X60061793Y-162050120D01*
X60080713Y-161906411D01*
X72671099Y-161906411D01*
X72692183Y-162039537D01*
X72753374Y-162159630D01*
X72753375Y-162159631D01*
X72848683Y-162254939D01*
X72968776Y-162316129D01*
X72968776Y-162316130D01*
X72989861Y-162319469D01*
X73101903Y-162337215D01*
X73235029Y-162316130D01*
X73355123Y-162254939D01*
X73450431Y-162159631D01*
X73511622Y-162039537D01*
X73532707Y-161906411D01*
X73511622Y-161773285D01*
X73511622Y-161773284D01*
X73452560Y-161657370D01*
X88410750Y-161657370D01*
X88429669Y-161801079D01*
X88473299Y-161906411D01*
X88485139Y-161934996D01*
X88573379Y-162049992D01*
X88688375Y-162138232D01*
X88822291Y-162193701D01*
X88966000Y-162212621D01*
X89109709Y-162193701D01*
X89243625Y-162138232D01*
X89358621Y-162049992D01*
X89446861Y-161934996D01*
X89502330Y-161801080D01*
X89504506Y-161784554D01*
X103560804Y-161784554D01*
X103581888Y-161917681D01*
X103590711Y-161934996D01*
X103643080Y-162037775D01*
X103738388Y-162133083D01*
X103858481Y-162194273D01*
X103858481Y-162194274D01*
X103876683Y-162197156D01*
X103991608Y-162215359D01*
X104124734Y-162194274D01*
X104244828Y-162133083D01*
X104340136Y-162037775D01*
X104401327Y-161917681D01*
X104422412Y-161784555D01*
X104401327Y-161651429D01*
X104401327Y-161651428D01*
X104340136Y-161531335D01*
X104244827Y-161436026D01*
X104124734Y-161374836D01*
X104124734Y-161374835D01*
X103991608Y-161353751D01*
X103858481Y-161374835D01*
X103858481Y-161374836D01*
X103738388Y-161436026D01*
X103643079Y-161531335D01*
X103581889Y-161651428D01*
X103581888Y-161651428D01*
X103560804Y-161784554D01*
X89504506Y-161784554D01*
X89521250Y-161657371D01*
X89502330Y-161513662D01*
X89446861Y-161379746D01*
X89358621Y-161264750D01*
X89243625Y-161176510D01*
X89243623Y-161176509D01*
X89109708Y-161121040D01*
X89059666Y-161114452D01*
X90309162Y-161114452D01*
X90311652Y-161133371D01*
X90328081Y-161258160D01*
X90378443Y-161379746D01*
X90383551Y-161392077D01*
X90471791Y-161507073D01*
X90586787Y-161595313D01*
X90720703Y-161650782D01*
X90864412Y-161669702D01*
X91008121Y-161650782D01*
X91142037Y-161595313D01*
X91257033Y-161507073D01*
X91345273Y-161392077D01*
X91400742Y-161258161D01*
X91419662Y-161114452D01*
X91404767Y-161001315D01*
X94495231Y-161001315D01*
X94514150Y-161145023D01*
X94561013Y-161258160D01*
X94569620Y-161278940D01*
X94657860Y-161393936D01*
X94772856Y-161482176D01*
X94906772Y-161537645D01*
X95050481Y-161556565D01*
X95194190Y-161537645D01*
X95328106Y-161482176D01*
X95443102Y-161393936D01*
X95531342Y-161278940D01*
X95556224Y-161218869D01*
X100053557Y-161218869D01*
X100074641Y-161351996D01*
X100135832Y-161472089D01*
X100135833Y-161472090D01*
X100231141Y-161567398D01*
X100351234Y-161628588D01*
X100351234Y-161628589D01*
X100369436Y-161631471D01*
X100484361Y-161649674D01*
X100617487Y-161628589D01*
X100737581Y-161567398D01*
X100832889Y-161472090D01*
X100894080Y-161351996D01*
X100915165Y-161218870D01*
X100894080Y-161085744D01*
X100894080Y-161085743D01*
X100832889Y-160965650D01*
X100737580Y-160870341D01*
X100617487Y-160809151D01*
X100617487Y-160809150D01*
X100484361Y-160788066D01*
X100351234Y-160809150D01*
X100351234Y-160809151D01*
X100231141Y-160870341D01*
X100135832Y-160965650D01*
X100074642Y-161085743D01*
X100074641Y-161085743D01*
X100053557Y-161218869D01*
X95556224Y-161218869D01*
X95586811Y-161145024D01*
X95605731Y-161001315D01*
X95586811Y-160857606D01*
X95531342Y-160723690D01*
X95443102Y-160608694D01*
X95328106Y-160520454D01*
X95328104Y-160520453D01*
X95194189Y-160464984D01*
X95069400Y-160448555D01*
X95050481Y-160446065D01*
X95050480Y-160446065D01*
X94906772Y-160464984D01*
X94772857Y-160520453D01*
X94657860Y-160608694D01*
X94569619Y-160723691D01*
X94514150Y-160857606D01*
X94495231Y-161001315D01*
X91404767Y-161001315D01*
X91400742Y-160970743D01*
X91345273Y-160836827D01*
X91257033Y-160721831D01*
X91142037Y-160633591D01*
X91142035Y-160633590D01*
X91008120Y-160578121D01*
X90883330Y-160561692D01*
X90864412Y-160559202D01*
X90864411Y-160559202D01*
X90720703Y-160578121D01*
X90586788Y-160633590D01*
X90471791Y-160721831D01*
X90383550Y-160836828D01*
X90328081Y-160970743D01*
X90310785Y-161102121D01*
X90309162Y-161114452D01*
X89059666Y-161114452D01*
X88966000Y-161102121D01*
X88822291Y-161121040D01*
X88688376Y-161176509D01*
X88573379Y-161264750D01*
X88485138Y-161379747D01*
X88429669Y-161513662D01*
X88410750Y-161657370D01*
X73452560Y-161657370D01*
X73450431Y-161653191D01*
X73355122Y-161557882D01*
X73235029Y-161496692D01*
X73235029Y-161496691D01*
X73101903Y-161475607D01*
X72968776Y-161496691D01*
X72968776Y-161496692D01*
X72848683Y-161557882D01*
X72753374Y-161653191D01*
X72692184Y-161773284D01*
X72692183Y-161773284D01*
X72671099Y-161906411D01*
X60080713Y-161906411D01*
X60061793Y-161762702D01*
X60006324Y-161628786D01*
X59918084Y-161513790D01*
X59803088Y-161425550D01*
X59803086Y-161425549D01*
X59669171Y-161370080D01*
X59531805Y-161351996D01*
X59525463Y-161351161D01*
X59525462Y-161351161D01*
X59381754Y-161370080D01*
X59247839Y-161425549D01*
X59132842Y-161513790D01*
X59044601Y-161628787D01*
X58989132Y-161762702D01*
X58970213Y-161906411D01*
X58989132Y-162050119D01*
X59034493Y-162159630D01*
X59044602Y-162184036D01*
X59132842Y-162299032D01*
X59208152Y-162356820D01*
X59235349Y-162399511D01*
X59228742Y-162449697D01*
X59208152Y-162474235D01*
X59132842Y-162532023D01*
X59044601Y-162647020D01*
X58989132Y-162780935D01*
X58970213Y-162924644D01*
X57516500Y-162924644D01*
X57516500Y-160209356D01*
X87707011Y-160209356D01*
X87725930Y-160353064D01*
X87772289Y-160464985D01*
X87781400Y-160486981D01*
X87869640Y-160601977D01*
X87984636Y-160690217D01*
X88118552Y-160745686D01*
X88262261Y-160764606D01*
X88405970Y-160745686D01*
X88539886Y-160690217D01*
X88654882Y-160601977D01*
X88743122Y-160486981D01*
X88798591Y-160353065D01*
X88817511Y-160209356D01*
X88802616Y-160096218D01*
X95852875Y-160096218D01*
X95871794Y-160239927D01*
X95918657Y-160353064D01*
X95927264Y-160373844D01*
X96015504Y-160488840D01*
X96130500Y-160577080D01*
X96264416Y-160632549D01*
X96408125Y-160651469D01*
X96551834Y-160632549D01*
X96685750Y-160577080D01*
X96800746Y-160488840D01*
X96888986Y-160373844D01*
X96944455Y-160239928D01*
X96963375Y-160096219D01*
X96944455Y-159952510D01*
X96888986Y-159818594D01*
X96880374Y-159807371D01*
X102485196Y-159807371D01*
X102506280Y-159940497D01*
X102567471Y-160060590D01*
X102567472Y-160060591D01*
X102662780Y-160155899D01*
X102782873Y-160217089D01*
X102782873Y-160217090D01*
X102803958Y-160220429D01*
X102916000Y-160238175D01*
X103049126Y-160217090D01*
X103169220Y-160155899D01*
X103264528Y-160060591D01*
X103325719Y-159940497D01*
X103346804Y-159807371D01*
X103325719Y-159674245D01*
X103325719Y-159674244D01*
X103264528Y-159554151D01*
X103169219Y-159458842D01*
X103049126Y-159397652D01*
X103049126Y-159397651D01*
X102916000Y-159376567D01*
X102782873Y-159397651D01*
X102782873Y-159397652D01*
X102662780Y-159458842D01*
X102567471Y-159554151D01*
X102506281Y-159674244D01*
X102506280Y-159674244D01*
X102485196Y-159807371D01*
X96880374Y-159807371D01*
X96800746Y-159703598D01*
X96685750Y-159615358D01*
X96685748Y-159615357D01*
X96551833Y-159559888D01*
X96408125Y-159540969D01*
X96264416Y-159559888D01*
X96130501Y-159615357D01*
X96015504Y-159703598D01*
X95927263Y-159818595D01*
X95871794Y-159952510D01*
X95852875Y-160096218D01*
X88802616Y-160096218D01*
X88798591Y-160065647D01*
X88743122Y-159931731D01*
X88654882Y-159816735D01*
X88539886Y-159728495D01*
X88539884Y-159728494D01*
X88405969Y-159673025D01*
X88281179Y-159656596D01*
X88262261Y-159654106D01*
X88262260Y-159654106D01*
X88118552Y-159673025D01*
X87984637Y-159728494D01*
X87869640Y-159816735D01*
X87781399Y-159931732D01*
X87725930Y-160065647D01*
X87707011Y-160209356D01*
X57516500Y-160209356D01*
X57516500Y-158738574D01*
X92798176Y-158738574D01*
X92817095Y-158882283D01*
X92872564Y-159016198D01*
X92872565Y-159016200D01*
X92960805Y-159131196D01*
X93075801Y-159219436D01*
X93209717Y-159274905D01*
X93353426Y-159293825D01*
X93497135Y-159274905D01*
X93631051Y-159219436D01*
X93746047Y-159131196D01*
X93834287Y-159016200D01*
X93889756Y-158882284D01*
X93908676Y-158738575D01*
X93889756Y-158594866D01*
X93834287Y-158460950D01*
X93746047Y-158345954D01*
X93631051Y-158257714D01*
X93631049Y-158257713D01*
X93497134Y-158202244D01*
X93353426Y-158183325D01*
X93209717Y-158202244D01*
X93075802Y-158257713D01*
X92960805Y-158345954D01*
X92872564Y-158460951D01*
X92817095Y-158594866D01*
X92798176Y-158738574D01*
X57516500Y-158738574D01*
X57516500Y-157618001D01*
X62238750Y-157618001D01*
X62257669Y-157761709D01*
X62312989Y-157895265D01*
X62313139Y-157895626D01*
X62401379Y-158010622D01*
X62516375Y-158098862D01*
X62650291Y-158154331D01*
X62794000Y-158173251D01*
X62796742Y-158172890D01*
X67568625Y-158172890D01*
X67587544Y-158316598D01*
X67599704Y-158345954D01*
X67643014Y-158450515D01*
X67731254Y-158565511D01*
X67846250Y-158653751D01*
X67980166Y-158709220D01*
X68123875Y-158728140D01*
X68267584Y-158709220D01*
X68401500Y-158653751D01*
X68516496Y-158565511D01*
X68604736Y-158450515D01*
X68660205Y-158316599D01*
X68679125Y-158172890D01*
X68660205Y-158029181D01*
X68604736Y-157895265D01*
X68516496Y-157780269D01*
X68401500Y-157692029D01*
X68401498Y-157692028D01*
X68267583Y-157636559D01*
X68123875Y-157617640D01*
X67980166Y-157636559D01*
X67846251Y-157692028D01*
X67731254Y-157780269D01*
X67643013Y-157895266D01*
X67587544Y-158029181D01*
X67568625Y-158172890D01*
X62796742Y-158172890D01*
X62937709Y-158154331D01*
X63071625Y-158098862D01*
X63186621Y-158010622D01*
X63274861Y-157895626D01*
X63330330Y-157761710D01*
X63349250Y-157618001D01*
X63330330Y-157474292D01*
X63310793Y-157427125D01*
X81545426Y-157427125D01*
X81607606Y-157470663D01*
X81805846Y-157563104D01*
X82017106Y-157619711D01*
X82017113Y-157619712D01*
X82234996Y-157638775D01*
X82235004Y-157638775D01*
X82452886Y-157619712D01*
X82452893Y-157619711D01*
X82664153Y-157563104D01*
X82862388Y-157470665D01*
X82924571Y-157427124D01*
X82878378Y-157380931D01*
X89064655Y-157380931D01*
X89083574Y-157524639D01*
X89139043Y-157658554D01*
X89139044Y-157658556D01*
X89227284Y-157773552D01*
X89342280Y-157861792D01*
X89476196Y-157917261D01*
X89619905Y-157936181D01*
X89763614Y-157917261D01*
X89897530Y-157861792D01*
X90012526Y-157773552D01*
X90100766Y-157658556D01*
X90156235Y-157524640D01*
X90175155Y-157380931D01*
X90160260Y-157267793D01*
X93137587Y-157267793D01*
X93156506Y-157411502D01*
X93203369Y-157524639D01*
X93211976Y-157545419D01*
X93300216Y-157660415D01*
X93415212Y-157748655D01*
X93549128Y-157804124D01*
X93692837Y-157823044D01*
X93836546Y-157804124D01*
X93970462Y-157748655D01*
X94085458Y-157660415D01*
X94173698Y-157545419D01*
X94229167Y-157411503D01*
X94248087Y-157267794D01*
X94229167Y-157124085D01*
X94173698Y-156990169D01*
X94085458Y-156875173D01*
X93970462Y-156786933D01*
X93970460Y-156786932D01*
X93836545Y-156731463D01*
X93692837Y-156712544D01*
X93549128Y-156731463D01*
X93415213Y-156786932D01*
X93300216Y-156875173D01*
X93211975Y-156990170D01*
X93156506Y-157124085D01*
X93137587Y-157267793D01*
X90160260Y-157267793D01*
X90156235Y-157237222D01*
X90100766Y-157103306D01*
X90012526Y-156988310D01*
X89897530Y-156900070D01*
X89897528Y-156900069D01*
X89763613Y-156844600D01*
X89619905Y-156825681D01*
X89476196Y-156844600D01*
X89342281Y-156900069D01*
X89227284Y-156988310D01*
X89139043Y-157103307D01*
X89083574Y-157237222D01*
X89064655Y-157380931D01*
X82878378Y-157380931D01*
X82235000Y-156737553D01*
X81545426Y-157427125D01*
X63310793Y-157427125D01*
X63274861Y-157340376D01*
X63186621Y-157225380D01*
X63071625Y-157137140D01*
X63071623Y-157137139D01*
X62937708Y-157081670D01*
X62794000Y-157062751D01*
X62650291Y-157081670D01*
X62516376Y-157137139D01*
X62401379Y-157225380D01*
X62313138Y-157340377D01*
X62257669Y-157474292D01*
X62238750Y-157618001D01*
X57516500Y-157618001D01*
X57516500Y-156016000D01*
X70553750Y-156016000D01*
X70572669Y-156159708D01*
X70628138Y-156293623D01*
X70628139Y-156293625D01*
X70716379Y-156408621D01*
X70831375Y-156496861D01*
X70965291Y-156552330D01*
X71109000Y-156571250D01*
X71252709Y-156552330D01*
X71386625Y-156496861D01*
X71501621Y-156408621D01*
X71520513Y-156384000D01*
X77029901Y-156384000D01*
X77048253Y-156570332D01*
X77102605Y-156749505D01*
X77190859Y-156914617D01*
X77190862Y-156914622D01*
X77190864Y-156914625D01*
X77309643Y-157059357D01*
X77454375Y-157178136D01*
X77454380Y-157178138D01*
X77454382Y-157178140D01*
X77619494Y-157266394D01*
X77619496Y-157266394D01*
X77619499Y-157266396D01*
X77798669Y-157320747D01*
X77985000Y-157339099D01*
X78171331Y-157320747D01*
X78350501Y-157266396D01*
X78515625Y-157178136D01*
X78660357Y-157059357D01*
X78779136Y-156914625D01*
X78794738Y-156885434D01*
X78832428Y-156851647D01*
X78883020Y-156849991D01*
X78922841Y-156881241D01*
X78925253Y-156885418D01*
X78940864Y-156914625D01*
X79059643Y-157059357D01*
X79204375Y-157178136D01*
X79204380Y-157178138D01*
X79204382Y-157178140D01*
X79369494Y-157266394D01*
X79369496Y-157266394D01*
X79369499Y-157266396D01*
X79548669Y-157320747D01*
X79735000Y-157339099D01*
X79921331Y-157320747D01*
X80100501Y-157266396D01*
X80265625Y-157178136D01*
X80410357Y-157059357D01*
X80529136Y-156914625D01*
X80617396Y-156749501D01*
X80671747Y-156570331D01*
X80690099Y-156384004D01*
X80980225Y-156384004D01*
X80999287Y-156601886D01*
X80999288Y-156601893D01*
X81055895Y-156813153D01*
X81148336Y-157011393D01*
X81191873Y-157073571D01*
X81852143Y-156413302D01*
X81881372Y-156413302D01*
X81910047Y-156526538D01*
X81973936Y-156624327D01*
X82066115Y-156696072D01*
X82176595Y-156734000D01*
X82264005Y-156734000D01*
X82350216Y-156719614D01*
X82452947Y-156664019D01*
X82532060Y-156578079D01*
X82578982Y-156471108D01*
X82586200Y-156384000D01*
X82588553Y-156384000D01*
X83278124Y-157073571D01*
X83321665Y-157011388D01*
X83414104Y-156813153D01*
X83470711Y-156601893D01*
X83470712Y-156601886D01*
X83489775Y-156384004D01*
X83489775Y-156384000D01*
X83779901Y-156384000D01*
X83798253Y-156570332D01*
X83852605Y-156749505D01*
X83940859Y-156914617D01*
X83940862Y-156914622D01*
X83940864Y-156914625D01*
X84059643Y-157059357D01*
X84204375Y-157178136D01*
X84204380Y-157178138D01*
X84204382Y-157178140D01*
X84369494Y-157266394D01*
X84369496Y-157266394D01*
X84369499Y-157266396D01*
X84548669Y-157320747D01*
X84735000Y-157339099D01*
X84921331Y-157320747D01*
X85100501Y-157266396D01*
X85265625Y-157178136D01*
X85410357Y-157059357D01*
X85529136Y-156914625D01*
X85544738Y-156885434D01*
X85582428Y-156851647D01*
X85633020Y-156849991D01*
X85672841Y-156881241D01*
X85675253Y-156885418D01*
X85690864Y-156914625D01*
X85809643Y-157059357D01*
X85954375Y-157178136D01*
X85954380Y-157178138D01*
X85954382Y-157178140D01*
X86119494Y-157266394D01*
X86119496Y-157266394D01*
X86119499Y-157266396D01*
X86298669Y-157320747D01*
X86485000Y-157339099D01*
X86671331Y-157320747D01*
X86850501Y-157266396D01*
X87015625Y-157178136D01*
X87160357Y-157059357D01*
X87279136Y-156914625D01*
X87367396Y-156749501D01*
X87421747Y-156570331D01*
X87440099Y-156384000D01*
X87421747Y-156197669D01*
X87367396Y-156018499D01*
X87367394Y-156018496D01*
X87367394Y-156018494D01*
X87279140Y-155853382D01*
X87279138Y-155853380D01*
X87279136Y-155853375D01*
X87160357Y-155708643D01*
X87015625Y-155589864D01*
X87015622Y-155589862D01*
X87015617Y-155589859D01*
X86850505Y-155501605D01*
X86671332Y-155447253D01*
X86485000Y-155428901D01*
X86298667Y-155447253D01*
X86119494Y-155501605D01*
X85954382Y-155589859D01*
X85954373Y-155589865D01*
X85809643Y-155708643D01*
X85690863Y-155853376D01*
X85675262Y-155882564D01*
X85637571Y-155916353D01*
X85586979Y-155918009D01*
X85547159Y-155886758D01*
X85544738Y-155882564D01*
X85539247Y-155872291D01*
X85529136Y-155853375D01*
X85410357Y-155708643D01*
X85265625Y-155589864D01*
X85265622Y-155589862D01*
X85265617Y-155589859D01*
X85100505Y-155501605D01*
X84921332Y-155447253D01*
X84735000Y-155428901D01*
X84548667Y-155447253D01*
X84369494Y-155501605D01*
X84204382Y-155589859D01*
X84204373Y-155589865D01*
X84059643Y-155708643D01*
X83940865Y-155853373D01*
X83940859Y-155853382D01*
X83852605Y-156018494D01*
X83798253Y-156197667D01*
X83779901Y-156384000D01*
X83489775Y-156384000D01*
X83489775Y-156383995D01*
X83470712Y-156166113D01*
X83470711Y-156166106D01*
X83414105Y-155954849D01*
X83414100Y-155954838D01*
X83321665Y-155756612D01*
X83278123Y-155694427D01*
X82588553Y-156383999D01*
X82588553Y-156384000D01*
X82586200Y-156384000D01*
X82588628Y-156354698D01*
X82559953Y-156241462D01*
X82496064Y-156143673D01*
X82403885Y-156071928D01*
X82293405Y-156034000D01*
X82205995Y-156034000D01*
X82119784Y-156048386D01*
X82017053Y-156103981D01*
X81937940Y-156189921D01*
X81891018Y-156296892D01*
X81881372Y-156413302D01*
X81852143Y-156413302D01*
X81881446Y-156383999D01*
X81191874Y-155694427D01*
X81148336Y-155756607D01*
X81055899Y-155954838D01*
X81055894Y-155954849D01*
X80999288Y-156166106D01*
X80999287Y-156166113D01*
X80980225Y-156383995D01*
X80980225Y-156384004D01*
X80690099Y-156384004D01*
X80690099Y-156384000D01*
X80671747Y-156197669D01*
X80617396Y-156018499D01*
X80617394Y-156018496D01*
X80617394Y-156018494D01*
X80529140Y-155853382D01*
X80529138Y-155853380D01*
X80529136Y-155853375D01*
X80410357Y-155708643D01*
X80265625Y-155589864D01*
X80265622Y-155589862D01*
X80265617Y-155589859D01*
X80100505Y-155501605D01*
X79921332Y-155447253D01*
X79735000Y-155428901D01*
X79548667Y-155447253D01*
X79369494Y-155501605D01*
X79204382Y-155589859D01*
X79204373Y-155589865D01*
X79059643Y-155708643D01*
X78940863Y-155853376D01*
X78925262Y-155882564D01*
X78887571Y-155916353D01*
X78836979Y-155918009D01*
X78797159Y-155886758D01*
X78794738Y-155882564D01*
X78789247Y-155872291D01*
X78779136Y-155853375D01*
X78660357Y-155708643D01*
X78515625Y-155589864D01*
X78515622Y-155589862D01*
X78515617Y-155589859D01*
X78350505Y-155501605D01*
X78171332Y-155447253D01*
X77985000Y-155428901D01*
X77798667Y-155447253D01*
X77619494Y-155501605D01*
X77454382Y-155589859D01*
X77454373Y-155589865D01*
X77309643Y-155708643D01*
X77190865Y-155853373D01*
X77190859Y-155853382D01*
X77102605Y-156018494D01*
X77048253Y-156197667D01*
X77029901Y-156384000D01*
X71520513Y-156384000D01*
X71589861Y-156293625D01*
X71645330Y-156159709D01*
X71664250Y-156016000D01*
X71645330Y-155872291D01*
X71589861Y-155738375D01*
X71501621Y-155623379D01*
X71386625Y-155535139D01*
X71386623Y-155535138D01*
X71252708Y-155479669D01*
X71109000Y-155460750D01*
X70965291Y-155479669D01*
X70831376Y-155535138D01*
X70716379Y-155623379D01*
X70628138Y-155738376D01*
X70572669Y-155872291D01*
X70553750Y-156016000D01*
X57516500Y-156016000D01*
X57516500Y-153760546D01*
X68247447Y-153760546D01*
X68266366Y-153904255D01*
X68321835Y-154038170D01*
X68321836Y-154038172D01*
X68410076Y-154153168D01*
X68525072Y-154241408D01*
X68658988Y-154296877D01*
X68802697Y-154315797D01*
X68946406Y-154296877D01*
X69080322Y-154241408D01*
X69195318Y-154153168D01*
X69283558Y-154038172D01*
X69339027Y-153904256D01*
X69357947Y-153760547D01*
X69339027Y-153616838D01*
X69283558Y-153482922D01*
X69195318Y-153367926D01*
X69080322Y-153279686D01*
X69080320Y-153279685D01*
X68946405Y-153224216D01*
X68802697Y-153205297D01*
X68658988Y-153224216D01*
X68525073Y-153279685D01*
X68410076Y-153367926D01*
X68321835Y-153482923D01*
X68266366Y-153616838D01*
X68247447Y-153760546D01*
X57516500Y-153760546D01*
X57516500Y-152289766D01*
X68247447Y-152289766D01*
X68266366Y-152433474D01*
X68314740Y-152550260D01*
X68321836Y-152567391D01*
X68410076Y-152682387D01*
X68525072Y-152770627D01*
X68658988Y-152826096D01*
X68802697Y-152845016D01*
X68946406Y-152826096D01*
X69080322Y-152770627D01*
X69195318Y-152682387D01*
X69283558Y-152567391D01*
X69339027Y-152433475D01*
X69345540Y-152384005D01*
X79629843Y-152384005D01*
X79650430Y-152619317D01*
X79650431Y-152619325D01*
X79711566Y-152847483D01*
X79711571Y-152847494D01*
X79811402Y-153061582D01*
X79870072Y-153145373D01*
X80540549Y-152474895D01*
X80541327Y-152485265D01*
X80590887Y-152611541D01*
X80675465Y-152717599D01*
X80787547Y-152794016D01*
X80895299Y-152827253D01*
X80223625Y-153498926D01*
X80242977Y-153512476D01*
X80272011Y-153553941D01*
X80267599Y-153604367D01*
X80247482Y-153630292D01*
X80238589Y-153637591D01*
X80238587Y-153637593D01*
X80107315Y-153797549D01*
X80009769Y-153980043D01*
X79949700Y-154178064D01*
X79929417Y-154384000D01*
X79945115Y-154543388D01*
X79949700Y-154589934D01*
X80000921Y-154758790D01*
X80009769Y-154787956D01*
X80107315Y-154970450D01*
X80237617Y-155129225D01*
X80238590Y-155130410D01*
X80398550Y-155261685D01*
X80581046Y-155359232D01*
X80779066Y-155419300D01*
X80985000Y-155439583D01*
X81190934Y-155419300D01*
X81388954Y-155359232D01*
X81454485Y-155324204D01*
X81504593Y-155317049D01*
X81541693Y-155337140D01*
X82234999Y-156030446D01*
X82928305Y-155337140D01*
X82974181Y-155315748D01*
X83015513Y-155324203D01*
X83081046Y-155359232D01*
X83279066Y-155419300D01*
X83485000Y-155439583D01*
X83690934Y-155419300D01*
X83888954Y-155359232D01*
X84071450Y-155261685D01*
X84231410Y-155130410D01*
X84362685Y-154970450D01*
X84404663Y-154891916D01*
X91564978Y-154891916D01*
X91586062Y-155025043D01*
X91639750Y-155130410D01*
X91647254Y-155145137D01*
X91742562Y-155240445D01*
X91862655Y-155301635D01*
X91862655Y-155301636D01*
X91883739Y-155304975D01*
X91995782Y-155322721D01*
X92128908Y-155301636D01*
X92249002Y-155240445D01*
X92302314Y-155187133D01*
X99945254Y-155187133D01*
X99964173Y-155330842D01*
X100004790Y-155428901D01*
X100019643Y-155464759D01*
X100107883Y-155579755D01*
X100222879Y-155667995D01*
X100356795Y-155723464D01*
X100500504Y-155742384D01*
X100644213Y-155723464D01*
X100778129Y-155667995D01*
X100893125Y-155579755D01*
X100981365Y-155464759D01*
X101036834Y-155330843D01*
X101055754Y-155187134D01*
X101036834Y-155043425D01*
X100981365Y-154909509D01*
X100893125Y-154794513D01*
X100778129Y-154706273D01*
X100778127Y-154706272D01*
X100644212Y-154650803D01*
X100519422Y-154634374D01*
X100500504Y-154631884D01*
X100500503Y-154631884D01*
X100356795Y-154650803D01*
X100222880Y-154706272D01*
X100107883Y-154794513D01*
X100019642Y-154909510D01*
X99964173Y-155043425D01*
X99945254Y-155187133D01*
X92302314Y-155187133D01*
X92344310Y-155145137D01*
X92405501Y-155025043D01*
X92426586Y-154891917D01*
X92405501Y-154758791D01*
X92405501Y-154758790D01*
X92344310Y-154638697D01*
X92249001Y-154543388D01*
X92128908Y-154482198D01*
X92128908Y-154482197D01*
X91995782Y-154461113D01*
X91862655Y-154482197D01*
X91862655Y-154482198D01*
X91742562Y-154543388D01*
X91647253Y-154638697D01*
X91586063Y-154758790D01*
X91586062Y-154758790D01*
X91564978Y-154891916D01*
X84404663Y-154891916D01*
X84460232Y-154787954D01*
X84520300Y-154589934D01*
X84540583Y-154384000D01*
X84520300Y-154178066D01*
X84460232Y-153980046D01*
X84362685Y-153797550D01*
X84231410Y-153637590D01*
X84222518Y-153630292D01*
X84071449Y-153506314D01*
X83964712Y-153449262D01*
X83930923Y-153411571D01*
X83929267Y-153360979D01*
X83960518Y-153321159D01*
X83964712Y-153318738D01*
X84071450Y-153261685D01*
X84231410Y-153130410D01*
X84362685Y-152970450D01*
X84460232Y-152787954D01*
X84520300Y-152589934D01*
X84540583Y-152384000D01*
X84520300Y-152178066D01*
X84519864Y-152176628D01*
X90904250Y-152176628D01*
X90923169Y-152320337D01*
X90970032Y-152433474D01*
X90978639Y-152454254D01*
X91066879Y-152569250D01*
X91181875Y-152657490D01*
X91315791Y-152712959D01*
X91459500Y-152731879D01*
X91603209Y-152712959D01*
X91737125Y-152657490D01*
X91852121Y-152569250D01*
X91940361Y-152454254D01*
X91995830Y-152320338D01*
X92014750Y-152176629D01*
X91995830Y-152032920D01*
X91940361Y-151899004D01*
X91852121Y-151784008D01*
X91737125Y-151695768D01*
X91737123Y-151695767D01*
X91603208Y-151640298D01*
X91459500Y-151621379D01*
X91315791Y-151640298D01*
X91181876Y-151695767D01*
X91066879Y-151784008D01*
X90978638Y-151899005D01*
X90923169Y-152032920D01*
X90904250Y-152176628D01*
X84519864Y-152176628D01*
X84460232Y-151980046D01*
X84362685Y-151797550D01*
X84231410Y-151637590D01*
X84186226Y-151600509D01*
X84071450Y-151506315D01*
X83888956Y-151408769D01*
X83888955Y-151408768D01*
X83888954Y-151408768D01*
X83777158Y-151374855D01*
X83690935Y-151348700D01*
X83587967Y-151338558D01*
X83485000Y-151328417D01*
X83484999Y-151328417D01*
X83279064Y-151348700D01*
X83106616Y-151401011D01*
X83086308Y-151407172D01*
X83081043Y-151408769D01*
X82898549Y-151506315D01*
X82738590Y-151637589D01*
X82738589Y-151637590D01*
X82607315Y-151797549D01*
X82541588Y-151920516D01*
X82509768Y-151980046D01*
X82500032Y-152012141D01*
X82460007Y-152144087D01*
X82429631Y-152184580D01*
X82380335Y-152196074D01*
X82335183Y-152173192D01*
X82317715Y-152141759D01*
X82258433Y-151920516D01*
X82258428Y-151920505D01*
X82158596Y-151706416D01*
X82099925Y-151622625D01*
X81429449Y-152293101D01*
X81428673Y-152282735D01*
X81379113Y-152156459D01*
X81294535Y-152050401D01*
X81182453Y-151973984D01*
X81074698Y-151940746D01*
X81746373Y-151269072D01*
X81662582Y-151210402D01*
X81448494Y-151110571D01*
X81448483Y-151110566D01*
X81220325Y-151049431D01*
X81220317Y-151049430D01*
X80985005Y-151028843D01*
X80984995Y-151028843D01*
X80749682Y-151049430D01*
X80749674Y-151049431D01*
X80521516Y-151110566D01*
X80521505Y-151110571D01*
X80307420Y-151210401D01*
X80223625Y-151269072D01*
X80896768Y-151942215D01*
X80850862Y-151949135D01*
X80728643Y-152007993D01*
X80629202Y-152100260D01*
X80561375Y-152217740D01*
X80543500Y-152296053D01*
X79870072Y-151622625D01*
X79811401Y-151706420D01*
X79711571Y-151920505D01*
X79711566Y-151920516D01*
X79650431Y-152148674D01*
X79650430Y-152148682D01*
X79629843Y-152383994D01*
X79629843Y-152384005D01*
X69345540Y-152384005D01*
X69357947Y-152289766D01*
X69339027Y-152146057D01*
X69283558Y-152012141D01*
X69195318Y-151897145D01*
X69080322Y-151808905D01*
X69080320Y-151808904D01*
X68946405Y-151753435D01*
X68851031Y-151740879D01*
X68806131Y-151717505D01*
X68803701Y-151711639D01*
X68803411Y-151712560D01*
X68760720Y-151739758D01*
X68754362Y-151740879D01*
X68658988Y-151753435D01*
X68525073Y-151808904D01*
X68410076Y-151897145D01*
X68321835Y-152012142D01*
X68266366Y-152146057D01*
X68247447Y-152289766D01*
X57516500Y-152289766D01*
X57516500Y-151458281D01*
X57516545Y-151456465D01*
X57518185Y-151423066D01*
X57523996Y-151304780D01*
X57535557Y-151084214D01*
X57535901Y-151080777D01*
X57541170Y-151045259D01*
X68247447Y-151045259D01*
X68266366Y-151188967D01*
X68302785Y-151276890D01*
X68321836Y-151322884D01*
X68410076Y-151437880D01*
X68525072Y-151526120D01*
X68658988Y-151581589D01*
X68754363Y-151594145D01*
X68799261Y-151617518D01*
X68801691Y-151623384D01*
X68801982Y-151622463D01*
X68844674Y-151595266D01*
X68851017Y-151594147D01*
X68946406Y-151581589D01*
X69080322Y-151526120D01*
X69195318Y-151437880D01*
X69283558Y-151322884D01*
X69339027Y-151188968D01*
X69357947Y-151045259D01*
X69339027Y-150901550D01*
X69283558Y-150767634D01*
X69195318Y-150652638D01*
X69080322Y-150564398D01*
X69080320Y-150564397D01*
X68946405Y-150508928D01*
X68802697Y-150490009D01*
X68658988Y-150508928D01*
X68525073Y-150564397D01*
X68410076Y-150652638D01*
X68321835Y-150767635D01*
X68266366Y-150901550D01*
X68247447Y-151045259D01*
X57541170Y-151045259D01*
X57562404Y-150902105D01*
X57593111Y-150708235D01*
X57593754Y-150705080D01*
X57638856Y-150525025D01*
X57648239Y-150490009D01*
X57688425Y-150340034D01*
X57689305Y-150337218D01*
X57752563Y-150160421D01*
X57820505Y-149983428D01*
X57821572Y-149980933D01*
X57902372Y-149810095D01*
X57988004Y-149642036D01*
X57989184Y-149639903D01*
X58086724Y-149477166D01*
X58189190Y-149319385D01*
X58190479Y-149317527D01*
X58303734Y-149164821D01*
X58422043Y-149018722D01*
X58423322Y-149017229D01*
X58550630Y-148876766D01*
X58551794Y-148875544D01*
X58684178Y-148743160D01*
X58685401Y-148741995D01*
X58825869Y-148614683D01*
X58827327Y-148613434D01*
X58973435Y-148495116D01*
X59126173Y-148381838D01*
X59127981Y-148380582D01*
X59285815Y-148278083D01*
X59448508Y-148180568D01*
X59450670Y-148179372D01*
X59618731Y-148093739D01*
X59789560Y-148012944D01*
X59792060Y-148011874D01*
X59969042Y-147943937D01*
X60145832Y-147880680D01*
X60148677Y-147879791D01*
X60333658Y-147830225D01*
X60513721Y-147785122D01*
X60516874Y-147784480D01*
X60710687Y-147753782D01*
X60889407Y-147727271D01*
X60892844Y-147726927D01*
X61113715Y-147715351D01*
X61210650Y-147710589D01*
X61265075Y-147707916D01*
X61266891Y-147707871D01*
X75637913Y-147707871D01*
X75685479Y-147725184D01*
G37*
%TD.AperFunction*%
%TD*%
M02*
