%TF.GenerationSoftware,KiCad,Pcbnew,7.0.6*%
%TF.CreationDate,2023-10-15T13:38:33+02:00*%
%TF.ProjectId,fx3lahw,6678336c-6168-4772-9e6b-696361645f70,rev?*%
%TF.SameCoordinates,Original*%
%TF.FileFunction,Soldermask,Bot*%
%TF.FilePolarity,Negative*%
%FSLAX46Y46*%
G04 Gerber Fmt 4.6, Leading zero omitted, Abs format (unit mm)*
G04 Created by KiCad (PCBNEW 7.0.6) date 2023-10-15 13:38:33*
%MOMM*%
%LPD*%
G01*
G04 APERTURE LIST*
G04 Aperture macros list*
%AMRoundRect*
0 Rectangle with rounded corners*
0 $1 Rounding radius*
0 $2 $3 $4 $5 $6 $7 $8 $9 X,Y pos of 4 corners*
0 Add a 4 corners polygon primitive as box body*
4,1,4,$2,$3,$4,$5,$6,$7,$8,$9,$2,$3,0*
0 Add four circle primitives for the rounded corners*
1,1,$1+$1,$2,$3*
1,1,$1+$1,$4,$5*
1,1,$1+$1,$6,$7*
1,1,$1+$1,$8,$9*
0 Add four rect primitives between the rounded corners*
20,1,$1+$1,$2,$3,$4,$5,0*
20,1,$1+$1,$4,$5,$6,$7,0*
20,1,$1+$1,$6,$7,$8,$9,0*
20,1,$1+$1,$8,$9,$2,$3,0*%
G04 Aperture macros list end*
%ADD10C,1.700000*%
%ADD11C,1.500000*%
%ADD12C,3.400000*%
%ADD13R,1.700000X1.700000*%
%ADD14O,1.700000X1.700000*%
%ADD15C,6.400000*%
%ADD16RoundRect,0.140000X-0.140000X-0.170000X0.140000X-0.170000X0.140000X0.170000X-0.140000X0.170000X0*%
%ADD17C,2.000000*%
%ADD18RoundRect,0.140000X0.219203X0.021213X0.021213X0.219203X-0.219203X-0.021213X-0.021213X-0.219203X0*%
G04 APERTURE END LIST*
D10*
%TO.C,J1*%
X80985000Y-154384000D03*
X83485000Y-154384000D03*
X83485000Y-152384000D03*
X80985000Y-152384000D03*
D11*
X86485000Y-156384000D03*
X84735000Y-156384000D03*
X82235000Y-156384000D03*
X79735000Y-156384000D03*
X77985000Y-156384000D03*
D12*
X88255000Y-149674000D03*
X76215000Y-149674000D03*
%TD*%
D13*
%TO.C,J3*%
X79716000Y-190707371D03*
D14*
X79716000Y-193247371D03*
X77176000Y-190707371D03*
X77176000Y-193247371D03*
X74636000Y-190707371D03*
X74636000Y-193247371D03*
X72096000Y-190707371D03*
X72096000Y-193247371D03*
%TD*%
D13*
%TO.C,J5*%
X105116000Y-190707371D03*
D14*
X105116000Y-193247371D03*
X102576000Y-190707371D03*
X102576000Y-193247371D03*
X100036000Y-190707371D03*
X100036000Y-193247371D03*
X97496000Y-190707371D03*
X97496000Y-193247371D03*
%TD*%
D15*
%TO.C,H1*%
X61266000Y-151457371D03*
%TD*%
D13*
%TO.C,J4*%
X92416000Y-190707371D03*
D14*
X92416000Y-193247371D03*
X89876000Y-190707371D03*
X89876000Y-193247371D03*
X87336000Y-190707371D03*
X87336000Y-193247371D03*
X84796000Y-190707371D03*
X84796000Y-193247371D03*
%TD*%
D13*
%TO.C,J2*%
X67016000Y-190707371D03*
D14*
X67016000Y-193247371D03*
X64476000Y-190707371D03*
X64476000Y-193247371D03*
X61936000Y-190707371D03*
X61936000Y-193247371D03*
X59396000Y-190707371D03*
X59396000Y-193247371D03*
%TD*%
D15*
%TO.C,H2*%
X103266000Y-151457371D03*
%TD*%
D16*
%TO.C,C27*%
X89451864Y-173106974D03*
X90411864Y-173106974D03*
%TD*%
D17*
%TO.C,TP2*%
X102916000Y-159757371D03*
%TD*%
%TO.C,TP1*%
X100616000Y-164807371D03*
%TD*%
D18*
%TO.C,C16*%
X80682082Y-169373453D03*
X80003260Y-168694631D03*
%TD*%
M02*
