%TF.GenerationSoftware,KiCad,Pcbnew,7.0.6*%
%TF.CreationDate,2023-10-15T13:38:33+02:00*%
%TF.ProjectId,fx3lahw,6678336c-6168-4772-9e6b-696361645f70,rev?*%
%TF.SameCoordinates,Original*%
%TF.FileFunction,Legend,Bot*%
%TF.FilePolarity,Positive*%
%FSLAX46Y46*%
G04 Gerber Fmt 4.6, Leading zero omitted, Abs format (unit mm)*
G04 Created by KiCad (PCBNEW 7.0.6) date 2023-10-15 13:38:33*
%MOMM*%
%LPD*%
G01*
G04 APERTURE LIST*
%ADD10C,0.150000*%
%ADD11C,0.120000*%
G04 APERTURE END LIST*
D10*
X105729220Y-187727190D02*
X105729220Y-186727190D01*
X105729220Y-187203380D02*
X105157792Y-187203380D01*
X105157792Y-187727190D02*
X105157792Y-186727190D01*
X104776839Y-186727190D02*
X104538744Y-187727190D01*
X104538744Y-187727190D02*
X104348268Y-187012904D01*
X104348268Y-187012904D02*
X104157792Y-187727190D01*
X104157792Y-187727190D02*
X103919697Y-186727190D01*
X102776839Y-187727190D02*
X102776839Y-186727190D01*
X102776839Y-186727190D02*
X102538744Y-186727190D01*
X102538744Y-186727190D02*
X102395887Y-186774809D01*
X102395887Y-186774809D02*
X102300649Y-186870047D01*
X102300649Y-186870047D02*
X102253030Y-186965285D01*
X102253030Y-186965285D02*
X102205411Y-187155761D01*
X102205411Y-187155761D02*
X102205411Y-187298618D01*
X102205411Y-187298618D02*
X102253030Y-187489094D01*
X102253030Y-187489094D02*
X102300649Y-187584332D01*
X102300649Y-187584332D02*
X102395887Y-187679571D01*
X102395887Y-187679571D02*
X102538744Y-187727190D01*
X102538744Y-187727190D02*
X102776839Y-187727190D01*
X101395887Y-187679571D02*
X101491125Y-187727190D01*
X101491125Y-187727190D02*
X101681601Y-187727190D01*
X101681601Y-187727190D02*
X101776839Y-187679571D01*
X101776839Y-187679571D02*
X101824458Y-187584332D01*
X101824458Y-187584332D02*
X101824458Y-187203380D01*
X101824458Y-187203380D02*
X101776839Y-187108142D01*
X101776839Y-187108142D02*
X101681601Y-187060523D01*
X101681601Y-187060523D02*
X101491125Y-187060523D01*
X101491125Y-187060523D02*
X101395887Y-187108142D01*
X101395887Y-187108142D02*
X101348268Y-187203380D01*
X101348268Y-187203380D02*
X101348268Y-187298618D01*
X101348268Y-187298618D02*
X101824458Y-187393856D01*
X100967315Y-187679571D02*
X100872077Y-187727190D01*
X100872077Y-187727190D02*
X100681601Y-187727190D01*
X100681601Y-187727190D02*
X100586363Y-187679571D01*
X100586363Y-187679571D02*
X100538744Y-187584332D01*
X100538744Y-187584332D02*
X100538744Y-187536713D01*
X100538744Y-187536713D02*
X100586363Y-187441475D01*
X100586363Y-187441475D02*
X100681601Y-187393856D01*
X100681601Y-187393856D02*
X100824458Y-187393856D01*
X100824458Y-187393856D02*
X100919696Y-187346237D01*
X100919696Y-187346237D02*
X100967315Y-187250999D01*
X100967315Y-187250999D02*
X100967315Y-187203380D01*
X100967315Y-187203380D02*
X100919696Y-187108142D01*
X100919696Y-187108142D02*
X100824458Y-187060523D01*
X100824458Y-187060523D02*
X100681601Y-187060523D01*
X100681601Y-187060523D02*
X100586363Y-187108142D01*
X100110172Y-187727190D02*
X100110172Y-187060523D01*
X100110172Y-186727190D02*
X100157791Y-186774809D01*
X100157791Y-186774809D02*
X100110172Y-186822428D01*
X100110172Y-186822428D02*
X100062553Y-186774809D01*
X100062553Y-186774809D02*
X100110172Y-186727190D01*
X100110172Y-186727190D02*
X100110172Y-186822428D01*
X99205411Y-187060523D02*
X99205411Y-187870047D01*
X99205411Y-187870047D02*
X99253030Y-187965285D01*
X99253030Y-187965285D02*
X99300649Y-188012904D01*
X99300649Y-188012904D02*
X99395887Y-188060523D01*
X99395887Y-188060523D02*
X99538744Y-188060523D01*
X99538744Y-188060523D02*
X99633982Y-188012904D01*
X99205411Y-187679571D02*
X99300649Y-187727190D01*
X99300649Y-187727190D02*
X99491125Y-187727190D01*
X99491125Y-187727190D02*
X99586363Y-187679571D01*
X99586363Y-187679571D02*
X99633982Y-187631951D01*
X99633982Y-187631951D02*
X99681601Y-187536713D01*
X99681601Y-187536713D02*
X99681601Y-187250999D01*
X99681601Y-187250999D02*
X99633982Y-187155761D01*
X99633982Y-187155761D02*
X99586363Y-187108142D01*
X99586363Y-187108142D02*
X99491125Y-187060523D01*
X99491125Y-187060523D02*
X99300649Y-187060523D01*
X99300649Y-187060523D02*
X99205411Y-187108142D01*
X98729220Y-187060523D02*
X98729220Y-187727190D01*
X98729220Y-187155761D02*
X98681601Y-187108142D01*
X98681601Y-187108142D02*
X98586363Y-187060523D01*
X98586363Y-187060523D02*
X98443506Y-187060523D01*
X98443506Y-187060523D02*
X98348268Y-187108142D01*
X98348268Y-187108142D02*
X98300649Y-187203380D01*
X98300649Y-187203380D02*
X98300649Y-187727190D01*
X97824458Y-187631951D02*
X97776839Y-187679571D01*
X97776839Y-187679571D02*
X97824458Y-187727190D01*
X97824458Y-187727190D02*
X97872077Y-187679571D01*
X97872077Y-187679571D02*
X97824458Y-187631951D01*
X97824458Y-187631951D02*
X97824458Y-187727190D01*
X97824458Y-187108142D02*
X97776839Y-187155761D01*
X97776839Y-187155761D02*
X97824458Y-187203380D01*
X97824458Y-187203380D02*
X97872077Y-187155761D01*
X97872077Y-187155761D02*
X97824458Y-187108142D01*
X97824458Y-187108142D02*
X97824458Y-187203380D01*
X96300649Y-186727190D02*
X96300649Y-187441475D01*
X96300649Y-187441475D02*
X96348268Y-187584332D01*
X96348268Y-187584332D02*
X96443506Y-187679571D01*
X96443506Y-187679571D02*
X96586363Y-187727190D01*
X96586363Y-187727190D02*
X96681601Y-187727190D01*
X95395887Y-187727190D02*
X95395887Y-187203380D01*
X95395887Y-187203380D02*
X95443506Y-187108142D01*
X95443506Y-187108142D02*
X95538744Y-187060523D01*
X95538744Y-187060523D02*
X95729220Y-187060523D01*
X95729220Y-187060523D02*
X95824458Y-187108142D01*
X95395887Y-187679571D02*
X95491125Y-187727190D01*
X95491125Y-187727190D02*
X95729220Y-187727190D01*
X95729220Y-187727190D02*
X95824458Y-187679571D01*
X95824458Y-187679571D02*
X95872077Y-187584332D01*
X95872077Y-187584332D02*
X95872077Y-187489094D01*
X95872077Y-187489094D02*
X95824458Y-187393856D01*
X95824458Y-187393856D02*
X95729220Y-187346237D01*
X95729220Y-187346237D02*
X95491125Y-187346237D01*
X95491125Y-187346237D02*
X95395887Y-187298618D01*
X94919696Y-187727190D02*
X94919696Y-186727190D01*
X94824458Y-187346237D02*
X94538744Y-187727190D01*
X94538744Y-187060523D02*
X94919696Y-187441475D01*
X93681601Y-187060523D02*
X93681601Y-187727190D01*
X94110172Y-187060523D02*
X94110172Y-187584332D01*
X94110172Y-187584332D02*
X94062553Y-187679571D01*
X94062553Y-187679571D02*
X93967315Y-187727190D01*
X93967315Y-187727190D02*
X93824458Y-187727190D01*
X93824458Y-187727190D02*
X93729220Y-187679571D01*
X93729220Y-187679571D02*
X93681601Y-187631951D01*
X93205410Y-187727190D02*
X93205410Y-186727190D01*
X93205410Y-187108142D02*
X93110172Y-187060523D01*
X93110172Y-187060523D02*
X92919696Y-187060523D01*
X92919696Y-187060523D02*
X92824458Y-187108142D01*
X92824458Y-187108142D02*
X92776839Y-187155761D01*
X92776839Y-187155761D02*
X92729220Y-187250999D01*
X92729220Y-187250999D02*
X92729220Y-187536713D01*
X92729220Y-187536713D02*
X92776839Y-187631951D01*
X92776839Y-187631951D02*
X92824458Y-187679571D01*
X92824458Y-187679571D02*
X92919696Y-187727190D01*
X92919696Y-187727190D02*
X93110172Y-187727190D01*
X93110172Y-187727190D02*
X93205410Y-187679571D01*
X91538743Y-187727190D02*
X91538743Y-186727190D01*
X90967315Y-187727190D02*
X91395886Y-187155761D01*
X90967315Y-186727190D02*
X91538743Y-187298618D01*
X90538743Y-187727190D02*
X90538743Y-187060523D01*
X90538743Y-187250999D02*
X90491124Y-187155761D01*
X90491124Y-187155761D02*
X90443505Y-187108142D01*
X90443505Y-187108142D02*
X90348267Y-187060523D01*
X90348267Y-187060523D02*
X90253029Y-187060523D01*
X89491124Y-187727190D02*
X89491124Y-187203380D01*
X89491124Y-187203380D02*
X89538743Y-187108142D01*
X89538743Y-187108142D02*
X89633981Y-187060523D01*
X89633981Y-187060523D02*
X89824457Y-187060523D01*
X89824457Y-187060523D02*
X89919695Y-187108142D01*
X89491124Y-187679571D02*
X89586362Y-187727190D01*
X89586362Y-187727190D02*
X89824457Y-187727190D01*
X89824457Y-187727190D02*
X89919695Y-187679571D01*
X89919695Y-187679571D02*
X89967314Y-187584332D01*
X89967314Y-187584332D02*
X89967314Y-187489094D01*
X89967314Y-187489094D02*
X89919695Y-187393856D01*
X89919695Y-187393856D02*
X89824457Y-187346237D01*
X89824457Y-187346237D02*
X89586362Y-187346237D01*
X89586362Y-187346237D02*
X89491124Y-187298618D01*
X88586362Y-187060523D02*
X88586362Y-187727190D01*
X89014933Y-187060523D02*
X89014933Y-187584332D01*
X89014933Y-187584332D02*
X88967314Y-187679571D01*
X88967314Y-187679571D02*
X88872076Y-187727190D01*
X88872076Y-187727190D02*
X88729219Y-187727190D01*
X88729219Y-187727190D02*
X88633981Y-187679571D01*
X88633981Y-187679571D02*
X88586362Y-187631951D01*
X88157790Y-187679571D02*
X88062552Y-187727190D01*
X88062552Y-187727190D02*
X87872076Y-187727190D01*
X87872076Y-187727190D02*
X87776838Y-187679571D01*
X87776838Y-187679571D02*
X87729219Y-187584332D01*
X87729219Y-187584332D02*
X87729219Y-187536713D01*
X87729219Y-187536713D02*
X87776838Y-187441475D01*
X87776838Y-187441475D02*
X87872076Y-187393856D01*
X87872076Y-187393856D02*
X88014933Y-187393856D01*
X88014933Y-187393856D02*
X88110171Y-187346237D01*
X88110171Y-187346237D02*
X88157790Y-187250999D01*
X88157790Y-187250999D02*
X88157790Y-187203380D01*
X88157790Y-187203380D02*
X88110171Y-187108142D01*
X88110171Y-187108142D02*
X88014933Y-187060523D01*
X88014933Y-187060523D02*
X87872076Y-187060523D01*
X87872076Y-187060523D02*
X87776838Y-187108142D01*
X87253028Y-187679571D02*
X87253028Y-187727190D01*
X87253028Y-187727190D02*
X87300647Y-187822428D01*
X87300647Y-187822428D02*
X87348266Y-187870047D01*
X86110171Y-186822428D02*
X86062552Y-186774809D01*
X86062552Y-186774809D02*
X85967314Y-186727190D01*
X85967314Y-186727190D02*
X85729219Y-186727190D01*
X85729219Y-186727190D02*
X85633981Y-186774809D01*
X85633981Y-186774809D02*
X85586362Y-186822428D01*
X85586362Y-186822428D02*
X85538743Y-186917666D01*
X85538743Y-186917666D02*
X85538743Y-187012904D01*
X85538743Y-187012904D02*
X85586362Y-187155761D01*
X85586362Y-187155761D02*
X86157790Y-187727190D01*
X86157790Y-187727190D02*
X85538743Y-187727190D01*
X84919695Y-186727190D02*
X84824457Y-186727190D01*
X84824457Y-186727190D02*
X84729219Y-186774809D01*
X84729219Y-186774809D02*
X84681600Y-186822428D01*
X84681600Y-186822428D02*
X84633981Y-186917666D01*
X84633981Y-186917666D02*
X84586362Y-187108142D01*
X84586362Y-187108142D02*
X84586362Y-187346237D01*
X84586362Y-187346237D02*
X84633981Y-187536713D01*
X84633981Y-187536713D02*
X84681600Y-187631951D01*
X84681600Y-187631951D02*
X84729219Y-187679571D01*
X84729219Y-187679571D02*
X84824457Y-187727190D01*
X84824457Y-187727190D02*
X84919695Y-187727190D01*
X84919695Y-187727190D02*
X85014933Y-187679571D01*
X85014933Y-187679571D02*
X85062552Y-187631951D01*
X85062552Y-187631951D02*
X85110171Y-187536713D01*
X85110171Y-187536713D02*
X85157790Y-187346237D01*
X85157790Y-187346237D02*
X85157790Y-187108142D01*
X85157790Y-187108142D02*
X85110171Y-186917666D01*
X85110171Y-186917666D02*
X85062552Y-186822428D01*
X85062552Y-186822428D02*
X85014933Y-186774809D01*
X85014933Y-186774809D02*
X84919695Y-186727190D01*
X84205409Y-186822428D02*
X84157790Y-186774809D01*
X84157790Y-186774809D02*
X84062552Y-186727190D01*
X84062552Y-186727190D02*
X83824457Y-186727190D01*
X83824457Y-186727190D02*
X83729219Y-186774809D01*
X83729219Y-186774809D02*
X83681600Y-186822428D01*
X83681600Y-186822428D02*
X83633981Y-186917666D01*
X83633981Y-186917666D02*
X83633981Y-187012904D01*
X83633981Y-187012904D02*
X83681600Y-187155761D01*
X83681600Y-187155761D02*
X84253028Y-187727190D01*
X84253028Y-187727190D02*
X83633981Y-187727190D01*
X83300647Y-186727190D02*
X82681600Y-186727190D01*
X82681600Y-186727190D02*
X83014933Y-187108142D01*
X83014933Y-187108142D02*
X82872076Y-187108142D01*
X82872076Y-187108142D02*
X82776838Y-187155761D01*
X82776838Y-187155761D02*
X82729219Y-187203380D01*
X82729219Y-187203380D02*
X82681600Y-187298618D01*
X82681600Y-187298618D02*
X82681600Y-187536713D01*
X82681600Y-187536713D02*
X82729219Y-187631951D01*
X82729219Y-187631951D02*
X82776838Y-187679571D01*
X82776838Y-187679571D02*
X82872076Y-187727190D01*
X82872076Y-187727190D02*
X83157790Y-187727190D01*
X83157790Y-187727190D02*
X83253028Y-187679571D01*
X83253028Y-187679571D02*
X83300647Y-187631951D01*
X90574721Y-174626554D02*
X90622340Y-174674174D01*
X90622340Y-174674174D02*
X90765197Y-174721793D01*
X90765197Y-174721793D02*
X90860435Y-174721793D01*
X90860435Y-174721793D02*
X91003292Y-174674174D01*
X91003292Y-174674174D02*
X91098530Y-174578935D01*
X91098530Y-174578935D02*
X91146149Y-174483697D01*
X91146149Y-174483697D02*
X91193768Y-174293221D01*
X91193768Y-174293221D02*
X91193768Y-174150364D01*
X91193768Y-174150364D02*
X91146149Y-173959888D01*
X91146149Y-173959888D02*
X91098530Y-173864650D01*
X91098530Y-173864650D02*
X91003292Y-173769412D01*
X91003292Y-173769412D02*
X90860435Y-173721793D01*
X90860435Y-173721793D02*
X90765197Y-173721793D01*
X90765197Y-173721793D02*
X90622340Y-173769412D01*
X90622340Y-173769412D02*
X90574721Y-173817031D01*
X90193768Y-173817031D02*
X90146149Y-173769412D01*
X90146149Y-173769412D02*
X90050911Y-173721793D01*
X90050911Y-173721793D02*
X89812816Y-173721793D01*
X89812816Y-173721793D02*
X89717578Y-173769412D01*
X89717578Y-173769412D02*
X89669959Y-173817031D01*
X89669959Y-173817031D02*
X89622340Y-173912269D01*
X89622340Y-173912269D02*
X89622340Y-174007507D01*
X89622340Y-174007507D02*
X89669959Y-174150364D01*
X89669959Y-174150364D02*
X90241387Y-174721793D01*
X90241387Y-174721793D02*
X89622340Y-174721793D01*
X89289006Y-173721793D02*
X88622340Y-173721793D01*
X88622340Y-173721793D02*
X89050911Y-174721793D01*
X104177904Y-157214190D02*
X103606476Y-157214190D01*
X103892190Y-158214190D02*
X103892190Y-157214190D01*
X103273142Y-158214190D02*
X103273142Y-157214190D01*
X103273142Y-157214190D02*
X102892190Y-157214190D01*
X102892190Y-157214190D02*
X102796952Y-157261809D01*
X102796952Y-157261809D02*
X102749333Y-157309428D01*
X102749333Y-157309428D02*
X102701714Y-157404666D01*
X102701714Y-157404666D02*
X102701714Y-157547523D01*
X102701714Y-157547523D02*
X102749333Y-157642761D01*
X102749333Y-157642761D02*
X102796952Y-157690380D01*
X102796952Y-157690380D02*
X102892190Y-157737999D01*
X102892190Y-157737999D02*
X103273142Y-157737999D01*
X102320761Y-157309428D02*
X102273142Y-157261809D01*
X102273142Y-157261809D02*
X102177904Y-157214190D01*
X102177904Y-157214190D02*
X101939809Y-157214190D01*
X101939809Y-157214190D02*
X101844571Y-157261809D01*
X101844571Y-157261809D02*
X101796952Y-157309428D01*
X101796952Y-157309428D02*
X101749333Y-157404666D01*
X101749333Y-157404666D02*
X101749333Y-157499904D01*
X101749333Y-157499904D02*
X101796952Y-157642761D01*
X101796952Y-157642761D02*
X102368380Y-158214190D01*
X102368380Y-158214190D02*
X101749333Y-158214190D01*
X101877904Y-162264190D02*
X101306476Y-162264190D01*
X101592190Y-163264190D02*
X101592190Y-162264190D01*
X100973142Y-163264190D02*
X100973142Y-162264190D01*
X100973142Y-162264190D02*
X100592190Y-162264190D01*
X100592190Y-162264190D02*
X100496952Y-162311809D01*
X100496952Y-162311809D02*
X100449333Y-162359428D01*
X100449333Y-162359428D02*
X100401714Y-162454666D01*
X100401714Y-162454666D02*
X100401714Y-162597523D01*
X100401714Y-162597523D02*
X100449333Y-162692761D01*
X100449333Y-162692761D02*
X100496952Y-162740380D01*
X100496952Y-162740380D02*
X100592190Y-162787999D01*
X100592190Y-162787999D02*
X100973142Y-162787999D01*
X99449333Y-163264190D02*
X100020761Y-163264190D01*
X99735047Y-163264190D02*
X99735047Y-162264190D01*
X99735047Y-162264190D02*
X99830285Y-162407047D01*
X99830285Y-162407047D02*
X99925523Y-162502285D01*
X99925523Y-162502285D02*
X100020761Y-162549904D01*
D11*
X81323160Y-168780862D02*
X81323160Y-168834737D01*
X81323160Y-168834737D02*
X81377035Y-168942487D01*
X81377035Y-168942487D02*
X81430909Y-168996361D01*
X81430909Y-168996361D02*
X81538659Y-169050236D01*
X81538659Y-169050236D02*
X81646409Y-169050236D01*
X81646409Y-169050236D02*
X81727221Y-169023299D01*
X81727221Y-169023299D02*
X81861908Y-168942487D01*
X81861908Y-168942487D02*
X81942720Y-168861674D01*
X81942720Y-168861674D02*
X82023532Y-168726987D01*
X82023532Y-168726987D02*
X82050470Y-168646175D01*
X82050470Y-168646175D02*
X82050470Y-168538426D01*
X82050470Y-168538426D02*
X81996595Y-168430676D01*
X81996595Y-168430676D02*
X81942720Y-168376801D01*
X81942720Y-168376801D02*
X81834971Y-168322926D01*
X81834971Y-168322926D02*
X81781096Y-168322926D01*
X80730537Y-168295989D02*
X81053786Y-168619238D01*
X80892161Y-168457613D02*
X81457847Y-167891928D01*
X81457847Y-167891928D02*
X81430909Y-168026615D01*
X81430909Y-168026615D02*
X81430909Y-168134365D01*
X81430909Y-168134365D02*
X81457847Y-168215177D01*
X80811349Y-167245430D02*
X80919099Y-167353180D01*
X80919099Y-167353180D02*
X80946036Y-167433992D01*
X80946036Y-167433992D02*
X80946036Y-167487867D01*
X80946036Y-167487867D02*
X80919099Y-167622554D01*
X80919099Y-167622554D02*
X80838286Y-167757241D01*
X80838286Y-167757241D02*
X80622787Y-167972740D01*
X80622787Y-167972740D02*
X80541975Y-167999677D01*
X80541975Y-167999677D02*
X80488100Y-167999677D01*
X80488100Y-167999677D02*
X80407288Y-167972740D01*
X80407288Y-167972740D02*
X80299538Y-167864990D01*
X80299538Y-167864990D02*
X80272601Y-167784178D01*
X80272601Y-167784178D02*
X80272601Y-167730303D01*
X80272601Y-167730303D02*
X80299538Y-167649491D01*
X80299538Y-167649491D02*
X80434225Y-167514804D01*
X80434225Y-167514804D02*
X80515038Y-167487867D01*
X80515038Y-167487867D02*
X80568912Y-167487867D01*
X80568912Y-167487867D02*
X80649725Y-167514804D01*
X80649725Y-167514804D02*
X80757474Y-167622554D01*
X80757474Y-167622554D02*
X80784412Y-167703366D01*
X80784412Y-167703366D02*
X80784412Y-167757241D01*
X80784412Y-167757241D02*
X80757474Y-167838053D01*
%TO.C,C27*%
X89824028Y-172746974D02*
X90039700Y-172746974D01*
X89824028Y-173466974D02*
X90039700Y-173466974D01*
%TO.C,TP2*%
X104116000Y-159757371D02*
G75*
G03*
X104116000Y-159757371I-1200000J0D01*
G01*
%TO.C,TP1*%
X101816000Y-164807371D02*
G75*
G03*
X101816000Y-164807371I-1200000J0D01*
G01*
%TO.C,C16*%
X80164364Y-169364852D02*
X80011861Y-169212349D01*
X80673481Y-168855735D02*
X80520978Y-168703232D01*
%TD*%
M02*
