%TF.GenerationSoftware,KiCad,Pcbnew,7.0.6*%
%TF.CreationDate,2023-10-15T13:38:33+02:00*%
%TF.ProjectId,fx3lahw,6678336c-6168-4772-9e6b-696361645f70,rev?*%
%TF.SameCoordinates,Original*%
%TF.FileFunction,Copper,L1,Top*%
%TF.FilePolarity,Positive*%
%FSLAX46Y46*%
G04 Gerber Fmt 4.6, Leading zero omitted, Abs format (unit mm)*
G04 Created by KiCad (PCBNEW 7.0.6) date 2023-10-15 13:38:33*
%MOMM*%
%LPD*%
G01*
G04 APERTURE LIST*
G04 Aperture macros list*
%AMRoundRect*
0 Rectangle with rounded corners*
0 $1 Rounding radius*
0 $2 $3 $4 $5 $6 $7 $8 $9 X,Y pos of 4 corners*
0 Add a 4 corners polygon primitive as box body*
4,1,4,$2,$3,$4,$5,$6,$7,$8,$9,$2,$3,0*
0 Add four circle primitives for the rounded corners*
1,1,$1+$1,$2,$3*
1,1,$1+$1,$4,$5*
1,1,$1+$1,$6,$7*
1,1,$1+$1,$8,$9*
0 Add four rect primitives between the rounded corners*
20,1,$1+$1,$2,$3,$4,$5,0*
20,1,$1+$1,$4,$5,$6,$7,0*
20,1,$1+$1,$6,$7,$8,$9,0*
20,1,$1+$1,$8,$9,$2,$3,0*%
%AMFreePoly0*
4,1,19,0.500000,-0.750000,0.000000,-0.750000,0.000000,-0.744911,-0.071157,-0.744911,-0.207708,-0.704816,-0.327430,-0.627875,-0.420627,-0.520320,-0.479746,-0.390866,-0.500000,-0.250000,-0.500000,0.250000,-0.479746,0.390866,-0.420627,0.520320,-0.327430,0.627875,-0.207708,0.704816,-0.071157,0.744911,0.000000,0.744911,0.000000,0.750000,0.500000,0.750000,0.500000,-0.750000,0.500000,-0.750000,
$1*%
%AMFreePoly1*
4,1,19,0.000000,0.744911,0.071157,0.744911,0.207708,0.704816,0.327430,0.627875,0.420627,0.520320,0.479746,0.390866,0.500000,0.250000,0.500000,-0.250000,0.479746,-0.390866,0.420627,-0.520320,0.327430,-0.627875,0.207708,-0.704816,0.071157,-0.744911,0.000000,-0.744911,0.000000,-0.750000,-0.500000,-0.750000,-0.500000,0.750000,0.000000,0.750000,0.000000,0.744911,0.000000,0.744911,
$1*%
G04 Aperture macros list end*
%TA.AperFunction,SMDPad,CuDef*%
%ADD10RoundRect,0.140000X0.219203X0.021213X0.021213X0.219203X-0.219203X-0.021213X-0.021213X-0.219203X0*%
%TD*%
%TA.AperFunction,SMDPad,CuDef*%
%ADD11RoundRect,0.135000X-0.135000X-0.185000X0.135000X-0.185000X0.135000X0.185000X-0.135000X0.185000X0*%
%TD*%
%TA.AperFunction,SMDPad,CuDef*%
%ADD12RoundRect,0.140000X-0.140000X-0.170000X0.140000X-0.170000X0.140000X0.170000X-0.140000X0.170000X0*%
%TD*%
%TA.AperFunction,SMDPad,CuDef*%
%ADD13RoundRect,0.140000X0.021213X-0.219203X0.219203X-0.021213X-0.021213X0.219203X-0.219203X0.021213X0*%
%TD*%
%TA.AperFunction,SMDPad,CuDef*%
%ADD14R,1.500000X2.000000*%
%TD*%
%TA.AperFunction,SMDPad,CuDef*%
%ADD15R,3.800000X2.000000*%
%TD*%
%TA.AperFunction,SMDPad,CuDef*%
%ADD16RoundRect,0.150000X0.512500X0.150000X-0.512500X0.150000X-0.512500X-0.150000X0.512500X-0.150000X0*%
%TD*%
%TA.AperFunction,SMDPad,CuDef*%
%ADD17R,0.300000X0.550000*%
%TD*%
%TA.AperFunction,SMDPad,CuDef*%
%ADD18R,0.400000X0.550000*%
%TD*%
%TA.AperFunction,SMDPad,CuDef*%
%ADD19RoundRect,0.150000X-0.512500X-0.150000X0.512500X-0.150000X0.512500X0.150000X-0.512500X0.150000X0*%
%TD*%
%TA.AperFunction,SMDPad,CuDef*%
%ADD20C,0.320000*%
%TD*%
%TA.AperFunction,SMDPad,CuDef*%
%ADD21RoundRect,0.135000X0.185000X-0.135000X0.185000X0.135000X-0.185000X0.135000X-0.185000X-0.135000X0*%
%TD*%
%TA.AperFunction,SMDPad,CuDef*%
%ADD22RoundRect,0.140000X0.170000X-0.140000X0.170000X0.140000X-0.170000X0.140000X-0.170000X-0.140000X0*%
%TD*%
%TA.AperFunction,SMDPad,CuDef*%
%ADD23RoundRect,0.135000X0.135000X0.185000X-0.135000X0.185000X-0.135000X-0.185000X0.135000X-0.185000X0*%
%TD*%
%TA.AperFunction,ComponentPad*%
%ADD24C,1.700000*%
%TD*%
%TA.AperFunction,ComponentPad*%
%ADD25C,1.500000*%
%TD*%
%TA.AperFunction,ComponentPad*%
%ADD26C,3.400000*%
%TD*%
%TA.AperFunction,SMDPad,CuDef*%
%ADD27RoundRect,0.100000X-0.100000X0.637500X-0.100000X-0.637500X0.100000X-0.637500X0.100000X0.637500X0*%
%TD*%
%TA.AperFunction,SMDPad,CuDef*%
%ADD28R,0.500000X0.800000*%
%TD*%
%TA.AperFunction,SMDPad,CuDef*%
%ADD29R,0.400000X0.800000*%
%TD*%
%TA.AperFunction,SMDPad,CuDef*%
%ADD30RoundRect,0.200000X0.053033X-0.335876X0.335876X-0.053033X-0.053033X0.335876X-0.335876X0.053033X0*%
%TD*%
%TA.AperFunction,SMDPad,CuDef*%
%ADD31RoundRect,0.225000X-0.017678X0.335876X-0.335876X0.017678X0.017678X-0.335876X0.335876X-0.017678X0*%
%TD*%
%TA.AperFunction,SMDPad,CuDef*%
%ADD32R,2.000000X0.850000*%
%TD*%
%TA.AperFunction,SMDPad,CuDef*%
%ADD33RoundRect,0.140000X-0.021213X0.219203X-0.219203X0.021213X0.021213X-0.219203X0.219203X-0.021213X0*%
%TD*%
%TA.AperFunction,SMDPad,CuDef*%
%ADD34RoundRect,0.135000X-0.035355X0.226274X-0.226274X0.035355X0.035355X-0.226274X0.226274X-0.035355X0*%
%TD*%
%TA.AperFunction,SMDPad,CuDef*%
%ADD35RoundRect,0.225000X0.225000X0.250000X-0.225000X0.250000X-0.225000X-0.250000X0.225000X-0.250000X0*%
%TD*%
%TA.AperFunction,SMDPad,CuDef*%
%ADD36RoundRect,0.200000X0.200000X0.275000X-0.200000X0.275000X-0.200000X-0.275000X0.200000X-0.275000X0*%
%TD*%
%TA.AperFunction,SMDPad,CuDef*%
%ADD37RoundRect,0.200000X-0.275000X0.200000X-0.275000X-0.200000X0.275000X-0.200000X0.275000X0.200000X0*%
%TD*%
%TA.AperFunction,SMDPad,CuDef*%
%ADD38RoundRect,0.225000X-0.225000X-0.250000X0.225000X-0.250000X0.225000X0.250000X-0.225000X0.250000X0*%
%TD*%
%TA.AperFunction,SMDPad,CuDef*%
%ADD39RoundRect,0.200000X0.335876X0.053033X0.053033X0.335876X-0.335876X-0.053033X-0.053033X-0.335876X0*%
%TD*%
%TA.AperFunction,ComponentPad*%
%ADD40R,1.700000X1.700000*%
%TD*%
%TA.AperFunction,ComponentPad*%
%ADD41O,1.700000X1.700000*%
%TD*%
%TA.AperFunction,SMDPad,CuDef*%
%ADD42R,0.850000X2.000000*%
%TD*%
%TA.AperFunction,SMDPad,CuDef*%
%ADD43RoundRect,0.225000X0.250000X-0.225000X0.250000X0.225000X-0.250000X0.225000X-0.250000X-0.225000X0*%
%TD*%
%TA.AperFunction,SMDPad,CuDef*%
%ADD44RoundRect,0.135000X0.226274X0.035355X0.035355X0.226274X-0.226274X-0.035355X-0.035355X-0.226274X0*%
%TD*%
%TA.AperFunction,SMDPad,CuDef*%
%ADD45RoundRect,0.225000X0.017678X-0.335876X0.335876X-0.017678X-0.017678X0.335876X-0.335876X0.017678X0*%
%TD*%
%TA.AperFunction,SMDPad,CuDef*%
%ADD46RoundRect,0.225000X0.335876X0.017678X0.017678X0.335876X-0.335876X-0.017678X-0.017678X-0.335876X0*%
%TD*%
%TA.AperFunction,SMDPad,CuDef*%
%ADD47RoundRect,0.250000X0.450000X-0.262500X0.450000X0.262500X-0.450000X0.262500X-0.450000X-0.262500X0*%
%TD*%
%TA.AperFunction,SMDPad,CuDef*%
%ADD48FreePoly0,0.000000*%
%TD*%
%TA.AperFunction,SMDPad,CuDef*%
%ADD49FreePoly1,0.000000*%
%TD*%
%TA.AperFunction,SMDPad,CuDef*%
%ADD50R,0.740000X2.400000*%
%TD*%
%TA.AperFunction,SMDPad,CuDef*%
%ADD51RoundRect,0.225000X-0.250000X0.225000X-0.250000X-0.225000X0.250000X-0.225000X0.250000X0.225000X0*%
%TD*%
%TA.AperFunction,ComponentPad*%
%ADD52C,6.400000*%
%TD*%
%TA.AperFunction,SMDPad,CuDef*%
%ADD53R,1.200000X1.400000*%
%TD*%
%TA.AperFunction,SMDPad,CuDef*%
%ADD54RoundRect,0.135000X-0.185000X0.135000X-0.185000X-0.135000X0.185000X-0.135000X0.185000X0.135000X0*%
%TD*%
%TA.AperFunction,SMDPad,CuDef*%
%ADD55RoundRect,0.150000X-0.468458X0.256326X0.256326X-0.468458X0.468458X-0.256326X-0.256326X0.468458X0*%
%TD*%
%TA.AperFunction,SMDPad,CuDef*%
%ADD56RoundRect,0.140000X-0.219203X-0.021213X-0.021213X-0.219203X0.219203X0.021213X0.021213X0.219203X0*%
%TD*%
%TA.AperFunction,SMDPad,CuDef*%
%ADD57RoundRect,0.150000X-0.150000X0.512500X-0.150000X-0.512500X0.150000X-0.512500X0.150000X0.512500X0*%
%TD*%
%TA.AperFunction,SMDPad,CuDef*%
%ADD58RoundRect,0.200000X-0.335876X-0.053033X-0.053033X-0.335876X0.335876X0.053033X0.053033X0.335876X0*%
%TD*%
%TA.AperFunction,ViaPad*%
%ADD59C,0.450000*%
%TD*%
%TA.AperFunction,ViaPad*%
%ADD60C,0.700000*%
%TD*%
%TA.AperFunction,ViaPad*%
%ADD61C,0.800000*%
%TD*%
%TA.AperFunction,Conductor*%
%ADD62C,0.177300*%
%TD*%
%TA.AperFunction,Conductor*%
%ADD63C,0.141000*%
%TD*%
%TA.AperFunction,Conductor*%
%ADD64C,0.500000*%
%TD*%
%TA.AperFunction,Conductor*%
%ADD65C,0.200000*%
%TD*%
%TA.AperFunction,Conductor*%
%ADD66C,0.150000*%
%TD*%
%TA.AperFunction,Conductor*%
%ADD67C,0.110000*%
%TD*%
%TA.AperFunction,Conductor*%
%ADD68C,0.250000*%
%TD*%
%TA.AperFunction,Conductor*%
%ADD69C,0.300000*%
%TD*%
G04 APERTURE END LIST*
D10*
%TO.P,C13,1*%
%TO.N,+3V3*%
X76989411Y-166989411D03*
%TO.P,C13,2*%
%TO.N,GND*%
X76310589Y-166310589D03*
%TD*%
D11*
%TO.P,R6,1*%
%TO.N,/VCC_frontend*%
X103052500Y-169634000D03*
%TO.P,R6,2*%
%TO.N,Net-(U9-FB)*%
X104072500Y-169634000D03*
%TD*%
D12*
%TO.P,C1,1*%
%TO.N,Net-(U1A-XTALIN)*%
X93720000Y-157300000D03*
%TO.P,C1,2*%
%TO.N,GND*%
X94680000Y-157300000D03*
%TD*%
D13*
%TO.P,C14,1*%
%TO.N,+3V3*%
X79360589Y-164639411D03*
%TO.P,C14,2*%
%TO.N,GND*%
X80039411Y-163960589D03*
%TD*%
D14*
%TO.P,U8,1,GND*%
%TO.N,GND*%
X66509000Y-156016000D03*
%TO.P,U8,2,VO*%
%TO.N,+3V3*%
X68809000Y-156016000D03*
D15*
X68809000Y-149716000D03*
D14*
%TO.P,U8,3,VI*%
%TO.N,VBUS*%
X71109000Y-156016000D03*
%TD*%
D16*
%TO.P,U10,1,VOUT*%
%TO.N,Net-(U10-VOUT)*%
X103603500Y-168376000D03*
%TO.P,U10,2,VSS*%
%TO.N,GND*%
X103603500Y-167426000D03*
%TO.P,U10,3,VDD*%
%TO.N,+3V3*%
X103603500Y-166476000D03*
%TO.P,U10,4,SDA*%
%TO.N,/I2C_SDA*%
X101328500Y-166476000D03*
%TO.P,U10,5,SCL*%
%TO.N,/I2C_SCL*%
X101328500Y-167426000D03*
%TO.P,U10,6,A0*%
%TO.N,GND*%
X101328500Y-168376000D03*
%TD*%
D17*
%TO.P,U3,1,IO1*%
%TO.N,/SSTX-*%
X83235000Y-159099000D03*
%TO.P,U3,2,IO2*%
%TO.N,/SSTX+*%
X82735000Y-159099000D03*
D18*
%TO.P,U3,3,G*%
%TO.N,GND*%
X82235000Y-159099000D03*
D17*
%TO.P,U3,4,IO3*%
%TO.N,/SSRX-*%
X81735000Y-159099000D03*
%TO.P,U3,5,IO4*%
%TO.N,/SSRX+*%
X81235000Y-159099000D03*
%TO.P,U3,6,NC*%
X81235000Y-159869000D03*
%TO.P,U3,7,NC*%
%TO.N,/SSRX-*%
X81735000Y-159869000D03*
D18*
%TO.P,U3,8,G*%
%TO.N,GND*%
X82235000Y-159869000D03*
D17*
%TO.P,U3,9,NC*%
%TO.N,/SSTX+*%
X82735000Y-159869000D03*
%TO.P,U3,10,NC*%
%TO.N,/SSTX-*%
X83235000Y-159869000D03*
%TD*%
D19*
%TO.P,U13,1,I/O1*%
%TO.N,/RAW_CH10*%
X74697500Y-177634000D03*
%TO.P,U13,2,GND*%
%TO.N,GND*%
X74697500Y-178584000D03*
%TO.P,U13,3,I/O2*%
%TO.N,/RAW_CH9*%
X74697500Y-179534000D03*
%TO.P,U13,4,I/O3*%
%TO.N,/RAW_CH8*%
X76972500Y-179534000D03*
%TO.P,U13,5,VBUS*%
%TO.N,/VCC_frontend*%
X76972500Y-178584000D03*
%TO.P,U13,6,I/O4*%
%TO.N,/RAW_CH11*%
X76972500Y-177634000D03*
%TD*%
D20*
%TO.P,U1,A1,U3VSSQ*%
%TO.N,GND*%
X82266000Y-165300517D03*
%TO.P,U1,A2,U3RXVDDQ*%
%TO.N,Net-(U1C-U3RXVDDQ)*%
X82831685Y-165866202D03*
%TO.P,U1,A3,SSRX-*%
%TO.N,/SSRX+*%
X83397371Y-166431888D03*
%TO.P,U1,A4,SSRX+*%
%TO.N,/SSRX-*%
X83963056Y-166997573D03*
%TO.P,U1,A5,SSTX+*%
%TO.N,/dSSTX+*%
X84528742Y-167563258D03*
%TO.P,U1,A6,SSTX-*%
%TO.N,/dSSTX-*%
X85094427Y-168128944D03*
%TO.P,U1,A7,AVDD*%
%TO.N,Net-(U1C-AVDD)*%
X85660113Y-168694629D03*
%TO.P,U1,A8,VSS12*%
%TO.N,GND*%
X86225798Y-169260315D03*
%TO.P,U1,A9,D+*%
%TO.N,/SS_D+*%
X86791483Y-169826000D03*
%TO.P,U1,A10,D-*%
%TO.N,/SS_D-*%
X87357169Y-170391686D03*
%TO.P,U1,A11,NC*%
%TO.N,unconnected-(U1B-NC-PadA11)*%
X87922854Y-170957371D03*
%TO.P,U1,B1,VIO4*%
%TO.N,+3V3*%
X81700315Y-165866202D03*
%TO.P,U1,B2,FSLC0*%
%TO.N,Net-(U1A-FSLC0)*%
X82266000Y-166431888D03*
%TO.P,U1,B3,R_USB3*%
%TO.N,Net-(U1B-R_USB3)*%
X82831685Y-166997573D03*
%TO.P,U1,B4,FSLC1*%
%TO.N,Net-(U1A-FSLC0)*%
X83397371Y-167563258D03*
%TO.P,U1,B5,U3TXVDDQ*%
%TO.N,Net-(U1C-U3TXVDDQ)*%
X83963056Y-168128944D03*
%TO.P,U1,B6,CVDDQ*%
%TO.N,Net-(U1C-CVDDQ)*%
X84528742Y-168694629D03*
%TO.P,U1,B7,AVSS*%
%TO.N,GND*%
X85094427Y-169260315D03*
%TO.P,U1,B8,VSS14*%
X85660113Y-169826000D03*
%TO.P,U1,B9,VSS13*%
X86225798Y-170391686D03*
%TO.P,U1,B10,VDD8*%
%TO.N,+1V2*%
X86791483Y-170957371D03*
%TO.P,U1,B11,TRST#*%
%TO.N,Net-(J7-~{RESET})*%
X87357169Y-171523056D03*
%TO.P,U1,C1,UART-CTS_SPI-SSN*%
%TO.N,unconnected-(U1F-UART-CTS_SPI-SSN-PadC1)*%
X81134629Y-166431888D03*
%TO.P,U1,C2,UART-TX_SPI-MISO*%
%TO.N,unconnected-(U1F-UART-TX_SPI-MISO-PadC2)*%
X81700315Y-166997573D03*
%TO.P,U1,C3,VDD2*%
%TO.N,+1V2*%
X82266000Y-167563258D03*
%TO.P,U1,C4,I2S-MCLK*%
%TO.N,unconnected-(U1F-I2S-MCLK-PadC4)*%
X82831685Y-168128944D03*
%TO.P,U1,C5,RESET_N*%
%TO.N,Net-(U1A-RESET_N)*%
X83397371Y-168694629D03*
%TO.P,U1,C6,XTALIN*%
%TO.N,Net-(U1A-XTALIN)*%
X83963056Y-169260315D03*
%TO.P,U1,C7,XTALOUT*%
%TO.N,Net-(U1A-XTALOUT)*%
X84528742Y-169826000D03*
%TO.P,U1,C8,R_USB2*%
%TO.N,Net-(U1B-R_USB2)*%
X85094427Y-170391686D03*
%TO.P,U1,C9,OTG_ID*%
%TO.N,unconnected-(U1B-OTG_ID-PadC9)*%
X85660113Y-170957371D03*
%TO.P,U1,C10,TDO*%
%TO.N,Net-(J7-SWO{slash}TDO)*%
X86225798Y-171523056D03*
%TO.P,U1,C11,VIO5*%
%TO.N,+3V3*%
X86791483Y-172088742D03*
%TO.P,U1,D1,I2S-CLK*%
%TO.N,unconnected-(U1F-I2S-CLK-PadD1)*%
X80568944Y-166997573D03*
%TO.P,U1,D2,I2S-SD*%
%TO.N,unconnected-(U1F-I2S-SD-PadD2)*%
X81134629Y-167563258D03*
%TO.P,U1,D3,I2S-WS*%
%TO.N,unconnected-(U1F-I2S-WS-PadD3)*%
X81700315Y-168128944D03*
%TO.P,U1,D4,UART-RTS_SPI-SCK*%
%TO.N,unconnected-(U1F-UART-RTS_SPI-SCK-PadD4)*%
X82266000Y-168694629D03*
%TO.P,U1,D5,UART-RX_SPI-MOSI*%
%TO.N,unconnected-(U1F-UART-RX_SPI-MOSI-PadD5)*%
X82831685Y-169260315D03*
%TO.P,U1,D6,CLKIN_32*%
%TO.N,unconnected-(U1A-CLKIN_32-PadD6)*%
X83397371Y-169826000D03*
%TO.P,U1,D7,CLKIN*%
%TO.N,unconnected-(U1A-CLKIN-PadD7)*%
X83963056Y-170391686D03*
%TO.P,U1,D8,VSS5*%
%TO.N,GND*%
X84528742Y-170957371D03*
%TO.P,U1,D9,I2C_GPIO58_SCL*%
%TO.N,/I2C_SCL*%
X85094427Y-171523056D03*
%TO.P,U1,D10,I2C_GPIO59_SDA*%
%TO.N,/I2C_SDA*%
X85660113Y-172088742D03*
%TO.P,U1,D11,I2C-GPIO60_CHARGER-DETECT*%
%TO.N,unconnected-(U1G-I2C-GPIO60_CHARGER-DETECT-PadD11)*%
X86225798Y-172654427D03*
%TO.P,U1,E1,DQ29*%
%TO.N,unconnected-(U1F-DQ29-PadE1)*%
X80003258Y-167563258D03*
%TO.P,U1,E2,VSS3*%
%TO.N,GND*%
X80568944Y-168128944D03*
%TO.P,U1,E3,VIO3*%
%TO.N,+3V3*%
X81134629Y-168694629D03*
%TO.P,U1,E4,DQ31*%
%TO.N,unconnected-(U1F-DQ31-PadE4)*%
X81700315Y-169260315D03*
%TO.P,U1,E5,DQ30*%
%TO.N,unconnected-(U1F-DQ30-PadE5)*%
X82266000Y-169826000D03*
%TO.P,U1,E6,FSLC2*%
%TO.N,Net-(U1A-FSLC0)*%
X82831685Y-170391686D03*
%TO.P,U1,E7,TDI*%
%TO.N,Net-(J7-NC{slash}TDI)*%
X83397371Y-170957371D03*
%TO.P,U1,E8,TMS*%
%TO.N,Net-(J7-SWDIO{slash}TMS)*%
X83963056Y-171523056D03*
%TO.P,U1,E9,VDD4*%
%TO.N,+1V2*%
X84528742Y-172088742D03*
%TO.P,U1,E10,VBATT*%
%TO.N,unconnected-(U1C-VBATT-PadE10)*%
X85094427Y-172654427D03*
%TO.P,U1,E11,VBUS*%
%TO.N,VBUS*%
X85660113Y-173220113D03*
%TO.P,U1,F1,VIO2*%
%TO.N,+3V3*%
X79437573Y-168128944D03*
%TO.P,U1,F2,GPIO45*%
%TO.N,unconnected-(U1E-GPIO45-PadF2)*%
X80003258Y-168694629D03*
%TO.P,U1,F3,DQ27*%
%TO.N,unconnected-(U1E-DQ27-PadF3)*%
X80568944Y-169260315D03*
%TO.P,U1,F4,DQ24*%
%TO.N,unconnected-(U1E-DQ24-PadF4)*%
X81134629Y-169826000D03*
%TO.P,U1,F5,DQ28*%
%TO.N,unconnected-(U1F-DQ28-PadF5)*%
X81700315Y-170391686D03*
%TO.P,U1,F6,TCK*%
%TO.N,Net-(J7-SWDCLK{slash}TCK)*%
X82266000Y-170957371D03*
%TO.P,U1,F7,DQ2*%
%TO.N,/In_CH2*%
X82831685Y-171523056D03*
%TO.P,U1,F8,DQ5*%
%TO.N,/In_CH5*%
X83397371Y-172088742D03*
%TO.P,U1,F9,DQ1*%
%TO.N,/In_CH1*%
X83963056Y-172654427D03*
%TO.P,U1,F10,DQ0*%
%TO.N,/In_CH0*%
X84528742Y-173220113D03*
%TO.P,U1,F11,VDD5*%
%TO.N,+1V2*%
X85094427Y-173785798D03*
%TO.P,U1,G1,VSS1*%
%TO.N,GND*%
X78871887Y-168694629D03*
%TO.P,U1,G2,DQ25*%
%TO.N,unconnected-(U1E-DQ25-PadG2)*%
X79437573Y-169260315D03*
%TO.P,U1,G3,DQ26*%
%TO.N,unconnected-(U1E-DQ26-PadG3)*%
X80003258Y-169826000D03*
%TO.P,U1,G4,PMODE0*%
%TO.N,Net-(JP1-B)*%
X80568944Y-170391686D03*
%TO.P,U1,G5,CTL8*%
%TO.N,unconnected-(U1D-CTL8-PadG5)*%
X81134629Y-170957371D03*
%TO.P,U1,G6,CTL5*%
%TO.N,unconnected-(U1D-CTL5-PadG6)*%
X81700315Y-171523056D03*
%TO.P,U1,G7,CTL4*%
%TO.N,unconnected-(U1D-CTL4-PadG7)*%
X82266000Y-172088742D03*
%TO.P,U1,G8,DQ15*%
%TO.N,/In_CH15*%
X82831685Y-172654427D03*
%TO.P,U1,G9,DQ4*%
%TO.N,/In_CH4*%
X83397371Y-173220113D03*
%TO.P,U1,G10,DQ3*%
%TO.N,/In_CH3*%
X83963056Y-173785798D03*
%TO.P,U1,G11,VSS6*%
%TO.N,GND*%
X84528742Y-174351484D03*
%TO.P,U1,H1,VDD1*%
%TO.N,+1V2*%
X78306202Y-169260315D03*
%TO.P,U1,H2,DQ22*%
%TO.N,unconnected-(U1E-DQ22-PadH2)*%
X78871887Y-169826000D03*
%TO.P,U1,H3,DQ23*%
%TO.N,unconnected-(U1E-DQ23-PadH3)*%
X79437573Y-170391686D03*
%TO.P,U1,H4,PMODE1*%
%TO.N,+3V3*%
X80003258Y-170957371D03*
%TO.P,U1,H5,CTL12*%
%TO.N,unconnected-(U1D-CTL12-PadH5)*%
X80568944Y-171523056D03*
%TO.P,U1,H6,CTL9*%
%TO.N,unconnected-(U1D-CTL9-PadH6)*%
X81134629Y-172088742D03*
%TO.P,U1,H7,CTL3*%
%TO.N,unconnected-(U1D-CTL3-PadH7)*%
X81700315Y-172654427D03*
%TO.P,U1,H8,CTL7*%
%TO.N,unconnected-(U1D-CTL7-PadH8)*%
X82266000Y-173220113D03*
%TO.P,U1,H9,DQ7*%
%TO.N,/In_CH7*%
X82831685Y-173785798D03*
%TO.P,U1,H10,DQ6*%
%TO.N,/In_CH6*%
X83397371Y-174351484D03*
%TO.P,U1,H11,VIO1_2*%
%TO.N,+3V3*%
X83963056Y-174917169D03*
%TO.P,U1,J1,DQ21*%
%TO.N,unconnected-(U1E-DQ21-PadJ1)*%
X77740517Y-169826000D03*
%TO.P,U1,J2,DQ19*%
%TO.N,unconnected-(U1E-DQ19-PadJ2)*%
X78306202Y-170391686D03*
%TO.P,U1,J3,DQ20*%
%TO.N,unconnected-(U1E-DQ20-PadJ3)*%
X78871887Y-170957371D03*
%TO.P,U1,J4,DQ17*%
%TO.N,unconnected-(U1E-DQ17-PadJ4)*%
X79437573Y-171523056D03*
%TO.P,U1,J5,CTL11*%
%TO.N,unconnected-(U1D-CTL11-PadJ5)*%
X80003258Y-172088742D03*
%TO.P,U1,J6,PCLK*%
%TO.N,unconnected-(U1D-PCLK-PadJ6)*%
X80568944Y-172654427D03*
%TO.P,U1,J7,CTL2*%
%TO.N,unconnected-(U1D-CTL2-PadJ7)*%
X81134629Y-173220113D03*
%TO.P,U1,J8,DQ14*%
%TO.N,/In_CH14*%
X81700315Y-173785798D03*
%TO.P,U1,J9,DQ9*%
%TO.N,/In_CH9*%
X82266000Y-174351484D03*
%TO.P,U1,J10,DQ8*%
%TO.N,/In_CH8*%
X82831685Y-174917169D03*
%TO.P,U1,J11,VDD7*%
%TO.N,+1V2*%
X83397371Y-175482854D03*
%TO.P,U1,K1,DQ18*%
%TO.N,unconnected-(U1E-DQ18-PadK1)*%
X77174831Y-170391686D03*
%TO.P,U1,K2,DQ16*%
%TO.N,unconnected-(U1E-DQ16-PadK2)*%
X77740517Y-170957371D03*
%TO.P,U1,K3,VSS10*%
%TO.N,GND*%
X78306202Y-171523056D03*
%TO.P,U1,K4,VSS8*%
X78871887Y-172088742D03*
%TO.P,U1,K5,CTL10*%
%TO.N,unconnected-(U1D-CTL10-PadK5)*%
X79437573Y-172654427D03*
%TO.P,U1,K6,CTL6*%
%TO.N,unconnected-(U1D-CTL6-PadK6)*%
X80003258Y-173220113D03*
%TO.P,U1,K7,CTL1*%
%TO.N,unconnected-(U1D-CTL1-PadK7)*%
X80568944Y-173785798D03*
%TO.P,U1,K8,CTL0*%
%TO.N,unconnected-(U1D-CTL0-PadK8)*%
X81134629Y-174351484D03*
%TO.P,U1,K9,DQ13*%
%TO.N,/In_CH13*%
X81700315Y-174917169D03*
%TO.P,U1,K10,DQ12*%
%TO.N,/In_CH12*%
X82266000Y-175482854D03*
%TO.P,U1,K11,DQ10*%
%TO.N,/In_CH10*%
X82831685Y-176048540D03*
%TO.P,U1,L1,VSS2*%
%TO.N,GND*%
X76609146Y-170957371D03*
%TO.P,U1,L2,VSS11*%
X77174831Y-171523056D03*
%TO.P,U1,L3,VSS9*%
X77740517Y-172088742D03*
%TO.P,U1,L4,PMODE2*%
%TO.N,unconnected-(U1D-PMODE2-PadL4)*%
X78306202Y-172654427D03*
%TO.P,U1,L5,VDD6*%
%TO.N,+1V2*%
X78871887Y-173220113D03*
%TO.P,U1,L6,VSS4*%
%TO.N,GND*%
X79437573Y-173785798D03*
%TO.P,U1,L7,VDD3*%
%TO.N,+1V2*%
X80003258Y-174351484D03*
%TO.P,U1,L8,INT_N_CTL_15*%
%TO.N,unconnected-(U1D-INT_N_CTL_15-PadL8)*%
X80568944Y-174917169D03*
%TO.P,U1,L9,VIO1_1*%
%TO.N,+3V3*%
X81134629Y-175482854D03*
%TO.P,U1,L10,DQ11*%
%TO.N,/In_CH11*%
X81700315Y-176048540D03*
%TO.P,U1,L11,VSS7*%
%TO.N,GND*%
X82266000Y-176614225D03*
%TD*%
D21*
%TO.P,R15,1*%
%TO.N,Net-(RN2-R1.1)*%
X78200000Y-184710000D03*
%TO.P,R15,2*%
%TO.N,/RAW_CH8*%
X78200000Y-183690000D03*
%TD*%
D22*
%TO.P,C43,1*%
%TO.N,Net-(RN2-R3.1)*%
X73120000Y-184680000D03*
%TO.P,C43,2*%
%TO.N,/RAW_CH10*%
X73120000Y-183720000D03*
%TD*%
%TO.P,C47,1*%
%TO.N,Net-(RN3-R3.1)*%
X88310001Y-184650001D03*
%TO.P,C47,2*%
%TO.N,/RAW_CH6*%
X88310001Y-183690001D03*
%TD*%
%TO.P,C37,1*%
%TO.N,Net-(RN1-R4.1)*%
X60368000Y-184680000D03*
%TO.P,C37,2*%
%TO.N,/RAW_CH15*%
X60368000Y-183720000D03*
%TD*%
D23*
%TO.P,R8,1*%
%TO.N,Net-(U9-FB)*%
X105976000Y-168634000D03*
%TO.P,R8,2*%
%TO.N,Net-(U10-VOUT)*%
X104956000Y-168634000D03*
%TD*%
D24*
%TO.P,J1,1,VBUS*%
%TO.N,/VBUS_IN*%
X80985000Y-154384000D03*
%TO.P,J1,2,D-*%
%TO.N,/SS_D-*%
X83485000Y-154384000D03*
%TO.P,J1,3,D+*%
%TO.N,/SS_D+*%
X83485000Y-152384000D03*
%TO.P,J1,4,GND*%
%TO.N,GND*%
X80985000Y-152384000D03*
D25*
%TO.P,J1,5,SSTX-*%
%TO.N,/SSTX-*%
X86485000Y-156384000D03*
%TO.P,J1,6,SSTX+*%
%TO.N,/SSTX+*%
X84735000Y-156384000D03*
%TO.P,J1,7,DRAIN*%
%TO.N,GND*%
X82235000Y-156384000D03*
%TO.P,J1,8,SSRX-*%
%TO.N,/SSRX-*%
X79735000Y-156384000D03*
%TO.P,J1,9,SSRX+*%
%TO.N,/SSRX+*%
X77985000Y-156384000D03*
D26*
%TO.P,J1,10,SHIELD*%
%TO.N,unconnected-(J1-SHIELD-Pad10)*%
X88255000Y-149674000D03*
X76215000Y-149674000D03*
%TD*%
D21*
%TO.P,R25,1*%
%TO.N,Net-(RN4-R2.1)*%
X102068000Y-184710000D03*
%TO.P,R25,2*%
%TO.N,/RAW_CH1*%
X102068000Y-183690000D03*
%TD*%
D22*
%TO.P,C52,1*%
%TO.N,Net-(RN4-R2.1)*%
X101052000Y-184680000D03*
%TO.P,C52,2*%
%TO.N,/RAW_CH1*%
X101052000Y-183720000D03*
%TD*%
%TO.P,C39,1*%
%TO.N,Net-(RN1-R1.1)*%
X66464000Y-184680000D03*
%TO.P,C39,2*%
%TO.N,/RAW_CH12*%
X66464000Y-183720000D03*
%TD*%
%TO.P,C46,1*%
%TO.N,Net-(RN3-R1.1)*%
X92374001Y-184650001D03*
%TO.P,C46,2*%
%TO.N,/RAW_CH4*%
X92374001Y-183690001D03*
%TD*%
D27*
%TO.P,U7,1,VCCA*%
%TO.N,+3V3*%
X98891001Y-174355500D03*
%TO.P,U7,2,DIR*%
%TO.N,GND*%
X98241001Y-174355500D03*
%TO.P,U7,3,A1*%
%TO.N,/In_CH0*%
X97591001Y-174355500D03*
%TO.P,U7,4,A2*%
%TO.N,/In_CH1*%
X96941001Y-174355500D03*
%TO.P,U7,5,A3*%
%TO.N,/In_CH2*%
X96291001Y-174355500D03*
%TO.P,U7,6,A4*%
%TO.N,/In_CH3*%
X95641001Y-174355500D03*
%TO.P,U7,7,A5*%
%TO.N,/In_CH4*%
X94991001Y-174355500D03*
%TO.P,U7,8,A6*%
%TO.N,/In_CH5*%
X94341001Y-174355500D03*
%TO.P,U7,9,A7*%
%TO.N,/In_CH6*%
X93691001Y-174355500D03*
%TO.P,U7,10,A8*%
%TO.N,/In_CH7*%
X93041001Y-174355500D03*
%TO.P,U7,11,DIR2*%
%TO.N,GND*%
X92391001Y-174355500D03*
%TO.P,U7,12,GND*%
X91741001Y-174355500D03*
%TO.P,U7,13,GND*%
X91741001Y-180080500D03*
%TO.P,U7,14,B8*%
%TO.N,/RAW_CH7*%
X92391001Y-180080500D03*
%TO.P,U7,15,B7*%
%TO.N,/RAW_CH6*%
X93041001Y-180080500D03*
%TO.P,U7,16,B6*%
%TO.N,/RAW_CH5*%
X93691001Y-180080500D03*
%TO.P,U7,17,B5*%
%TO.N,/RAW_CH4*%
X94341001Y-180080500D03*
%TO.P,U7,18,B4*%
%TO.N,/RAW_CH3*%
X94991001Y-180080500D03*
%TO.P,U7,19,B3*%
%TO.N,/RAW_CH2*%
X95641001Y-180080500D03*
%TO.P,U7,20,B2*%
%TO.N,/RAW_CH1*%
X96291001Y-180080500D03*
%TO.P,U7,21,B1*%
%TO.N,/RAW_CH0*%
X96941001Y-180080500D03*
%TO.P,U7,22,~{OE}*%
%TO.N,GND*%
X97591001Y-180080500D03*
%TO.P,U7,23,VCCB*%
%TO.N,/VCC_frontend*%
X98241001Y-180080500D03*
%TO.P,U7,24,VCCB*%
X98891001Y-180080500D03*
%TD*%
D28*
%TO.P,RN1,1,R1.1*%
%TO.N,Net-(RN1-R1.1)*%
X64004000Y-186097001D03*
D29*
%TO.P,RN1,2,R2.1*%
%TO.N,Net-(RN1-R2.1)*%
X63204000Y-186097001D03*
%TO.P,RN1,3,R3.1*%
%TO.N,Net-(RN1-R3.1)*%
X62404000Y-186097001D03*
D28*
%TO.P,RN1,4,R4.1*%
%TO.N,Net-(RN1-R4.1)*%
X61604000Y-186097001D03*
%TO.P,RN1,5,R4.2*%
%TO.N,Net-(J2-Pin_7)*%
X61604000Y-187897001D03*
D29*
%TO.P,RN1,6,R3.2*%
%TO.N,Net-(J2-Pin_5)*%
X62404000Y-187897001D03*
%TO.P,RN1,7,R2.2*%
%TO.N,Net-(J2-Pin_3)*%
X63204000Y-187897001D03*
D28*
%TO.P,RN1,8,R1.2*%
%TO.N,Net-(J2-Pin_1)*%
X64004000Y-187897001D03*
%TD*%
D30*
%TO.P,R4,1*%
%TO.N,Net-(U1B-R_USB2)*%
X90281049Y-169164857D03*
%TO.P,R4,2*%
%TO.N,GND*%
X91447775Y-167998131D03*
%TD*%
D22*
%TO.P,C45,1*%
%TO.N,Net-(RN3-R4.1)*%
X86278001Y-184650001D03*
%TO.P,C45,2*%
%TO.N,/RAW_CH7*%
X86278001Y-183690001D03*
%TD*%
D27*
%TO.P,U11,1,E0*%
%TO.N,unconnected-(U11-E0-Pad1)*%
X104014975Y-157086507D03*
%TO.P,U11,2,E1*%
%TO.N,unconnected-(U11-E1-Pad2)*%
X103364975Y-157086507D03*
%TO.P,U11,3,E2*%
%TO.N,unconnected-(U11-E2-Pad3)*%
X102714975Y-157086507D03*
%TO.P,U11,4,VSS*%
%TO.N,GND*%
X102064975Y-157086507D03*
%TO.P,U11,5,SDA*%
%TO.N,/I2C_SDA*%
X102064975Y-162811507D03*
%TO.P,U11,6,SCL*%
%TO.N,/I2C_SCL*%
X102714975Y-162811507D03*
%TO.P,U11,7,~{WC}*%
%TO.N,unconnected-(U11-~{WC}-Pad7)*%
X103364975Y-162811507D03*
%TO.P,U11,8,VCC*%
%TO.N,+3V3*%
X104014975Y-162811507D03*
%TD*%
D31*
%TO.P,C6,1*%
%TO.N,VBUS*%
X100500504Y-155187134D03*
%TO.P,C6,2*%
%TO.N,GND*%
X99404488Y-156283150D03*
%TD*%
D32*
%TO.P,L2,1*%
%TO.N,Net-(U9-SW)*%
X101272500Y-174559000D03*
%TO.P,L2,2*%
%TO.N,/VCC_frontend*%
X101272500Y-172909000D03*
%TD*%
D19*
%TO.P,U15,1,I/O1*%
%TO.N,/RAW_CH2*%
X100462500Y-176850000D03*
%TO.P,U15,2,GND*%
%TO.N,GND*%
X100462500Y-177800000D03*
%TO.P,U15,3,I/O2*%
%TO.N,/RAW_CH1*%
X100462500Y-178750000D03*
%TO.P,U15,4,I/O3*%
%TO.N,/RAW_CH0*%
X102737500Y-178750000D03*
%TO.P,U15,5,VBUS*%
%TO.N,/VCC_frontend*%
X102737500Y-177800000D03*
%TO.P,U15,6,I/O4*%
%TO.N,/RAW_CH3*%
X102737500Y-176850000D03*
%TD*%
D16*
%TO.P,U4,1,I/O1*%
%TO.N,/SS_D-*%
X94255389Y-155857368D03*
%TO.P,U4,2,GND*%
%TO.N,GND*%
X94255389Y-154907368D03*
%TO.P,U4,3,I/O2*%
%TO.N,/SS_D+*%
X94255389Y-153957368D03*
%TO.P,U4,4,I/O2*%
X91980389Y-153957368D03*
%TO.P,U4,5,VBUS*%
%TO.N,/VBUS_IN*%
X91980389Y-154907368D03*
%TO.P,U4,6,I/O1*%
%TO.N,/SS_D-*%
X91980389Y-155857368D03*
%TD*%
D33*
%TO.P,C11,1*%
%TO.N,/SSTX-*%
X87605411Y-165786589D03*
%TO.P,C11,2*%
%TO.N,/dSSTX-*%
X86926589Y-166465411D03*
%TD*%
D34*
%TO.P,R2,1*%
%TO.N,+3V3*%
X90260624Y-161639376D03*
%TO.P,R2,2*%
%TO.N,Net-(U1A-RESET_N)*%
X89539376Y-162360624D03*
%TD*%
D21*
%TO.P,R16,1*%
%TO.N,Net-(RN2-R3.1)*%
X74136000Y-184710000D03*
%TO.P,R16,2*%
%TO.N,/RAW_CH10*%
X74136000Y-183690000D03*
%TD*%
D35*
%TO.P,C12,1*%
%TO.N,+3V3*%
X68060000Y-158200000D03*
%TO.P,C12,2*%
%TO.N,GND*%
X66510000Y-158200000D03*
%TD*%
D21*
%TO.P,R19,1*%
%TO.N,Net-(RN3-R1.1)*%
X93390001Y-184680001D03*
%TO.P,R19,2*%
%TO.N,/RAW_CH4*%
X93390001Y-183660001D03*
%TD*%
D33*
%TO.P,C23,1*%
%TO.N,Net-(U1C-U3RXVDDQ)*%
X81339411Y-162660589D03*
%TO.P,C23,2*%
%TO.N,GND*%
X80660589Y-163339411D03*
%TD*%
D36*
%TO.P,R10,1*%
%TO.N,+3V3*%
X104104975Y-164565007D03*
%TO.P,R10,2*%
%TO.N,/I2C_SCL*%
X102454975Y-164565007D03*
%TD*%
D37*
%TO.P,R9,1*%
%TO.N,+3V3*%
X100479975Y-161240007D03*
%TO.P,R9,2*%
%TO.N,/I2C_SDA*%
X100479975Y-162890007D03*
%TD*%
D38*
%TO.P,C36,1*%
%TO.N,/VCC_frontend*%
X100297500Y-169934000D03*
%TO.P,C36,2*%
%TO.N,GND*%
X101847500Y-169934000D03*
%TD*%
D21*
%TO.P,R23,1*%
%TO.N,Net-(RN4-R1.1)*%
X104100000Y-184710000D03*
%TO.P,R23,2*%
%TO.N,/RAW_CH0*%
X104100000Y-183690000D03*
%TD*%
D38*
%TO.P,C35,1*%
%TO.N,/VCC_frontend*%
X100297500Y-171434000D03*
%TO.P,C35,2*%
%TO.N,GND*%
X101847500Y-171434000D03*
%TD*%
D21*
%TO.P,R21,1*%
%TO.N,Net-(RN3-R2.1)*%
X91358001Y-184682001D03*
%TO.P,R21,2*%
%TO.N,/RAW_CH5*%
X91358001Y-183662001D03*
%TD*%
D39*
%TO.P,R3,1*%
%TO.N,Net-(U1B-R_USB3)*%
X77683363Y-165983363D03*
%TO.P,R3,2*%
%TO.N,GND*%
X76516637Y-164816637D03*
%TD*%
D40*
%TO.P,J3,1,Pin_1*%
%TO.N,Net-(J3-Pin_1)*%
X79716000Y-190707371D03*
D41*
%TO.P,J3,2,Pin_2*%
%TO.N,GND*%
X79716000Y-193247371D03*
%TO.P,J3,3,Pin_3*%
%TO.N,Net-(J3-Pin_3)*%
X77176000Y-190707371D03*
%TO.P,J3,4,Pin_4*%
%TO.N,GND*%
X77176000Y-193247371D03*
%TO.P,J3,5,Pin_5*%
%TO.N,Net-(J3-Pin_5)*%
X74636000Y-190707371D03*
%TO.P,J3,6,Pin_6*%
%TO.N,GND*%
X74636000Y-193247371D03*
%TO.P,J3,7,Pin_7*%
%TO.N,Net-(J3-Pin_7)*%
X72096000Y-190707371D03*
%TO.P,J3,8,Pin_8*%
%TO.N,GND*%
X72096000Y-193247371D03*
%TD*%
D22*
%TO.P,C38,1*%
%TO.N,Net-(RN1-R3.1)*%
X62400000Y-184680000D03*
%TO.P,C38,2*%
%TO.N,/RAW_CH14*%
X62400000Y-183720000D03*
%TD*%
D19*
%TO.P,U9,1,EN*%
%TO.N,VBUS*%
X103535000Y-170984000D03*
%TO.P,U9,2,GND*%
%TO.N,GND*%
X103535000Y-171934000D03*
%TO.P,U9,3,SW*%
%TO.N,Net-(U9-SW)*%
X103535000Y-172884000D03*
%TO.P,U9,4,VIN*%
%TO.N,VBUS*%
X105810000Y-172884000D03*
%TO.P,U9,5,FB*%
%TO.N,Net-(U9-FB)*%
X105810000Y-170984000D03*
%TD*%
D21*
%TO.P,R5,1*%
%TO.N,Net-(RN1-R4.1)*%
X61384000Y-184710000D03*
%TO.P,R5,2*%
%TO.N,/RAW_CH15*%
X61384000Y-183690000D03*
%TD*%
%TO.P,R13,1*%
%TO.N,Net-(RN1-R2.1)*%
X65448000Y-184710000D03*
%TO.P,R13,2*%
%TO.N,/RAW_CH13*%
X65448000Y-183690000D03*
%TD*%
D11*
%TO.P,R7,1*%
%TO.N,Net-(U9-FB)*%
X104962500Y-169634000D03*
%TO.P,R7,2*%
%TO.N,GND*%
X105982500Y-169634000D03*
%TD*%
D35*
%TO.P,C34,1*%
%TO.N,VBUS*%
X105441000Y-174434000D03*
%TO.P,C34,2*%
%TO.N,GND*%
X103891000Y-174434000D03*
%TD*%
D42*
%TO.P,L1,1*%
%TO.N,Net-(U5-SW)*%
X62844000Y-163968001D03*
%TO.P,L1,2*%
%TO.N,+1V2*%
X61194000Y-163968001D03*
%TD*%
D21*
%TO.P,R20,1*%
%TO.N,Net-(RN3-R3.1)*%
X89326001Y-184680001D03*
%TO.P,R20,2*%
%TO.N,/RAW_CH6*%
X89326001Y-183660001D03*
%TD*%
D43*
%TO.P,C7,1*%
%TO.N,+1V2*%
X59479000Y-161949001D03*
%TO.P,C7,2*%
%TO.N,GND*%
X59479000Y-160399001D03*
%TD*%
D33*
%TO.P,C26,1*%
%TO.N,+1V2*%
X84839411Y-177660589D03*
%TO.P,C26,2*%
%TO.N,GND*%
X84160589Y-178339411D03*
%TD*%
D44*
%TO.P,R1,1*%
%TO.N,Net-(U1A-FSLC0)*%
X78710624Y-165310624D03*
%TO.P,R1,2*%
%TO.N,GND*%
X77989376Y-164589376D03*
%TD*%
D21*
%TO.P,R24,1*%
%TO.N,Net-(RN4-R3.1)*%
X100036000Y-184708000D03*
%TO.P,R24,2*%
%TO.N,/RAW_CH2*%
X100036000Y-183688000D03*
%TD*%
D45*
%TO.P,C20,1*%
%TO.N,Net-(U1C-AVDD)*%
X89351992Y-165748008D03*
%TO.P,C20,2*%
%TO.N,GND*%
X90448008Y-164651992D03*
%TD*%
D46*
%TO.P,C22,1*%
%TO.N,Net-(U1C-U3RXVDDQ)*%
X79798008Y-162548008D03*
%TO.P,C22,2*%
%TO.N,GND*%
X78701992Y-161451992D03*
%TD*%
D37*
%TO.P,R26,1*%
%TO.N,/VCC_frontend*%
X98772500Y-169909000D03*
%TO.P,R26,2*%
%TO.N,GND*%
X98772500Y-171559000D03*
%TD*%
D21*
%TO.P,R18,1*%
%TO.N,Net-(RN3-R4.1)*%
X87294001Y-184680001D03*
%TO.P,R18,2*%
%TO.N,/RAW_CH7*%
X87294001Y-183660001D03*
%TD*%
D13*
%TO.P,C29,1*%
%TO.N,+1V2*%
X91769508Y-169373453D03*
%TO.P,C29,2*%
%TO.N,GND*%
X92448330Y-168694631D03*
%TD*%
D47*
%TO.P,FB1,1*%
%TO.N,/VBUS_IN*%
X93259500Y-152256129D03*
%TO.P,FB1,2*%
%TO.N,Net-(U2-IN)*%
X93259500Y-150431129D03*
%TD*%
D13*
%TO.P,C18,1*%
%TO.N,+3V3*%
X85460589Y-177039411D03*
%TO.P,C18,2*%
%TO.N,GND*%
X86139411Y-176360589D03*
%TD*%
D16*
%TO.P,U14,1,I/O1*%
%TO.N,/RAW_CH6*%
X90180501Y-178734000D03*
%TO.P,U14,2,GND*%
%TO.N,GND*%
X90180501Y-177784000D03*
%TO.P,U14,3,I/O2*%
%TO.N,/RAW_CH5*%
X90180501Y-176834000D03*
%TO.P,U14,4,I/O3*%
%TO.N,/RAW_CH4*%
X87905501Y-176834000D03*
%TO.P,U14,5,VBUS*%
%TO.N,/VCC_frontend*%
X87905501Y-177784000D03*
%TO.P,U14,6,I/O4*%
%TO.N,/RAW_CH7*%
X87905501Y-178734000D03*
%TD*%
D48*
%TO.P,JP1,1,A*%
%TO.N,+3V3*%
X58700000Y-172500000D03*
D49*
%TO.P,JP1,2,B*%
%TO.N,Net-(JP1-B)*%
X60000000Y-172500000D03*
%TD*%
D28*
%TO.P,RN3,1,R1.1*%
%TO.N,Net-(RN3-R1.1)*%
X89912001Y-186097001D03*
D29*
%TO.P,RN3,2,R2.1*%
%TO.N,Net-(RN3-R2.1)*%
X89112001Y-186097001D03*
%TO.P,RN3,3,R3.1*%
%TO.N,Net-(RN3-R3.1)*%
X88312001Y-186097001D03*
D28*
%TO.P,RN3,4,R4.1*%
%TO.N,Net-(RN3-R4.1)*%
X87512001Y-186097001D03*
%TO.P,RN3,5,R4.2*%
%TO.N,Net-(J4-Pin_7)*%
X87512001Y-187897001D03*
D29*
%TO.P,RN3,6,R3.2*%
%TO.N,Net-(J4-Pin_5)*%
X88312001Y-187897001D03*
%TO.P,RN3,7,R2.2*%
%TO.N,Net-(J4-Pin_3)*%
X89112001Y-187897001D03*
D28*
%TO.P,RN3,8,R1.2*%
%TO.N,Net-(J4-Pin_1)*%
X89912001Y-187897001D03*
%TD*%
D21*
%TO.P,R17,1*%
%TO.N,Net-(RN2-R2.1)*%
X76168000Y-184710000D03*
%TO.P,R17,2*%
%TO.N,/RAW_CH9*%
X76168000Y-183690000D03*
%TD*%
D28*
%TO.P,RN4,1,R1.1*%
%TO.N,Net-(RN4-R1.1)*%
X102866000Y-186097000D03*
D29*
%TO.P,RN4,2,R2.1*%
%TO.N,Net-(RN4-R2.1)*%
X102066000Y-186097000D03*
%TO.P,RN4,3,R3.1*%
%TO.N,Net-(RN4-R3.1)*%
X101266000Y-186097000D03*
D28*
%TO.P,RN4,4,R4.1*%
%TO.N,Net-(RN4-R4.1)*%
X100466000Y-186097000D03*
%TO.P,RN4,5,R4.2*%
%TO.N,Net-(J5-Pin_7)*%
X100466000Y-187897000D03*
D29*
%TO.P,RN4,6,R3.2*%
%TO.N,Net-(J5-Pin_5)*%
X101266000Y-187897000D03*
%TO.P,RN4,7,R2.2*%
%TO.N,Net-(J5-Pin_3)*%
X102066000Y-187897000D03*
D28*
%TO.P,RN4,8,R1.2*%
%TO.N,Net-(J5-Pin_1)*%
X102866000Y-187897000D03*
%TD*%
D27*
%TO.P,U12,1,VCCA*%
%TO.N,+3V3*%
X72983000Y-174355500D03*
%TO.P,U12,2,DIR*%
%TO.N,GND*%
X72333000Y-174355500D03*
%TO.P,U12,3,A1*%
%TO.N,/In_CH8*%
X71683000Y-174355500D03*
%TO.P,U12,4,A2*%
%TO.N,/In_CH9*%
X71033000Y-174355500D03*
%TO.P,U12,5,A3*%
%TO.N,/In_CH10*%
X70383000Y-174355500D03*
%TO.P,U12,6,A4*%
%TO.N,/In_CH11*%
X69733000Y-174355500D03*
%TO.P,U12,7,A5*%
%TO.N,/In_CH12*%
X69083000Y-174355500D03*
%TO.P,U12,8,A6*%
%TO.N,/In_CH13*%
X68433000Y-174355500D03*
%TO.P,U12,9,A7*%
%TO.N,/In_CH14*%
X67783000Y-174355500D03*
%TO.P,U12,10,A8*%
%TO.N,/In_CH15*%
X67133000Y-174355500D03*
%TO.P,U12,11,DIR2*%
%TO.N,GND*%
X66483000Y-174355500D03*
%TO.P,U12,12,GND*%
X65833000Y-174355500D03*
%TO.P,U12,13,GND*%
X65833000Y-180080500D03*
%TO.P,U12,14,B8*%
%TO.N,/RAW_CH15*%
X66483000Y-180080500D03*
%TO.P,U12,15,B7*%
%TO.N,/RAW_CH14*%
X67133000Y-180080500D03*
%TO.P,U12,16,B6*%
%TO.N,/RAW_CH13*%
X67783000Y-180080500D03*
%TO.P,U12,17,B5*%
%TO.N,/RAW_CH12*%
X68433000Y-180080500D03*
%TO.P,U12,18,B4*%
%TO.N,/RAW_CH11*%
X69083000Y-180080500D03*
%TO.P,U12,19,B3*%
%TO.N,/RAW_CH10*%
X69733000Y-180080500D03*
%TO.P,U12,20,B2*%
%TO.N,/RAW_CH9*%
X70383000Y-180080500D03*
%TO.P,U12,21,B1*%
%TO.N,/RAW_CH8*%
X71033000Y-180080500D03*
%TO.P,U12,22,~{OE}*%
%TO.N,GND*%
X71683000Y-180080500D03*
%TO.P,U12,23,VCCB*%
%TO.N,/VCC_frontend*%
X72333000Y-180080500D03*
%TO.P,U12,24,VCCB*%
X72983000Y-180080500D03*
%TD*%
D50*
%TO.P,J7,1,VTref*%
%TO.N,Net-(J7-VTref)*%
X71440000Y-162350000D03*
%TO.P,J7,2,SWDIO/TMS*%
%TO.N,Net-(J7-SWDIO{slash}TMS)*%
X71440000Y-166250000D03*
%TO.P,J7,3,GND*%
%TO.N,GND*%
X70170000Y-162350000D03*
%TO.P,J7,4,SWDCLK/TCK*%
%TO.N,Net-(J7-SWDCLK{slash}TCK)*%
X70170000Y-166250000D03*
%TO.P,J7,5,GND*%
%TO.N,GND*%
X68900000Y-162350000D03*
%TO.P,J7,6,SWO/TDO*%
%TO.N,Net-(J7-SWO{slash}TDO)*%
X68900000Y-166250000D03*
%TO.P,J7,7,KEY*%
%TO.N,unconnected-(J7-KEY-Pad7)*%
X67630000Y-162350000D03*
%TO.P,J7,8,NC/TDI*%
%TO.N,Net-(J7-NC{slash}TDI)*%
X67630000Y-166250000D03*
%TO.P,J7,9,GNDDetect*%
%TO.N,GND*%
X66360000Y-162350000D03*
%TO.P,J7,10,~{RESET}*%
%TO.N,Net-(J7-~{RESET})*%
X66360000Y-166250000D03*
%TD*%
D33*
%TO.P,C10,1*%
%TO.N,/SSTX+*%
X86886991Y-165068169D03*
%TO.P,C10,2*%
%TO.N,/dSSTX+*%
X86208169Y-165746991D03*
%TD*%
D40*
%TO.P,J5,1,Pin_1*%
%TO.N,Net-(J5-Pin_1)*%
X105116000Y-190707371D03*
D41*
%TO.P,J5,2,Pin_2*%
%TO.N,GND*%
X105116000Y-193247371D03*
%TO.P,J5,3,Pin_3*%
%TO.N,Net-(J5-Pin_3)*%
X102576000Y-190707371D03*
%TO.P,J5,4,Pin_4*%
%TO.N,GND*%
X102576000Y-193247371D03*
%TO.P,J5,5,Pin_5*%
%TO.N,Net-(J5-Pin_5)*%
X100036000Y-190707371D03*
%TO.P,J5,6,Pin_6*%
%TO.N,GND*%
X100036000Y-193247371D03*
%TO.P,J5,7,Pin_7*%
%TO.N,Net-(J5-Pin_7)*%
X97496000Y-190707371D03*
%TO.P,J5,8,Pin_8*%
%TO.N,GND*%
X97496000Y-193247371D03*
%TD*%
D22*
%TO.P,C48,1*%
%TO.N,Net-(RN3-R2.1)*%
X90342001Y-184650001D03*
%TO.P,C48,2*%
%TO.N,/RAW_CH5*%
X90342001Y-183690001D03*
%TD*%
%TO.P,C51,1*%
%TO.N,Net-(RN4-R3.1)*%
X99020000Y-184680000D03*
%TO.P,C51,2*%
%TO.N,/RAW_CH2*%
X99020000Y-183720000D03*
%TD*%
D13*
%TO.P,C15,1*%
%TO.N,+3V3*%
X92469508Y-170073453D03*
%TO.P,C15,2*%
%TO.N,GND*%
X93148330Y-169394631D03*
%TD*%
D43*
%TO.P,C5,1*%
%TO.N,/VBUS_IN*%
X91459500Y-152176629D03*
%TO.P,C5,2*%
%TO.N,GND*%
X91459500Y-150626629D03*
%TD*%
D51*
%TO.P,C4,1*%
%TO.N,Net-(U2-IN)*%
X95028500Y-150626629D03*
%TO.P,C4,2*%
%TO.N,GND*%
X95028500Y-152176629D03*
%TD*%
D52*
%TO.P,H1,1,1*%
%TO.N,GND*%
X61266000Y-151457371D03*
%TD*%
D40*
%TO.P,J4,1,Pin_1*%
%TO.N,Net-(J4-Pin_1)*%
X92416000Y-190707371D03*
D41*
%TO.P,J4,2,Pin_2*%
%TO.N,GND*%
X92416000Y-193247371D03*
%TO.P,J4,3,Pin_3*%
%TO.N,Net-(J4-Pin_3)*%
X89876000Y-190707371D03*
%TO.P,J4,4,Pin_4*%
%TO.N,GND*%
X89876000Y-193247371D03*
%TO.P,J4,5,Pin_5*%
%TO.N,Net-(J4-Pin_5)*%
X87336000Y-190707371D03*
%TO.P,J4,6,Pin_6*%
%TO.N,GND*%
X87336000Y-193247371D03*
%TO.P,J4,7,Pin_7*%
%TO.N,Net-(J4-Pin_7)*%
X84796000Y-190707371D03*
%TO.P,J4,8,Pin_8*%
%TO.N,GND*%
X84796000Y-193247371D03*
%TD*%
D21*
%TO.P,R22,1*%
%TO.N,Net-(RN4-R4.1)*%
X98004000Y-184710000D03*
%TO.P,R22,2*%
%TO.N,/RAW_CH3*%
X98004000Y-183690000D03*
%TD*%
D28*
%TO.P,RN2,1,R1.1*%
%TO.N,Net-(RN2-R1.1)*%
X76957999Y-186097000D03*
D29*
%TO.P,RN2,2,R2.1*%
%TO.N,Net-(RN2-R2.1)*%
X76157999Y-186097000D03*
%TO.P,RN2,3,R3.1*%
%TO.N,Net-(RN2-R3.1)*%
X75357999Y-186097000D03*
D28*
%TO.P,RN2,4,R4.1*%
%TO.N,Net-(RN2-R4.1)*%
X74557999Y-186097000D03*
%TO.P,RN2,5,R4.2*%
%TO.N,Net-(J3-Pin_7)*%
X74557999Y-187897000D03*
D29*
%TO.P,RN2,6,R3.2*%
%TO.N,Net-(J3-Pin_5)*%
X75357999Y-187897000D03*
%TO.P,RN2,7,R2.2*%
%TO.N,Net-(J3-Pin_3)*%
X76157999Y-187897000D03*
D28*
%TO.P,RN2,8,R1.2*%
%TO.N,Net-(J3-Pin_1)*%
X76957999Y-187897000D03*
%TD*%
D40*
%TO.P,J2,1,Pin_1*%
%TO.N,Net-(J2-Pin_1)*%
X67016000Y-190707371D03*
D41*
%TO.P,J2,2,Pin_2*%
%TO.N,GND*%
X67016000Y-193247371D03*
%TO.P,J2,3,Pin_3*%
%TO.N,Net-(J2-Pin_3)*%
X64476000Y-190707371D03*
%TO.P,J2,4,Pin_4*%
%TO.N,GND*%
X64476000Y-193247371D03*
%TO.P,J2,5,Pin_5*%
%TO.N,Net-(J2-Pin_5)*%
X61936000Y-190707371D03*
%TO.P,J2,6,Pin_6*%
%TO.N,GND*%
X61936000Y-193247371D03*
%TO.P,J2,7,Pin_7*%
%TO.N,Net-(J2-Pin_7)*%
X59396000Y-190707371D03*
%TO.P,J2,8,Pin_8*%
%TO.N,GND*%
X59396000Y-193247371D03*
%TD*%
D53*
%TO.P,Y1,1,1*%
%TO.N,Net-(U1A-XTALOUT)*%
X95050000Y-161000000D03*
%TO.P,Y1,2,2*%
%TO.N,GND*%
X95050000Y-158800000D03*
%TO.P,Y1,3,3*%
%TO.N,Net-(U1A-XTALIN)*%
X93350000Y-158800000D03*
%TO.P,Y1,4,4*%
%TO.N,GND*%
X93350000Y-161000000D03*
%TD*%
D22*
%TO.P,C2,1*%
%TO.N,Net-(U1A-XTALOUT)*%
X96400000Y-160128528D03*
%TO.P,C2,2*%
%TO.N,GND*%
X96400000Y-159168528D03*
%TD*%
%TO.P,C41,1*%
%TO.N,Net-(RN2-R4.1)*%
X71088000Y-184652000D03*
%TO.P,C41,2*%
%TO.N,/RAW_CH11*%
X71088000Y-183692000D03*
%TD*%
D54*
%TO.P,R27,1*%
%TO.N,+3V3*%
X73100000Y-161880001D03*
%TO.P,R27,2*%
%TO.N,Net-(J7-VTref)*%
X73100000Y-162900001D03*
%TD*%
D55*
%TO.P,U2,1,IN*%
%TO.N,Net-(U2-IN)*%
X97840014Y-152279158D03*
%TO.P,U2,2,GND*%
%TO.N,GND*%
X97168263Y-152950909D03*
%TO.P,U2,3,~{EN}*%
X96496512Y-153622660D03*
%TO.P,U2,4,~{FLAG}*%
%TO.N,unconnected-(U2-~{FLAG}-Pad4)*%
X98105180Y-155231328D03*
%TO.P,U2,5,OUT*%
%TO.N,VBUS*%
X99448682Y-153887826D03*
%TD*%
D30*
%TO.P,FB2,1*%
%TO.N,Net-(U1C-CVDDQ)*%
X90416637Y-166883363D03*
%TO.P,FB2,2*%
%TO.N,+3V3*%
X91583363Y-165716637D03*
%TD*%
D56*
%TO.P,C17,1*%
%TO.N,+3V3*%
X80060589Y-177960589D03*
%TO.P,C17,2*%
%TO.N,GND*%
X80739411Y-178639411D03*
%TD*%
D35*
%TO.P,C9,1*%
%TO.N,VBUS*%
X71375000Y-158200000D03*
%TO.P,C9,2*%
%TO.N,GND*%
X69825000Y-158200000D03*
%TD*%
D13*
%TO.P,C3,1*%
%TO.N,Net-(U1A-RESET_N)*%
X90210589Y-163039411D03*
%TO.P,C3,2*%
%TO.N,GND*%
X90889411Y-162360589D03*
%TD*%
D39*
%TO.P,FB3,1*%
%TO.N,+1V2*%
X92583363Y-164683363D03*
%TO.P,FB3,2*%
%TO.N,Net-(U1C-AVDD)*%
X91416637Y-163516637D03*
%TD*%
D13*
%TO.P,C19,1*%
%TO.N,Net-(U1C-CVDDQ)*%
X88526589Y-167996782D03*
%TO.P,C19,2*%
%TO.N,GND*%
X89205411Y-167317960D03*
%TD*%
D37*
%TO.P,FB5,1*%
%TO.N,+1V2*%
X89600000Y-158500000D03*
%TO.P,FB5,2*%
%TO.N,Net-(U1C-U3TXVDDQ)*%
X89600000Y-160150000D03*
%TD*%
D43*
%TO.P,C24,1*%
%TO.N,Net-(U1C-U3TXVDDQ)*%
X91100000Y-160100000D03*
%TO.P,C24,2*%
%TO.N,GND*%
X91100000Y-158550000D03*
%TD*%
D10*
%TO.P,C28,1*%
%TO.N,+1V2*%
X76289411Y-167689411D03*
%TO.P,C28,2*%
%TO.N,GND*%
X75610589Y-167010589D03*
%TD*%
D22*
%TO.P,C42,1*%
%TO.N,Net-(RN2-R1.1)*%
X77184000Y-184680000D03*
%TO.P,C42,2*%
%TO.N,/RAW_CH8*%
X77184000Y-183720000D03*
%TD*%
D16*
%TO.P,U6,1,I/O1*%
%TO.N,/RAW_CH14*%
X64272500Y-178734000D03*
%TO.P,U6,2,GND*%
%TO.N,GND*%
X64272500Y-177784000D03*
%TO.P,U6,3,I/O2*%
%TO.N,/RAW_CH13*%
X64272500Y-176834000D03*
%TO.P,U6,4,I/O3*%
%TO.N,/RAW_CH12*%
X61997500Y-176834000D03*
%TO.P,U6,5,VBUS*%
%TO.N,/VCC_frontend*%
X61997500Y-177784000D03*
%TO.P,U6,6,I/O4*%
%TO.N,/RAW_CH15*%
X61997500Y-178734000D03*
%TD*%
D57*
%TO.P,U5,1,VI*%
%TO.N,VBUS*%
X62950000Y-159462500D03*
%TO.P,U5,2,GND*%
%TO.N,GND*%
X62000000Y-159462500D03*
%TO.P,U5,3,EN*%
%TO.N,VBUS*%
X61050000Y-159462500D03*
%TO.P,U5,4,FB*%
%TO.N,+1V2*%
X61050000Y-161737500D03*
%TO.P,U5,5,SW*%
%TO.N,Net-(U5-SW)*%
X62950000Y-161737500D03*
%TD*%
D21*
%TO.P,R11,1*%
%TO.N,Net-(RN1-R3.1)*%
X63416000Y-184710000D03*
%TO.P,R11,2*%
%TO.N,/RAW_CH14*%
X63416000Y-183690000D03*
%TD*%
D13*
%TO.P,C21,1*%
%TO.N,Net-(U1C-AVDD)*%
X87626589Y-167165411D03*
%TO.P,C21,2*%
%TO.N,GND*%
X88305411Y-166486589D03*
%TD*%
D21*
%TO.P,R14,1*%
%TO.N,Net-(RN2-R4.1)*%
X72104000Y-184710000D03*
%TO.P,R14,2*%
%TO.N,/RAW_CH11*%
X72104000Y-183690000D03*
%TD*%
D35*
%TO.P,C8,1*%
%TO.N,VBUS*%
X62794000Y-157618001D03*
%TO.P,C8,2*%
%TO.N,GND*%
X61244000Y-157618001D03*
%TD*%
D52*
%TO.P,H2,1,1*%
%TO.N,GND*%
X103266000Y-151457371D03*
%TD*%
D22*
%TO.P,C49,1*%
%TO.N,Net-(RN4-R4.1)*%
X96988000Y-184680000D03*
%TO.P,C49,2*%
%TO.N,/RAW_CH3*%
X96988000Y-183720000D03*
%TD*%
%TO.P,C44,1*%
%TO.N,Net-(RN2-R2.1)*%
X75152000Y-184680000D03*
%TO.P,C44,2*%
%TO.N,/RAW_CH9*%
X75152000Y-183720000D03*
%TD*%
%TO.P,C40,1*%
%TO.N,Net-(RN1-R2.1)*%
X64432000Y-184680000D03*
%TO.P,C40,2*%
%TO.N,/RAW_CH13*%
X64432000Y-183720000D03*
%TD*%
D13*
%TO.P,C25,1*%
%TO.N,Net-(U1C-U3TXVDDQ)*%
X85526589Y-165065411D03*
%TO.P,C25,2*%
%TO.N,GND*%
X86205411Y-164386589D03*
%TD*%
D22*
%TO.P,C50,1*%
%TO.N,Net-(RN4-R1.1)*%
X103084000Y-184680000D03*
%TO.P,C50,2*%
%TO.N,/RAW_CH0*%
X103084000Y-183720000D03*
%TD*%
D21*
%TO.P,R12,1*%
%TO.N,Net-(RN1-R1.1)*%
X67480000Y-184710000D03*
%TO.P,R12,2*%
%TO.N,/RAW_CH12*%
X67480000Y-183690000D03*
%TD*%
D58*
%TO.P,FB4,1*%
%TO.N,+1V2*%
X77616637Y-162466637D03*
%TO.P,FB4,2*%
%TO.N,Net-(U1C-U3RXVDDQ)*%
X78783363Y-163633363D03*
%TD*%
D59*
%TO.N,/SS_D+*%
X86791480Y-169826001D03*
%TO.N,/SS_D-*%
X87357165Y-170391686D03*
D60*
%TO.N,/VBUS_IN*%
X91459500Y-152176629D03*
D59*
X91995782Y-154891917D03*
D60*
%TO.N,Net-(U1A-XTALOUT)*%
X96408125Y-160096219D03*
X95050481Y-161001315D03*
D59*
X84528742Y-169826001D03*
D60*
%TO.N,GND*%
X61222518Y-157607205D03*
D59*
X80600000Y-164500000D03*
X78306205Y-171523056D03*
X102066000Y-169726000D03*
X102517523Y-171926000D03*
X78000000Y-164550000D03*
D60*
X66539957Y-158172890D03*
D59*
X78871888Y-168694630D03*
X101516000Y-156957371D03*
X101666000Y-170126000D03*
D60*
X59525463Y-160435630D03*
D59*
X85094428Y-169260316D03*
D60*
X95050481Y-152192066D03*
D59*
X89205411Y-167317960D03*
D61*
X91543001Y-177784000D03*
D59*
X82266001Y-165300518D03*
D60*
X99369315Y-156269807D03*
D59*
X80568944Y-168128945D03*
X104566000Y-173326000D03*
X75600000Y-167050000D03*
D60*
X62014477Y-159530534D03*
D59*
X72400000Y-173300000D03*
D60*
X91430097Y-161793274D03*
D59*
X106024770Y-169599727D03*
X85660113Y-169826001D03*
X82250000Y-160450000D03*
X65700000Y-173200000D03*
X104666000Y-172726000D03*
X102066000Y-171226000D03*
X84528742Y-170957372D03*
X84189329Y-178311276D03*
X70160341Y-163150918D03*
X94255388Y-154911230D03*
X80739120Y-178625914D03*
D60*
X97209316Y-152989810D03*
D61*
X71589306Y-178743946D03*
D59*
X104416000Y-172176000D03*
D60*
X91090686Y-157380931D03*
D59*
X66400000Y-173200000D03*
X101366000Y-168326000D03*
X98766000Y-171526000D03*
X88316946Y-166473380D03*
D61*
X64835000Y-180184000D03*
D60*
X91430097Y-150608148D03*
D59*
X103891000Y-174434000D03*
D60*
X67105642Y-155231328D03*
D59*
X86221346Y-164388472D03*
X78150000Y-160900004D03*
X79437573Y-173785799D03*
X70160341Y-161453863D03*
X66313683Y-160548767D03*
D61*
X97497307Y-178743946D03*
X75765999Y-178571280D03*
D59*
X86112658Y-176387947D03*
X92014412Y-167431494D03*
X98266000Y-173226000D03*
X103196345Y-171926000D03*
D61*
X65635000Y-177784000D03*
D59*
X101666000Y-171626000D03*
D60*
X93353426Y-161001315D03*
D59*
X92858919Y-168234042D03*
X92366000Y-173226000D03*
D60*
X66087409Y-155231328D03*
D59*
X68915834Y-160322493D03*
X76609146Y-170957372D03*
D60*
X69820930Y-158172890D03*
D59*
X101847459Y-170660707D03*
X77740520Y-172088741D03*
D60*
X90411864Y-164621699D03*
D61*
X101400000Y-177800000D03*
D59*
X86225799Y-169260316D03*
X78871890Y-172088741D03*
X103875167Y-171926000D03*
X93558919Y-168934042D03*
X103666000Y-167426000D03*
D60*
X95050481Y-158851712D03*
D59*
X82250000Y-158500000D03*
D60*
X94711070Y-157267794D03*
D59*
X76400000Y-164800000D03*
X104166000Y-173726000D03*
X80650000Y-163350000D03*
X84424858Y-174219486D03*
X76300000Y-166300000D03*
X91766000Y-173226000D03*
D61*
X90935000Y-180084000D03*
D59*
X82266001Y-176614226D03*
X86225799Y-170391687D03*
D60*
X96408125Y-159191123D03*
D59*
X77174832Y-171523057D03*
D60*
%TO.N,Net-(U1A-XTALIN)*%
X93692837Y-157267794D03*
D59*
X83963057Y-169260316D03*
D60*
X93353426Y-158738575D03*
%TO.N,Net-(U1A-RESET_N)*%
X88966000Y-161657371D03*
D59*
X83397371Y-168694630D03*
%TO.N,+1V2*%
X78871888Y-173220114D03*
D60*
X92561467Y-164621699D03*
D59*
X83397371Y-175482854D03*
X82266001Y-167563259D03*
D60*
X60204285Y-170052275D03*
D59*
X91769508Y-169373453D03*
X85094428Y-173785799D03*
X78306203Y-169260316D03*
X83963055Y-176727358D03*
D60*
X61675066Y-167223850D03*
X61901340Y-170082953D03*
X89619905Y-157380931D03*
X74685821Y-164734836D03*
X59525463Y-162924644D03*
D59*
X86791484Y-170957372D03*
X80003259Y-174351485D03*
X84528742Y-172088742D03*
D60*
X59525463Y-161906411D03*
D59*
%TO.N,Net-(U1C-U3TXVDDQ)*%
X85516000Y-165076000D03*
D60*
X88262261Y-160209356D03*
D59*
%TO.N,/VCC_frontend*%
X100066000Y-170126000D03*
D61*
X86443001Y-177784000D03*
D59*
X100466000Y-169726000D03*
X100466000Y-171226000D03*
D61*
X60535000Y-177784000D03*
X98567124Y-178771614D03*
D59*
X100066000Y-171626000D03*
D61*
X72659123Y-178771614D03*
X104000000Y-177800000D03*
X78235000Y-178584000D03*
D59*
%TO.N,+3V3*%
X84755014Y-176274810D03*
X104104745Y-164612980D03*
X103666000Y-166526000D03*
X81134630Y-175482855D03*
X80069277Y-177945089D03*
X73000000Y-173300000D03*
X100484361Y-161218870D03*
D60*
X90864412Y-161114452D03*
X95503029Y-170731097D03*
X68802697Y-151045259D03*
D59*
X83963057Y-174917170D03*
X80003259Y-170957372D03*
X86791484Y-172088743D03*
X79437573Y-168128945D03*
D60*
X68123875Y-158172890D03*
D59*
X79900000Y-165200000D03*
X73101903Y-161906411D03*
X103991608Y-161784555D03*
D60*
X68802697Y-153760547D03*
D59*
X98966000Y-173226000D03*
X92448330Y-170052275D03*
X81134630Y-168694630D03*
X81700315Y-165866203D03*
D60*
X68802697Y-152289766D03*
X91656371Y-165753069D03*
X58620367Y-172428152D03*
D59*
%TO.N,/I2C_SCL*%
X102916000Y-159807371D03*
%TO.N,/I2C_SDA*%
X100466000Y-164807371D03*
D60*
%TO.N,/SS_D+*%
X95782518Y-167022847D03*
%TO.N,/SS_D-*%
X95181476Y-167623889D03*
%TO.N,VBUS*%
X62794000Y-157618001D03*
X71109000Y-156016000D03*
X100500504Y-155187134D03*
X105911633Y-166658165D03*
D59*
X85660113Y-173220114D03*
X105810000Y-172826000D03*
%TO.N,Net-(J7-SWDIO{slash}TMS)*%
X71404848Y-168355220D03*
X83963055Y-171523056D03*
%TO.N,Net-(J7-SWDCLK{slash}TCK)*%
X70170000Y-166997576D03*
X82266000Y-170957371D03*
%TO.N,Net-(J7-SWO{slash}TDO)*%
X68915834Y-166997576D03*
X86225795Y-171523056D03*
%TO.N,/In_CH1*%
X96951001Y-173926000D03*
X83963057Y-172654428D03*
%TO.N,/In_CH0*%
X97598748Y-174499686D03*
X84528742Y-173220114D03*
%TO.N,/In_CH4*%
X94991001Y-175026394D03*
X83397371Y-173220114D03*
%TO.N,/In_CH3*%
X83963057Y-173785799D03*
X95666000Y-175526000D03*
%TO.N,/In_CH14*%
X81700315Y-173785799D03*
X67800000Y-175400000D03*
%TO.N,/In_CH9*%
X82266001Y-174351485D03*
X71100000Y-175500000D03*
%TO.N,/In_CH8*%
X72100000Y-175500000D03*
X82831686Y-174917170D03*
%TO.N,Net-(J7-NC{slash}TDI)*%
X83397370Y-170957371D03*
X67671327Y-166205617D03*
%TO.N,Net-(J7-~{RESET})*%
X66426820Y-168015809D03*
X87357165Y-171523056D03*
%TD*%
D62*
%TO.N,/SS_D+*%
X94255389Y-153957368D02*
X91980389Y-153957368D01*
%TO.N,/SS_D-*%
X91980389Y-155857368D02*
X94255389Y-155857368D01*
%TO.N,/SSRX+*%
X81235000Y-159099000D02*
X81235000Y-159869000D01*
%TO.N,/SSRX-*%
X81735000Y-159869000D02*
X81735000Y-159099000D01*
D63*
%TO.N,/SSTX+*%
X82735000Y-159099000D02*
X82735000Y-159869000D01*
D62*
%TO.N,/SSTX-*%
X83235000Y-159869000D02*
X83235000Y-159099000D01*
%TO.N,/SSTX+*%
X84741000Y-156382371D02*
X85452349Y-157093720D01*
%TO.N,/SSTX-*%
X86491000Y-156382371D02*
X85779651Y-157093720D01*
%TO.N,/SSTX+*%
X85452349Y-157093720D02*
X85452349Y-157556955D01*
%TO.N,/SSTX-*%
X85779651Y-157093720D02*
X85779651Y-157692529D01*
%TO.N,/SSTX+*%
X82741000Y-159097371D02*
X82741000Y-158684870D01*
%TO.N,/SSTX-*%
X83241000Y-159097371D02*
X83241000Y-158684870D01*
%TO.N,/SSTX+*%
X82827350Y-158598520D02*
X82827350Y-158381954D01*
X82741000Y-158684870D02*
X82827350Y-158598520D01*
%TO.N,/SSTX-*%
X83241000Y-158684870D02*
X83154650Y-158598520D01*
X83154650Y-158598520D02*
X83154650Y-158517530D01*
%TO.N,/SSTX+*%
X85452349Y-157556955D02*
X85092212Y-157917092D01*
%TO.N,/SSTX-*%
X85779651Y-157692529D02*
X85227788Y-158244392D01*
%TO.N,/SSTX+*%
X83292212Y-157917092D02*
X85092212Y-157917092D01*
X82827350Y-158381954D02*
X83292212Y-157917092D01*
%TO.N,/SSTX-*%
X83427788Y-158244392D02*
X85227788Y-158244392D01*
X83154650Y-158517530D02*
X83427788Y-158244392D01*
%TO.N,/SSRX-*%
X81183788Y-157918721D02*
X79383788Y-157918721D01*
X81648650Y-158383583D02*
X81183788Y-157918721D01*
%TO.N,/SSRX+*%
X81321350Y-158519159D02*
X81048212Y-158246021D01*
X81048212Y-158246021D02*
X79248212Y-158246021D01*
%TO.N,/SSRX-*%
X81735000Y-158686499D02*
X81648650Y-158600149D01*
X81735000Y-159099000D02*
X81735000Y-158686499D01*
X81648650Y-158600149D02*
X81648650Y-158383583D01*
%TO.N,/SSRX+*%
X81321350Y-158600149D02*
X81321350Y-158519159D01*
X81235000Y-158686499D02*
X81321350Y-158600149D01*
X81235000Y-159099000D02*
X81235000Y-158686499D01*
%TO.N,/SSRX-*%
X79023651Y-157558584D02*
X79383788Y-157918721D01*
%TO.N,/SSRX+*%
X78696349Y-157694158D02*
X79248212Y-158246021D01*
%TO.N,/SSRX-*%
X79023651Y-157095349D02*
X79023651Y-157558584D01*
X79735000Y-156384000D02*
X79023651Y-157095349D01*
%TO.N,/SSRX+*%
X78696349Y-157095349D02*
X78696349Y-157694158D01*
X77985000Y-156384000D02*
X78696349Y-157095349D01*
%TO.N,/dSSTX-*%
X85789863Y-167099259D02*
X85094427Y-167794695D01*
X85805757Y-167099259D02*
X85789863Y-167099259D01*
X86545596Y-166846404D02*
X86058612Y-166846404D01*
X86058612Y-166846404D02*
X85805757Y-167099259D01*
X86926589Y-166465411D02*
X86545596Y-166846404D01*
%TO.N,/dSSTX+*%
X85646991Y-166779257D02*
X84862990Y-167563258D01*
%TO.N,/dSSTX-*%
X85094427Y-167794695D02*
X85094427Y-168128944D01*
%TO.N,/dSSTX+*%
X85662887Y-166779257D02*
X85646991Y-166779257D01*
X85827176Y-166614968D02*
X85662887Y-166779257D01*
X85827176Y-166127984D02*
X85827176Y-166614968D01*
X86208169Y-165746991D02*
X85827176Y-166127984D01*
X84528742Y-167563258D02*
X84862990Y-167563258D01*
%TO.N,/SSTX-*%
X87605411Y-165299606D02*
X87605411Y-165786589D01*
X88054650Y-164850367D02*
X87605411Y-165299606D01*
X88054650Y-163139583D02*
X88054650Y-164850367D01*
%TO.N,/SSTX+*%
X87727350Y-164714793D02*
X87373974Y-165068169D01*
X87727350Y-163275159D02*
X87727350Y-164714793D01*
X87373974Y-165068169D02*
X86886991Y-165068169D01*
%TO.N,/SSTX-*%
X86758788Y-161843721D02*
X88054650Y-163139583D01*
%TO.N,/SSTX+*%
X86623212Y-162171021D02*
X87727350Y-163275159D01*
%TO.N,/SSTX-*%
X84208788Y-161843721D02*
X86758788Y-161843721D01*
%TO.N,/SSTX+*%
X84073212Y-162171021D02*
X86623212Y-162171021D01*
%TO.N,/SSTX-*%
X83148650Y-160783583D02*
X84208788Y-161843721D01*
%TO.N,/SSTX+*%
X82821350Y-160919159D02*
X84073212Y-162171021D01*
%TO.N,/SSTX-*%
X83148650Y-160367851D02*
X83148650Y-160783583D01*
X83235000Y-159869000D02*
X83235000Y-160281501D01*
%TO.N,/SSTX+*%
X82821350Y-160367851D02*
X82821350Y-160919159D01*
%TO.N,/SSTX-*%
X83235000Y-160281501D02*
X83148650Y-160367851D01*
%TO.N,/SSTX+*%
X82735000Y-160281501D02*
X82821350Y-160367851D01*
X82735000Y-159869000D02*
X82735000Y-160281501D01*
%TO.N,/SSRX-*%
X81735000Y-160281501D02*
X81735000Y-159869000D01*
X84179650Y-163689583D02*
X81648650Y-161158583D01*
X81648650Y-161158583D02*
X81648650Y-160367851D01*
%TO.N,/SSRX+*%
X81235000Y-160281501D02*
X81235000Y-159869000D01*
%TO.N,/SSRX-*%
X81648650Y-160367851D02*
X81735000Y-160281501D01*
%TO.N,/SSRX+*%
X81321350Y-161294159D02*
X81321350Y-160367851D01*
X81321350Y-160367851D02*
X81235000Y-160281501D01*
X83852350Y-163825159D02*
X81321350Y-161294159D01*
%TO.N,/SSRX-*%
X84179650Y-166446731D02*
X84179650Y-163689583D01*
%TO.N,/SSRX+*%
X83852350Y-166311157D02*
X83852350Y-163825159D01*
%TO.N,/SSRX-*%
X83963056Y-166663325D02*
X84179650Y-166446731D01*
X83963056Y-166997573D02*
X83963056Y-166663325D01*
%TO.N,/SSRX+*%
X83731619Y-166431888D02*
X83852350Y-166311157D01*
X83397371Y-166431888D02*
X83731619Y-166431888D01*
%TO.N,/SS_D+*%
X95412913Y-167022847D02*
X95782518Y-167022847D01*
X95054650Y-166664584D02*
X95412913Y-167022847D01*
%TO.N,/SS_D-*%
X94727350Y-166800158D02*
X95181476Y-167254284D01*
%TO.N,/SS_D+*%
X95054650Y-165150159D02*
X95054650Y-166664584D01*
%TO.N,/SS_D-*%
X94727350Y-165014583D02*
X94727350Y-166800158D01*
X95181476Y-167254284D02*
X95181476Y-167623889D01*
X97902350Y-161839583D02*
X94727350Y-165014583D01*
%TO.N,/SS_D+*%
X98229650Y-161975159D02*
X95054650Y-165150159D01*
%TO.N,/SS_D-*%
X97902350Y-157350159D02*
X97902350Y-161839583D01*
%TO.N,/SS_D+*%
X98229650Y-157214583D02*
X98229650Y-161975159D01*
X95758785Y-154743718D02*
X98229650Y-157214583D01*
%TO.N,/SS_D-*%
X95623209Y-155071018D02*
X97902350Y-157350159D01*
X95404239Y-155071018D02*
X95623209Y-155071018D01*
X94617889Y-155857368D02*
X95404239Y-155071018D01*
%TO.N,/SS_D+*%
X95404239Y-154743718D02*
X95758785Y-154743718D01*
%TO.N,/SS_D-*%
X94255389Y-155857368D02*
X94617889Y-155857368D01*
%TO.N,/SS_D+*%
X94255389Y-153957368D02*
X94617889Y-153957368D01*
X94617889Y-153957368D02*
X95404239Y-154743718D01*
%TO.N,/SS_D-*%
X90200288Y-155071018D02*
X90986638Y-155857368D01*
X88099842Y-153547651D02*
X89623209Y-155071018D01*
X89623209Y-155071018D02*
X90200288Y-155071018D01*
%TO.N,/SS_D+*%
X90986638Y-153957368D02*
X91980389Y-153957368D01*
%TO.N,/SS_D-*%
X90986638Y-155857368D02*
X91980389Y-155857368D01*
%TO.N,/SS_D+*%
X88235416Y-153220349D02*
X89758785Y-154743718D01*
X89758785Y-154743718D02*
X90200288Y-154743718D01*
X90200288Y-154743718D02*
X90986638Y-153957368D01*
%TO.N,/SS_D-*%
X84321349Y-153547651D02*
X88099842Y-153547651D01*
X83485000Y-154384000D02*
X84321349Y-153547651D01*
%TO.N,/SS_D+*%
X84321349Y-153220349D02*
X88235416Y-153220349D01*
X83485000Y-152384000D02*
X84321349Y-153220349D01*
D64*
%TO.N,/VBUS_IN*%
X79098164Y-153647410D02*
X79834754Y-154384000D01*
X80116397Y-150479574D02*
X79098164Y-151497807D01*
X86338932Y-152176629D02*
X84641877Y-150479574D01*
X84641877Y-150479574D02*
X80116397Y-150479574D01*
X93180000Y-152176629D02*
X93259500Y-152256129D01*
X91459500Y-152176629D02*
X86338932Y-152176629D01*
X79098164Y-151497807D02*
X79098164Y-153647410D01*
X91459500Y-152176629D02*
X93180000Y-152176629D01*
X79834754Y-154384000D02*
X80985000Y-154384000D01*
D65*
%TO.N,Net-(U1A-XTALOUT)*%
X96400000Y-160128528D02*
X96408125Y-160096219D01*
X95050481Y-161001315D02*
X95050000Y-161000000D01*
%TO.N,GND*%
X90889411Y-162360589D02*
X90889411Y-162333960D01*
D66*
X75753279Y-178584000D02*
X75765999Y-178571280D01*
D67*
X90180501Y-177784000D02*
X91543001Y-177784000D01*
D66*
X90938500Y-180080500D02*
X90935000Y-180084000D01*
D67*
X68900000Y-160338327D02*
X68915834Y-160322493D01*
X72333000Y-174355500D02*
X72333000Y-173367000D01*
D64*
X102666000Y-171926000D02*
X102339500Y-171926000D01*
X104566000Y-173326000D02*
X104166000Y-173726000D01*
D65*
X82250000Y-160450000D02*
X82250000Y-159884000D01*
D67*
X82235000Y-159099000D02*
X82235000Y-159869000D01*
D66*
X64938500Y-180080500D02*
X64835000Y-180184000D01*
X97591001Y-180080500D02*
X97591001Y-178837640D01*
X71683000Y-180080500D02*
X71683000Y-178837640D01*
D67*
X66360000Y-160595084D02*
X66313683Y-160548767D01*
X68900000Y-162350000D02*
X68900000Y-160338327D01*
D66*
X74697500Y-178584000D02*
X75753279Y-178584000D01*
D65*
X92858919Y-168284042D02*
X92448330Y-168694631D01*
D66*
X97591001Y-178837640D02*
X97497307Y-178743946D01*
D64*
X104666000Y-172426000D02*
X104666000Y-172726000D01*
D65*
X90889411Y-162333960D02*
X91430097Y-161793274D01*
X82250000Y-159884000D02*
X82235000Y-159869000D01*
D64*
X104666000Y-173226000D02*
X104566000Y-173326000D01*
X104166000Y-171926000D02*
X104416000Y-172176000D01*
D67*
X72333000Y-173367000D02*
X72400000Y-173300000D01*
X65833000Y-174355500D02*
X65833000Y-173333000D01*
D65*
X92391001Y-173251001D02*
X92366000Y-173226000D01*
D67*
X66483000Y-173283000D02*
X66400000Y-173200000D01*
X66360000Y-162350000D02*
X66360000Y-160595084D01*
D65*
X91100000Y-158550000D02*
X91100000Y-157390245D01*
D64*
X104666000Y-172726000D02*
X104666000Y-173226000D01*
D65*
X93558919Y-168984042D02*
X93148330Y-169394631D01*
D64*
X104416000Y-172176000D02*
X104666000Y-172426000D01*
D65*
X92391001Y-174355500D02*
X92391001Y-173251001D01*
X92014412Y-167431494D02*
X91447775Y-167998131D01*
D66*
X64272500Y-177784000D02*
X65635000Y-177784000D01*
D65*
X98241001Y-173250999D02*
X98266000Y-173226000D01*
X80039411Y-163960589D02*
X80060589Y-163960589D01*
D64*
X66509000Y-158199000D02*
X66510000Y-158200000D01*
X102339500Y-171926000D02*
X101847500Y-171434000D01*
D65*
X82235000Y-159099000D02*
X82235000Y-158515000D01*
X80650000Y-163350000D02*
X80660589Y-163339411D01*
X78150004Y-160900004D02*
X78150000Y-160900004D01*
X91741001Y-173250999D02*
X91766000Y-173226000D01*
D64*
X66509000Y-156016000D02*
X66539957Y-158172890D01*
X101847500Y-171434000D02*
X101847500Y-170726000D01*
D66*
X100462500Y-177800000D02*
X101400000Y-177800000D01*
D65*
X93558919Y-168934042D02*
X93558919Y-168984042D01*
X92858919Y-168234042D02*
X92858919Y-168284042D01*
X78701992Y-161451992D02*
X78150004Y-160900004D01*
X80039411Y-163960589D02*
X80650000Y-163350000D01*
D64*
X104166000Y-173726000D02*
X103891000Y-174001000D01*
D65*
X62000000Y-158374001D02*
X62000000Y-159462500D01*
D66*
X91741001Y-180080500D02*
X90938500Y-180080500D01*
X65833000Y-180080500D02*
X64938500Y-180080500D01*
D65*
X101516000Y-156957371D02*
X101645136Y-157086507D01*
D64*
X66539957Y-158172890D02*
X66509000Y-158199000D01*
D65*
X61244000Y-157618001D02*
X62000000Y-158374001D01*
X98241001Y-174355500D02*
X98241001Y-173250999D01*
D64*
X103766000Y-171926000D02*
X104166000Y-171926000D01*
D66*
X71683000Y-178837640D02*
X71589306Y-178743946D01*
D64*
X103891000Y-174001000D02*
X103891000Y-174434000D01*
D65*
X91741001Y-174355500D02*
X91741001Y-173250999D01*
X80060589Y-163960589D02*
X80600000Y-164500000D01*
D67*
X66483000Y-174355500D02*
X66483000Y-173283000D01*
D65*
X91100000Y-157390245D02*
X91090686Y-157380931D01*
X82235000Y-158515000D02*
X82250000Y-158500000D01*
D67*
X65833000Y-173333000D02*
X65700000Y-173200000D01*
D64*
X103766000Y-171926000D02*
X102666000Y-171926000D01*
X101847500Y-170726000D02*
X101847500Y-169934000D01*
D65*
X101645136Y-157086507D02*
X102064975Y-157086507D01*
%TO.N,Net-(U1A-XTALIN)*%
X93353426Y-158738575D02*
X93350000Y-158742001D01*
X93350000Y-158742001D02*
X93350000Y-158800000D01*
X93720000Y-157300000D02*
X93692837Y-157267794D01*
D66*
%TO.N,Net-(U1A-RESET_N)*%
X89539376Y-162360624D02*
X89539376Y-162368198D01*
D65*
X88966000Y-161794822D02*
X90210589Y-163039411D01*
X88966000Y-161657371D02*
X88966000Y-161794822D01*
D66*
X89539376Y-162368198D02*
X90210589Y-163039411D01*
D64*
%TO.N,+1V2*%
X76156602Y-163264055D02*
X74685821Y-164734836D01*
D65*
X83963055Y-176048538D02*
X83397371Y-175482854D01*
D64*
X74120136Y-165300521D02*
X74120136Y-167336987D01*
D65*
X89600000Y-158500000D02*
X89600000Y-157400836D01*
D64*
X74605369Y-169373453D02*
X61109381Y-169373453D01*
D65*
X83963055Y-176727358D02*
X83963055Y-176048538D01*
X84840536Y-177661714D02*
X84840536Y-177626639D01*
D64*
X77616637Y-162466637D02*
X76819219Y-163264055D01*
D65*
X84839411Y-177660589D02*
X84840536Y-177661714D01*
D64*
X74120136Y-167336987D02*
X75380986Y-168597837D01*
X76289411Y-167689411D02*
X75380986Y-168597837D01*
D65*
X83963055Y-176784233D02*
X83963055Y-176727358D01*
X76289411Y-167689411D02*
X77200000Y-168600000D01*
X84840536Y-177626639D02*
X84805461Y-177626639D01*
D66*
X78306202Y-169260315D02*
X77645887Y-168600000D01*
D64*
X76819219Y-163264055D02*
X76156602Y-163264055D01*
X75380986Y-168597837D02*
X74605369Y-169373453D01*
D65*
X89600000Y-157400836D02*
X89619905Y-157380931D01*
X77645887Y-168600000D02*
X78306203Y-169260316D01*
X77200000Y-168600000D02*
X77645887Y-168600000D01*
X84805461Y-177626639D02*
X83963055Y-176784233D01*
D64*
X74685821Y-164734836D02*
X74120136Y-165300521D01*
D67*
%TO.N,Net-(U1C-CVDDQ)*%
X85096752Y-168694630D02*
X84528742Y-168694630D01*
X85534627Y-169132505D02*
X85096752Y-168694630D01*
D65*
X88526589Y-167996782D02*
X88837178Y-168307371D01*
D67*
X86666000Y-168526000D02*
X86383187Y-168526000D01*
D65*
X88526589Y-167996782D02*
X87997371Y-168526000D01*
X89328343Y-168307371D02*
X90416637Y-167219077D01*
D67*
X85776682Y-169132505D02*
X85534627Y-169132505D01*
D65*
X90416637Y-167219077D02*
X90416637Y-166883363D01*
X87997371Y-168526000D02*
X86666000Y-168526000D01*
X88837178Y-168307371D02*
X89328343Y-168307371D01*
D67*
X86383187Y-168526000D02*
X85776682Y-169132505D01*
D65*
%TO.N,Net-(U1C-AVDD)*%
X85660113Y-168694629D02*
X86328742Y-168026000D01*
X90416925Y-165748008D02*
X91416637Y-164748296D01*
X86328742Y-168026000D02*
X86766000Y-168026000D01*
X88223247Y-167450124D02*
X87911302Y-167450124D01*
X89351992Y-166321379D02*
X88223247Y-167450124D01*
X89351992Y-165748008D02*
X90416925Y-165748008D01*
X91416637Y-164748296D02*
X91416637Y-163516637D01*
X89351992Y-165748008D02*
X89351992Y-166321379D01*
X87911302Y-167450124D02*
X87626589Y-167165411D01*
X86766000Y-168026000D02*
X87626589Y-167165411D01*
%TO.N,Net-(U1C-U3RXVDDQ)*%
X81339411Y-162660589D02*
X81766000Y-163087178D01*
X82831685Y-164873056D02*
X82831685Y-165866202D01*
X78783363Y-163562653D02*
X79798008Y-162548008D01*
X78783363Y-163633363D02*
X78783363Y-163562653D01*
X80296016Y-162050000D02*
X79798008Y-162548008D01*
X80728822Y-162050000D02*
X80296016Y-162050000D01*
X81339411Y-162660589D02*
X80728822Y-162050000D01*
X81766000Y-163087178D02*
X81766000Y-163807371D01*
X81766000Y-163807371D02*
X82831685Y-164873056D01*
%TO.N,Net-(U1C-U3TXVDDQ)*%
X89650000Y-160100000D02*
X89600000Y-160150000D01*
X88262261Y-160209356D02*
X88321617Y-160150000D01*
D67*
X83963056Y-168128944D02*
X83963056Y-167552572D01*
D65*
X88321617Y-160150000D02*
X89600000Y-160150000D01*
D67*
X84939425Y-165652575D02*
X85516000Y-165076000D01*
D65*
X91100000Y-160100000D02*
X89650000Y-160100000D01*
D67*
X85516000Y-165076000D02*
X85526589Y-165065411D01*
X84939425Y-166576203D02*
X84939425Y-165652575D01*
X83963056Y-167552572D02*
X84939425Y-166576203D01*
D68*
%TO.N,/VCC_frontend*%
X100297500Y-169934000D02*
X101105500Y-169126000D01*
D66*
X72983000Y-180080500D02*
X72983000Y-179095491D01*
X98241001Y-180080500D02*
X98241001Y-179097737D01*
D64*
X100297500Y-171434000D02*
X100297500Y-171934000D01*
D66*
X72333000Y-179097737D02*
X72659123Y-178771614D01*
X98891001Y-180080500D02*
X98891001Y-179095491D01*
D65*
X98772500Y-169909000D02*
X100272500Y-169909000D01*
D64*
X100297500Y-169934000D02*
X100297500Y-171434000D01*
D66*
X87905501Y-177784000D02*
X86443001Y-177784000D01*
X61997500Y-177784000D02*
X60535000Y-177784000D01*
X98891001Y-179095491D02*
X98567124Y-178771614D01*
D68*
X102544500Y-169126000D02*
X103052500Y-169634000D01*
D66*
X98241001Y-179097737D02*
X98567124Y-178771614D01*
D68*
X101105500Y-169126000D02*
X102544500Y-169126000D01*
D66*
X76972500Y-178584000D02*
X78235000Y-178584000D01*
X72983000Y-179095491D02*
X72659123Y-178771614D01*
X102737500Y-177800000D02*
X104000000Y-177800000D01*
X72333000Y-180080500D02*
X72333000Y-179097737D01*
D65*
X100272500Y-169909000D02*
X100297500Y-169934000D01*
D64*
X100297500Y-171934000D02*
X101272500Y-172909000D01*
%TO.N,Net-(U5-SW)*%
X62950000Y-163862001D02*
X62844000Y-163968001D01*
X62950000Y-161737500D02*
X62950000Y-163862001D01*
D67*
%TO.N,Net-(U1A-FSLC0)*%
X81561126Y-166300000D02*
X82134112Y-166300000D01*
X83397371Y-167563259D02*
X83397371Y-168128945D01*
X82831685Y-169826001D02*
X82831685Y-170391686D01*
X78710624Y-165310624D02*
X79300000Y-165900000D01*
X82266001Y-166431889D02*
X82817545Y-166431889D01*
X79300000Y-165900000D02*
X81161126Y-165900000D01*
X82492274Y-169034042D02*
X82492274Y-169486590D01*
X83397371Y-167011715D02*
X83397371Y-167563259D01*
X82492274Y-169486590D02*
X82831685Y-169826001D01*
X83397371Y-168128945D02*
X82492274Y-169034042D01*
D66*
X82266001Y-166431889D02*
X82266000Y-166431888D01*
D67*
X82134112Y-166300000D02*
X82266000Y-166431888D01*
X82817545Y-166431889D02*
X83397371Y-167011715D01*
X81161126Y-165900000D02*
X81561126Y-166300000D01*
D65*
%TO.N,+3V3*%
X79360589Y-164639411D02*
X79360589Y-164660589D01*
X77600000Y-167600000D02*
X76989411Y-166989411D01*
D64*
X68802697Y-152289766D02*
X68809000Y-152283463D01*
X68809000Y-157451000D02*
X68123875Y-158136125D01*
D65*
X81284112Y-165450000D02*
X81700315Y-165866203D01*
X90260624Y-161639376D02*
X90339488Y-161639376D01*
D64*
X68809000Y-153766850D02*
X68802697Y-153760547D01*
D65*
X79437573Y-168128945D02*
X78908628Y-167600000D01*
D68*
X97313221Y-172541289D02*
X95503029Y-170731097D01*
D65*
X79900000Y-165200000D02*
X80150000Y-165450000D01*
X104014975Y-162811507D02*
X104014975Y-161807922D01*
D64*
X68809000Y-156016000D02*
X68809000Y-153766850D01*
X68809000Y-153754244D02*
X68809000Y-152296069D01*
X68087110Y-158172890D02*
X68060000Y-158200000D01*
X68809000Y-152296069D02*
X68802697Y-152289766D01*
X68809000Y-151038956D02*
X68809000Y-149716000D01*
D68*
X98281289Y-172541289D02*
X97313221Y-172541289D01*
D64*
X68123875Y-158136125D02*
X68123875Y-158172890D01*
X68809000Y-156016000D02*
X68809000Y-157451000D01*
X68802697Y-153760547D02*
X68809000Y-153754244D01*
D65*
X98891001Y-174355500D02*
X98891001Y-173300999D01*
D64*
X68802697Y-151045259D02*
X68809000Y-151038956D01*
D68*
X98966000Y-173226000D02*
X98281289Y-172541289D01*
D64*
X68809000Y-152283463D02*
X68809000Y-151051562D01*
D65*
X80150000Y-165450000D02*
X81284112Y-165450000D01*
X90339488Y-161639376D02*
X90864412Y-161114452D01*
X78908628Y-167600000D02*
X77600000Y-167600000D01*
X98891001Y-173300999D02*
X98966000Y-173226000D01*
X85460589Y-176980385D02*
X84755014Y-176274810D01*
D64*
X68123875Y-158172890D02*
X68087110Y-158172890D01*
D65*
X79360589Y-164660589D02*
X79900000Y-165200000D01*
D67*
X72983000Y-174355500D02*
X72983000Y-173317000D01*
D65*
X104014975Y-161807922D02*
X103991608Y-161784555D01*
D67*
X72983000Y-173317000D02*
X73000000Y-173300000D01*
D64*
X68809000Y-151051562D02*
X68802697Y-151045259D01*
D65*
X85460589Y-177039411D02*
X85460589Y-176980385D01*
D66*
%TO.N,/I2C_SCL*%
X88714809Y-170844234D02*
X93353426Y-170844234D01*
D65*
X102454975Y-163854747D02*
X102714975Y-163594747D01*
D67*
X87017754Y-172541289D02*
X86678343Y-172541289D01*
D65*
X102089099Y-167426000D02*
X102404386Y-167110713D01*
X102409597Y-160313774D02*
X102916000Y-159807371D01*
D67*
X86678343Y-172541289D02*
X85660110Y-171523056D01*
D65*
X102404386Y-167110713D02*
X102404386Y-164615596D01*
X102714975Y-162811507D02*
X102714975Y-160847333D01*
X102181416Y-160313774D02*
X102409597Y-160313774D01*
X99352991Y-164844669D02*
X93353426Y-170844234D01*
X102454975Y-164565007D02*
X102454975Y-163854747D01*
D67*
X85660110Y-171523056D02*
X85094427Y-171523056D01*
D65*
X102404386Y-164615596D02*
X102454975Y-164565007D01*
X99352991Y-160766322D02*
X99352991Y-164844669D01*
X99805539Y-160313774D02*
X99352991Y-160766322D01*
X101328500Y-167426000D02*
X102089099Y-167426000D01*
X102714975Y-160847333D02*
X102181416Y-160313774D01*
X102714975Y-162811507D02*
X102714975Y-163594747D01*
D67*
X88714809Y-170844234D02*
X87017754Y-172541289D01*
D65*
X102181416Y-160313774D02*
X99805539Y-160313774D01*
%TO.N,/I2C_SDA*%
X100479975Y-164164818D02*
X100479975Y-162890007D01*
X100816000Y-164500843D02*
X100479975Y-164164818D01*
X100558475Y-162811507D02*
X100479975Y-162890007D01*
D67*
X85660113Y-172654429D02*
X86112658Y-173106974D01*
D65*
X100816000Y-164507371D02*
X100816000Y-164500843D01*
X101328500Y-166476000D02*
X101328500Y-165013343D01*
X101328500Y-166476000D02*
X98626756Y-166476000D01*
D66*
X88827946Y-171183645D02*
X93919112Y-171183645D01*
D65*
X98626756Y-166476000D02*
X93919112Y-171183645D01*
D67*
X86112658Y-173106974D02*
X86904617Y-173106974D01*
D65*
X100822528Y-164507371D02*
X100816000Y-164507371D01*
X102064975Y-162811507D02*
X100558475Y-162811507D01*
X100772528Y-164500843D02*
X100466000Y-164807371D01*
X100816000Y-164500843D02*
X100772528Y-164500843D01*
D67*
X85660113Y-172088742D02*
X85660113Y-172654429D01*
X86904617Y-173106974D02*
X88827946Y-171183645D01*
D65*
X101328500Y-165013343D02*
X100822528Y-164507371D01*
D67*
%TO.N,Net-(JP1-B)*%
X78150000Y-170800000D02*
X77900000Y-170550000D01*
X79050000Y-170550000D02*
X78700000Y-170550000D01*
X79300000Y-170800000D02*
X79050000Y-170550000D01*
X77550000Y-170550000D02*
X77300000Y-170800000D01*
X78700000Y-170550000D02*
X78450000Y-170800000D01*
X62600000Y-172500000D02*
X60000000Y-172500000D01*
X64650000Y-170450000D02*
X62600000Y-172500000D01*
X77900000Y-170550000D02*
X77550000Y-170550000D01*
X77050000Y-170800000D02*
X76700000Y-170450000D01*
X79958313Y-170391687D02*
X79550000Y-170800000D01*
X78450000Y-170800000D02*
X78150000Y-170800000D01*
X79550000Y-170800000D02*
X79300000Y-170800000D01*
X77300000Y-170800000D02*
X77050000Y-170800000D01*
X80568944Y-170391687D02*
X79958313Y-170391687D01*
X76700000Y-170450000D02*
X64650000Y-170450000D01*
D64*
%TO.N,VBUS*%
X71109000Y-157934000D02*
X71375000Y-158200000D01*
D66*
X62950000Y-159462500D02*
X62950000Y-160292066D01*
X61050000Y-160263112D02*
X61050000Y-159462500D01*
D64*
X100500504Y-155187134D02*
X101020741Y-155707371D01*
X105256306Y-155707371D02*
X105911633Y-156362698D01*
X105810000Y-174065000D02*
X105441000Y-174434000D01*
X100495763Y-155187134D02*
X99448682Y-154140053D01*
X105911633Y-156362698D02*
X105911633Y-166658165D01*
X99448682Y-154140053D02*
X99448682Y-153887826D01*
X105810000Y-172884000D02*
X105810000Y-174065000D01*
D65*
X103535000Y-170984000D02*
X103535756Y-170957371D01*
D64*
X101020741Y-155707371D02*
X105256306Y-155707371D01*
D66*
X62693299Y-160548767D02*
X61335655Y-160548767D01*
D64*
X100500504Y-155187134D02*
X100495763Y-155187134D01*
X71109000Y-156016000D02*
X71109000Y-157934000D01*
D65*
X104424000Y-170984000D02*
X105810000Y-172370000D01*
X105810000Y-172826000D02*
X105810000Y-172884000D01*
D66*
X61335655Y-160548767D02*
X61050000Y-160263112D01*
D65*
X103535756Y-170957371D02*
X104424000Y-170984000D01*
D64*
X62950000Y-159462500D02*
X62950000Y-157774001D01*
X62950000Y-157774001D02*
X62794000Y-157618001D01*
D65*
X105810000Y-172370000D02*
X105810000Y-172826000D01*
D66*
X62950000Y-160292066D02*
X62693299Y-160548767D01*
D64*
%TO.N,Net-(U9-SW)*%
X102133000Y-174559000D02*
X101272500Y-174559000D01*
X103535000Y-172884000D02*
X103535000Y-173157000D01*
X103535000Y-173157000D02*
X102133000Y-174559000D01*
D68*
%TO.N,Net-(U9-FB)*%
X104962500Y-169634000D02*
X104962500Y-170022500D01*
X104072500Y-169634000D02*
X104962500Y-169634000D01*
X104962500Y-170022500D02*
X105810000Y-170870000D01*
X105810000Y-170870000D02*
X105810000Y-170984000D01*
X104976000Y-169634000D02*
X105976000Y-168634000D01*
X104962500Y-169634000D02*
X104976000Y-169634000D01*
%TO.N,Net-(U10-VOUT)*%
X104599367Y-168634000D02*
X104341367Y-168376000D01*
X104341367Y-168376000D02*
X103603500Y-168376000D01*
X104956000Y-168634000D02*
X104599367Y-168634000D01*
D67*
%TO.N,Net-(RN1-R4.1)*%
X61604000Y-186096999D02*
X61604000Y-185433999D01*
X61386000Y-185215999D02*
X61386000Y-184679999D01*
X60400000Y-184679999D02*
X60370000Y-184709999D01*
X61604000Y-185433999D02*
X61386000Y-185215999D01*
X61386000Y-184679999D02*
X60400000Y-184679999D01*
%TO.N,/RAW_CH0*%
X103084000Y-182284000D02*
X103084000Y-183720000D01*
X96941001Y-180941001D02*
X97300000Y-181300000D01*
X97300000Y-181300000D02*
X102100000Y-181300000D01*
X102737500Y-178750000D02*
X102737500Y-180662500D01*
X103084000Y-183720000D02*
X104070000Y-183720000D01*
X102737500Y-180662500D02*
X102100000Y-181300000D01*
X102100000Y-181300000D02*
X103084000Y-182284000D01*
X96941001Y-180080500D02*
X96941001Y-180941001D01*
X104070000Y-183720000D02*
X104100000Y-183690000D01*
%TO.N,Net-(RN1-R3.1)*%
X62432000Y-184679999D02*
X62402000Y-184709999D01*
X62404000Y-186096999D02*
X62404000Y-184711999D01*
X62404000Y-184711999D02*
X62402000Y-184709999D01*
X63418000Y-184679999D02*
X62432000Y-184679999D01*
%TO.N,/RAW_CH1*%
X97100000Y-178000000D02*
X96291001Y-178808999D01*
X101052000Y-182552000D02*
X101052000Y-183720000D01*
X101052000Y-183720000D02*
X102038000Y-183720000D01*
X96291001Y-178808999D02*
X96291001Y-180080500D01*
X102038000Y-183720000D02*
X102068000Y-183690000D01*
X97100000Y-182000000D02*
X100500000Y-182000000D01*
X98900000Y-178000000D02*
X97100000Y-178000000D01*
X99650000Y-178750000D02*
X98900000Y-178000000D01*
X100462500Y-178750000D02*
X99650000Y-178750000D01*
X96291001Y-181191001D02*
X97100000Y-182000000D01*
X96291001Y-180080500D02*
X96291001Y-181191001D01*
X100500000Y-182000000D02*
X101052000Y-182552000D01*
%TO.N,Net-(RN1-R1.1)*%
X67482000Y-184679999D02*
X66496000Y-184679999D01*
X66496000Y-184679999D02*
X66466000Y-184709999D01*
X64004000Y-186096999D02*
X65773000Y-186096999D01*
X66466000Y-185403999D02*
X66466000Y-184709999D01*
X65773000Y-186096999D02*
X66466000Y-185403999D01*
%TO.N,/RAW_CH3*%
X94991001Y-181991001D02*
X95600000Y-182600000D01*
X101987500Y-176100000D02*
X96700000Y-176100000D01*
X96700000Y-176100000D02*
X94991001Y-177808999D01*
X95600000Y-183200000D02*
X96120000Y-183720000D01*
X96120000Y-183720000D02*
X96988000Y-183720000D01*
X102737500Y-176850000D02*
X101987500Y-176100000D01*
X97018000Y-183690000D02*
X96988000Y-183720000D01*
X94991001Y-177808999D02*
X94991001Y-180080500D01*
X94991001Y-180080500D02*
X94991001Y-181991001D01*
X98004000Y-183690000D02*
X97018000Y-183690000D01*
X95600000Y-182600000D02*
X95600000Y-183200000D01*
%TO.N,Net-(RN1-R2.1)*%
X63204000Y-185465999D02*
X63370000Y-185299999D01*
X65450000Y-184679999D02*
X64462000Y-184679999D01*
X64462000Y-184679999D02*
X64434000Y-184707999D01*
X63370000Y-185299999D02*
X64270000Y-185299999D01*
X64434000Y-185135999D02*
X64434000Y-184707999D01*
X64270000Y-185299999D02*
X64434000Y-185135999D01*
X63204000Y-186096999D02*
X63204000Y-185465999D01*
%TO.N,/RAW_CH2*%
X97291001Y-176850000D02*
X95641001Y-178500000D01*
X95641001Y-180080500D02*
X95641001Y-181541001D01*
X98600000Y-182700000D02*
X99020000Y-183120000D01*
X99020000Y-183120000D02*
X99020000Y-183720000D01*
X100004000Y-183720000D02*
X100036000Y-183688000D01*
X96800000Y-182700000D02*
X98600000Y-182700000D01*
X95641001Y-181541001D02*
X96800000Y-182700000D01*
X95641001Y-178500000D02*
X95641001Y-180080500D01*
X99020000Y-183720000D02*
X100004000Y-183720000D01*
X100462500Y-176850000D02*
X97291001Y-176850000D01*
%TO.N,Net-(RN2-R4.1)*%
X72095999Y-185404000D02*
X72095999Y-184710000D01*
X72065999Y-184680000D02*
X72095999Y-184710000D01*
X72788999Y-186097000D02*
X72095999Y-185404000D01*
X71079999Y-184680000D02*
X72065999Y-184680000D01*
X74557999Y-186097000D02*
X72788999Y-186097000D01*
%TO.N,/RAW_CH4*%
X94341001Y-180080500D02*
X94341001Y-183358999D01*
X93390001Y-183660001D02*
X92404001Y-183660001D01*
X92543001Y-175984000D02*
X94341001Y-177782000D01*
X87905501Y-176221500D02*
X88143001Y-175984000D01*
X88143001Y-175984000D02*
X92543001Y-175984000D01*
X87905501Y-176834000D02*
X87905501Y-176221500D01*
X94341001Y-177782000D02*
X94341001Y-180080500D01*
X92404001Y-183660001D02*
X92374001Y-183690001D01*
X94039999Y-183660001D02*
X93390001Y-183660001D01*
X94341001Y-183358999D02*
X94039999Y-183660001D01*
%TO.N,Net-(RN2-R1.1)*%
X76957999Y-186097000D02*
X76957999Y-185434000D01*
X77175999Y-185216000D02*
X77175999Y-184680000D01*
X78161999Y-184680000D02*
X78191999Y-184710000D01*
X76957999Y-185434000D02*
X77175999Y-185216000D01*
X77175999Y-184680000D02*
X78161999Y-184680000D01*
%TO.N,/RAW_CH7*%
X86278001Y-183690001D02*
X87264001Y-183690001D01*
X92391001Y-180080500D02*
X92391001Y-180941001D01*
X87905501Y-178734000D02*
X87905501Y-181294499D01*
X92032002Y-181300000D02*
X87900000Y-181300000D01*
X92391001Y-180941001D02*
X92032002Y-181300000D01*
X87294001Y-181905999D02*
X87294001Y-183660001D01*
X87905501Y-181294499D02*
X87900000Y-181300000D01*
X87900000Y-181300000D02*
X87294001Y-181905999D01*
X87264001Y-183690001D02*
X87294001Y-183660001D01*
%TO.N,Net-(RN2-R3.1)*%
X75357999Y-185466000D02*
X75191999Y-185300000D01*
X75357999Y-186097000D02*
X75357999Y-185466000D01*
X75191999Y-185300000D02*
X74291999Y-185300000D01*
X74099999Y-184680000D02*
X74127999Y-184708000D01*
X73111999Y-184680000D02*
X74099999Y-184680000D01*
X74291999Y-185300000D02*
X74127999Y-185136000D01*
X74127999Y-185136000D02*
X74127999Y-184708000D01*
%TO.N,/RAW_CH5*%
X91700000Y-182700000D02*
X91358001Y-183041999D01*
X92532002Y-182700000D02*
X91700000Y-182700000D01*
X90180501Y-176834000D02*
X91993001Y-176834000D01*
X91358001Y-183041999D02*
X91358001Y-183662001D01*
X91993001Y-176834000D02*
X93691001Y-178532000D01*
X90342001Y-183690001D02*
X91330001Y-183690001D01*
X93691001Y-178532000D02*
X93691001Y-180080500D01*
X93691001Y-180080500D02*
X93691001Y-181541001D01*
X93691001Y-181541001D02*
X92532002Y-182700000D01*
X91330001Y-183690001D02*
X91358001Y-183662001D01*
%TO.N,Net-(RN2-R2.1)*%
X76129999Y-184680000D02*
X76159999Y-184710000D01*
X75143999Y-184680000D02*
X76129999Y-184680000D01*
X76157999Y-184712000D02*
X76159999Y-184710000D01*
X76157999Y-186097000D02*
X76157999Y-184712000D01*
%TO.N,/RAW_CH6*%
X93041001Y-181191001D02*
X92232002Y-182000000D01*
X93041001Y-179082000D02*
X93041001Y-180080500D01*
X88310001Y-183690001D02*
X89296001Y-183690001D01*
X92232002Y-182000000D02*
X89800000Y-182000000D01*
X89800000Y-182000000D02*
X89326001Y-182473999D01*
X90180501Y-178734000D02*
X92693001Y-178734000D01*
X89326001Y-182473999D02*
X89326001Y-183660001D01*
X93041001Y-180080500D02*
X93041001Y-181191001D01*
X92693001Y-178734000D02*
X93041001Y-179082000D01*
X89296001Y-183690001D02*
X89326001Y-183660001D01*
%TO.N,Net-(RN3-R4.1)*%
X87294001Y-184680001D02*
X86308001Y-184680001D01*
X87512001Y-186097001D02*
X87512001Y-185434001D01*
X87512001Y-185434001D02*
X87294001Y-185216001D01*
X87294001Y-185216001D02*
X87294001Y-184680001D01*
%TO.N,/RAW_CH8*%
X77214000Y-182254000D02*
X77214000Y-183690000D01*
X76230000Y-181270000D02*
X76972500Y-180527500D01*
X77214000Y-183690000D02*
X78200000Y-183690000D01*
X71430000Y-181270000D02*
X76230000Y-181270000D01*
X76230000Y-181270000D02*
X77214000Y-182254000D01*
X76972500Y-180527500D02*
X76972500Y-179534000D01*
X71071001Y-180911001D02*
X71430000Y-181270000D01*
X71071001Y-180050500D02*
X71071001Y-180911001D01*
%TO.N,Net-(RN3-R1.1)*%
X91681001Y-186097001D02*
X92374001Y-185404001D01*
X89912001Y-186097001D02*
X91681001Y-186097001D01*
X93390001Y-184680001D02*
X92404001Y-184680001D01*
X92404001Y-184680001D02*
X92374001Y-184710001D01*
X92374001Y-185404001D02*
X92374001Y-184710001D01*
D66*
%TO.N,/RAW_CH11*%
X69083000Y-178436000D02*
X69083000Y-180080500D01*
D67*
X69730000Y-182570000D02*
X69730000Y-183170000D01*
D66*
X76972500Y-177634000D02*
X76972500Y-177121500D01*
D67*
X72134000Y-183660000D02*
X71148000Y-183660000D01*
X69121001Y-181961001D02*
X69730000Y-182570000D01*
X69730000Y-183170000D02*
X70250000Y-183690000D01*
X71148000Y-183660000D02*
X71118000Y-183690000D01*
D66*
X70735000Y-176784000D02*
X69083000Y-178436000D01*
D67*
X70250000Y-183690000D02*
X71118000Y-183690000D01*
D66*
X76972500Y-177121500D02*
X76635000Y-176784000D01*
D67*
X69121001Y-180050500D02*
X69121001Y-181961001D01*
D66*
X76635000Y-176784000D02*
X70735000Y-176784000D01*
D67*
%TO.N,Net-(RN3-R3.1)*%
X88312001Y-184712001D02*
X88310001Y-184710001D01*
X89326001Y-184680001D02*
X88340001Y-184680001D01*
X88312001Y-186097001D02*
X88312001Y-184712001D01*
X88340001Y-184680001D02*
X88310001Y-184710001D01*
D66*
%TO.N,/RAW_CH9*%
X74697500Y-179534000D02*
X73985000Y-179534000D01*
X73985000Y-179534000D02*
X73635000Y-179184000D01*
D67*
X70421001Y-180050500D02*
X70421001Y-181161001D01*
X75182000Y-182522000D02*
X75182000Y-183690000D01*
D66*
X73635000Y-178484000D02*
X73110000Y-177959000D01*
D67*
X71230000Y-181970000D02*
X74630000Y-181970000D01*
D66*
X73110000Y-177959000D02*
X71160000Y-177959000D01*
X73635000Y-179184000D02*
X73635000Y-178484000D01*
D67*
X74630000Y-181970000D02*
X75182000Y-182522000D01*
D66*
X70383000Y-178736000D02*
X70383000Y-180080500D01*
D67*
X70421001Y-181161001D02*
X71230000Y-181970000D01*
D66*
X71160000Y-177959000D02*
X70383000Y-178736000D01*
D67*
X75182000Y-183690000D02*
X76168000Y-183690000D01*
%TO.N,Net-(RN3-R2.1)*%
X91358001Y-184680001D02*
X90370001Y-184680001D01*
X89112001Y-186097001D02*
X89112001Y-185466001D01*
X90370001Y-184680001D02*
X90342001Y-184708001D01*
X90342001Y-185136001D02*
X90342001Y-184708001D01*
X90178001Y-185300001D02*
X90342001Y-185136001D01*
X89278001Y-185300001D02*
X90178001Y-185300001D01*
X89112001Y-185466001D02*
X89278001Y-185300001D01*
D66*
%TO.N,/RAW_CH10*%
X74697500Y-177634000D02*
X73785000Y-177634000D01*
D67*
X70930000Y-182670000D02*
X72730000Y-182670000D01*
D66*
X73535000Y-177384000D02*
X70935000Y-177384000D01*
X70935000Y-177384000D02*
X69733000Y-178586000D01*
D67*
X73150000Y-183690000D02*
X74134000Y-183690000D01*
X69771001Y-181511001D02*
X70930000Y-182670000D01*
D66*
X73785000Y-177634000D02*
X73535000Y-177384000D01*
D67*
X73150000Y-183090000D02*
X73150000Y-183690000D01*
X69771001Y-180050500D02*
X69771001Y-181511001D01*
D66*
X69733000Y-178586000D02*
X69733000Y-180080500D01*
D67*
X72730000Y-182670000D02*
X73150000Y-183090000D01*
%TO.N,Net-(RN4-R4.1)*%
X98697000Y-186097000D02*
X98004000Y-185404000D01*
X98004000Y-185404000D02*
X98004000Y-184710000D01*
X100466000Y-186097000D02*
X98697000Y-186097000D01*
X97974000Y-184680000D02*
X98004000Y-184710000D01*
X96988000Y-184680000D02*
X97974000Y-184680000D01*
%TO.N,/RAW_CH12*%
X68471001Y-180050500D02*
X68471001Y-183328999D01*
X68169999Y-183630001D02*
X67520001Y-183630001D01*
X66534001Y-183630001D02*
X66504001Y-183660001D01*
D66*
X68433000Y-177782000D02*
X68433000Y-180080500D01*
X61997500Y-176221500D02*
X62235000Y-175984000D01*
X62235000Y-175984000D02*
X66635000Y-175984000D01*
X61997500Y-176834000D02*
X61997500Y-176221500D01*
D67*
X67520001Y-183630001D02*
X66534001Y-183630001D01*
D66*
X66635000Y-175984000D02*
X68433000Y-177782000D01*
D67*
X68471001Y-183328999D02*
X68169999Y-183630001D01*
%TO.N,Net-(RN4-R1.1)*%
X103084000Y-185216000D02*
X103084000Y-184680000D01*
X103084000Y-184680000D02*
X104070000Y-184680000D01*
X102866000Y-185434000D02*
X103084000Y-185216000D01*
X102866000Y-186097000D02*
X102866000Y-185434000D01*
X104070000Y-184680000D02*
X104100000Y-184710000D01*
%TO.N,/RAW_CH15*%
X66521001Y-180911001D02*
X66162002Y-181270000D01*
X62030000Y-181270000D02*
X61424001Y-181875999D01*
X62035501Y-181264499D02*
X62030000Y-181270000D01*
D66*
X66483000Y-180080500D02*
X66483000Y-180936000D01*
D67*
X60408001Y-183660001D02*
X61394001Y-183660001D01*
X66162002Y-181270000D02*
X62030000Y-181270000D01*
X66521001Y-180050500D02*
X66521001Y-180911001D01*
X61394001Y-183660001D02*
X61424001Y-183630001D01*
X62035501Y-178704000D02*
X62035501Y-181264499D01*
X61424001Y-181875999D02*
X61424001Y-183630001D01*
%TO.N,Net-(RN4-R3.1)*%
X101100000Y-185300000D02*
X100200000Y-185300000D01*
X101266000Y-185466000D02*
X101100000Y-185300000D01*
X99020000Y-184680000D02*
X100008000Y-184680000D01*
X100200000Y-185300000D02*
X100036000Y-185136000D01*
X101266000Y-186097000D02*
X101266000Y-185466000D01*
X100008000Y-184680000D02*
X100036000Y-184708000D01*
X100036000Y-185136000D02*
X100036000Y-184708000D01*
D66*
%TO.N,/RAW_CH13*%
X66085000Y-176834000D02*
X67783000Y-178532000D01*
D67*
X65460001Y-183660001D02*
X65488001Y-183632001D01*
X65830000Y-182670000D02*
X65488001Y-183011999D01*
D66*
X67783000Y-178532000D02*
X67783000Y-180080500D01*
D67*
X64472001Y-183660001D02*
X65460001Y-183660001D01*
X67821001Y-180050500D02*
X67821001Y-181511001D01*
X67821001Y-181511001D02*
X66662002Y-182670000D01*
X66662002Y-182670000D02*
X65830000Y-182670000D01*
X65488001Y-183011999D02*
X65488001Y-183632001D01*
D66*
X64272500Y-176834000D02*
X66085000Y-176834000D01*
D67*
%TO.N,Net-(RN4-R2.1)*%
X102038000Y-184680000D02*
X102068000Y-184710000D01*
X102066000Y-184712000D02*
X102068000Y-184710000D01*
X101052000Y-184680000D02*
X102038000Y-184680000D01*
X102066000Y-186097000D02*
X102066000Y-184712000D01*
%TO.N,/RAW_CH14*%
X67171001Y-181161001D02*
X66362002Y-181970000D01*
X66362002Y-181970000D02*
X63930000Y-181970000D01*
X63930000Y-181970000D02*
X63456001Y-182443999D01*
X63426001Y-183660001D02*
X63456001Y-183630001D01*
X62440001Y-183660001D02*
X63426001Y-183660001D01*
D66*
X64272500Y-178734000D02*
X66785000Y-178734000D01*
D67*
X67171001Y-180050500D02*
X67171001Y-181161001D01*
D66*
X67133000Y-179082000D02*
X67133000Y-180080500D01*
X66785000Y-178734000D02*
X67133000Y-179082000D01*
D67*
X63456001Y-182443999D02*
X63456001Y-183630001D01*
%TO.N,unconnected-(J1-SHIELD-Pad10)*%
X86738371Y-148157371D02*
X88255000Y-149674000D01*
X77731629Y-148157371D02*
X86738371Y-148157371D01*
X76215000Y-149674000D02*
X77731629Y-148157371D01*
%TO.N,Net-(U1B-R_USB3)*%
X77683363Y-165983363D02*
X78150000Y-166450000D01*
X81300000Y-166800000D02*
X81500000Y-166600000D01*
X82247573Y-166997573D02*
X82831685Y-166997573D01*
X80600000Y-166450000D02*
X80950000Y-166800000D01*
X80950000Y-166800000D02*
X81300000Y-166800000D01*
X81500000Y-166600000D02*
X81850000Y-166600000D01*
X78150000Y-166450000D02*
X80600000Y-166450000D01*
X81850000Y-166600000D02*
X82247573Y-166997573D01*
D65*
%TO.N,Net-(U1B-R_USB2)*%
X89846179Y-169599727D02*
X87922850Y-169599727D01*
X87470302Y-169147179D02*
X87130891Y-169147179D01*
D67*
X85660110Y-170391686D02*
X86904617Y-169147179D01*
X86904617Y-169147179D02*
X87130891Y-169147179D01*
D65*
X90281049Y-169164857D02*
X89846179Y-169599727D01*
X87922850Y-169599727D02*
X87470302Y-169147179D01*
D67*
X85094427Y-170391686D02*
X85660110Y-170391686D01*
%TO.N,Net-(J7-VTref)*%
X71440000Y-162900001D02*
X71440000Y-162350000D01*
X73100000Y-162900001D02*
X71440000Y-162900001D01*
%TO.N,Net-(J7-SWDIO{slash}TMS)*%
X71440000Y-168320068D02*
X71440000Y-166250000D01*
X71404848Y-168355220D02*
X71440000Y-168320068D01*
%TO.N,Net-(J7-SWDCLK{slash}TCK)*%
X70170000Y-166250000D02*
X70170000Y-166997576D01*
%TO.N,Net-(J7-SWO{slash}TDO)*%
X68915834Y-166997576D02*
X68900000Y-166981742D01*
X68900000Y-166981742D02*
X68900000Y-166250000D01*
%TO.N,/In_CH2*%
X88892000Y-171600000D02*
X86766000Y-173726000D01*
X96291001Y-173051001D02*
X94840000Y-171600000D01*
X86766000Y-173726000D02*
X85594805Y-173726000D01*
X85594805Y-173726000D02*
X83391862Y-171523057D01*
X96291001Y-174355500D02*
X96291001Y-173051001D01*
X83391862Y-171523057D02*
X82831686Y-171523057D01*
X94840000Y-171600000D02*
X88892000Y-171600000D01*
%TO.N,/In_CH5*%
X89000218Y-172000000D02*
X86674218Y-174326000D01*
X93039227Y-172000000D02*
X89000218Y-172000000D01*
X94341001Y-173301774D02*
X93039227Y-172000000D01*
X85082916Y-174326000D02*
X83397371Y-172640455D01*
X83397371Y-172640455D02*
X83397371Y-172088743D01*
X94341001Y-174355500D02*
X94341001Y-173301774D01*
X86674218Y-174326000D02*
X85082916Y-174326000D01*
%TO.N,/In_CH0*%
X97591001Y-174355500D02*
X97591001Y-174491939D01*
X97591001Y-174491939D02*
X97598748Y-174499686D01*
%TO.N,/In_CH15*%
X67133000Y-172667000D02*
X67133000Y-174355500D01*
X79500000Y-174900000D02*
X75700000Y-171100000D01*
X80013109Y-174900000D02*
X79500000Y-174900000D01*
X82258682Y-172654427D02*
X80013109Y-174900000D01*
X75700000Y-171100000D02*
X68700000Y-171100000D01*
X68700000Y-171100000D02*
X67133000Y-172667000D01*
X82831685Y-172654427D02*
X82258682Y-172654427D01*
%TO.N,/In_CH3*%
X95666000Y-174380499D02*
X95641001Y-174355500D01*
X95666000Y-175526000D02*
X95666000Y-174380499D01*
%TO.N,/In_CH7*%
X82831686Y-174353512D02*
X82831686Y-173785799D01*
X93041001Y-173201001D02*
X92666000Y-172826000D01*
X83965259Y-175487085D02*
X82831686Y-174353512D01*
X93041001Y-174355500D02*
X93041001Y-173201001D01*
X92666000Y-172826000D02*
X89166000Y-172826000D01*
X86504915Y-175487085D02*
X83965259Y-175487085D01*
X89166000Y-172826000D02*
X86504915Y-175487085D01*
%TO.N,/In_CH6*%
X93691001Y-174355500D02*
X93691001Y-173251001D01*
X89092000Y-172400000D02*
X86566000Y-174926000D01*
X86566000Y-174926000D02*
X84547199Y-174926000D01*
X93691001Y-173251001D02*
X92840000Y-172400000D01*
X84547199Y-174926000D02*
X83972683Y-174351484D01*
X92840000Y-172400000D02*
X89092000Y-172400000D01*
X83972683Y-174351484D02*
X83397371Y-174351484D01*
%TO.N,/In_CH14*%
X67800000Y-174372500D02*
X67783000Y-174355500D01*
X67800000Y-175400000D02*
X67800000Y-174372500D01*
%TO.N,/In_CH9*%
X71033000Y-175433000D02*
X71100000Y-175500000D01*
X71033000Y-174355500D02*
X71033000Y-175433000D01*
%TO.N,/In_CH8*%
X71800000Y-175500000D02*
X71683000Y-175383000D01*
X72100000Y-175500000D02*
X71800000Y-175500000D01*
X71683000Y-175383000D02*
X71683000Y-174355500D01*
%TO.N,/In_CH13*%
X81700315Y-174917170D02*
X81108119Y-174917170D01*
X68433000Y-172467000D02*
X68433000Y-174355500D01*
X69200000Y-171700000D02*
X68433000Y-172467000D01*
X75500000Y-171700000D02*
X69200000Y-171700000D01*
X80525289Y-175500000D02*
X79300000Y-175500000D01*
X81108119Y-174917170D02*
X80525289Y-175500000D01*
X79300000Y-175500000D02*
X75500000Y-171700000D01*
%TO.N,/In_CH12*%
X79100000Y-176100000D02*
X75300000Y-172300000D01*
X81085572Y-176100000D02*
X79100000Y-176100000D01*
X75300000Y-172300000D02*
X69700000Y-172300000D01*
X82266001Y-175482855D02*
X81702717Y-175482855D01*
X69700000Y-172300000D02*
X69083000Y-172917000D01*
X81702717Y-175482855D02*
X81085572Y-176100000D01*
X69083000Y-172917000D02*
X69083000Y-174355500D01*
%TO.N,/In_CH10*%
X82800000Y-177300000D02*
X78600000Y-177300000D01*
X82831685Y-176048540D02*
X83100000Y-176316855D01*
X83100000Y-177000000D02*
X82800000Y-177300000D01*
X71000000Y-176200000D02*
X70383000Y-175583000D01*
X78600000Y-177300000D02*
X77500000Y-176200000D01*
X83100000Y-176316855D02*
X83100000Y-177000000D01*
X77500000Y-176200000D02*
X71000000Y-176200000D01*
X70383000Y-175583000D02*
X70383000Y-174355500D01*
%TO.N,/In_CH11*%
X81048856Y-176700000D02*
X78900000Y-176700000D01*
X69733000Y-173367000D02*
X69733000Y-174355500D01*
X81700315Y-176048541D02*
X81048856Y-176700000D01*
X78900000Y-176700000D02*
X75100000Y-172900000D01*
X75100000Y-172900000D02*
X70200000Y-172900000D01*
X70200000Y-172900000D02*
X69733000Y-173367000D01*
%TO.N,Net-(J2-Pin_1)*%
X67016000Y-189507371D02*
X67016000Y-190707371D01*
X64004000Y-187897001D02*
X65405630Y-187897001D01*
X65405630Y-187897001D02*
X67016000Y-189507371D01*
%TO.N,Net-(J2-Pin_3)*%
X64476000Y-190707371D02*
X63204000Y-189435371D01*
X63204000Y-189435371D02*
X63204000Y-187897001D01*
%TO.N,Net-(J2-Pin_5)*%
X61936000Y-189387371D02*
X61936000Y-190707371D01*
X62404000Y-188919371D02*
X61936000Y-189387371D01*
X62404000Y-187897001D02*
X62404000Y-188919371D01*
%TO.N,Net-(J2-Pin_7)*%
X61604000Y-188499371D02*
X59396000Y-190707371D01*
X61604000Y-187897001D02*
X61604000Y-188499371D01*
%TO.N,Net-(J3-Pin_1)*%
X78855629Y-187897000D02*
X79716000Y-188757371D01*
X79716000Y-188757371D02*
X79716000Y-190707371D01*
X76957999Y-187897000D02*
X78855629Y-187897000D01*
%TO.N,Net-(J3-Pin_3)*%
X76157999Y-187897000D02*
X76157999Y-189689370D01*
X76157999Y-189689370D02*
X77176000Y-190707371D01*
%TO.N,Net-(J3-Pin_5)*%
X75357999Y-188765372D02*
X75357999Y-187897000D01*
X74636000Y-190707371D02*
X74636000Y-189487371D01*
X74636000Y-189487371D02*
X75357999Y-188765372D01*
%TO.N,Net-(J3-Pin_7)*%
X73076371Y-187897000D02*
X72096000Y-188877371D01*
X74557999Y-187897000D02*
X73076371Y-187897000D01*
X72096000Y-188877371D02*
X72096000Y-190707371D01*
%TO.N,Net-(J4-Pin_1)*%
X92416000Y-190707371D02*
X92416000Y-188607371D01*
X91705630Y-187897001D02*
X89912001Y-187897001D01*
X92416000Y-188607371D02*
X91705630Y-187897001D01*
%TO.N,Net-(J4-Pin_3)*%
X89112001Y-187897001D02*
X89112001Y-188853372D01*
X89112001Y-188853372D02*
X89876000Y-189617371D01*
X89876000Y-189617371D02*
X89876000Y-190707371D01*
%TO.N,Net-(J4-Pin_5)*%
X87336000Y-190707371D02*
X88312001Y-189731370D01*
X88312001Y-189731370D02*
X88312001Y-187897001D01*
%TO.N,Net-(J4-Pin_7)*%
X85626370Y-187897001D02*
X87512001Y-187897001D01*
X84796000Y-188727371D02*
X85626370Y-187897001D01*
X84796000Y-190707371D02*
X84796000Y-188727371D01*
%TO.N,Net-(J5-Pin_1)*%
X105116000Y-188657371D02*
X105116000Y-190707371D01*
X104355629Y-187897000D02*
X105116000Y-188657371D01*
X102866000Y-187897000D02*
X104355629Y-187897000D01*
%TO.N,Net-(J5-Pin_3)*%
X102066000Y-188857371D02*
X102576000Y-189367371D01*
X102066000Y-187897000D02*
X102066000Y-188857371D01*
X102576000Y-189367371D02*
X102576000Y-190707371D01*
%TO.N,Net-(J5-Pin_5)*%
X100036000Y-190707371D02*
X101266000Y-189477371D01*
X101266000Y-189477371D02*
X101266000Y-187897000D01*
%TO.N,Net-(J5-Pin_7)*%
X97496000Y-189127371D02*
X98726371Y-187897000D01*
X97496000Y-190707371D02*
X97496000Y-189127371D01*
X98726371Y-187897000D02*
X100466000Y-187897000D01*
%TO.N,Net-(J7-NC{slash}TDI)*%
X67671327Y-166205617D02*
X67671327Y-166208673D01*
X67671327Y-166208673D02*
X67630000Y-166250000D01*
%TO.N,Net-(J7-~{RESET})*%
X66360000Y-167948989D02*
X66360000Y-166250000D01*
X66426820Y-168015809D02*
X66360000Y-167948989D01*
D69*
%TO.N,Net-(U2-IN)*%
X96187485Y-150626629D02*
X97840014Y-152279158D01*
D64*
X95028500Y-150626629D02*
X93455000Y-150626629D01*
D69*
X95028500Y-150626629D02*
X96187485Y-150626629D01*
D64*
X93455000Y-150626629D02*
X93259500Y-150431129D01*
%TD*%
%TA.AperFunction,Conductor*%
%TO.N,+1V2*%
G36*
X61239432Y-161584313D02*
G01*
X61244192Y-161588674D01*
X61540255Y-161884737D01*
X61561647Y-161930613D01*
X61561929Y-161937063D01*
X61561929Y-165413660D01*
X62566644Y-166839326D01*
X62580156Y-166881878D01*
X62583823Y-170430747D01*
X62566559Y-170478331D01*
X62522748Y-170503685D01*
X62509823Y-170504823D01*
X58015545Y-170504823D01*
X57967979Y-170487510D01*
X57942669Y-170443673D01*
X57941545Y-170430823D01*
X57941545Y-165572869D01*
X57958858Y-165525303D01*
X57962614Y-165521155D01*
X59072915Y-164385140D01*
X59072914Y-161823926D01*
X59090228Y-161776360D01*
X59094589Y-161771600D01*
X59277515Y-161588674D01*
X59323391Y-161567282D01*
X59329841Y-161567000D01*
X61191866Y-161567000D01*
X61239432Y-161584313D01*
G37*
%TD.AperFunction*%
%TD*%
%TA.AperFunction,Conductor*%
%TO.N,GND*%
G36*
X96425039Y-151854531D02*
G01*
X96429799Y-151858892D01*
X97517821Y-152946914D01*
X97539213Y-152992790D01*
X97539495Y-152999240D01*
X97539495Y-153164210D01*
X97522182Y-153211776D01*
X97517821Y-153216536D01*
X96769210Y-153965147D01*
X96723334Y-153986539D01*
X96716884Y-153986821D01*
X96551914Y-153986821D01*
X96504348Y-153969508D01*
X96499588Y-153965147D01*
X95163618Y-152629177D01*
X94785070Y-152629177D01*
X94737504Y-152611864D01*
X94712194Y-152568027D01*
X94711070Y-152555177D01*
X94711070Y-151911218D01*
X94728383Y-151863652D01*
X94772220Y-151838342D01*
X94785070Y-151837218D01*
X96377473Y-151837218D01*
X96425039Y-151854531D01*
G37*
%TD.AperFunction*%
%TD*%
M02*
